  0
SECTION
  2
HEADER
  9
$ACADVER
  1
AC1009
  9
$INSBASE
 10
0
 20
0
 30
0
  9
$EXTMIN
 10
0
 20
0
  9
$EXTMAX
 10
74.25
 20
52.5
  9
$LIMMIN
 10
0
 20
0
  9
$LIMMAX
 10
74.25
 20
52.5
  9
$LTSCALE
 40
0.25
  0
ENDSEC
  0
SECTION
  2
TABLES
  0
TABLE
  2
LTYPE
 70
     9
  0
LTYPE
  2
CONTINUOUS
 70
    64
  3
実線
 72
    65
 73
     0
 40
0.0
  0
LTYPE
  2
DASHED1
 70
    64
  3
--  --  --  --  --  --  --  --  
 72
    65
 73
     2
 40
2.5
 49
1.25
 49
-1.25
  0
LTYPE
  2
DASHED2
 70
    64
  3
----    ----    ----    ----    
 72
    65
 73
     2
 40
5.0
 49
2.5
 49
-2.5
  0
LTYPE
  2
DASHED3
 70
    64
  3
------  ------  ------  ------  
 72
    65
 73
     2
 40
5.0
 49
3.75
 49
-1.25
  0
LTYPE
  2
CENTER1
 70
    64
  3
----- - ----- - ----- - ----- - 
 72
    65
 73
     4
 40
10.0
 49
6.25
 49
-1.25
 49
1.25
 49
-1.25
  0
LTYPE
  2
CENTER2
 70
    64
  3
----------  --  ----------  --  
 72
    65
 73
     4
 40
20.0
 49
12.5
 49
-2.5
 49
2.5
 49
-2.5
  0
LTYPE
  2
PHANTOM1
 70
    64
  3
--- - - --- - - --- - - --- - - 
 72
    65
 73
     6
 40
10.0
 49
3.25
 49
-1.25
 49
1.25
 49
-1.25
 49
1.25
 49
-1.25
  0
LTYPE
  2
PHANTOM2
 70
    64
  3
--------  -  -  --------  -  -  
 72
    65
 73
     6
 40
20.0
 49
10.0
 49
-2.5
 49
1.25
 49
-2.5
 49
1.25
 49
-2.5
  0
LTYPE
  2
DOT
 70
    64
  3
-   -   -   -   -   -   -   -   
 72
    65
 73
     2
 40
2.5
 49
0.625
 49
-1.875
  0
LTYPE
  2
DUMMY
 70
    64
  3
ダミー
 72
    65
 73
     0
 40
0.0
  0
LTYPE
  2
RAND1
 70
    64
  3
ランダム線1
 72
    65
 73
     4
 40
10.0
 49
1.0
 49
-2.0
 49
3.0
 49
-4.0
  0
LTYPE
  2
RAND2
 70
    64
  3
ランダム線2
 72
    65
 73
     4
 40
14.0
 49
2.0
 49
-3.0
 49
4.0
 49
-5.0
  0
LTYPE
  2
RAND3
 70
    64
  3
ランダム線3
 72
    65
 73
     4
 40
18.0
 49
3.0
 49
-4.0
 49
5.0
 49
-6.0
  0
LTYPE
  2
RAND4
 70
    64
  3
ランダム線4
 72
    65
 73
     4
 40
22.0
 49
4.0
 49
-5.0
 49
6.0
 49
-7.0
  0
LTYPE
  2
RAND5
 70
    64
  3
ランダム線5
 72
    65
 73
     4
 40
26.0
 49
5.0
 49
-6.0
 49
7.0
 49
-8.0
  0
LTYPE
  2
LONG1
 70
    64
  3
----------  --  ----------  --  
 72
    65
 73
     4
 40
40.0
 49
32.5
 49
-2.5
 49
2.5
 49
-2.5
  0
LTYPE
  2
LONG2
 70
    64
  3
--------  -  -  --------  -  -  
 72
    65
 73
     6
 40
40.0
 49
30.0
 49
-2.5
 49
1.25
 49
-2.5
 49
1.25
 49
-2.5
  0
LTYPE
  2
LONG3
 70
    64
  3
+++++++++++++++..+++++++++++++++
 72
    65
 73
     2
 40
40.0
 49
37.5
 49
-2.5
  0
LTYPE
  2
LONG4
 70
    64
  3
+++++++++++++++..+++++++++++++++
 72
    65
 73
     2
 40
80.0
 49
75.0
 49
-5.0
  0
LTYPE
  2
LONG5
 70
    64
  3
----------  --  ----------  --  
 72
    65
 73
     4
 40
60.0
 49
37.5
 49
-7.5
 49
7.5
 49
-7.5
  0
LTYPE
  2
dashed
 70
   64
  3
-------   -------------   ------
 72
   65
 73
    2
 40
7.5
 49
6
 49
-1.5
  0
LTYPE
  2
dashed_spaced
 70
   64
  3
----        --------        ----
 72
   65
 73
    2
 40
12
 49
6
 49
-6
  0
LTYPE
  2
long_dashed_dotted
 70
   64
  3
------------- --- --------------
 72
   65
 73
    4
 40
15.25
 49
12
 49
-1.5
 49
0.25
 49
-1.5
  0
LTYPE
  2
long_dashed_double-dotted
 70
   64
  3
----------- --- --- ------------
 72
   65
 73
    6
 40
17
 49
12
 49
-1.5
 49
0.25
 49
-1.5
 49
0.25
 49
-1.5
  0
LTYPE
  2
long_dashed_triplicate-dotted
 70
   64
  3
--------- --- --- --- ----------
 72
   65
 73
    8
 40
18.75
 49
12
 49
-1.5
 49
0.25
 49
-1.5
 49
0.25
 49
-1.5
 49
0.25
 49
-1.5
  0
LTYPE
  2
dotted
 70
   64
  3
   -       -       -       -    
 72
   65
 73
    2
 40
1.75
 49
0.25
 49
-1.5
  0
LTYPE
  2
chain
 70
   64
  3
-------------- -- --------------
 72
   65
 73
    4
 40
18.5
 49
12
 49
-1.5
 49
3.5
 49
-1.5
  0
LTYPE
  2
chain_double_dash
 70
   64
  3
------------ -- -- -------------
 72
   65
 73
    6
 40
23.5
 49
12
 49
-1.5
 49
3.5
 49
-1.5
 49
3.5
 49
-1.5
  0
LTYPE
  2
dashed_dotted
 70
   64
  3
-----------     -     ----------
 72
   65
 73
    4
 40
9.25
 49
6
 49
-1.5
 49
0.25
 49
-1.5
  0
LTYPE
  2
double-dashed_dotted
 70
   64
  3
------   -----------   -   -----
 72
   65
 73
    6
 40
16.75
 49
6
 49
-1.5
 49
6
 49
-1.5
 49
0.25
 49
-1.5
  0
LTYPE
  2
dashed_double-dotted
 70
   64
  3
---------    -    -    ---------
 72
   65
 73
    6
 40
11
 49
6
 49
-1.5
 49
0.25
 49
-1.5
 49
0.25
 49
-1.5
  0
LTYPE
  2
double-dashed_double-dotted
 70
   64
  3
-----   ---------   -   -   ----
 72
   65
 73
    8
 40
18.5
 49
6
 49
-1.5
 49
6
 49
-1.5
 49
0.25
 49
-1.5
 49
0.25
 49
-1.5
  0
LTYPE
  2
dashed_triplicate-dotted
 70
   64
  3
-------    -    -    -    ------
 72
   65
 73
    8
 40
12.75
 49
6
 49
-1.5
 49
0.25
 49
-1.5
 49
0.25
 49
-1.5
 49
0.25
 49
-1.5
  0
LTYPE
  2
double-dashed_triplicate-dotted
 70
   64
  3
-----  ---------  -  -  -  -----
 72
   65
 73
   10
 40
20.25
 49
6
 49
-1.5
 49
6
 49
-1.5
 49
0.25
 49
-1.5
 49
0.25
 49
-1.5
 49
0.25
 49
-1.5
  0
LTYPE
  2
undefined
 70
   64
  3
--------------------------------
 72
   65
 73
    0
 40
0
  0
LTYPE
  2
_
 70
   64
  3
                                
 72
   65
 73
    0
 40
0
  0
LTYPE
  2
__18
 70
   64
  3
                                
 72
   65
 73
    0
 40
0
  0
LTYPE
  2
__19
 70
   64
  3
                                
 72
   65
 73
    0
 40
0
  0
LTYPE
  2
__20
 70
   64
  3
                                
 72
   65
 73
    0
 40
0
  0
LTYPE
  2
__21
 70
   64
  3
                                
 72
   65
 73
    0
 40
0
  0
LTYPE
  2
__22
 70
   64
  3
                                
 72
   65
 73
    0
 40
0
  0
LTYPE
  2
__23
 70
   64
  3
                                
 72
   65
 73
    0
 40
0
  0
LTYPE
  2
__24
 70
   64
  3
                                
 72
   65
 73
    0
 40
0
  0
LTYPE
  2
__25
 70
   64
  3
                                
 72
   65
 73
    0
 40
0
  0
LTYPE
  2
__26
 70
   64
  3
                                
 72
   65
 73
    0
 40
0
  0
LTYPE
  2
__27
 70
   64
  3
                                
 72
   65
 73
    0
 40
0
  0
LTYPE
  2
__28
 70
   64
  3
                                
 72
   65
 73
    0
 40
0
  0
LTYPE
  2
__29
 70
   64
  3
                                
 72
   65
 73
    0
 40
0
  0
LTYPE
  2
__30
 70
   64
  3
                                
 72
   65
 73
    0
 40
0
  0
LTYPE
  2
__31
 70
   64
  3
                                
 72
   65
 73
    0
 40
0
  0
LTYPE
  2
__32
 70
   64
  3
                                
 72
   65
 73
    0
 40
0
  0
ENDTAB
  0
TABLE
  2
STYLE
  5
3
100
AcDbSymbolTable
 70
     1
  0
STYLE
  5
10
100
AcDbSymbolTableRecord
100
AcDbTextStyleTableRecord
  2
STANDARD
 70
     0
 40
0.0
 41
1.0
 50
0.0
 71
     0
 42
0.2
  3
txt
  4
bigfont.shx
  0
STYLE
  5
26
100
AcDbSymbolTableRecord
100
AcDbTextStyleTableRecord
  2
TATEGAKI
 70
    68
 40
0.0
 41
1.0
 50
0.0
 71
     0
 42
1.0
  3
txt
  4
bigfont.shx
  0
ENDTAB
  0
TABLE
  2
LAYER
 70
    2
  0
LAYER
  2
_0-0_
 70
   64
 62
    7
  6
CONTINUOUS
  0
LAYER
  2
ADD_LINE
 70
   64
 62
    7
  6
CONTINUOUS
  0
ENDTAB
  0
ENDSEC
  0
SECTION
  2
BLOCKS
  0
ENDSEC
  0
SECTION
  2
ENTITIES
  0
CIRCLE
  8
_0-0_
  6
CONTINUOUS
 62
    1
 10
38.890024094317332
 20
25.69907225637667
 40
3.1031145169750451
  0
LINE
  8
_0-0_
  6
CONTINUOUS
 62
    1
 10
37.102371938993151
 20
27.950325284812528
 11
37.201857104896944
 21
28.020927660615221
  0
LINE
  8
_0-0_
  6
CONTINUOUS
 62
    1
 10
37.201857104896944
 20
28.020927660615221
 11
37.307760668600984
 21
28.104366832018406
  0
LINE
  8
_0-0_
  6
CONTINUOUS
 62
    1
 10
37.307760668600984
 20
28.104366832018406
 11
37.416873431205146
 21
28.16534161112073
  0
LINE
  8
_0-0_
  6
CONTINUOUS
 62
    1
 10
37.416873431205146
 20
28.16534161112073
 11
37.519567796009063
 21
28.2327347880233
  0
LINE
  8
_0-0_
  6
CONTINUOUS
 62
    1
 10
37.519567796009063
 20
28.2327347880233
 11
37.651144950914087
 21
28.290500368225501
  0
LINE
  8
_0-0_
  6
CONTINUOUS
 62
    1
 10
37.651144950914087
 20
28.290500368225501
 11
37.766676111318489
 21
28.345056749527586
  0
LINE
  8
_0-0_
  6
CONTINUOUS
 62
    1
 10
37.766676111318489
 20
28.345056749527586
 11
37.888625669523136
 21
28.399613130829663
  0
LINE
  8
_0-0_
  6
CONTINUOUS
 62
    1
 10
37.888625669523136
 20
28.399613130829663
 11
38.033039620028645
 21
28.444541915431379
  0
LINE
  8
_0-0_
  6
CONTINUOUS
 62
    1
 10
38.033039620028645
 20
28.444541915431379
 11
38.196708763934893
 21
28.486261501132968
  0
LINE
  8
_0-0_
  6
CONTINUOUS
 62
    1
 10
38.196708763934893
 20
28.486261501132968
 11
38.334704316640156
 21
28.508725893433826
  0
LINE
  8
_0-0_
  6
CONTINUOUS
 62
    1
 10
38.334704316640156
 20
28.508725893433826
 11
38.45344467594468
 21
28.527981086834561
  0
LINE
  8
_0-0_
  6
CONTINUOUS
 62
    1
 10
38.45344467594468
 20
28.527981086834561
 11
38.601067825350313
 21
28.54081788243505
  0
LINE
  8
_0-0_
  6
CONTINUOUS
 62
    1
 10
38.601067825350313
 20
28.54081788243505
 11
38.780782963757161
 21
28.521562689034315
  0
LINE
  8
_0-0_
  6
CONTINUOUS
 62
    1
 10
38.780782963757161
 20
28.521562689034315
 11
38.903931229825218
 21
28.493833086244841
  0
LINE
  8
_0-0_
  6
CONTINUOUS
 62
    1
 10
38.903931229825218
 20
28.493833086244841
 11
38.995579274065121
 21
28.470921075184868
  0
LINE
  8
_0-0_
  6
CONTINUOUS
 62
    1
 10
38.995579274065121
 20
28.470921075184868
 11
39.079208114434031
 21
28.444572262465896
  0
LINE
  8
_0-0_
  6
CONTINUOUS
 62
    1
 10
39.079208114434031
 20
28.444572262465896
 11
39.160545753696943
 21
28.413641047534927
  0
LINE
  8
_0-0_
  6
CONTINUOUS
 62
    1
 10
39.160545753696943
 20
28.413641047534927
 11
39.217825781346881
 21
28.386146634262956
  0
LINE
  8
_0-0_
  6
CONTINUOUS
 62
    1
 10
39.217825781346881
 20
28.386146634262956
 11
39.286561814526812
 21
28.342613813249002
  0
LINE
  8
_0-0_
  6
CONTINUOUS
 62
    1
 10
39.286561814526812
 20
28.342613813249002
 11
39.338113839411754
 21
28.307100196106041
  0
LINE
  8
_0-0_
  6
CONTINUOUS
 62
    1
 10
39.338113839411754
 20
28.307100196106041
 11
39.3885202637437
 21
28.265858576198084
  0
LINE
  8
_0-0_
  6
CONTINUOUS
 62
    1
 10
39.3885202637437
 20
28.265858576198084
 11
39.454965095817627
 21
28.21659775241914
  0
LINE
  8
_0-0_
  6
CONTINUOUS
 62
    1
 10
39.454965095817627
 20
28.21659775241914
 11
39.498497916831581
 21
28.162754526428194
  0
LINE
  8
_0-0_
  6
CONTINUOUS
 62
    1
 10
39.498497916831581
 20
28.162754526428194
 11
39.540885137292534
 21
28.114639303202245
  0
LINE
  8
_0-0_
  6
CONTINUOUS
 62
    1
 10
39.540885137292534
 20
28.114639303202245
 11
39.578689955541499
 21
28.061941677764302
  0
LINE
  8
_0-0_
  6
CONTINUOUS
 62
    1
 10
39.578689955541499
 20
28.061941677764302
 11
39.619931575449456
 21
28.002370449008367
  0
LINE
  8
_0-0_
  6
CONTINUOUS
 62
    1
 10
39.619931575449456
 20
28.002370449008367
 11
39.647425988721423
 21
27.929052013616448
  0
LINE
  8
_0-0_
  6
CONTINUOUS
 62
    1
 10
39.647425988721423
 20
27.929052013616448
 11
39.681794005311388
 21
27.855733578224523
  0
LINE
  8
_0-0_
  6
CONTINUOUS
 62
    1
 10
39.681794005311388
 20
27.855733578224523
 11
39.709288418583355
 21
27.764085533984623
  0
LINE
  8
_0-0_
  6
CONTINUOUS
 62
    1
 10
39.709288418583355
 20
27.764085533984623
 11
39.729909228537337
 21
27.683893495274709
  0
LINE
  8
_0-0_
  6
CONTINUOUS
 62
    1
 10
39.729909228537337
 20
27.683893495274709
 11
39.755112440703307
 21
27.580789445504819
  0
LINE
  8
_0-0_
  6
CONTINUOUS
 62
    1
 10
39.755112440703307
 20
27.580789445504819
 11
39.766568446233293
 21
27.49372380347691
  0
LINE
  8
_0-0_
  6
CONTINUOUS
 62
    1
 10
39.766568446233293
 20
27.49372380347691
 11
39.768859647339297
 21
27.411240563660999
  0
LINE
  8
_0-0_
  6
CONTINUOUS
 62
    1
 10
39.768859647339297
 20
27.411240563660999
 11
39.757403641809304
 21
27.305845312785113
  0
LINE
  8
_0-0_
  6
CONTINUOUS
 62
    1
 10
39.757403641809304
 20
27.305845312785113
 11
39.746835950656112
 21
27.204609973137138
  0
LINE
  8
_0-0_
  6
CONTINUOUS
 62
    1
 10
39.746835950656112
 20
27.204609973137138
 11
39.729795480964696
 21
27.118096819319184
  0
LINE
  8
_0-0_
  6
CONTINUOUS
 62
    1
 10
39.729795480964696
 20
27.118096819319184
 11
39.706200984468893
 21
27.030272860140357
  0
LINE
  8
_0-0_
  6
CONTINUOUS
 62
    1
 10
39.706200984468893
 20
27.030272860140357
 11
39.683917293333969
 21
26.958178565292065
  0
LINE
  8
_0-0_
  6
CONTINUOUS
 62
    1
 10
39.683917293333969
 20
26.958178565292065
 11
39.657701186116405
 21
26.897881518691676
  0
LINE
  8
_0-0_
  6
CONTINUOUS
 62
    1
 10
39.657701186116405
 20
26.897881518691676
 11
39.622309441372699
 21
26.827098029204265
  0
LINE
  8
_0-0_
  6
CONTINUOUS
 62
    1
 10
39.622309441372699
 20
26.827098029204265
 11
39.580363669824606
 21
26.751071318273339
  0
LINE
  8
_0-0_
  6
CONTINUOUS
 62
    1
 10
39.580363669824606
 20
26.751071318273339
 11
39.533174676832992
 21
26.678977023425048
  0
LINE
  8
_0-0_
  6
CONTINUOUS
 62
    1
 10
39.533174676832992
 20
26.678977023425048
 11
39.488607294563138
 21
26.623923198268169
  0
LINE
  8
_0-0_
  6
CONTINUOUS
 62
    1
 10
39.488607294563138
 20
26.623923198268169
 11
39.437485885488896
 21
26.57018017847217
  0
LINE
  8
_0-0_
  6
CONTINUOUS
 62
    1
 10
39.437485885488896
 20
26.57018017847217
 11
39.379810449610261
 21
26.515126353315292
  0
LINE
  8
_0-0_
  6
CONTINUOUS
 62
    1
 10
39.379810449610261
 20
26.515126353315292
 11
39.338008168589837
 21
26.481493337066137
  0
LINE
  8
_0-0_
  6
CONTINUOUS
 62
    1
 10
39.338008168589837
 20
26.481493337066137
 11
39.286619169072103
 21
26.446010456446749
  0
LINE
  8
_0-0_
  6
CONTINUOUS
 62
    1
 10
39.286619169072103
 20
26.446010456446749
 11
39.245018550414883
 21
26.416645313865181
  0
LINE
  8
_0-0_
  6
CONTINUOUS
 62
    1
 10
39.245018550414883
 20
26.416645313865181
 11
39.199747288934972
 21
26.379938885638232
  0
LINE
  8
_0-0_
  6
CONTINUOUS
 62
    1
 10
39.199747288934972
 20
26.379938885638232
 11
39.130005075303763
 21
26.338338266981015
  0
LINE
  8
_0-0_
  6
CONTINUOUS
 62
    1
 10
39.130005075303763
 20
26.338338266981015
 11
39.054145123634725
 21
26.30407893396919
  0
LINE
  8
_0-0_
  6
CONTINUOUS
 62
    1
 10
39.054145123634725
 20
26.30407893396919
 11
38.980732267180812
 21
26.278384434210323
  0
LINE
  8
_0-0_
  6
CONTINUOUS
 62
    1
 10
38.980732267180812
 20
26.278384434210323
 11
38.904872315511781
 21
26.255137029666585
  0
LINE
  8
_0-0_
  6
CONTINUOUS
 62
    1
 10
38.904872315511781
 20
26.255137029666585
 11
38.86327169685456
 21
26.241678005983366
  0
LINE
  8
_0-0_
  6
CONTINUOUS
 62
    1
 10
38.86327169685456
 20
26.241678005983366
 11
38.799647221261174
 21
26.226995434692586
  0
LINE
  8
_0-0_
  6
CONTINUOUS
 62
    1
 10
38.799647221261174
 20
26.226995434692586
 11
38.733575650452657
 21
26.2159835062245
  0
LINE
  8
_0-0_
  6
CONTINUOUS
 62
    1
 10
38.733575650452657
 20
26.2159835062245
 11
38.652821508353355
 21
26.208642220579108
  0
LINE
  8
_0-0_
  6
CONTINUOUS
 62
    1
 10
38.652821508353355
 20
26.208642220579108
 11
38.569620271038928
 21
26.198853839718587
  0
LINE
  8
_0-0_
  6
CONTINUOUS
 62
    1
 10
38.569620271038928
 20
26.198853839718587
 11
38.479077748079106
 21
26.185394816035369
  0
LINE
  8
_0-0_
  6
CONTINUOUS
 62
    1
 10
38.479077748079106
 20
26.185394816035369
 11
38.38975877272685
 21
26.169488697137026
  0
LINE
  8
_0-0_
  6
CONTINUOUS
 62
    1
 10
38.38975877272685
 20
26.169488697137026
 11
38.301663344982159
 21
26.141347102163024
  0
LINE
  8
_0-0_
  6
CONTINUOUS
 62
    1
 10
38.301663344982159
 20
26.141347102163024
 11
38.227026940920687
 21
26.115652602404161
  0
LINE
  8
_0-0_
  6
CONTINUOUS
 62
    1
 10
38.227026940920687
 20
26.115652602404161
 11
38.169520203365124
 21
26.082616816999902
  0
LINE
  8
_0-0_
  6
CONTINUOUS
 62
    1
 10
38.169520203365124
 20
26.082616816999902
 11
38.10222508494904
 21
26.052028126810771
  0
LINE
  8
_0-0_
  6
CONTINUOUS
 62
    1
 10
38.10222508494904
 20
26.052028126810771
 11
38.032482871317824
 21
26.009203960545988
  0
LINE
  8
_0-0_
  6
CONTINUOUS
 62
    1
 10
38.032482871317824
 20
26.009203960545988
 11
37.98076701392857
 21
25.984539207709801
  0
LINE
  8
_0-0_
  6
CONTINUOUS
 62
    1
 10
37.98076701392857
 20
25.984539207709801
 11
37.935967237696964
 21
25.945339403507148
  0
LINE
  8
_0-0_
  6
CONTINUOUS
 62
    1
 10
37.935967237696964
 20
25.945339403507148
 11
37.884167496429171
 21
25.907539592311731
  0
LINE
  8
_0-0_
  6
CONTINUOUS
 62
    1
 10
37.884167496429171
 20
25.907539592311731
 11
37.837967727190331
 21
25.866939795101838
  0
LINE
  8
_0-0_
  6
CONTINUOUS
 62
    1
 10
37.837967727190331
 20
25.866939795101838
 11
37.801567909002145
 21
25.833339962928135
  0
LINE
  8
_0-0_
  6
CONTINUOUS
 62
    1
 10
37.801567909002145
 20
25.833339962928135
 11
37.745568188712638
 21
25.775940249631389
  0
LINE
  8
_0-0_
  6
CONTINUOUS
 62
    1
 10
37.745568188712638
 20
25.775940249631389
 11
37.704968391502745
 21
25.726940494378073
  0
LINE
  8
_0-0_
  6
CONTINUOUS
 62
    1
 10
37.704968391502745
 20
25.726940494378073
 11
37.651768657227719
 21
25.66954078108133
  0
LINE
  8
_0-0_
  6
CONTINUOUS
 62
    1
 10
37.651768657227719
 20
25.66954078108133
 11
37.61536883903954
 21
25.616341046806297
  0
LINE
  8
_0-0_
  6
CONTINUOUS
 62
    1
 10
37.61536883903954
 20
25.616341046806297
 11
37.5803690138586
 21
25.560341326516791
  0
LINE
  8
_0-0_
  6
CONTINUOUS
 62
    1
 10
37.5803690138586
 20
25.560341326516791
 11
37.54256920266318
 21
25.498741634198335
  0
LINE
  8
_0-0_
  6
CONTINUOUS
 62
    1
 10
37.54256920266318
 20
25.498741634198335
 11
37.51876932154014
 21
25.453941857966729
  0
LINE
  8
_0-0_
  6
CONTINUOUS
 62
    1
 10
37.51876932154014
 20
25.453941857966729
 11
37.487969475380914
 21
25.392342165648273
  0
LINE
  8
_0-0_
  6
CONTINUOUS
 62
    1
 10
37.487969475380914
 20
25.392342165648273
 11
37.457169629221681
 21
25.323742508293626
  0
LINE
  8
_0-0_
  6
CONTINUOUS
 62
    1
 10
37.457169629221681
 20
25.323742508293626
 11
37.430569762084168
 21
25.257942836953457
  0
LINE
  8
_0-0_
  6
CONTINUOUS
 62
    1
 10
37.430569762084168
 20
25.257942836953457
 11
37.409364667054923
 21
25.176630713544909
  0
LINE
  8
_0-0_
  6
CONTINUOUS
 62
    1
 10
37.409364667054923
 20
25.176630713544909
 11
37.38939077154977
 21
25.104959676732306
  0
LINE
  8
_0-0_
  6
CONTINUOUS
 62
    1
 10
37.38939077154977
 20
25.104959676732306
 11
37.379991291312052
 21
25.03446357494942
  0
LINE
  8
_0-0_
  6
CONTINUOUS
 62
    1
 10
37.379991291312052
 20
25.03446357494942
 11
37.3682419410149
 21
24.947518382750523
  0
LINE
  8
_0-0_
  6
CONTINUOUS
 62
    1
 10
37.3682419410149
 20
24.947518382750523
 11
37.362367265866325
 21
24.847648905224762
  0
LINE
  8
_0-0_
  6
CONTINUOUS
 62
    1
 10
37.362367265866325
 20
24.847648905224762
 11
37.370591811074334
 21
24.737205012431569
  0
LINE
  8
_0-0_
  6
CONTINUOUS
 62
    1
 10
37.370591811074334
 20
24.737205012431569
 11
37.382341161371478
 21
24.647909950173243
  0
LINE
  8
_0-0_
  6
CONTINUOUS
 62
    1
 10
37.382341161371478
 20
24.647909950173243
 11
37.398790251787488
 21
24.566839433122922
  0
LINE
  8
_0-0_
  6
CONTINUOUS
 62
    1
 10
37.398790251787488
 20
24.566839433122922
 11
37.419939082322358
 21
24.474019565775449
  0
LINE
  8
_0-0_
  6
CONTINUOUS
 62
    1
 10
37.419939082322358
 20
24.474019565775449
 11
37.43805196962441
 21
24.418297647025781
  0
LINE
  8
_0-0_
  6
CONTINUOUS
 62
    1
 10
37.43805196962441
 20
24.418297647025781
 11
37.455003810017672
 21
24.365447791682086
  0
LINE
  8
_0-0_
  6
CONTINUOUS
 62
    1
 10
37.455003810017672
 20
24.365447791682086
 11
37.474947151656806
 21
24.312597936338388
  0
LINE
  8
_0-0_
  6
CONTINUOUS
 62
    1
 10
37.474947151656806
 20
24.312597936338388
 11
37.432068967132671
 21
24.289663093453388
  0
LINE
  8
_0-0_
  6
CONTINUOUS
 62
    1
 10
37.432068967132671
 20
24.289663093453388
 11
37.398165286346149
 21
24.275702754305996
  0
LINE
  8
_0-0_
  6
CONTINUOUS
 62
    1
 10
37.398165286346149
 20
24.275702754305996
 11
37.347309765166365
 21
24.240801906437518
  0
LINE
  8
_0-0_
  6
CONTINUOUS
 62
    1
 10
37.347309765166365
 20
24.240801906437518
 11
37.297451411068536
 21
24.215872729388603
  0
LINE
  8
_0-0_
  6
CONTINUOUS
 62
    1
 10
37.297451411068536
 20
24.215872729388603
 11
37.24260722156093
 21
24.178977547356211
  0
LINE
  8
_0-0_
  6
CONTINUOUS
 62
    1
 10
37.24260722156093
 20
24.178977547356211
 11
37.189757366217229
 21
24.149062534897517
  0
LINE
  8
_0-0_
  6
CONTINUOUS
 62
    1
 10
37.189757366217229
 20
24.149062534897517
 11
37.145882014611146
 21
24.117153188274905
  0
LINE
  8
_0-0_
  6
CONTINUOUS
 62
    1
 10
37.145882014611146
 20
24.117153188274905
 11
37.104000997168967
 21
24.084246674570337
  0
LINE
  8
_0-0_
  6
CONTINUOUS
 62
    1
 10
37.104000997168967
 20
24.084246674570337
 11
37.058131311398966
 21
24.048348659619904
  0
LINE
  8
_0-0_
  6
CONTINUOUS
 62
    1
 10
37.058131311398966
 20
24.048348659619904
 11
37.005281456055271
 21
24.005470475095769
  0
LINE
  8
_0-0_
  6
CONTINUOUS
 62
    1
 10
37.005281456055271
 20
24.005470475095769
 11
36.960408937367226
 21
23.965583791817508
  0
LINE
  8
_0-0_
  6
CONTINUOUS
 62
    1
 10
36.960408937367226
 20
23.965583791817508
 11
36.916533585761136
 21
23.925697108539246
  0
LINE
  8
_0-0_
  6
CONTINUOUS
 62
    1
 10
36.916533585761136
 20
23.925697108539246
 11
36.881703458962299
 21
23.890753828028984
  0
LINE
  8
_0-0_
  6
CONTINUOUS
 62
    1
 10
36.881703458962299
 20
23.890753828028984
 11
36.85291998361788
 21
23.862748284450628
  0
LINE
  8
_0-0_
  6
CONTINUOUS
 62
    1
 10
36.85291998361788
 20
23.862748284450628
 11
36.824136508273461
 21
23.830853082041947
  0
LINE
  8
_0-0_
  6
CONTINUOUS
 62
    1
 10
36.824136508273461
 20
23.830853082041947
 11
36.8007985552915
 21
23.803625470229658
  0
LINE
  8
_0-0_
  6
CONTINUOUS
 62
    1
 10
36.8007985552915
 20
23.803625470229658
 11
36.77979439760773
 21
23.784177176078024
  0
LINE
  8
_0-0_
  6
CONTINUOUS
 62
    1
 10
36.77979439760773
 20
23.784177176078024
 11
36.733118491643807
 21
23.830853082041947
  0
LINE
  8
_0-0_
  6
CONTINUOUS
 62
    1
 10
36.733118491643807
 20
23.830853082041947
 11
36.686442585679884
 21
23.886086237432589
  0
LINE
  8
_0-0_
  6
CONTINUOUS
 62
    1
 10
36.686442585679884
 20
23.886086237432589
 11
36.645990133844485
 21
23.935873870460774
  0
LINE
  8
_0-0_
  6
CONTINUOUS
 62
    1
 10
36.645990133844485
 20
23.935873870460774
 11
36.60942734083941
 21
23.982549776424697
  0
LINE
  8
_0-0_
  6
CONTINUOUS
 62
    1
 10
36.60942734083941
 20
23.982549776424697
 11
36.56897488900401
 21
24.03622706828321
  0
LINE
  8
_0-0_
  6
CONTINUOUS
 62
    1
 10
36.56897488900401
 20
24.03622706828321
 11
36.539413481893525
 21
24.075901588352547
  0
LINE
  8
_0-0_
  6
CONTINUOUS
 62
    1
 10
36.539413481893525
 20
24.075901588352547
 11
36.513741733613372
 21
24.118687835486142
  0
LINE
  8
_0-0_
  6
CONTINUOUS
 62
    1
 10
36.513741733613372
 20
24.118687835486142
 11
36.491181712397477
 21
24.15447269672515
  0
LINE
  8
_0-0_
  6
CONTINUOUS
 62
    1
 10
36.491181712397477
 20
24.15447269672515
 11
36.467843759415515
 21
24.186367899133834
  0
LINE
  8
_0-0_
  6
CONTINUOUS
 62
    1
 10
36.467843759415515
 20
24.186367899133834
 11
36.447617533497812
 21
24.219818965074644
  0
LINE
  8
_0-0_
  6
CONTINUOUS
 62
    1
 10
36.447617533497812
 20
24.219818965074644
 11
36.426613375814042
 21
24.259493485143977
  0
LINE
  8
_0-0_
  6
CONTINUOUS
 62
    1
 10
36.426613375814042
 20
24.259493485143977
 11
36.402497491066014
 21
24.300723868745443
  0
LINE
  8
_0-0_
  6
CONTINUOUS
 62
    1
 10
36.402497491066014
 20
24.300723868745443
 11
36.374284131200276
 21
24.341422757594209
  0
LINE
  8
_0-0_
  6
CONTINUOUS
 62
    1
 10
36.374284131200276
 20
24.341422757594209
 11
36.347793991345888
 21
24.386761650806526
  0
LINE
  8
_0-0_
  6
CONTINUOUS
 62
    1
 10
36.347793991345888
 20
24.386761650806526
 11
36.323341554557224
 21
24.437704227449579
  0
LINE
  8
_0-0_
  6
CONTINUOUS
 62
    1
 10
36.323341554557224
 20
24.437704227449579
 11
36.295832563169973
 21
24.494250487523366
  0
LINE
  8
_0-0_
  6
CONTINUOUS
 62
    1
 10
36.295832563169973
 20
24.494250487523366
 11
36.270870700614878
 21
24.552325024896447
  0
LINE
  8
_0-0_
  6
CONTINUOUS
 62
    1
 10
36.270870700614878
 20
24.552325024896447
 11
36.253550224556235
 21
24.59409793774375
  0
LINE
  8
_0-0_
  6
CONTINUOUS
 62
    1
 10
36.253550224556235
 20
24.59409793774375
 11
36.23673917426403
 21
24.644021662853944
  0
LINE
  8
_0-0_
  6
CONTINUOUS
 62
    1
 10
36.23673917426403
 20
24.644021662853944
 11
36.216871569373239
 21
24.693945387964134
  0
LINE
  8
_0-0_
  6
CONTINUOUS
 62
    1
 10
36.216871569373239
 20
24.693945387964134
 11
36.185796597620978
 21
24.769849827162282
  0
LINE
  8
_0-0_
  6
CONTINUOUS
 62
    1
 10
36.185796597620978
 20
24.769849827162282
 11
36.163381863898038
 21
24.856452207455475
  0
LINE
  8
_0-0_
  6
CONTINUOUS
 62
    1
 10
36.163381863898038
 20
24.856452207455475
 11
36.132816317912201
 21
24.931847220887192
  0
LINE
  8
_0-0_
  6
CONTINUOUS
 62
    1
 10
36.132816317912201
 20
24.931847220887192
 11
36.113458138787848
 21
25.00622338278605
  0
LINE
  8
_0-0_
  6
CONTINUOUS
 62
    1
 10
36.113458138787848
 20
25.00622338278605
 11
36.088309607216679
 21
25.115469316886397
  0
LINE
  8
_0-0_
  6
CONTINUOUS
 62
    1
 10
36.088309607216679
 20
25.115469316886397
 11
36.068606993649765
 21
25.220878299469369
  0
LINE
  8
_0-0_
  6
CONTINUOUS
 62
    1
 10
36.068606993649765
 20
25.220878299469369
 11
36.052844902796238
 21
25.312495452555509
  0
LINE
  8
_0-0_
  6
CONTINUOUS
 62
    1
 10
36.052844902796238
 20
25.312495452555509
 11
36.039053073299399
 21
25.418889565816826
  0
LINE
  8
_0-0_
  6
CONTINUOUS
 62
    1
 10
36.039053073299399
 20
25.418889565816826
 11
36.03080173052546
 21
25.582092881529412
  0
LINE
  8
_0-0_
  6
CONTINUOUS
 62
    1
 10
36.03080173052546
 20
25.582092881529412
 11
36.03257636309496
 21
25.796823422439146
  0
LINE
  8
_0-0_
  6
CONTINUOUS
 62
    1
 10
36.03257636309496
 20
25.796823422439146
 11
36.040562209657721
 21
25.951216455985814
  0
LINE
  8
_0-0_
  6
CONTINUOUS
 62
    1
 10
36.040562209657721
 20
25.951216455985814
 11
36.062310898169059
 21
26.142778182793716
  0
LINE
  8
_0-0_
  6
CONTINUOUS
 62
    1
 10
36.062310898169059
 20
26.142778182793716
 11
36.097816135605697
 21
26.32030436997687
  0
LINE
  8
_0-0_
  6
CONTINUOUS
 62
    1
 10
36.097816135605697
 20
26.32030436997687
 11
36.133321373042321
 21
26.465706770907836
  0
LINE
  8
_0-0_
  6
CONTINUOUS
 62
    1
 10
36.133321373042321
 20
26.465706770907836
 11
36.175589512847835
 21
26.599274092693256
  0
LINE
  8
_0-0_
  6
CONTINUOUS
 62
    1
 10
36.175589512847835
 20
26.599274092693256
 11
36.231383457391117
 21
26.756511572769763
  0
LINE
  8
_0-0_
  6
CONTINUOUS
 62
    1
 10
36.231383457391117
 20
26.756511572769763
 11
36.286282076798087
 21
26.876049469428249
  0
LINE
  8
_0-0_
  6
CONTINUOUS
 62
    1
 10
36.286282076798087
 20
26.876049469428249
 11
36.333822242741042
 21
26.98489142829765
  0
LINE
  8
_0-0_
  6
CONTINUOUS
 62
    1
 10
36.333822242741042
 20
26.98489142829765
 11
36.378860294687001
 21
27.076218589188066
  0
LINE
  8
_0-0_
  6
CONTINUOUS
 62
    1
 10
36.378860294687001
 20
27.076218589188066
 11
36.430153631625458
 21
27.166294693079986
  0
LINE
  8
_0-0_
  6
CONTINUOUS
 62
    1
 10
36.430153631625458
 20
27.166294693079986
 11
36.492706481550399
 21
27.265128195961398
  0
LINE
  8
_0-0_
  6
CONTINUOUS
 62
    1
 10
36.492706481550399
 20
27.265128195961398
 11
36.566208298398379
 21
27.382816281266993
  0
LINE
  8
_0-0_
  6
CONTINUOUS
 62
    1
 10
36.566208298398379
 20
27.382816281266993
 11
36.644874052644411
 21
27.48770395359504
  0
LINE
  8
_0-0_
  6
CONTINUOUS
 62
    1
 10
36.644874052644411
 20
27.48770395359504
 11
36.753795866215845
 21
27.620830614626793
  0
LINE
  8
_0-0_
  6
CONTINUOUS
 62
    1
 10
36.753795866215845
 20
27.620830614626793
 11
36.830444549840187
 21
27.713615863224681
  0
LINE
  8
_0-0_
  6
CONTINUOUS
 62
    1
 10
36.830444549840187
 20
27.713615863224681
 11
36.933315151546537
 21
27.814469394309341
  0
LINE
  8
_0-0_
  6
CONTINUOUS
 62
    1
 10
36.933315151546537
 20
27.814469394309341
 11
37.056356459469824
 21
27.91330585477231
  0
LINE
  8
_0-0_
  6
CONTINUOUS
 62
    1
 10
37.056356459469824
 20
27.91330585477231
 11
37.060931508449868
 21
27.918964958995985
  0
LINE
  8
_0-0_
  6
CONTINUOUS
 62
    1
 10
37.060931508449868
 20
27.918964958995985
 11
37.102371938993151
 21
27.950325284812528
  0
LINE
  8
_0-0_
  6
CONTINUOUS
 62
    7
 10
38.598053185828987
 20
28.247450551946851
 11
38.786059396748456
 21
28.247450551946851
  0
LINE
  8
_0-0_
  6
CONTINUOUS
 62
    7
 10
38.786059396748456
 20
28.247450551946851
 11
38.850686531752018
 21
28.229824969673153
  0
LINE
  8
_0-0_
  6
CONTINUOUS
 62
    7
 10
38.850686531752018
 20
28.229824969673153
 11
38.894750487436269
 21
28.209261790353835
  0
LINE
  8
_0-0_
  6
CONTINUOUS
 62
    7
 10
38.894750487436269
 20
28.209261790353835
 11
38.944689637211752
 21
28.187229812511709
  0
LINE
  8
_0-0_
  6
CONTINUOUS
 62
    7
 10
38.944689637211752
 20
28.187229812511709
 11
38.996097585510042
 21
28.146103453873074
  0
LINE
  8
_0-0_
  6
CONTINUOUS
 62
    7
 10
38.996097585510042
 20
28.146103453873074
 11
39.03575514562587
 21
28.096164304097591
  0
LINE
  8
_0-0_
  6
CONTINUOUS
 62
    7
 10
39.03575514562587
 20
28.096164304097591
 11
39.069537511650466
 21
28.050631549890532
  0
LINE
  8
_0-0_
  6
CONTINUOUS
 62
    7
 10
39.069537511650466
 20
28.050631549890532
 11
39.095975885061015
 21
28.002161198637857
  0
LINE
  8
_0-0_
  6
CONTINUOUS
 62
    7
 10
39.095975885061015
 20
28.002161198637857
 11
39.119476661425949
 21
27.944878056248331
  0
LINE
  8
_0-0_
  6
CONTINUOUS
 62
    7
 10
39.119476661425949
 20
27.944878056248331
 11
39.13269584813122
 21
27.897876503518467
  0
LINE
  8
_0-0_
  6
CONTINUOUS
 62
    7
 10
39.13269584813122
 20
27.897876503518467
 11
39.15179022892773
 21
27.824436577378047
  0
LINE
  8
_0-0_
  6
CONTINUOUS
 62
    7
 10
39.15179022892773
 20
27.824436577378047
 11
39.166478214155816
 21
27.733371068963933
  0
LINE
  8
_0-0_
  6
CONTINUOUS
 62
    7
 10
39.166478214155816
 20
27.733371068963933
 11
39.172322157214651
 21
27.692741254506767
  0
LINE
  8
_0-0_
  6
CONTINUOUS
 62
    7
 10
39.172322157214651
 20
27.692741254506767
 11
39.168408833490758
 21
27.236559517550574
  0
LINE
  8
_0-0_
  6
CONTINUOUS
 62
    7
 10
39.168408833490758
 20
27.236559517550574
 11
39.160582186042979
 21
27.14934830313248
  0
LINE
  8
_0-0_
  6
CONTINUOUS
 62
    7
 10
39.160582186042979
 20
27.14934830313248
 11
39.149401261117589
 21
27.083380846072639
  0
LINE
  8
_0-0_
  6
CONTINUOUS
 62
    7
 10
39.149401261117589
 20
27.083380846072639
 11
39.134062512336953
 21
27.02862338962949
  0
LINE
  8
_0-0_
  6
CONTINUOUS
 62
    7
 10
39.134062512336953
 20
27.02862338962949
 11
39.117404784469371
 21
26.977201707951316
  0
LINE
  8
_0-0_
  6
CONTINUOUS
 62
    7
 10
39.117404784469371
 20
26.977201707951316
 11
39.10147130563952
 21
26.936643761838954
  0
LINE
  8
_0-0_
  6
CONTINUOUS
 62
    7
 10
39.10147130563952
 20
26.936643761838954
 11
39.088434822960543
 21
26.907673800330126
  0
LINE
  8
_0-0_
  6
CONTINUOUS
 62
    7
 10
39.088434822960543
 20
26.907673800330126
 11
39.071777095092969
 21
26.876531091708134
  0
LINE
  8
_0-0_
  6
CONTINUOUS
 62
    7
 10
39.071777095092969
 20
26.876531091708134
 11
39.053670869149947
 21
26.85190662442563
  0
LINE
  8
_0-0_
  6
CONTINUOUS
 62
    7
 10
39.053670869149947
 20
26.85190662442563
 11
39.026149405716559
 21
26.828006406180843
  0
LINE
  8
_0-0_
  6
CONTINUOUS
 62
    7
 10
39.026149405716559
 20
26.828006406180843
 11
38.998627942283171
 21
26.796139448521131
  0
LINE
  8
_0-0_
  6
CONTINUOUS
 62
    7
 10
38.998627942283171
 20
26.796139448521131
 11
38.968933731736626
 21
26.770790732200907
  0
LINE
  8
_0-0_
  6
CONTINUOUS
 62
    7
 10
38.968933731736626
 20
26.770790732200907
 11
38.937791023114627
 21
26.743993517805236
  0
LINE
  8
_0-0_
  6
CONTINUOUS
 62
    7
 10
38.937791023114627
 20
26.743993517805236
 11
38.905924065454918
 21
26.728060038975382
  0
LINE
  8
_0-0_
  6
CONTINUOUS
 62
    7
 10
38.905924065454918
 20
26.728060038975382
 11
38.869711613568881
 21
26.711402311107804
  0
LINE
  8
_0-0_
  6
CONTINUOUS
 62
    7
 10
38.869711613568881
 20
26.711402311107804
 11
38.82987791649424
 21
26.698365828428833
  0
LINE
  8
_0-0_
  6
CONTINUOUS
 62
    7
 10
38.82987791649424
 20
26.698365828428833
 11
38.796562460759091
 21
26.68822634190074
  0
LINE
  8
_0-0_
  6
CONTINUOUS
 62
    7
 10
38.796562460759091
 20
26.68822634190074
 11
38.563354270613004
 21
26.68605359478758
  0
LINE
  8
_0-0_
  6
CONTINUOUS
 62
    7
 10
38.563354270613004
 20
26.68605359478758
 11
38.503965849519907
 21
26.710678062070083
  0
LINE
  8
_0-0_
  6
CONTINUOUS
 62
    7
 10
38.503965849519907
 20
26.710678062070083
 11
38.455441163992617
 21
26.736026778390311
  0
LINE
  8
_0-0_
  6
CONTINUOUS
 62
    7
 10
38.455441163992617
 20
26.736026778390311
 11
38.42212570825746
 21
26.75630575144649
  0
LINE
  8
_0-0_
  6
CONTINUOUS
 62
    7
 10
38.42212570825746
 20
26.75630575144649
 11
38.379056004844073
 21
26.792980489952348
  0
LINE
  8
_0-0_
  6
CONTINUOUS
 62
    7
 10
38.379056004844073
 20
26.792980489952348
 11
38.347497238264239
 21
26.831935842449329
  0
LINE
  8
_0-0_
  6
CONTINUOUS
 62
    7
 10
38.347497238264239
 20
26.831935842449329
 11
38.313472943045354
 21
26.867439454851641
  0
LINE
  8
_0-0_
  6
CONTINUOUS
 62
    7
 10
38.313472943045354
 20
26.867439454851641
 11
38.289803868110482
 21
26.906887913076431
  0
LINE
  8
_0-0_
  6
CONTINUOUS
 62
    7
 10
38.289803868110482
 20
26.906887913076428
 11
38.264655475992185
 21
26.949788111395889
  0
LINE
  8
_0-0_
  6
CONTINUOUS
 62
    7
 10
38.264655475992185
 20
26.949788111395889
 11
38.240000189601687
 21
27.007481481549643
  0
LINE
  8
_0-0_
  6
CONTINUOUS
 62
    7
 10
38.240000189601687
 20
27.007481481549643
 11
38.222248383400533
 21
27.068133486070255
  0
LINE
  8
_0-0_
  6
CONTINUOUS
 62
    7
 10
38.222248383400533
 20
27.068133486070255
 11
38.212434063962163
 21
27.124564365672668
  0
LINE
  8
_0-0_
  6
CONTINUOUS
 62
    7
 10
38.212434063962163
 20
27.124564365672668
 11
38.199790506695435
 21
27.171650716872893
  0
LINE
  8
_0-0_
  6
CONTINUOUS
 62
    7
 10
38.199790506695435
 20
27.171650716872893
 11
38.18801891889538
 21
27.34778854914041
  0
LINE
  8
_0-0_
  6
CONTINUOUS
 62
    7
 10
38.18801891889538
 20
27.34778854914041
 11
38.191634603161432
 21
27.650836074588994
  0
LINE
  8
_0-0_
  6
CONTINUOUS
 62
    7
 10
38.191634603161432
 20
27.650836074588994
 11
38.208323645246935
 21
27.81620930979988
  0
LINE
  8
_0-0_
  6
CONTINUOUS
 62
    7
 10
38.208323645246935
 20
27.81620930979988
 11
38.231081429908982
 21
27.905723262803938
  0
LINE
  8
_0-0_
  6
CONTINUOUS
 62
    7
 10
38.231081429908982
 20
27.905723262803938
 11
38.250804843282757
 21
27.970962245501809
  0
LINE
  8
_0-0_
  6
CONTINUOUS
 62
    7
 10
38.250804843282757
 20
27.970962245501809
 11
38.287217298742035
 21
28.037718413843819
  0
LINE
  8
_0-0_
  6
CONTINUOUS
 62
    7
 10
38.287217298742035
 20
28.037718413843819
 11
38.326664125489585
 21
28.095371468321008
  0
LINE
  8
_0-0_
  6
CONTINUOUS
 62
    7
 10
38.326664125489585
 20
28.095371468321008
 11
38.381282808678498
 21
28.151507337154061
  0
LINE
  8
_0-0_
  6
CONTINUOUS
 62
    7
 10
38.381282808678498
 20
28.151507337154061
 11
38.443487420088096
 21
28.198540092122293
  0
LINE
  8
_0-0_
  6
CONTINUOUS
 62
    7
 10
38.443487420088096
 20
28.198540092122293
 11
38.501026190325319
 21
28.218782382108628
  0
LINE
  8
_0-0_
  6
CONTINUOUS
 62
    7
 10
38.501026190325319
 20
28.218782382108628
 11
38.547726544953846
 21
28.237096246668833
  0
LINE
  8
_0-0_
  6
CONTINUOUS
 62
    7
 10
38.547726544953846
 20
28.237096246668833
 11
38.598053185828987
 21
28.247450551946851
  0
LINE
  8
_0-0_
  6
CONTINUOUS
 62
    7
 10
38.657054852565309
 20
27.996940085622622
 11
38.713927904805935
 21
27.997912274549811
  0
LINE
  8
_0-0_
  6
CONTINUOUS
 62
    7
 10
38.713927904805935
 20
27.997912274549811
 11
38.740663100303663
 21
27.988676479741506
  0
LINE
  8
_0-0_
  6
CONTINUOUS
 62
    7
 10
38.740663100303663
 20
27.988676479741506
 11
38.772745334900932
 21
27.975065834760847
  0
LINE
  8
_0-0_
  6
CONTINUOUS
 62
    7
 10
38.772745334900932
 20
27.975065834760847
 11
38.79461958576271
 21
27.953677678362666
  0
LINE
  8
_0-0_
  6
CONTINUOUS
 62
    7
 10
38.79461958576271
 20
27.953677678362666
 11
38.821840875724028
 21
27.921109349301794
  0
LINE
  8
_0-0_
  6
CONTINUOUS
 62
    7
 10
38.821840875724028
 20
27.921109349301794
 11
38.838854181949855
 21
27.883193981141381
  0
LINE
  8
_0-0_
  6
CONTINUOUS
 62
    7
 10
38.838854181949855
 20
27.883193981141381
 11
38.848576071221756
 21
27.847709085298944
  0
LINE
  8
_0-0_
  6
CONTINUOUS
 62
    7
 10
38.848576071221756
 20
27.847709085298944
 11
38.855381393712086
 21
27.803474489111799
  0
LINE
  8
_0-0_
  6
CONTINUOUS
 62
    7
 10
38.855381393712086
 20
27.803474489111799
 11
38.865589377447584
 21
27.755837231679485
  0
LINE
  8
_0-0_
  6
CONTINUOUS
 62
    7
 10
38.865589377447584
 20
27.755837231679485
 11
38.872394699937913
 21
27.689728384630562
  0
LINE
  8
_0-0_
  6
CONTINUOUS
 62
    7
 10
38.872394699937913
 20
27.689728384630562
 11
38.879200022428243
 21
27.647924260761385
  0
LINE
  8
_0-0_
  6
CONTINUOUS
 62
    7
 10
38.879200022428243
 20
27.647924260761385
 11
38.876593728708542
 21
27.254056741067731
  0
LINE
  8
_0-0_
  6
CONTINUOUS
 62
    7
 10
38.876593728708542
 20
27.254056741067731
 11
38.864193652300812
 21
27.143028183549375
  0
LINE
  8
_0-0_
  6
CONTINUOUS
 62
    7
 10
38.864193652300812
 20
27.143028183549375
 11
38.849348229838575
 21
27.079301492004184
  0
LINE
  8
_0-0_
  6
CONTINUOUS
 62
    7
 10
38.849348229838575
 20
27.079301492004184
 11
38.832692390002904
 21
27.032954807244045
  0
LINE
  8
_0-0_
  6
CONTINUOUS
 62
    7
 10
38.832692390002904
 20
27.032954807244045
 11
38.816036550167225
 21
26.998194793673942
  0
LINE
  8
_0-0_
  6
CONTINUOUS
 62
    7
 10
38.816036550167225
 20
26.998194793673942
 11
38.800104877280929
 21
26.977918119091384
  0
LINE
  8
_0-0_
  6
CONTINUOUS
 62
    7
 10
38.800104877280929
 20
26.977918119091384
 11
38.77041403235647
 21
26.948951441116296
  0
LINE
  8
_0-0_
  6
CONTINUOUS
 62
    7
 10
38.77041403235647
 20
26.948951441116296
 11
38.737102352685113
 21
26.929398933483113
  0
LINE
  8
_0-0_
  6
CONTINUOUS
 62
    7
 10
38.737102352685113
 20
26.929398933483113
 11
38.661064823000515
 21
26.928674766533735
  0
LINE
  8
_0-0_
  6
CONTINUOUS
 62
    7
 10
38.661064823000515
 20
26.928674766533735
 11
38.611097303493494
 21
26.948951441116296
  0
LINE
  8
_0-0_
  6
CONTINUOUS
 62
    7
 10
38.611097303493494
 20
26.948951441116296
 11
38.581406458569027
 21
26.972848950445744
  0
LINE
  8
_0-0_
  6
CONTINUOUS
 62
    7
 10
38.581406458569027
 20
26.972848950445744
 11
38.55171561364456
 21
27.016298967408374
  0
LINE
  8
_0-0_
  6
CONTINUOUS
 62
    7
 10
38.55171561364456
 20
27.016298967408374
 11
38.532163106011381
 21
27.066990653864774
  0
LINE
  8
_0-0_
  6
CONTINUOUS
 62
    7
 10
38.532163106011381
 20
27.066990653864774
 11
38.5220247687201
 21
27.112613171675533
  0
LINE
  8
_0-0_
  6
CONTINUOUS
 62
    7
 10
38.5220247687201
 20
27.112613171675533
 11
38.514058932276952
 21
27.162580691182558
  0
LINE
  8
_0-0_
  6
CONTINUOUS
 62
    7
 10
38.514058932276952
 20
27.162580691182558
 11
38.505368928884422
 21
27.201685706448927
  0
LINE
  8
_0-0_
  6
CONTINUOUS
 62
    7
 10
38.505368928884422
 20
27.201685706448927
 11
38.511162264479438
 21
27.736120915089273
  0
LINE
  8
_0-0_
  6
CONTINUOUS
 62
    7
 10
38.511162264479438
 20
27.736120915089273
 11
38.519492752365181
 21
27.809965400182498
  0
LINE
  8
_0-0_
  6
CONTINUOUS
 62
    7
 10
38.519492752365181
 20
27.809965400182498
 11
38.531332796388568
 21
27.861687697758341
  0
LINE
  8
_0-0_
  6
CONTINUOUS
 62
    7
 10
38.531332796388568
 20
27.861687697758341
 11
38.551897083376559
 21
27.907801553428374
  0
LINE
  8
_0-0_
  6
CONTINUOUS
 62
    7
 10
38.551897083376559
 20
27.907801553428374
 11
38.574330850999814
 21
27.94145220486326
  0
LINE
  8
_0-0_
  6
CONTINUOUS
 62
    7
 10
38.574330850999814
 20
27.94145220486326
 11
38.600503579893619
 21
27.970117574604092
  0
LINE
  8
_0-0_
  6
CONTINUOUS
 62
    7
 10
38.600503579893619
 20
27.970117574604092
 11
38.63851635281081
 21
27.991928182015595
  0
LINE
  8
_0-0_
  6
CONTINUOUS
 62
    7
 10
38.63851635281081
 20
27.991928182015595
 11
38.657054852565309
 21
27.996940085622622
  0
LINE
  8
_0-0_
  6
CONTINUOUS
 62
    7
 10
38.648244848327728
 20
25.810132583273833
 11
38.837163635362756
 21
25.810892819841381
  0
LINE
  8
_0-0_
  6
CONTINUOUS
 62
    7
 10
38.837163635362756
 20
25.810892819841381
 11
38.85198824842989
 21
25.791126669085201
  0
LINE
  8
_0-0_
  6
CONTINUOUS
 62
    7
 10
38.85198824842989
 20
25.791126669085201
 11
38.848686392568481
 21
24.830992868687673
  0
LINE
  8
_0-0_
  6
CONTINUOUS
 62
    7
 10
38.848686392568481
 20
24.830992868687673
 11
38.767979858495507
 21
24.809506064161755
  0
LINE
  8
_0-0_
  6
CONTINUOUS
 62
    7
 10
38.767979858495507
 20
24.809506064161755
 11
38.713476744576105
 21
24.794308080472688
  0
LINE
  8
_0-0_
  6
CONTINUOUS
 62
    7
 10
38.713476744576105
 20
24.794308080472688
 11
38.653208878222912
 21
24.779110096783625
  0
LINE
  8
_0-0_
  6
CONTINUOUS
 62
    7
 10
38.653208878222912
 20
24.779110096783625
 11
38.582459643808299
 21
24.753430745033135
  0
LINE
  8
_0-0_
  6
CONTINUOUS
 62
    7
 10
38.582459643808299
 20
24.753430745033135
 11
38.580661952903199
 21
25.505140586355668
  0
LINE
  8
_0-0_
  6
CONTINUOUS
 62
    7
 10
38.580661952903199
 20
25.505140586355668
 11
38.523254781449992
 21
25.4715035718323
  0
LINE
  8
_0-0_
  6
CONTINUOUS
 62
    7
 10
38.523254781449992
 20
25.4715035718323
 11
38.461362674726998
 21
25.437866557308936
  0
LINE
  8
_0-0_
  6
CONTINUOUS
 62
    7
 10
38.461362674726998
 20
25.437866557308936
 11
38.409337425597527
 21
25.406472010420461
  0
LINE
  8
_0-0_
  6
CONTINUOUS
 62
    7
 10
38.409337425597527
 20
25.406472010420461
 11
38.36090012468388
 21
25.376422944112924
  0
LINE
  8
_0-0_
  6
CONTINUOUS
 62
    7
 10
38.36090012468388
 20
25.376422944112924
 11
38.325469136052603
 21
25.357137722452861
  0
LINE
  8
_0-0_
  6
CONTINUOUS
 62
    7
 10
38.325469136052603
 20
25.357137722452861
 11
38.325917629579578
 21
25.60201518818296
  0
LINE
  8
_0-0_
  6
CONTINUOUS
 62
    7
 10
38.325917629579578
 20
25.60201518818296
 11
38.393191658626307
 21
25.641482618557041
  0
LINE
  8
_0-0_
  6
CONTINUOUS
 62
    7
 10
38.393191658626307
 20
25.641482618557041
 11
38.454635271822326
 21
25.683192516566016
  0
LINE
  8
_0-0_
  6
CONTINUOUS
 62
    7
 10
38.454635271822326
 20
25.683192516566016
 11
38.558237276554294
 21
25.750915039139727
  0
LINE
  8
_0-0_
  6
CONTINUOUS
 62
    7
 10
38.558237276554294
 20
25.750915039139727
 11
38.648244848327728
 21
25.810132583273833
  0
LINE
  8
_0-0_
  6
CONTINUOUS
 62
    7
 10
41.742727873184733
 20
25.650339363898673
 11
41.730220135763943
 21
25.530265084659092
  0
LINE
  8
_0-0_
  6
CONTINUOUS
 62
    7
 10
41.730220135763943
 20
25.530265084659092
 11
41.722715493311469
 21
25.422698542840301
  0
LINE
  8
_0-0_
  6
CONTINUOUS
 62
    7
 10
41.722715493311469
 20
25.422698542840301
 11
41.705204660922362
 21
25.325138190958139
  0
LINE
  8
_0-0_
  6
CONTINUOUS
 62
    7
 10
41.705204660922362
 20
25.325138190958139
 11
41.685192281049097
 21
25.212568554171031
  0
LINE
  8
_0-0_
  6
CONTINUOUS
 62
    7
 10
41.685192281049097
 20
25.212568554171031
 11
41.682690733564939
 21
25.155032962035399
  0
LINE
  8
_0-0_
  6
CONTINUOUS
 62
    7
 10
41.682690733564939
 20
25.155032962035399
 11
41.482566934832306
 21
25.155032962035399
  0
LINE
  8
_0-0_
  6
CONTINUOUS
 62
    7
 10
41.482566934832306
 20
25.155032962035399
 11
41.282443136099665
 21
25.172543794424505
  0
LINE
  8
_0-0_
  6
CONTINUOUS
 62
    7
 10
41.282443136099665
 20
25.172543794424505
 11
41.007272912842289
 21
25.190054626813612
  0
LINE
  8
_0-0_
  6
CONTINUOUS
 62
    7
 10
41.007272912842289
 20
25.190054626813612
 11
40.80464756662549
 21
25.205063911718557
  0
LINE
  8
_0-0_
  6
CONTINUOUS
 62
    7
 10
40.80464756662549
 20
25.205063911718557
 11
40.602022220408699
 21
25.217571649139348
  0
LINE
  8
_0-0_
  6
CONTINUOUS
 62
    7
 10
40.602022220408699
 20
25.217571649139348
 11
40.341861282056271
 21
25.237584029012609
  0
LINE
  8
_0-0_
  6
CONTINUOUS
 62
    7
 10
40.341861282056271
 20
25.237584029012609
 11
40.19426998049095
 21
25.250091766433399
  0
LINE
  8
_0-0_
  6
CONTINUOUS
 62
    7
 10
40.19426998049095
 20
25.250091766433399
 11
39.946616779559313
 21
25.26259950385419
  0
LINE
  8
_0-0_
  6
CONTINUOUS
 62
    7
 10
39.946616779559313
 20
25.26259950385419
 11
39.844053332708838
 21
25.272605693790822
  0
LINE
  8
_0-0_
  6
CONTINUOUS
 62
    7
 10
39.844053332708838
 20
25.272605693790822
 11
39.89216741612455
 21
25.306247066835911
  0
LINE
  8
_0-0_
  6
CONTINUOUS
 62
    7
 10
39.89216741612455
 20
25.306247066835911
 11
39.937761449485961
 21
25.334589303790298
  0
LINE
  8
_0-0_
  6
CONTINUOUS
 62
    7
 10
39.937761449485961
 20
25.334589303790298
 11
39.985409268133913
 21
25.358002456056965
  0
LINE
  8
_0-0_
  6
CONTINUOUS
 62
    7
 10
39.985409268133913
 20
25.358002456056965
 11
40.037986171469583
 21
25.382647879495564
  0
LINE
  8
_0-0_
  6
CONTINUOUS
 62
    7
 10
40.037986171469583
 20
25.382647879495564
 11
40.096313673607603
 21
25.408936331163403
  0
LINE
  8
_0-0_
  6
CONTINUOUS
 62
    7
 10
40.096313673607603
 20
25.408936331163403
 11
40.167374644522226
 21
25.438100082232409
  0
LINE
  8
_0-0_
  6
CONTINUOUS
 62
    7
 10
40.167374644522226
 20
25.438100082232409
 11
40.252812112442697
 21
25.470960646817204
  0
LINE
  8
_0-0_
  6
CONTINUOUS
 62
    7
 10
40.252812112442697
 20
25.470960646817204
 11
40.328391410987734
 21
25.497249098485042
  0
LINE
  8
_0-0_
  6
CONTINUOUS
 62
    7
 10
40.328391410987734
 20
25.497249098485042
 11
40.423687048283639
 21
25.520251493694402
  0
LINE
  8
_0-0_
  6
CONTINUOUS
 62
    7
 10
40.423687048283639
 20
25.520251493694402
 11
40.510767544433349
 21
25.544896917132998
  0
LINE
  8
_0-0_
  6
CONTINUOUS
 62
    7
 10
40.510767544433349
 20
25.544896917132998
 11
40.695608220222837
 21
25.586794136978614
  0
LINE
  8
_0-0_
  6
CONTINUOUS
 62
    7
 10
40.695608220222837
 20
25.586794136978614
 11
40.866483156063779
 21
25.613082588646452
  0
LINE
  8
_0-0_
  6
CONTINUOUS
 62
    7
 10
40.866483156063779
 20
25.613082588646452
 11
41.089934995240398
 21
25.63444195562657
  0
LINE
  8
_0-0_
  6
CONTINUOUS
 62
    7
 10
41.089934995240398
 20
25.63444195562657
 11
41.305171693270814
 21
25.650872237918967
  0
LINE
  8
_0-0_
  6
CONTINUOUS
 62
    7
 10
41.305171693270814
 20
25.650872237918967
 11
41.488515171738981
 21
25.657458933926719
  0
LINE
  8
_0-0_
  6
CONTINUOUS
 62
    7
 10
41.488515171738981
 20
25.657458933926719
 11
41.742727873184733
 21
25.650339363898673
  0
LINE
  8
_0-0_
  6
CONTINUOUS
 62
    7
 10
39.626634078293562
 20
25.097702154309196
 11
39.833872369871052
 21
25.084038091128263
  0
LINE
  8
_0-0_
  6
CONTINUOUS
 62
    7
 10
39.833872369871052
 20
25.084038091128263
 11
40.04224933338029
 21
25.06809668408384
  0
LINE
  8
_0-0_
  6
CONTINUOUS
 62
    7
 10
40.04224933338029
 20
25.06809668408384
 11
40.231268874049867
 21
25.053293948971163
  0
LINE
  8
_0-0_
  6
CONTINUOUS
 62
    7
 10
40.231268874049867
 20
25.053293948971163
 11
40.436229821763866
 21
25.038491213858485
  0
LINE
  8
_0-0_
  6
CONTINUOUS
 62
    7
 10
40.436229821763866
 20
25.038491213858485
 11
40.741393899471376
 21
25.019133791018827
  0
LINE
  8
_0-0_
  6
CONTINUOUS
 62
    7
 10
40.741393899471376
 20
25.019133791018827
 11
41.044280633315402
 21
24.998637696247428
  0
LINE
  8
_0-0_
  6
CONTINUOUS
 62
    7
 10
41.044280633315402
 20
24.998637696247428
 11
41.338057991705468
 21
24.973586913749052
  0
LINE
  8
_0-0_
  6
CONTINUOUS
 62
    7
 10
41.338057991705468
 20
24.973586913749052
 11
41.640944725549495
 21
24.943981443523696
  0
LINE
  8
_0-0_
  6
CONTINUOUS
 62
    7
 10
41.640944725549495
 20
24.943981443523696
 11
41.588565816689254
 21
24.768625966035049
  0
LINE
  8
_0-0_
  6
CONTINUOUS
 62
    7
 10
41.588565816689254
 20
24.768625966035049
 11
41.545296283282958
 21
24.64337205354316
  0
LINE
  8
_0-0_
  6
CONTINUOUS
 62
    7
 10
41.545296283282958
 20
24.64337205354316
 11
41.490640030559227
 21
24.524950172641737
  0
LINE
  8
_0-0_
  6
CONTINUOUS
 62
    7
 10
41.490640030559227
 20
24.524950172641737
 11
41.449647841016428
 21
24.424747042648228
  0
LINE
  8
_0-0_
  6
CONTINUOUS
 62
    7
 10
41.449647841016428
 20
24.424747042648228
 11
41.41093299533712
 21
24.360981414470536
  0
LINE
  8
_0-0_
  6
CONTINUOUS
 62
    7
 10
41.41093299533712
 20
24.360981414470536
 11
41.212804079213583
 21
24.388309540832402
  0
LINE
  8
_0-0_
  6
CONTINUOUS
 62
    7
 10
41.212804079213583
 20
24.388309540832402
 11
41.032893913997959
 21
24.415637667194271
  0
LINE
  8
_0-0_
  6
CONTINUOUS
 62
    7
 10
41.032893913997959
 20
24.415637667194271
 11
40.884866562871181
 21
24.427024386511714
  0
LINE
  8
_0-0_
  6
CONTINUOUS
 62
    7
 10
40.884866562871181
 20
24.427024386511714
 11
40.691292334474624
 21
24.454352512873583
  0
LINE
  8
_0-0_
  6
CONTINUOUS
 62
    7
 10
40.691292334474624
 20
24.454352512873583
 11
40.484054042897135
 21
24.486235326962425
  0
LINE
  8
_0-0_
  6
CONTINUOUS
 62
    7
 10
40.484054042897135
 20
24.486235326962425
 11
40.249487624957779
 21
24.522672828778247
  0
LINE
  8
_0-0_
  6
CONTINUOUS
 62
    7
 10
40.249487624957779
 20
24.522672828778247
 11
40.049081364970753
 21
24.550000955140117
  0
LINE
  8
_0-0_
  6
CONTINUOUS
 62
    7
 10
40.049081364970753
 20
24.550000955140117
 11
39.864616512028156
 21
24.579606425365472
  0
LINE
  8
_0-0_
  6
CONTINUOUS
 62
    7
 10
39.864616512028156
 20
24.579606425365472
 11
39.702925097720438
 21
24.604657207863848
  0
LINE
  8
_0-0_
  6
CONTINUOUS
 62
    7
 10
39.702925097720438
 20
24.604657207863848
 11
39.580602086354645
 21
24.624900638745067
  0
LINE
  8
_0-0_
  6
CONTINUOUS
 62
    7
 10
39.580602086354645
 20
24.624900638745067
 11
39.481603320904319
 21
24.651900302049703
  0
LINE
  8
_0-0_
  6
CONTINUOUS
 62
    7
 10
39.481603320904319
 20
24.651900302049703
 11
39.390219845104027
 21
24.677515367236146
  0
LINE
  8
_0-0_
  6
CONTINUOUS
 62
    7
 10
39.390219845104027
 20
24.677515367236146
 11
39.319605341076524
 21
24.707284226777154
  0
LINE
  8
_0-0_
  6
CONTINUOUS
 62
    7
 10
39.319605341076524
 20
24.707284226777154
 11
39.272529005058189
 21
24.731514693845415
  0
LINE
  8
_0-0_
  6
CONTINUOUS
 62
    7
 10
39.272529005058189
 20
24.731514693845415
 11
39.240683248339905
 21
24.75436056279549
  0
LINE
  8
_0-0_
  6
CONTINUOUS
 62
    7
 10
39.240683248339905
 20
24.75436056279549
 11
39.202606800089782
 21
24.781360226100119
  0
LINE
  8
_0-0_
  6
CONTINUOUS
 62
    7
 10
39.202606800089782
 20
24.781360226100119
 11
39.174222538666967
 21
24.803513795991101
  0
LINE
  8
_0-0_
  6
CONTINUOUS
 62
    7
 10
39.174222538666967
 20
24.803513795991101
 11
39.17353023960787
 21
24.840897945182131
  0
LINE
  8
_0-0_
  6
CONTINUOUS
 62
    7
 10
39.17353023960787
 20
24.840897945182131
 11
39.198453005735224
 21
24.860974617895834
  0
LINE
  8
_0-0_
  6
CONTINUOUS
 62
    7
 10
39.198453005735224
 20
24.860974617895834
 11
39.235837154926251
 21
24.88866658025956
  0
LINE
  8
_0-0_
  6
CONTINUOUS
 62
    7
 10
39.235837154926251
 20
24.88866658025956
 11
39.280144294708215
 21
24.917050841682378
  0
LINE
  8
_0-0_
  6
CONTINUOUS
 62
    7
 10
39.280144294708215
 20
24.917050841682378
 11
39.336912817553852
 21
24.95097349557794
  0
LINE
  8
_0-0_
  6
CONTINUOUS
 62
    7
 10
39.336912817553852
 20
24.95097349557794
 11
39.390912144163117
 21
24.98351155135532
  0
LINE
  8
_0-0_
  6
CONTINUOUS
 62
    7
 10
39.390912144163117
 20
24.98351155135532
 11
39.43591158300417
 21
25.009126616541767
  0
LINE
  8
_0-0_
  6
CONTINUOUS
 62
    7
 10
39.43591158300417
 20
25.009126616541767
 11
39.476884217258906
 21
25.027044463195455
  0
LINE
  8
_0-0_
  6
CONTINUOUS
 62
    7
 10
39.476884217258906
 20
25.027044463195455
 11
39.520245078445299
 21
25.04708017146779
  0
LINE
  8
_0-0_
  6
CONTINUOUS
 62
    7
 10
39.520245078445299
 20
25.04708017146779
 11
39.560017454567997
 21
25.063826435098398
  0
LINE
  8
_0-0_
  6
CONTINUOUS
 62
    7
 10
39.560017454567997
 20
25.063826435098398
 11
39.595902305205015
 21
25.07788133493123
  0
LINE
  8
_0-0_
  6
CONTINUOUS
 62
    7
 10
39.595902305205015
 20
25.07788133493123
 11
39.626634078293562
 21
25.097702154309196
  0
LINE
  8
_0-0_
  6
CONTINUOUS
 62
    7
 10
38.393020045225235
 20
24.455654388814675
 11
38.446659512555854
 21
24.500711541372396
  0
LINE
  8
_0-0_
  6
CONTINUOUS
 62
    7
 10
38.446659512555854
 20
24.500711541372396
 11
38.568957498069657
 21
24.554351008703012
  0
LINE
  8
_0-0_
  6
CONTINUOUS
 62
    7
 10
38.568957498069657
 20
24.554351008703012
 11
38.659071803185099
 21
24.588680267794607
  0
LINE
  8
_0-0_
  6
CONTINUOUS
 62
    7
 10
38.659071803185099
 20
24.588680267794607
 11
38.787806524778574
 21
24.62730068427265
  0
LINE
  8
_0-0_
  6
CONTINUOUS
 62
    7
 10
38.787806524778574
 20
24.62730068427265
 11
38.899376616826259
 21
24.650902049898121
  0
LINE
  8
_0-0_
  6
CONTINUOUS
 62
    7
 10
38.899376616826259
 20
24.650902049898121
 11
38.974471871089122
 21
24.659484364671023
  0
LINE
  8
_0-0_
  6
CONTINUOUS
 62
    7
 10
38.974471871089122
 20
24.659484364671023
 11
39.017383444953622
 21
24.60369931864718
  0
LINE
  8
_0-0_
  6
CONTINUOUS
 62
    7
 10
39.017383444953622
 20
24.60369931864718
 11
39.064586176204556
 21
24.56722448086236
  0
LINE
  8
_0-0_
  6
CONTINUOUS
 62
    7
 10
39.064586176204556
 20
24.56722448086236
 11
39.126807958308077
 21
24.52645848569109
  0
LINE
  8
_0-0_
  6
CONTINUOUS
 62
    7
 10
39.126807958308077
 20
24.52645848569109
 11
39.22335899950319
 21
24.487838069213047
  0
LINE
  8
_0-0_
  6
CONTINUOUS
 62
    7
 10
39.22335899950319
 20
24.487838069213047
 11
39.315618883311849
 21
24.451363231428224
  0
LINE
  8
_0-0_
  6
CONTINUOUS
 62
    7
 10
39.315618883311849
 20
24.451363231428224
 11
39.429334554052758
 21
24.419179551029856
  0
LINE
  8
_0-0_
  6
CONTINUOUS
 62
    7
 10
39.429334554052758
 20
24.419179551029856
 11
39.525885595247871
 21
24.391287028017934
  0
LINE
  8
_0-0_
  6
CONTINUOUS
 62
    7
 10
39.525885595247871
 20
24.391287028017934
 11
39.654620316841352
 21
24.367685662392464
  0
LINE
  8
_0-0_
  6
CONTINUOUS
 62
    7
 10
39.654620316841352
 20
24.367685662392464
 11
39.862093967756607
 21
24.316344122538023
  0
LINE
  8
_0-0_
  6
CONTINUOUS
 62
    7
 10
39.862093967756607
 20
24.316344122538023
 11
40.085189716790274
 21
24.278485449974731
  0
LINE
  8
_0-0_
  6
CONTINUOUS
 62
    7
 10
40.085189716790274
 20
24.278485449974731
 11
40.252849552427704
 21
24.254147731898331
  0
LINE
  8
_0-0_
  6
CONTINUOUS
 62
    7
 10
40.252849552427704
 20
24.254147731898331
 11
40.43042475468885
 21
24.227105822924553
  0
LINE
  8
_0-0_
  6
CONTINUOUS
 62
    7
 10
40.43042475468885
 20
24.227105822924553
 11
40.617915323573711
 21
24.199162516984983
  0
LINE
  8
_0-0_
  6
CONTINUOUS
 62
    7
 10
40.617915323573711
 20
24.199162516984983
 11
40.814419862116508
 21
24.172120608011205
  0
LINE
  8
_0-0_
  6
CONTINUOUS
 62
    7
 10
40.814419862116508
 20
24.172120608011205
 11
41.007318812796128
 21
24.148684286900596
  0
LINE
  8
_0-0_
  6
CONTINUOUS
 62
    7
 10
41.007318812796128
 20
24.148684286900596
 11
41.261512757149645
 21
24.110825614337304
  0
LINE
  8
_0-0_
  6
CONTINUOUS
 62
    7
 10
41.261512757149645
 20
24.110825614337304
 11
41.234470848175867
 21
24.049530620663407
  0
LINE
  8
_0-0_
  6
CONTINUOUS
 62
    7
 10
41.234470848175867
 20
24.049530620663407
 11
41.189400999886231
 21
23.990038420921095
  0
LINE
  8
_0-0_
  6
CONTINUOUS
 62
    7
 10
41.189400999886231
 20
23.990038420921095
 11
41.14793673945978
 21
23.935954602973538
  0
LINE
  8
_0-0_
  6
CONTINUOUS
 62
    7
 10
41.14793673945978
 20
23.935954602973538
 11
41.090247333649045
 21
23.869251227504882
  0
LINE
  8
_0-0_
  6
CONTINUOUS
 62
    7
 10
41.090247333649045
 20
23.869251227504882
 11
41.032557927838318
 21
23.793533882378302
  0
LINE
  8
_0-0_
  6
CONTINUOUS
 62
    7
 10
41.032557927838318
 20
23.793533882378302
 11
40.958643376643323
 21
23.717816537251721
  0
LINE
  8
_0-0_
  6
CONTINUOUS
 62
    7
 10
40.958643376643323
 20
23.717816537251721
 11
40.897348382969425
 21
23.649310367851484
  0
LINE
  8
_0-0_
  6
CONTINUOUS
 62
    7
 10
40.897348382969425
 20
23.649310367851484
 11
40.818025449979678
 21
23.577198610588073
  0
LINE
  8
_0-0_
  6
CONTINUOUS
 62
    7
 10
40.818025449979678
 20
23.577198610588073
 11
40.713463401947734
 21
23.481650532214054
  0
LINE
  8
_0-0_
  6
CONTINUOUS
 62
    7
 10
40.713463401947734
 20
23.481650532214054
 11
40.589070620668351
 21
23.505086853324662
  0
LINE
  8
_0-0_
  6
CONTINUOUS
 62
    7
 10
40.589070620668351
 20
23.505086853324662
 11
40.473691809046897
 21
23.532128762298441
  0
LINE
  8
_0-0_
  6
CONTINUOUS
 62
    7
 10
40.473691809046897
 20
23.532128762298441
 11
40.358312997425443
 21
23.557367877340638
  0
LINE
  8
_0-0_
  6
CONTINUOUS
 62
    7
 10
40.358312997425443
 20
23.557367877340638
 11
40.224906246488131
 21
23.588015374177587
  0
LINE
  8
_0-0_
  6
CONTINUOUS
 62
    7
 10
40.224906246488131
 20
23.588015374177587
 11
40.122146992387776
 21
23.613254489219777
  0
LINE
  8
_0-0_
  6
CONTINUOUS
 62
    7
 10
40.122146992387776
 20
23.613254489219777
 11
40.006768180766314
 21
23.633085222467215
  0
LINE
  8
_0-0_
  6
CONTINUOUS
 62
    7
 10
40.006768180766314
 20
23.633085222467215
 11
39.875164223760592
 21
23.661929925372579
  0
LINE
  8
_0-0_
  6
CONTINUOUS
 62
    7
 10
39.875164223760592
 20
23.661929925372579
 11
39.729137915302189
 21
23.703394185799041
  0
LINE
  8
_0-0_
  6
CONTINUOUS
 62
    7
 10
39.729137915302189
 20
23.703394185799041
 11
39.599336752228055
 21
23.730436094772819
  0
LINE
  8
_0-0_
  6
CONTINUOUS
 62
    7
 10
39.599336752228055
 20
23.730436094772819
 11
39.485760734538189
 21
23.757478003746598
  0
LINE
  8
_0-0_
  6
CONTINUOUS
 62
    7
 10
39.485760734538189
 20
23.757478003746598
 11
39.330720456421857
 21
23.802547852036227
  0
LINE
  8
_0-0_
  6
CONTINUOUS
 62
    7
 10
39.330720456421857
 20
23.802547852036227
 11
39.187329000632686
 21
23.847479023869585
  0
LINE
  8
_0-0_
  6
CONTINUOUS
 62
    7
 10
39.187329000632686
 20
23.847479023869585
 11
39.05198077930752
 21
23.891300784052731
  0
LINE
  8
_0-0_
  6
CONTINUOUS
 62
    7
 10
39.05198077930752
 20
23.891300784052731
 11
38.939930202636688
 21
23.94011489666181
  0
LINE
  8
_0-0_
  6
CONTINUOUS
 62
    7
 10
38.939930202636688
 20
23.94011489666181
 11
38.845075506544048
 21
23.97894430441903
  0
LINE
  8
_0-0_
  6
CONTINUOUS
 62
    7
 10
38.845075506544048
 20
23.97894430441903
 11
38.765197867729192
 21
24.011117242275012
  0
LINE
  8
_0-0_
  6
CONTINUOUS
 62
    7
 10
38.765197867729192
 20
24.011117242275012
 11
38.684433748683204
 21
24.055745489650689
  0
LINE
  8
_0-0_
  6
CONTINUOUS
 62
    7
 10
38.684433748683204
 20
24.055745489650689
 11
38.623334803521956
 21
24.094016257498939
  0
LINE
  8
_0-0_
  6
CONTINUOUS
 62
    7
 10
38.623334803521956
 20
24.094016257498939
 11
38.558878773461749
 21
24.140344029104717
  0
LINE
  8
_0-0_
  6
CONTINUOUS
 62
    7
 10
38.558878773461749
 20
24.140344029104717
 11
38.502479747159057
 21
24.192043136548846
  0
LINE
  8
_0-0_
  6
CONTINUOUS
 62
    7
 10
38.502479747159057
 20
24.192043136548846
 11
38.452794890654317
 21
24.236356657215242
  0
LINE
  8
_0-0_
  6
CONTINUOUS
 62
    7
 10
38.452794890654317
 20
24.236356657215242
 11
38.417881207705036
 21
24.292755683517931
  0
LINE
  8
_0-0_
  6
CONTINUOUS
 62
    7
 10
38.417881207705036
 20
24.292755683517931
 11
38.395724447371833
 21
24.34311195700247
  0
LINE
  8
_0-0_
  6
CONTINUOUS
 62
    7
 10
38.395724447371833
 20
24.34311195700247
 11
38.393020045225235
 21
24.455654388814675
  0
LINE
  8
_0-0_
  6
CONTINUOUS
 62
    7
 10
38.138521403305816
 20
24.401813200410337
 11
38.136962649554327
 21
24.341021804102304
  0
LINE
  8
_0-0_
  6
CONTINUOUS
 62
    7
 10
38.136962649554327
 20
24.341021804102304
 11
38.126051373293911
 21
24.319199251581473
  0
LINE
  8
_0-0_
  6
CONTINUOUS
 62
    7
 10
38.126051373293911
 20
24.319199251581473
 11
38.124492619542422
 21
24.245937825261535
  0
LINE
  8
_0-0_
  6
CONTINUOUS
 62
    7
 10
38.124492619542422
 20
24.245937825261535
 11
38.141638910808794
 21
24.18670518270499
  0
LINE
  8
_0-0_
  6
CONTINUOUS
 62
    7
 10
38.141638910808794
 20
24.18670518270499
 11
38.180607754595989
 21
24.119678771391004
  0
LINE
  8
_0-0_
  6
CONTINUOUS
 62
    7
 10
38.180607754595989
 20
24.119678771391004
 11
38.222694105886162
 21
24.06044612883446
  0
LINE
  8
_0-0_
  6
CONTINUOUS
 62
    7
 10
38.222694105886162
 20
24.06044612883446
 11
38.288161763448663
 21
23.993419717520474
  0
LINE
  8
_0-0_
  6
CONTINUOUS
 62
    7
 10
38.288161763448663
 20
23.993419717520474
 11
38.370775712277527
 21
23.923275798703514
  0
LINE
  8
_0-0_
  6
CONTINUOUS
 62
    7
 10
38.370775712277527
 20
23.923275798703514
 11
38.453389661106392
 21
23.873395678655896
  0
LINE
  8
_0-0_
  6
CONTINUOUS
 62
    7
 10
38.453389661106392
 20
23.873395678655896
 11
38.531327348680797
 21
23.821956804856792
  0
LINE
  8
_0-0_
  6
CONTINUOUS
 62
    7
 10
38.531327348680797
 20
23.821956804856792
 11
38.649792633793886
 21
23.758047901045785
  0
LINE
  8
_0-0_
  6
CONTINUOUS
 62
    7
 10
38.649792633793886
 20
23.758047901045785
 11
38.730847828871262
 21
23.72219656476156
  0
LINE
  8
_0-0_
  6
CONTINUOUS
 62
    7
 10
38.730847828871262
 20
23.72219656476156
 11
38.82749056146352
 21
23.67543395221692
  0
LINE
  8
_0-0_
  6
CONTINUOUS
 62
    7
 10
38.82749056146352
 20
23.67543395221692
 11
38.898072591541989
 21
23.644920655776918
  0
LINE
  8
_0-0_
  6
CONTINUOUS
 62
    7
 10
38.898072591541989
 20
23.644920655776918
 11
39.014826936886436
 21
23.60331853272315
  0
LINE
  8
_0-0_
  6
CONTINUOUS
 62
    7
 10
39.014826936886436
 20
23.60331853272315
 11
39.133594288185094
 21
23.563058413638859
  0
LINE
  8
_0-0_
  6
CONTINUOUS
 62
    7
 10
39.133594288185094
 20
23.563058413638859
 11
39.25437464543797
 21
23.524811300508783
  0
LINE
  8
_0-0_
  6
CONTINUOUS
 62
    7
 10
39.25437464543797
 20
23.524811300508783
 11
39.376497006660315
 21
23.492603205241351
  0
LINE
  8
_0-0_
  6
CONTINUOUS
 62
    7
 10
39.376497006660315
 20
23.492603205241351
 11
39.503987383760573
 21
23.458382104019701
  0
LINE
  8
_0-0_
  6
CONTINUOUS
 62
    7
 10
39.503987383760573
 20
23.458382104019701
 11
39.679118901777243
 21
23.414766975011719
  0
LINE
  8
_0-0_
  6
CONTINUOUS
 62
    7
 10
39.679118901777243
 20
23.414766975011719
 11
39.850895409870219
 21
23.374506855927428
  0
LINE
  8
_0-0_
  6
CONTINUOUS
 62
    7
 10
39.850895409870219
 20
23.374506855927428
 11
39.997173842543141
 21
23.342298760659996
  0
LINE
  8
_0-0_
  6
CONTINUOUS
 62
    7
 10
39.997173842543141
 20
23.342298760659996
 11
40.135400251399204
 21
23.311432669362041
  0
LINE
  8
_0-0_
  6
CONTINUOUS
 62
    7
 10
40.135400251399204
 20
23.311432669362041
 11
40.254838604682603
 21
23.283250586003035
  0
LINE
  8
_0-0_
  6
CONTINUOUS
 62
    7
 10
40.254838604682603
 20
23.283250586003035
 11
40.390381005599721
 21
23.261778522491415
  0
LINE
  8
_0-0_
  6
CONTINUOUS
 62
    7
 10
40.390381005599721
 20
23.261778522491415
 11
40.380986977813385
 21
23.242990466918744
  0
LINE
  8
_0-0_
  6
CONTINUOUS
 62
    7
 10
40.380986977813385
 20
23.242990466918744
 11
40.320596799186944
 21
23.202730347834453
  0
LINE
  8
_0-0_
  6
CONTINUOUS
 62
    7
 10
40.320596799186944
 20
23.202730347834453
 11
40.262890628499462
 21
23.169180248597545
  0
LINE
  8
_0-0_
  6
CONTINUOUS
 62
    7
 10
40.262890628499462
 20
23.169180248597545
 11
40.210552473689887
 21
23.147708185085921
  0
LINE
  8
_0-0_
  6
CONTINUOUS
 62
    7
 10
40.210552473689887
 20
23.147708185085921
 11
40.147478287124499
 21
23.114158085849012
  0
LINE
  8
_0-0_
  6
CONTINUOUS
 62
    7
 10
40.147478287124499
 20
23.114158085849012
 11
40.081720092620152
 21
23.080607986612104
  0
LINE
  8
_0-0_
  6
CONTINUOUS
 62
    7
 10
40.081720092620152
 20
23.080607986612104
 11
40.054010489948623
 21
23.0706104540821
  0
LINE
  8
_0-0_
  6
CONTINUOUS
 62
    7
 10
40.054010489948623
 20
23.0706104540821
 11
40.015545003391565
 21
23.050690827115047
  0
LINE
  8
_0-0_
  6
CONTINUOUS
 62
    7
 10
40.015545003391565
 20
23.050690827115047
 11
39.962654959375605
 21
23.031458083836518
  0
LINE
  8
_0-0_
  6
CONTINUOUS
 62
    7
 10
39.962654959375605
 20
23.031458083836518
 11
39.9118255664252
 21
23.006043387361316
  0
LINE
  8
_0-0_
  6
CONTINUOUS
 62
    7
 10
39.9118255664252
 20
23.006043387361316
 11
39.874046963556658
 21
22.992305713590937
  0
LINE
  8
_0-0_
  6
CONTINUOUS
 62
    7
 10
39.874046963556658
 20
22.992305713590937
 11
39.849319150769971
 21
22.995740132033532
  0
LINE
  8
_0-0_
  6
CONTINUOUS
 62
    7
 10
39.849319150769971
 20
22.995740132033532
 11
39.854814220278129
 21
23.014972875312061
  0
LINE
  8
_0-0_
  6
CONTINUOUS
 62
    7
 10
39.854814220278129
 20
23.014972875312061
 11
39.870612545114063
 21
23.030771200147999
  0
LINE
  8
_0-0_
  6
CONTINUOUS
 62
    7
 10
39.870612545114063
 20
23.030771200147999
 11
39.880915800441847
 21
23.058933431377276
  0
LINE
  8
_0-0_
  6
CONTINUOUS
 62
    7
 10
39.880915800441847
 20
23.058933431377276
 11
39.888471521015553
 21
23.110449708016197
  0
LINE
  8
_0-0_
  6
CONTINUOUS
 62
    7
 10
39.888471521015553
 20
23.110449708016197
 11
39.887784637327037
 21
23.152349613015857
  0
LINE
  8
_0-0_
  6
CONTINUOUS
 62
    7
 10
39.887784637327037
 20
23.152349613015857
 11
39.860309289786279
 21
23.207987191785893
  0
LINE
  8
_0-0_
  6
CONTINUOUS
 62
    7
 10
39.860309289786279
 20
23.207987191785893
 11
39.831460174868482
 21
23.245765794654438
  0
LINE
  8
_0-0_
  6
CONTINUOUS
 62
    7
 10
39.831460174868482
 20
23.245765794654438
 11
39.798489757819567
 21
23.270493607441117
  0
LINE
  8
_0-0_
  6
CONTINUOUS
 62
    7
 10
39.798489757819567
 20
23.270493607441117
 11
39.759337387573992
 21
23.286291932277055
  0
LINE
  8
_0-0_
  6
CONTINUOUS
 62
    7
 10
39.759337387573992
 20
23.286291932277055
 11
39.711255529377659
 21
23.291787001785209
  0
LINE
  8
_0-0_
  6
CONTINUOUS
 62
    7
 10
39.711255529377659
 20
23.291787001785209
 11
39.648749113722431
 21
23.280109979080386
  0
LINE
  8
_0-0_
  6
CONTINUOUS
 62
    7
 10
39.648749113722431
 20
23.280109979080386
 11
39.604788557657222
 21
23.257442817359258
  0
LINE
  8
_0-0_
  6
CONTINUOUS
 62
    7
 10
39.604788557657222
 20
23.257442817359258
 11
39.569757489542752
 21
23.225159283998866
  0
LINE
  8
_0-0_
  6
CONTINUOUS
 62
    7
 10
39.569757489542752
 20
23.225159283998866
 11
39.545716560444589
 21
23.18875444850736
  0
LINE
  8
_0-0_
  6
CONTINUOUS
 62
    7
 10
39.545716560444589
 20
23.18875444850736
 11
39.53197888667421
 21
23.150975845638818
  0
LINE
  8
_0-0_
  6
CONTINUOUS
 62
    7
 10
39.53197888667421
 20
23.150975845638818
 11
39.525796933477536
 21
23.084348127852479
  0
LINE
  8
_0-0_
  6
CONTINUOUS
 62
    7
 10
39.525796933477536
 20
23.084348127852479
 11
39.534039537739765
 21
23.043821990229858
  0
LINE
  8
_0-0_
  6
CONTINUOUS
 62
    7
 10
39.534039537739765
 20
23.043821990229858
 11
39.549837862575699
 21
23.004669619984277
  0
LINE
  8
_0-0_
  6
CONTINUOUS
 62
    7
 10
39.549837862575699
 20
23.004669619984277
 11
39.580747628559052
 21
22.974446737689444
  0
LINE
  8
_0-0_
  6
CONTINUOUS
 62
    7
 10
39.580747628559052
 20
22.974446737689444
 11
39.604788557657222
 21
22.960022180230545
  0
LINE
  8
_0-0_
  6
CONTINUOUS
 62
    7
 10
39.604788557657222
 20
22.960022180230545
 11
39.623334417247235
 21
22.945597622771646
  0
LINE
  8
_0-0_
  6
CONTINUOUS
 62
    7
 10
39.623334417247235
 20
22.945597622771646
 11
39.653557299542065
 21
22.940789436952012
  0
LINE
  8
_0-0_
  6
CONTINUOUS
 62
    7
 10
39.653557299542065
 20
22.940789436952012
 11
39.651496648476509
 21
22.925677995804598
  0
LINE
  8
_0-0_
  6
CONTINUOUS
 62
    7
 10
39.651496648476509
 20
22.925677995804598
 11
39.595172186017954
 21
22.911253438345696
  0
LINE
  8
_0-0_
  6
CONTINUOUS
 62
    7
 10
39.595172186017954
 20
22.911253438345696
 11
39.523049398723458
 21
22.896141997198281
  0
LINE
  8
_0-0_
  6
CONTINUOUS
 62
    7
 10
39.523049398723458
 20
22.896141997198281
 11
39.426885682330805
 21
22.879656788673827
  0
LINE
  8
_0-0_
  6
CONTINUOUS
 62
    7
 10
39.426885682330805
 20
22.879656788673827
 11
39.337590802823342
 21
22.865919114903444
  0
LINE
  8
_0-0_
  6
CONTINUOUS
 62
    7
 10
39.337590802823342
 20
22.865919114903444
 11
39.222194343152153
 21
22.848747022690471
  0
LINE
  8
_0-0_
  6
CONTINUOUS
 62
    7
 10
39.222194343152153
 20
22.848747022690471
 11
39.101302813972814
 21
22.836383116297128
  0
LINE
  8
_0-0_
  6
CONTINUOUS
 62
    7
 10
39.101302813972814
 20
22.836383116297128
 11
38.709779111517001
 21
22.839130651051206
  0
LINE
  8
_0-0_
  6
CONTINUOUS
 62
    7
 10
38.709779111517001
 20
22.839130651051206
 11
38.555917165288747
 21
22.852868324821585
  0
LINE
  8
_0-0_
  6
CONTINUOUS
 62
    7
 10
38.555917165288747
 20
22.852868324821585
 11
38.446850428118381
 21
22.867239295609749
  0
LINE
  8
_0-0_
  6
CONTINUOUS
 62
    7
 10
38.446850428118381
 20
22.867239295609749
 11
38.340956671390962
 21
22.883471185327088
  0
LINE
  8
_0-0_
  6
CONTINUOUS
 62
    7
 10
38.340956671390962
 20
22.883471185327088
 11
38.248975962992687
 21
22.905886652079608
  0
LINE
  8
_0-0_
  6
CONTINUOUS
 62
    7
 10
38.248975962992687
 20
22.905886652079608
 11
38.165497673017789
 21
22.925210330314541
  0
LINE
  8
_0-0_
  6
CONTINUOUS
 62
    7
 10
38.165497673017789
 20
22.925210330314541
 11
38.065014546196152
 21
22.945306955678869
  0
LINE
  8
_0-0_
  6
CONTINUOUS
 62
    7
 10
38.065014546196152
 20
22.945306955678869
 11
38.062695704807957
 21
22.967722422431389
  0
LINE
  8
_0-0_
  6
CONTINUOUS
 62
    7
 10
38.062695704807957
 20
22.967722422431389
 11
38.101343061277816
 21
22.980089576501743
  0
LINE
  8
_0-0_
  6
CONTINUOUS
 62
    7
 10
38.101343061277816
 20
22.980089576501743
 11
38.131487999324313
 21
22.993229677701499
  0
LINE
  8
_0-0_
  6
CONTINUOUS
 62
    7
 10
38.131487999324313
 20
22.993229677701499
 11
38.160859990241405
 21
23.023374615747989
  0
LINE
  8
_0-0_
  6
CONTINUOUS
 62
    7
 10
38.160859990241405
 20
23.023374615747989
 11
38.190231981158504
 21
23.055065448053277
  0
LINE
  8
_0-0_
  6
CONTINUOUS
 62
    7
 10
38.190231981158504
 20
23.055065448053277
 11
38.202599135228858
 21
23.087529227487959
  0
LINE
  8
_0-0_
  6
CONTINUOUS
 62
    7
 10
38.202599135228858
 20
23.087529227487959
 11
38.20955565939343
 21
23.130041319604806
  0
LINE
  8
_0-0_
  6
CONTINUOUS
 62
    7
 10
38.20955565939343
 20
23.130041319604806
 11
38.211101553652227
 21
23.178736988756835
  0
LINE
  8
_0-0_
  6
CONTINUOUS
 62
    7
 10
38.211101553652227
 20
23.178736988756835
 11
38.190231981158504
 21
23.225886763650066
  0
LINE
  8
_0-0_
  6
CONTINUOUS
 62
    7
 10
38.190231981158504
 20
23.225886763650066
 11
38.170908302923571
 21
23.256804648825955
  0
LINE
  8
_0-0_
  6
CONTINUOUS
 62
    7
 10
38.170908302923571
 20
23.256804648825955
 11
38.139217470618284
 21
23.287722534001844
  0
LINE
  8
_0-0_
  6
CONTINUOUS
 62
    7
 10
38.139217470618284
 20
23.287722534001844
 11
38.09670537850144
 21
23.313229789271954
  0
LINE
  8
_0-0_
  6
CONTINUOUS
 62
    7
 10
38.09670537850144
 20
23.313229789271954
 11
38.042599079443633
 21
23.320959260565924
  0
LINE
  8
_0-0_
  6
CONTINUOUS
 62
    7
 10
38.042599079443633
 20
23.320959260565924
 11
37.999314040197383
 21
23.318640419177732
  0
LINE
  8
_0-0_
  6
CONTINUOUS
 62
    7
 10
37.999314040197383
 20
23.318640419177732
 11
37.951391318174756
 21
23.304727370848581
  0
LINE
  8
_0-0_
  6
CONTINUOUS
 62
    7
 10
37.951391318174756
 20
23.304727370848581
 11
37.9111980674461
 21
23.283857798354858
  0
LINE
  8
_0-0_
  6
CONTINUOUS
 62
    7
 10
37.9111980674461
 20
23.283857798354858
 11
37.888009653564182
 21
23.261442331602339
  0
LINE
  8
_0-0_
  6
CONTINUOUS
 62
    7
 10
37.888009653564182
 20
23.261442331602339
 11
37.874096605235031
 21
23.245210441884996
  0
LINE
  8
_0-0_
  6
CONTINUOUS
 62
    7
 10
37.874096605235031
 20
23.245210441884996
 11
37.854772927000098
 21
23.210427821062118
  0
LINE
  8
_0-0_
  6
CONTINUOUS
 62
    7
 10
37.854772927000098
 20
23.210427821062118
 11
37.843178720059142
 21
23.174872253109846
  0
LINE
  8
_0-0_
  6
CONTINUOUS
 62
    7
 10
37.843178720059142
 20
23.174872253109846
 11
37.840086931541556
 21
23.142408473675164
  0
LINE
  8
_0-0_
  6
CONTINUOUS
 62
    7
 10
37.840086931541556
 20
23.142408473675164
 11
37.845497561447331
 21
23.108398799981685
  0
LINE
  8
_0-0_
  6
CONTINUOUS
 62
    7
 10
37.845497561447331
 20
23.108398799981685
 11
37.859410609776482
 21
23.074389126288206
  0
LINE
  8
_0-0_
  6
CONTINUOUS
 62
    7
 10
37.859410609776482
 20
23.074389126288206
 11
37.881053129399603
 21
23.045017135371111
  0
LINE
  8
_0-0_
  6
CONTINUOUS
 62
    7
 10
37.881053129399603
 20
23.045017135371111
 11
37.878734288011415
 21
23.017191038712809
  0
LINE
  8
_0-0_
  6
CONTINUOUS
 62
    7
 10
37.878734288011415
 20
23.017191038712809
 11
37.853227032741308
 21
23.017963985842207
  0
LINE
  8
_0-0_
  6
CONTINUOUS
 62
    7
 10
37.853227032741308
 20
23.017963985842207
 11
37.792164209518922
 21
23.051973659535686
  0
LINE
  8
_0-0_
  6
CONTINUOUS
 62
    7
 10
37.792164209518922
 20
23.051973659535686
 11
37.717188337967392
 21
23.085983333229165
  0
LINE
  8
_0-0_
  6
CONTINUOUS
 62
    7
 10
37.717188337967392
 20
23.085983333229165
 11
37.632876800023211
 21
23.12171432180655
  0
LINE
  8
_0-0_
  6
CONTINUOUS
 62
    7
 10
37.632876800023211
 20
23.12171432180655
 11
37.551432292920694
 21
23.164484062966529
  0
LINE
  8
_0-0_
  6
CONTINUOUS
 62
    7
 10
37.551432292920694
 20
23.164484062966529
 11
37.468622794079031
 21
23.210438784851191
  0
LINE
  8
_0-0_
  6
CONTINUOUS
 62
    7
 10
37.468622794079031
 20
23.210438784851191
 11
37.385358297990983
 21
23.26458345717074
  0
LINE
  8
_0-0_
  6
CONTINUOUS
 62
    7
 10
37.385358297990983
 20
23.26458345717074
 11
37.323933669729314
 21
23.305533209345188
  0
LINE
  8
_0-0_
  6
CONTINUOUS
 62
    7
 10
37.323933669729314
 20
23.305533209345188
 11
37.229749239728079
 21
23.373782796302606
  0
LINE
  8
_0-0_
  6
CONTINUOUS
 62
    7
 10
37.229749239728079
 20
23.373782796302606
 11
37.137839795958754
 21
23.441122388767254
  0
LINE
  8
_0-0_
  6
CONTINUOUS
 62
    7
 10
37.137839795958754
 20
23.441122388767254
 11
37.06140025856645
 21
23.502092019782544
  0
LINE
  8
_0-0_
  6
CONTINUOUS
 62
    7
 10
37.06140025856645
 20
23.502092019782544
 11
37.004410508902502
 21
23.547959614534917
  0
LINE
  8
_0-0_
  6
CONTINUOUS
 62
    7
 10
37.004410508902502
 20
23.547959614534917
 11
36.968604484463753
 21
23.57622752856551
  0
LINE
  8
_0-0_
  6
CONTINUOUS
 62
    7
 10
36.968604484463753
 20
23.57622752856551
 11
36.971529687593395
 21
23.608520287893
  0
LINE
  8
_0-0_
  6
CONTINUOUS
 62
    7
 10
36.971529687593395
 20
23.608520287893
 11
36.992996746238581
 21
23.635686565647532
  0
LINE
  8
_0-0_
  6
CONTINUOUS
 62
    7
 10
36.992996746238581
 20
23.635686565647532
 11
37.02168281575561
 21
23.674251281620747
  0
LINE
  8
_0-0_
  6
CONTINUOUS
 62
    7
 10
37.02168281575561
 20
23.674251281620747
 11
37.045999483955469
 21
23.702367429226836
  0
LINE
  8
_0-0_
  6
CONTINUOUS
 62
    7
 10
37.045999483955469
 20
23.702367429226836
 11
37.067656516570963
 21
23.736182795942266
  0
LINE
  8
_0-0_
  6
CONTINUOUS
 62
    7
 10
37.067656516570963
 20
23.736182795942266
 11
37.120849228258158
 21
23.799254154085652
  0
LINE
  8
_0-0_
  6
CONTINUOUS
 62
    7
 10
37.120849228258158
 20
23.799254154085652
 11
37.176321627589089
 21
23.855486449297828
  0
LINE
  8
_0-0_
  6
CONTINUOUS
 62
    7
 10
37.176321627589089
 20
23.855486449297828
 11
37.237873193969988
 21
23.909439056866268
  0
LINE
  8
_0-0_
  6
CONTINUOUS
 62
    7
 10
37.237873193969988
 20
23.909439056866268
 11
37.492438314187268
 21
24.108531777752624
  0
LINE
  8
_0-0_
  6
CONTINUOUS
 62
    7
 10
37.492438314187268
 20
24.108531777752624
 11
37.60338311284913
 21
24.172363031777255
  0
LINE
  8
_0-0_
  6
CONTINUOUS
 62
    7
 10
37.60338311284913
 20
24.172363031777255
 11
37.72040707856096
 21
24.231634910514415
  0
LINE
  8
_0-0_
  6
CONTINUOUS
 62
    7
 10
37.72040707856096
 20
24.231634910514415
 11
37.843510211322751
 21
24.293946372776556
  0
LINE
  8
_0-0_
  6
CONTINUOUS
 62
    7
 10
37.843510211322751
 20
24.293946372776556
 11
37.965093552322052
 21
24.338020333888803
  0
LINE
  8
_0-0_
  6
CONTINUOUS
 62
    7
 10
37.965093552322052
 20
24.338020333888803
 11
38.046303607186331
 21
24.36705805735087
  0
LINE
  8
_0-0_
  6
CONTINUOUS
 62
    7
 10
38.046303607186331
 20
24.36705805735087
 11
38.138521403305816
 21
24.401813200410337
  0
LINE
  8
_0-0_
  6
CONTINUOUS
 62
    7
 10
37.499780792504878
 20
23.813136092451316
 11
37.569979726160127
 21
23.791863688313359
  0
LINE
  8
_0-0_
  6
CONTINUOUS
 62
    7
 10
37.569979726160127
 20
23.791863688313359
 11
37.618906255677423
 21
23.745064399209859
  0
LINE
  8
_0-0_
  6
CONTINUOUS
 62
    7
 10
37.618906255677423
 20
23.745064399209859
 11
37.648687621470557
 21
23.704646831347748
  0
LINE
  8
_0-0_
  6
CONTINUOUS
 62
    7
 10
37.648687621470557
 20
23.704646831347748
 11
37.672087266022309
 21
23.659974782658043
  0
LINE
  8
_0-0_
  6
CONTINUOUS
 62
    7
 10
37.672087266022309
 20
23.659974782658043
 11
37.672087266022309
 21
23.585521368175204
  0
LINE
  8
_0-0_
  6
CONTINUOUS
 62
    7
 10
37.672087266022309
 20
23.585521368175204
 11
37.648687621470557
 21
23.525958636588931
  0
LINE
  8
_0-0_
  6
CONTINUOUS
 62
    7
 10
37.648687621470557
 20
23.525958636588931
 11
37.623160736505013
 21
23.481286587899226
  0
LINE
  8
_0-0_
  6
CONTINUOUS
 62
    7
 10
37.623160736505013
 20
23.481286587899226
 11
37.582743168642906
 21
23.453632462519887
  0
LINE
  8
_0-0_
  6
CONTINUOUS
 62
    7
 10
37.582743168642906
 20
23.453632462519887
 11
37.535943879539402
 21
23.43874177962332
  0
LINE
  8
_0-0_
  6
CONTINUOUS
 62
    7
 10
37.535943879539402
 20
23.43874177962332
 11
37.463617705470355
 21
23.440869020037116
  0
LINE
  8
_0-0_
  6
CONTINUOUS
 62
    7
 10
37.463617705470355
 20
23.440869020037116
 11
37.416818416366858
 21
23.445123500864706
  0
LINE
  8
_0-0_
  6
CONTINUOUS
 62
    7
 10
37.416818416366858
 20
23.445123500864706
 11
37.365764646435771
 21
23.474904866657844
  0
LINE
  8
_0-0_
  6
CONTINUOUS
 62
    7
 10
37.365764646435771
 20
23.474904866657844
 11
37.325347078573656
 21
23.528085877002727
  0
LINE
  8
_0-0_
  6
CONTINUOUS
 62
    7
 10
37.325347078573656
 20
23.528085877002727
 11
37.297692953194314
 21
23.600412051071771
  0
LINE
  8
_0-0_
  6
CONTINUOUS
 62
    7
 10
37.297692953194314
 20
23.600412051071771
 11
37.297692953194314
 21
23.662102023071838
  0
LINE
  8
_0-0_
  6
CONTINUOUS
 62
    7
 10
37.297692953194314
 20
23.662102023071838
 11
37.325347078573656
 21
23.72166475465811
  0
LINE
  8
_0-0_
  6
CONTINUOUS
 62
    7
 10
37.325347078573656
 20
23.72166475465811
 11
37.37214636767716
 21
23.772718524589201
  0
LINE
  8
_0-0_
  6
CONTINUOUS
 62
    7
 10
37.37214636767716
 20
23.772718524589201
 11
37.442345301332409
 21
23.806754371209926
  0
LINE
  8
_0-0_
  6
CONTINUOUS
 62
    7
 10
37.442345301332409
 20
23.806754371209926
 11
37.499780792504878
 21
23.813136092451316
  0
LINE
  8
_0-0_
  6
CONTINUOUS
 62
    7
 10
37.834539537197343
 20
24.175081271368313
 11
37.923717679650856
 21
24.176373708215464
  0
LINE
  8
_0-0_
  6
CONTINUOUS
 62
    7
 10
37.923717679650856
 20
24.176373708215464
 11
37.95925969294754
 21
24.163449339743941
  0
LINE
  8
_0-0_
  6
CONTINUOUS
 62
    7
 10
37.95925969294754
 20
24.163449339743941
 11
37.99350926939708
 21
24.140831694918777
  0
LINE
  8
_0-0_
  6
CONTINUOUS
 62
    7
 10
37.99350926939708
 20
24.140831694918777
 11
38.02194288003443
 21
24.111105647434275
  0
LINE
  8
_0-0_
  6
CONTINUOUS
 62
    7
 10
38.02194288003443
 20
24.111105647434275
 11
38.040683214318136
 21
24.084610692067652
  0
LINE
  8
_0-0_
  6
CONTINUOUS
 62
    7
 10
38.040683214318136
 20
24.084610692067652
 11
38.049730272248204
 21
24.056177081430302
  0
LINE
  8
_0-0_
  6
CONTINUOUS
 62
    7
 10
38.049730272248204
 20
24.056177081430302
 11
38.059423548601841
 21
24.022573723404342
  0
LINE
  8
_0-0_
  6
CONTINUOUS
 62
    7
 10
38.059423548601841
 20
24.022573723404342
 11
38.062654640719728
 21
23.988970365378381
  0
LINE
  8
_0-0_
  6
CONTINUOUS
 62
    7
 10
38.062654640719728
 20
23.988970365378381
 11
38.057484893331121
 21
23.948904823116659
  0
LINE
  8
_0-0_
  6
CONTINUOUS
 62
    7
 10
38.057484893331121
 20
23.948904823116659
 11
38.035513466929529
 21
23.914655246667123
  0
LINE
  8
_0-0_
  6
CONTINUOUS
 62
    7
 10
38.035513466929529
 20
23.914655246667123
 11
38.016773132645823
 21
23.886867854453349
  0
LINE
  8
_0-0_
  6
CONTINUOUS
 62
    7
 10
38.016773132645823
 20
23.886867854453349
 11
38.001263890479989
 21
23.867481301746067
  0
LINE
  8
_0-0_
  6
CONTINUOUS
 62
    7
 10
38.001263890479989
 20
23.867481301746067
 11
37.977353808807677
 21
23.85003340430951
  0
LINE
  8
_0-0_
  6
CONTINUOUS
 62
    7
 10
37.977353808807677
 20
23.85003340430951
 11
37.946335324476024
 21
23.837755254261562
  0
LINE
  8
_0-0_
  6
CONTINUOUS
 62
    7
 10
37.946335324476024
 20
23.837755254261562
 11
37.917901713838666
 21
23.8312930700258
  0
LINE
  8
_0-0_
  6
CONTINUOUS
 62
    7
 10
37.917901713838666
 20
23.8312930700258
 11
37.89463785058993
 21
23.823538448942887
  0
LINE
  8
_0-0_
  6
CONTINUOUS
 62
    7
 10
37.89463785058993
 20
23.823538448942887
 11
37.86620423995258
 21
23.826123322637194
  0
LINE
  8
_0-0_
  6
CONTINUOUS
 62
    7
 10
37.86620423995258
 20
23.826123322637194
 11
37.805459708136417
 21
23.84163256480302
  0
LINE
  8
_0-0_
  6
CONTINUOUS
 62
    7
 10
37.805459708136417
 20
23.84163256480302
 11
37.76733282114543
 21
23.863603991204609
  0
LINE
  8
_0-0_
  6
CONTINUOUS
 62
    7
 10
37.76733282114543
 20
23.863603991204609
 11
37.7408378657788
 21
23.892037601841959
  0
LINE
  8
_0-0_
  6
CONTINUOUS
 62
    7
 10
37.7408378657788
 20
23.892037601841959
 11
37.72274374991867
 21
23.914009028243548
  0
LINE
  8
_0-0_
  6
CONTINUOUS
 62
    7
 10
37.72274374991867
 20
23.914009028243548
 11
37.709173163023571
 21
23.946966167845932
  0
LINE
  8
_0-0_
  6
CONTINUOUS
 62
    7
 10
37.709173163023571
 20
23.946966167845932
 11
37.706588289329268
 21
24.051653552465268
  0
LINE
  8
_0-0_
  6
CONTINUOUS
 62
    7
 10
37.706588289329268
 20
24.051653552465268
 11
37.726621060460132
 21
24.0968888421156
  0
LINE
  8
_0-0_
  6
CONTINUOUS
 62
    7
 10
37.726621060460132
 20
24.0968888421156
 11
37.750531142132444
 21
24.118214050093612
  0
LINE
  8
_0-0_
  6
CONTINUOUS
 62
    7
 10
37.750531142132444
 20
24.118214050093612
 11
37.773795005381188
 21
24.139539258071625
  0
LINE
  8
_0-0_
  6
CONTINUOUS
 62
    7
 10
37.773795005381188
 20
24.139539258071625
 11
37.806105926559993
 21
24.160218247626062
  0
LINE
  8
_0-0_
  6
CONTINUOUS
 62
    7
 10
37.806105926559993
 20
24.160218247626062
 11
37.834539537197343
 21
24.175081271368313
  0
LINE
  8
_0-0_
  6
CONTINUOUS
 62
    7
 10
38.276415445641816
 20
23.753891990993921
 11
38.311306657405545
 21
23.7604656975581
  0
LINE
  8
_0-0_
  6
CONTINUOUS
 62
    7
 10
38.311306657405545
 20
23.7604656975581
 11
38.347714878376386
 21
23.758948688350983
  0
LINE
  8
_0-0_
  6
CONTINUOUS
 62
    7
 10
38.347714878376386
 20
23.758948688350983
 11
38.383617429611526
 21
23.745295605486916
  0
LINE
  8
_0-0_
  6
CONTINUOUS
 62
    7
 10
38.383617429611526
 20
23.745295605486916
 11
38.412440604546773
 21
23.727597164737201
  0
LINE
  8
_0-0_
  6
CONTINUOUS
 62
    7
 10
38.412440604546773
 20
23.727597164737201
 11
38.440252440010617
 21
23.710910063458896
  0
LINE
  8
_0-0_
  6
CONTINUOUS
 62
    7
 10
38.440252440010617
 20
23.710910063458896
 11
38.464018917588802
 21
23.687143585880708
  0
LINE
  8
_0-0_
  6
CONTINUOUS
 62
    7
 10
38.464018917588802
 20
23.687143585880708
 11
38.482728697809932
 21
23.655792062266925
  0
LINE
  8
_0-0_
  6
CONTINUOUS
 62
    7
 10
38.482728697809932
 20
23.655792062266925
 11
38.499415799088239
 21
23.604719418960605
  0
LINE
  8
_0-0_
  6
CONTINUOUS
 62
    7
 10
38.499415799088239
 20
23.604719418960605
 11
38.49891012935253
 21
23.550612757240045
  0
LINE
  8
_0-0_
  6
CONTINUOUS
 62
    7
 10
38.49891012935253
 20
23.550612757240045
 11
38.490313743845526
 21
23.50661949023361
  0
LINE
  8
_0-0_
  6
CONTINUOUS
 62
    7
 10
38.490313743845526
 20
23.50661949023361
 11
38.477672000452869
 21
23.473750957412708
  0
LINE
  8
_0-0_
  6
CONTINUOUS
 62
    7
 10
38.477672000452869
 20
23.473750957412708
 11
38.455928201817506
 21
23.448973140363108
  0
LINE
  8
_0-0_
  6
CONTINUOUS
 62
    7
 10
38.455928201817506
 20
23.448973140363108
 11
38.434690072917845
 21
23.429757690406272
  0
LINE
  8
_0-0_
  6
CONTINUOUS
 62
    7
 10
38.434690072917845
 20
23.429757690406272
 11
38.41092359533966
 21
23.405485543092375
  0
LINE
  8
_0-0_
  6
CONTINUOUS
 62
    7
 10
38.41092359533966
 20
23.405485543092375
 11
38.385134438818646
 21
23.395372148378253
  0
LINE
  8
_0-0_
  6
CONTINUOUS
 62
    7
 10
38.385134438818646
 20
23.395372148378253
 11
38.35985095203334
 21
23.389809781285485
  0
LINE
  8
_0-0_
  6
CONTINUOUS
 62
    7
 10
38.35985095203334
 20
23.389809781285485
 11
38.257199995684985
 21
23.390315451021191
  0
LINE
  8
_0-0_
  6
CONTINUOUS
 62
    7
 10
38.257199995684985
 20
23.390315451021191
 11
38.223320123392674
 21
23.411553579920852
  0
LINE
  8
_0-0_
  6
CONTINUOUS
 62
    7
 10
38.223320123392674
 20
23.411553579920852
 11
38.195508287928831
 21
23.431274699613389
  0
LINE
  8
_0-0_
  6
CONTINUOUS
 62
    7
 10
38.195508287928831
 20
23.431274699613389
 11
38.167190782729292
 21
23.45402983772017
  0
LINE
  8
_0-0_
  6
CONTINUOUS
 62
    7
 10
38.167190782729292
 20
23.45402983772017
 11
38.150503681450985
 21
23.483864352126829
  0
LINE
  8
_0-0_
  6
CONTINUOUS
 62
    7
 10
38.150503681450985
 20
23.483864352126829
 11
38.130276892022742
 21
23.511676187590669
  0
LINE
  8
_0-0_
  6
CONTINUOUS
 62
    7
 10
38.130276892022742
 20
23.511676187590669
 11
38.125725864401388
 21
23.532914316490327
  0
LINE
  8
_0-0_
  6
CONTINUOUS
 62
    7
 10
38.125725864401388
 20
23.532914316490327
 11
38.126737203872792
 21
23.590054996625127
  0
LINE
  8
_0-0_
  6
CONTINUOUS
 62
    7
 10
38.126737203872792
 20
23.590054996625127
 11
38.133816580172684
 21
23.625957547860263
  0
LINE
  8
_0-0_
  6
CONTINUOUS
 62
    7
 10
38.133816580172684
 20
23.625957547860263
 11
38.155054709072345
 21
23.668433805659581
  0
LINE
  8
_0-0_
  6
CONTINUOUS
 62
    7
 10
38.155054709072345
 20
23.668433805659581
 11
38.17882118665053
 21
23.696751310859124
  0
LINE
  8
_0-0_
  6
CONTINUOUS
 62
    7
 10
38.17882118665053
 20
23.696751310859124
 11
38.198542306343071
 21
23.715966760815959
  0
LINE
  8
_0-0_
  6
CONTINUOUS
 62
    7
 10
38.198542306343071
 20
23.715966760815959
 11
38.229388160221148
 21
23.734676541037085
  0
LINE
  8
_0-0_
  6
CONTINUOUS
 62
    7
 10
38.229388160221148
 20
23.734676541037085
 11
38.276415445641816
 21
23.753891990993921
  0
LINE
  8
_0-0_
  6
CONTINUOUS
 62
    7
 10
38.874515443957157
 20
23.432579900714028
 11
38.924045726058736
 21
23.441288521742876
  0
LINE
  8
_0-0_
  6
CONTINUOUS
 62
    7
 10
38.924045726058736
 20
23.441288521742876
 11
38.98282891800347
 21
23.442921388185787
  0
LINE
  8
_0-0_
  6
CONTINUOUS
 62
    7
 10
38.98282891800347
 20
23.442921388185787
 11
39.018751979747477
 21
23.434212767156935
  0
LINE
  8
_0-0_
  6
CONTINUOUS
 62
    7
 10
39.018751979747477
 20
23.434212767156935
 11
39.050320730977055
 21
23.415162658656328
  0
LINE
  8
_0-0_
  6
CONTINUOUS
 62
    7
 10
39.050320730977055
 20
23.415162658656328
 11
39.084610926278145
 21
23.391213950826994
  0
LINE
  8
_0-0_
  6
CONTINUOUS
 62
    7
 10
39.084610926278145
 20
23.391213950826994
 11
39.108015345293182
 21
23.362366643668927
  0
LINE
  8
_0-0_
  6
CONTINUOUS
 62
    7
 10
39.108015345293182
 20
23.362366643668927
 11
39.129786897865308
 21
23.324266426667712
  0
LINE
  8
_0-0_
  6
CONTINUOUS
 62
    7
 10
39.129786897865308
 20
23.324266426667712
 11
39.137951230079849
 21
23.293786253066741
  0
LINE
  8
_0-0_
  6
CONTINUOUS
 62
    7
 10
39.137951230079849
 20
23.293786253066741
 11
39.146659851108701
 21
23.261128924208556
  0
LINE
  8
_0-0_
  6
CONTINUOUS
 62
    7
 10
39.146659851108701
 20
23.261128924208556
 11
39.13849551889416
 21
23.213775797364185
  0
LINE
  8
_0-0_
  6
CONTINUOUS
 62
    7
 10
39.13849551889416
 20
23.213775797364185
 11
39.128154031422397
 21
23.180574179691696
  0
LINE
  8
_0-0_
  6
CONTINUOUS
 62
    7
 10
39.128154031422397
 20
23.180574179691696
 11
39.115635388693426
 21
23.159346915933873
  0
LINE
  8
_0-0_
  6
CONTINUOUS
 62
    7
 10
39.115635388693426
 20
23.159346915933873
 11
39.10366103477876
 21
23.140841096247569
  0
LINE
  8
_0-0_
  6
CONTINUOUS
 62
    7
 10
39.10366103477876
 20
23.140841096247569
 11
39.085155215092456
 21
23.118525254861143
  0
LINE
  8
_0-0_
  6
CONTINUOUS
 62
    7
 10
39.085155215092456
 20
23.118525254861143
 11
39.062839373706026
 21
23.097297991103324
  0
LINE
  8
_0-0_
  6
CONTINUOUS
 62
    7
 10
39.062839373706026
 20
23.097297991103324
 11
39.0410678211339
 21
23.083146481931443
  0
LINE
  8
_0-0_
  6
CONTINUOUS
 62
    7
 10
39.0410678211339
 20
23.083146481931443
 11
39.018207690933174
 21
23.074437860902591
  0
LINE
  8
_0-0_
  6
CONTINUOUS
 62
    7
 10
39.018207690933174
 20
23.074437860902591
 11
38.969221697645892
 21
23.06681781750235
  0
LINE
  8
_0-0_
  6
CONTINUOUS
 62
    7
 10
38.969221697645892
 20
23.06681781750235
 11
38.915881393844188
 21
23.068450683945258
  0
LINE
  8
_0-0_
  6
CONTINUOUS
 62
    7
 10
38.915881393844188
 20
23.068450683945258
 11
38.870161133442735
 21
23.080969326674228
  0
LINE
  8
_0-0_
  6
CONTINUOUS
 62
    7
 10
38.870161133442735
 20
23.080969326674228
 11
38.828795183555698
 21
23.104918034503565
  0
LINE
  8
_0-0_
  6
CONTINUOUS
 62
    7
 10
38.828795183555698
 20
23.104918034503565
 11
38.803213609283453
 21
23.132676764033025
  0
LINE
  8
_0-0_
  6
CONTINUOUS
 62
    7
 10
38.803213609283453
 20
23.132676764033025
 11
38.779264901454112
 21
23.172954136291451
  0
LINE
  8
_0-0_
  6
CONTINUOUS
 62
    7
 10
38.779264901454112
 20
23.172954136291451
 11
38.767834836353749
 21
23.199079999378
  0
LINE
  8
_0-0_
  6
CONTINUOUS
 62
    7
 10
38.767834836353749
 20
23.199079999378
 11
38.768923413982356
 21
23.313924939195953
  0
LINE
  8
_0-0_
  6
CONTINUOUS
 62
    7
 10
38.768923413982356
 20
23.313924939195953
 11
38.785796367225756
 21
23.349848000939957
  0
LINE
  8
_0-0_
  6
CONTINUOUS
 62
    7
 10
38.785796367225756
 20
23.349848000939957
 11
38.806479342169268
 21
23.378695308098023
  0
LINE
  8
_0-0_
  6
CONTINUOUS
 62
    7
 10
38.806479342169268
 20
23.378695308098023
 11
38.828250894741394
 21
23.401011149484446
  0
LINE
  8
_0-0_
  6
CONTINUOUS
 62
    7
 10
38.828250894741394
 20
23.401011149484446
 11
38.856009624270853
 21
23.423326990870876
  0
LINE
  8
_0-0_
  6
CONTINUOUS
 62
    7
 10
38.856009624270853
 20
23.423326990870876
 11
38.874515443957157
 21
23.432579900714028
  0
LINE
  8
_0-0_
  6
CONTINUOUS
 62
    7
 10
38.767211965459736
 20
24.491602435898066
 11
38.808128160473209
 21
24.497853521247346
  0
LINE
  8
_0-0_
  6
CONTINUOUS
 62
    7
 10
38.808128160473209
 20
24.497853521247346
 11
38.851885757918168
 21
24.497853521247346
  0
LINE
  8
_0-0_
  6
CONTINUOUS
 62
    7
 10
38.851885757918168
 20
24.497853521247346
 11
38.887687428554954
 21
24.486487911521383
  0
LINE
  8
_0-0_
  6
CONTINUOUS
 62
    7
 10
38.887687428554954
 20
24.486487911521383
 11
38.924057379678032
 21
24.466598094500945
  0
LINE
  8
_0-0_
  6
CONTINUOUS
 62
    7
 10
38.924057379678032
 20
24.466598094500945
 11
38.951334843020347
 21
24.443298594562719
  0
LINE
  8
_0-0_
  6
CONTINUOUS
 62
    7
 10
38.951334843020347
 20
24.443298594562719
 11
38.972929501499677
 21
24.412043167816321
  0
LINE
  8
_0-0_
  6
CONTINUOUS
 62
    7
 10
38.972929501499677
 20
24.412043167816321
 11
38.987704794143432
 21
24.386470545932901
  0
LINE
  8
_0-0_
  6
CONTINUOUS
 62
    7
 10
38.987704794143432
 20
24.386470545932901
 11
38.993955879492716
 21
24.350668875296118
  0
LINE
  8
_0-0_
  6
CONTINUOUS
 62
    7
 10
38.993955879492716
 20
24.350668875296118
 11
38.997933842896799
 21
24.316003765631929
  0
LINE
  8
_0-0_
  6
CONTINUOUS
 62
    7
 10
38.997933842896799
 20
24.316003765631929
 11
38.992251038033813
 21
24.280770375481441
  0
LINE
  8
_0-0_
  6
CONTINUOUS
 62
    7
 10
38.992251038033813
 20
24.280770375481441
 11
38.98486339171194
 21
24.248946668248745
  0
LINE
  8
_0-0_
  6
CONTINUOUS
 62
    7
 10
38.98486339171194
 20
24.248946668248745
 11
38.970088099068192
 21
24.22280576587903
  0
LINE
  8
_0-0_
  6
CONTINUOUS
 62
    7
 10
38.970088099068192
 20
24.22280576587903
 11
38.946788599129959
 21
24.200642826913401
  0
LINE
  8
_0-0_
  6
CONTINUOUS
 62
    7
 10
38.946788599129959
 20
24.200642826913401
 11
38.926330501623226
 21
24.181321290379262
  0
LINE
  8
_0-0_
  6
CONTINUOUS
 62
    7
 10
38.926330501623226
 20
24.181321290379262
 11
38.904167562657605
 21
24.165977717249212
  0
LINE
  8
_0-0_
  6
CONTINUOUS
 62
    7
 10
38.904167562657605
 20
24.165977717249212
 11
38.879163221260483
 21
24.149497583146562
  0
LINE
  8
_0-0_
  6
CONTINUOUS
 62
    7
 10
38.879163221260483
 20
24.149497583146562
 11
38.850749196945571
 21
24.144383058769882
  0
LINE
  8
_0-0_
  6
CONTINUOUS
 62
    7
 10
38.850749196945571
 20
24.144383058769882
 11
38.822335172630658
 21
24.140973375852091
  0
LINE
  8
_0-0_
  6
CONTINUOUS
 62
    7
 10
38.822335172630658
 20
24.140973375852091
 11
38.788806623939066
 21
24.148361022173968
  0
LINE
  8
_0-0_
  6
CONTINUOUS
 62
    7
 10
38.788806623939066
 20
24.148361022173968
 11
38.75186839232969
 21
24.156316948982141
  0
LINE
  8
_0-0_
  6
CONTINUOUS
 62
    7
 10
38.75186839232969
 20
24.156316948982141
 11
38.707542514398433
 21
24.183026131838154
  0
LINE
  8
_0-0_
  6
CONTINUOUS
 62
    7
 10
38.707542514398433
 20
24.183026131838154
 11
38.685379575432804
 21
24.20632563177638
  0
LINE
  8
_0-0_
  6
CONTINUOUS
 62
    7
 10
38.685379575432804
 20
24.20632563177638
 11
38.66151179500828
 21
24.232466534146098
  0
LINE
  8
_0-0_
  6
CONTINUOUS
 62
    7
 10
38.66151179500828
 20
24.232466534146098
 11
38.647873063337122
 21
24.256902595056921
  0
LINE
  8
_0-0_
  6
CONTINUOUS
 62
    7
 10
38.647873063337122
 20
24.256902595056921
 11
38.642190258474144
 21
24.375104936206938
  0
LINE
  8
_0-0_
  6
CONTINUOUS
 62
    7
 10
38.642190258474144
 20
24.375104936206938
 11
38.663784916953474
 21
24.40863348489853
  0
LINE
  8
_0-0_
  6
CONTINUOUS
 62
    7
 10
38.663784916953474
 20
24.40863348489853
 11
38.675718807165736
 21
24.433069545809352
  0
LINE
  8
_0-0_
  6
CONTINUOUS
 62
    7
 10
38.675718807165736
 20
24.433069545809352
 11
38.700154868076552
 21
24.455232484774981
  0
LINE
  8
_0-0_
  6
CONTINUOUS
 62
    7
 10
38.700154868076552
 20
24.455232484774981
 11
38.725727489959972
 21
24.472849179850225
  0
LINE
  8
_0-0_
  6
CONTINUOUS
 62
    7
 10
38.725727489959972
 20
24.472849179850225
 11
38.767211965459736
 21
24.491602435898066
  0
LINE
  8
_0-0_
  6
CONTINUOUS
 62
    7
 10
39.455191528048032
 20
24.297890170884659
 11
39.526894200616482
 21
24.293672366615925
  0
LINE
  8
_0-0_
  6
CONTINUOUS
 62
    7
 10
39.526894200616482
 20
24.293672366615925
 11
39.573290047572534
 21
24.269209101857278
  0
LINE
  8
_0-0_
  6
CONTINUOUS
 62
    7
 10
39.573290047572534
 20
24.269209101857278
 11
39.596909751477433
 21
24.241371593683645
  0
LINE
  8
_0-0_
  6
CONTINUOUS
 62
    7
 10
39.596909751477433
 20
24.241371593683645
 11
39.62221657708983
 21
24.205942037826297
  0
LINE
  8
_0-0_
  6
CONTINUOUS
 62
    7
 10
39.62221657708983
 20
24.205942037826297
 11
39.640774915872249
 21
24.165451116846465
  0
LINE
  8
_0-0_
  6
CONTINUOUS
 62
    7
 10
39.640774915872249
 20
24.165451116846465
 11
39.644992720140983
 21
24.074346544641848
  0
LINE
  8
_0-0_
  6
CONTINUOUS
 62
    7
 10
39.644992720140983
 20
24.074346544641848
 11
39.627277942212309
 21
24.035542745369511
  0
LINE
  8
_0-0_
  6
CONTINUOUS
 62
    7
 10
39.627277942212309
 20
24.035542745369511
 11
39.605345360014901
 21
24.005174554634638
  0
LINE
  8
_0-0_
  6
CONTINUOUS
 62
    7
 10
39.605345360014901
 20
24.005174554634638
 11
39.580038534402504
 21
23.977337046461006
  0
LINE
  8
_0-0_
  6
CONTINUOUS
 62
    7
 10
39.580038534402504
 20
23.977337046461006
 11
39.547983221960137
 21
23.964683633654807
  0
LINE
  8
_0-0_
  6
CONTINUOUS
 62
    7
 10
39.547983221960137
 20
23.964683633654807
 11
39.511710105249044
 21
23.957091585971092
  0
LINE
  8
_0-0_
  6
CONTINUOUS
 62
    7
 10
39.511710105249044
 20
23.957091585971092
 11
39.432415384996872
 21
23.958778707678582
  0
LINE
  8
_0-0_
  6
CONTINUOUS
 62
    7
 10
39.432415384996872
 20
23.958778707678582
 11
39.386863098894565
 21
23.973962803046021
  0
LINE
  8
_0-0_
  6
CONTINUOUS
 62
    7
 10
39.386863098894565
 20
23.973962803046021
 11
39.354807786452198
 21
23.996738946097174
  0
LINE
  8
_0-0_
  6
CONTINUOUS
 62
    7
 10
39.354807786452198
 20
23.996738946097174
 11
39.330344521693554
 21
24.027107136832047
  0
LINE
  8
_0-0_
  6
CONTINUOUS
 62
    7
 10
39.330344521693554
 20
24.027107136832047
 11
39.31431686547237
 21
24.063380253543144
  0
LINE
  8
_0-0_
  6
CONTINUOUS
 62
    7
 10
39.31431686547237
 20
24.063380253543144
 11
39.308411939496146
 21
24.155328386601507
  0
LINE
  8
_0-0_
  6
CONTINUOUS
 62
    7
 10
39.308411939496146
 20
24.155328386601507
 11
39.318534669741104
 21
24.202567794411308
  0
LINE
  8
_0-0_
  6
CONTINUOUS
 62
    7
 10
39.318534669741104
 20
24.202567794411308
 11
39.342997934499749
 21
24.23799735026866
  0
LINE
  8
_0-0_
  6
CONTINUOUS
 62
    7
 10
39.342997934499749
 20
24.23799735026866
 11
39.382645294625831
 21
24.278488271248491
  0
LINE
  8
_0-0_
  6
CONTINUOUS
 62
    7
 10
39.382645294625831
 20
24.278488271248491
 11
39.418918411336932
 21
24.29282880576218
  0
LINE
  8
_0-0_
  6
CONTINUOUS
 62
    7
 10
39.418918411336932
 20
24.29282880576218
 11
39.455191528048032
 21
24.297890170884659
  0
LINE
  8
_0-0_
  6
CONTINUOUS
 62
    7
 10
40.135544296048365
 20
24.162204504388075
 11
40.200332960390007
 21
24.162726993616637
  0
LINE
  8
_0-0_
  6
CONTINUOUS
 62
    7
 10
40.200332960390007
 20
24.162726993616637
 11
40.247879480189112
 21
24.145484849074101
  0
LINE
  8
_0-0_
  6
CONTINUOUS
 62
    7
 10
40.247879480189112
 20
24.145484849074101
 11
40.275571409302884
 21
24.124585279931636
  0
LINE
  8
_0-0_
  6
CONTINUOUS
 62
    7
 10
40.275571409302884
 20
24.124585279931636
 11
40.315803079902131
 21
24.088533523160883
  0
LINE
  8
_0-0_
  6
CONTINUOUS
 62
    7
 10
40.315803079902131
 20
24.088533523160883
 11
40.334612692130349
 21
24.051959277161568
  0
LINE
  8
_0-0_
  6
CONTINUOUS
 62
    7
 10
40.334612692130349
 20
24.051959277161568
 11
40.345062476701585
 21
24.025834815733489
  0
LINE
  8
_0-0_
  6
CONTINUOUS
 62
    7
 10
40.345062476701585
 20
24.025834815733489
 11
40.352377325901443
 21
23.993962972791226
  0
LINE
  8
_0-0_
  6
CONTINUOUS
 62
    7
 10
40.352377325901443
 20
23.993962972791226
 11
40.351332347444319
 21
23.960523662163282
  0
LINE
  8
_0-0_
  6
CONTINUOUS
 62
    7
 10
40.351332347444319
 20
23.960523662163282
 11
40.338792605958843
 21
23.922904437706847
  0
LINE
  8
_0-0_
  6
CONTINUOUS
 62
    7
 10
40.338792605958843
 20
23.922904437706847
 11
40.325730375244802
 21
23.891555083993146
  0
LINE
  8
_0-0_
  6
CONTINUOUS
 62
    7
 10
40.325730375244802
 20
23.891555083993146
 11
40.314758101445008
 21
23.871700493307805
  0
LINE
  8
_0-0_
  6
CONTINUOUS
 62
    7
 10
40.314758101445008
 20
23.871700493307805
 11
40.295948489216783
 21
23.849755945708217
  0
LINE
  8
_0-0_
  6
CONTINUOUS
 62
    7
 10
40.295948489216783
 20
23.849755945708217
 11
40.273481452388637
 21
23.837216204222738
  0
LINE
  8
_0-0_
  6
CONTINUOUS
 62
    7
 10
40.273481452388637
 20
23.837216204222738
 11
40.247356990960554
 21
23.828333887337187
  0
LINE
  8
_0-0_
  6
CONTINUOUS
 62
    7
 10
40.247356990960554
 20
23.828333887337187
 11
40.223322486446718
 21
23.820496548908764
  0
LINE
  8
_0-0_
  6
CONTINUOUS
 62
    7
 10
40.223322486446718
 20
23.820496548908764
 11
40.113077259220219
 21
23.820496548908764
  0
LINE
  8
_0-0_
  6
CONTINUOUS
 62
    7
 10
40.113077259220219
 20
23.820496548908764
 11
40.086952797792136
 21
23.834081268851367
  0
LINE
  8
_0-0_
  6
CONTINUOUS
 62
    7
 10
40.086952797792136
 20
23.834081268851367
 11
40.054558465621312
 21
23.851845902622464
  0
LINE
  8
_0-0_
  6
CONTINUOUS
 62
    7
 10
40.054558465621312
 20
23.851845902622464
 11
40.033658896478847
 21
23.876925385593423
  0
LINE
  8
_0-0_
  6
CONTINUOUS
 62
    7
 10
40.033658896478847
 20
23.876925385593423
 11
40.017461730393435
 21
23.904617314707188
  0
LINE
  8
_0-0_
  6
CONTINUOUS
 62
    7
 10
40.017461730393435
 20
23.904617314707188
 11
40.000742075079465
 21
23.935966668420885
  0
LINE
  8
_0-0_
  6
CONTINUOUS
 62
    7
 10
40.000742075079465
 20
23.935966668420885
 11
39.998652118165217
 21
24.022177391133556
  0
LINE
  8
_0-0_
  6
CONTINUOUS
 62
    7
 10
39.998652118165217
 20
24.022177391133556
 11
40.009624391965012
 21
24.064499018647047
  0
LINE
  8
_0-0_
  6
CONTINUOUS
 62
    7
 10
40.009624391965012
 20
24.064499018647047
 11
40.030001471878918
 21
24.095848372360748
  0
LINE
  8
_0-0_
  6
CONTINUOUS
 62
    7
 10
40.030001471878918
 20
24.095848372360748
 11
40.051946019478506
 21
24.120405366103142
  0
LINE
  8
_0-0_
  6
CONTINUOUS
 62
    7
 10
40.051946019478506
 20
24.120405366103142
 11
40.079115459363706
 21
24.140782446017048
  0
LINE
  8
_0-0_
  6
CONTINUOUS
 62
    7
 10
40.079115459363706
 20
24.140782446017048
 11
40.109942323848841
 21
24.154367165959648
  0
LINE
  8
_0-0_
  6
CONTINUOUS
 62
    7
 10
40.109942323848841
 20
24.154367165959648
 11
40.135544296048365
 21
24.162204504388075
  0
LINE
  8
_0-0_
  6
CONTINUOUS
 62
    7
 10
40.802980435967029
 20
24.077736647636399
 11
40.885224934299294
 21
24.077736647636399
  0
LINE
  8
_0-0_
  6
CONTINUOUS
 62
    7
 10
40.885224934299294
 20
24.077736647636399
 11
40.913308421534701
 21
24.06720533992312
  0
LINE
  8
_0-0_
  6
CONTINUOUS
 62
    7
 10
40.913308421534701
 20
24.06720533992312
 11
40.960448560822705
 21
24.043133779435628
  0
LINE
  8
_0-0_
  6
CONTINUOUS
 62
    7
 10
40.960448560822705
 20
24.043133779435628
 11
40.987027575527648
 21
24.011539856295797
  0
LINE
  8
_0-0_
  6
CONTINUOUS
 62
    7
 10
40.987027575527648
 20
24.011539856295797
 11
41.004078264206285
 21
23.98145040568643
  0
LINE
  8
_0-0_
  6
CONTINUOUS
 62
    7
 10
41.004078264206285
 20
23.98145040568643
 11
41.014609571919564
 21
23.955874372668468
  0
LINE
  8
_0-0_
  6
CONTINUOUS
 62
    7
 10
41.014609571919564
 20
23.955874372668468
 11
41.021128952884922
 21
23.932304303024466
  0
LINE
  8
_0-0_
  6
CONTINUOUS
 62
    7
 10
41.021128952884922
 20
23.932304303024466
 11
41.029152806380757
 21
23.903719324945569
  0
LINE
  8
_0-0_
  6
CONTINUOUS
 62
    7
 10
41.029152806380757
 20
23.903719324945569
 11
41.024639388789353
 21
23.876137328553653
  0
LINE
  8
_0-0_
  6
CONTINUOUS
 62
    7
 10
41.024639388789353
 20
23.876137328553653
 11
41.017618516980498
 21
23.843038932883352
  0
LINE
  8
_0-0_
  6
CONTINUOUS
 62
    7
 10
41.017618516980498
 20
23.843038932883352
 11
41.004078264206285
 21
23.811445009743515
  0
LINE
  8
_0-0_
  6
CONTINUOUS
 62
    7
 10
41.004078264206285
 20
23.811445009743515
 11
40.985523102997177
 21
23.781355559134151
  0
LINE
  8
_0-0_
  6
CONTINUOUS
 62
    7
 10
40.985523102997177
 20
23.781355559134151
 11
40.952926198170359
 21
23.754776544429212
  0
LINE
  8
_0-0_
  6
CONTINUOUS
 62
    7
 10
40.952926198170359
 20
23.754776544429212
 11
40.933368055274279
 21
23.741236291654999
  0
LINE
  8
_0-0_
  6
CONTINUOUS
 62
    7
 10
40.933368055274279
 20
23.741236291654999
 11
40.902777113821422
 21
23.73070498394172
  0
LINE
  8
_0-0_
  6
CONTINUOUS
 62
    7
 10
40.902777113821422
 20
23.73070498394172
 11
40.857642937907371
 21
23.722681130445891
  0
LINE
  8
_0-0_
  6
CONTINUOUS
 62
    7
 10
40.857642937907371
 20
23.722681130445891
 11
40.801475963436558
 21
23.725188584663335
  0
LINE
  8
_0-0_
  6
CONTINUOUS
 62
    7
 10
40.801475963436558
 20
23.725188584663335
 11
40.757846260052978
 21
23.741737782498489
  0
LINE
  8
_0-0_
  6
CONTINUOUS
 62
    7
 10
40.757846260052978
 20
23.741737782498489
 11
40.723243391852207
 21
23.762800397925044
  0
LINE
  8
_0-0_
  6
CONTINUOUS
 62
    7
 10
40.723243391852207
 20
23.762800397925044
 11
40.694658413773311
 21
23.792388357690917
  0
LINE
  8
_0-0_
  6
CONTINUOUS
 62
    7
 10
40.694658413773311
 20
23.792388357690917
 11
40.676604743407693
 21
23.828997189265646
  0
LINE
  8
_0-0_
  6
CONTINUOUS
 62
    7
 10
40.676604743407693
 20
23.828997189265646
 11
40.665571944850924
 21
23.86209558493595
  0
LINE
  8
_0-0_
  6
CONTINUOUS
 62
    7
 10
40.665571944850924
 20
23.86209558493595
 11
40.6620615089465
 21
23.901713361571612
  0
LINE
  8
_0-0_
  6
CONTINUOUS
 62
    7
 10
40.6620615089465
 20
23.901713361571612
 11
40.672091325816289
 21
23.944841574111702
  0
LINE
  8
_0-0_
  6
CONTINUOUS
 62
    7
 10
40.672091325816289
 20
23.944841574111702
 11
40.684628596903522
 21
23.984459350747364
  0
LINE
  8
_0-0_
  6
CONTINUOUS
 62
    7
 10
40.684628596903522
 20
23.984459350747364
 11
40.703685248956119
 21
24.013044328826264
  0
LINE
  8
_0-0_
  6
CONTINUOUS
 62
    7
 10
40.703685248956119
 20
24.013044328826264
 11
40.727255318600128
 21
24.033103962565839
  0
LINE
  8
_0-0_
  6
CONTINUOUS
 62
    7
 10
40.727255318600128
 20
24.033103962565839
 11
40.754335824148554
 21
24.054668068835887
  0
LINE
  8
_0-0_
  6
CONTINUOUS
 62
    7
 10
40.754335824148554
 20
24.054668068835887
 11
40.802980435967029
 21
24.077736647636399
  0
LINE
  8
_0-0_
  6
CONTINUOUS
 62
    7
 10
39.718687618897313
 20
25.032304298231327
 11
39.758027297417939
 21
25.039500580887541
  0
LINE
  8
_0-0_
  6
CONTINUOUS
 62
    7
 10
39.758027297417939
 20
25.039500580887541
 11
39.791609949813604
 21
25.037101820002135
  0
LINE
  8
_0-0_
  6
CONTINUOUS
 62
    7
 10
39.791609949813604
 20
25.037101820002135
 11
39.827111610917583
 21
25.01887123727306
  0
LINE
  8
_0-0_
  6
CONTINUOUS
 62
    7
 10
39.827111610917583
 20
25.01887123727306
 11
39.856856245896594
 21
24.997282389304423
  0
LINE
  8
_0-0_
  6
CONTINUOUS
 62
    7
 10
39.856856245896594
 20
24.997282389304423
 11
39.880843854750636
 21
24.970896019564978
  0
LINE
  8
_0-0_
  6
CONTINUOUS
 62
    7
 10
39.880843854750636
 20
24.970896019564978
 11
39.895236420063064
 21
24.946908410710936
  0
LINE
  8
_0-0_
  6
CONTINUOUS
 62
    7
 10
39.895236420063064
 20
24.946908410710936
 11
39.900993446188032
 21
24.851917479648925
  0
LINE
  8
_0-0_
  6
CONTINUOUS
 62
    7
 10
39.900993446188032
 20
24.851917479648925
 11
39.873647572094427
 21
24.805861270649167
  0
LINE
  8
_0-0_
  6
CONTINUOUS
 62
    7
 10
39.873647572094427
 20
24.805861270649167
 11
39.855896741542437
 21
24.779474900909718
  0
LINE
  8
_0-0_
  6
CONTINUOUS
 62
    7
 10
39.855896741542437
 20
24.779474900909718
 11
39.826152106563419
 21
24.763643079066049
  0
LINE
  8
_0-0_
  6
CONTINUOUS
 62
    7
 10
39.826152106563419
 20
24.763643079066049
 11
39.794008710699003
 21
24.749250513753626
  0
LINE
  8
_0-0_
  6
CONTINUOUS
 62
    7
 10
39.794008710699003
 20
24.749250513753626
 11
39.772419862730366
 21
24.743493487628654
  0
LINE
  8
_0-0_
  6
CONTINUOUS
 62
    7
 10
39.772419862730366
 20
24.743493487628654
 11
39.734519440740982
 21
24.743493487628654
  0
LINE
  8
_0-0_
  6
CONTINUOUS
 62
    7
 10
39.734519440740982
 20
24.743493487628654
 11
39.700936788345316
 21
24.754527787701512
  0
LINE
  8
_0-0_
  6
CONTINUOUS
 62
    7
 10
39.700936788345316
 20
24.754527787701512
 11
39.66351611853301
 21
24.77467737913891
  0
LINE
  8
_0-0_
  6
CONTINUOUS
 62
    7
 10
39.66351611853301
 20
24.77467737913891
 11
39.633291731376921
 21
24.806820775003327
  0
LINE
  8
_0-0_
  6
CONTINUOUS
 62
    7
 10
39.633291731376921
 20
24.806820775003327
 11
39.61793966171033
 21
24.839443923044825
  0
LINE
  8
_0-0_
  6
CONTINUOUS
 62
    7
 10
39.61793966171033
 20
24.839443923044825
 11
39.604026848574989
 21
24.874465831971726
  0
LINE
  8
_0-0_
  6
CONTINUOUS
 62
    7
 10
39.604026848574989
 20
24.874465831971726
 11
39.605945857283309
 21
24.91044724525279
  0
LINE
  8
_0-0_
  6
CONTINUOUS
 62
    7
 10
39.605945857283309
 20
24.91044724525279
 11
39.615061148647846
 21
24.93827287152348
  0
LINE
  8
_0-0_
  6
CONTINUOUS
 62
    7
 10
39.615061148647846
 20
24.93827287152348
 11
39.629933466137352
 21
24.969936515210815
  0
LINE
  8
_0-0_
  6
CONTINUOUS
 62
    7
 10
39.629933466137352
 20
24.969936515210815
 11
39.652961570637231
 21
24.992484867533615
  0
LINE
  8
_0-0_
  6
CONTINUOUS
 62
    7
 10
39.652961570637231
 20
24.992484867533615
 11
39.674550418605875
 21
25.01263445897101
  0
LINE
  8
_0-0_
  6
CONTINUOUS
 62
    7
 10
39.674550418605875
 20
25.01263445897101
 11
39.704774805761964
 21
25.027986528637597
  0
LINE
  8
_0-0_
  6
CONTINUOUS
 62
    7
 10
39.704774805761964
 20
25.027986528637597
 11
39.718687618897313
 21
25.032304298231327
  0
LINE
  8
_0-0_
  6
CONTINUOUS
 62
    7
 10
40.307836902343439
 20
24.962604132646212
 11
40.397839771762889
 21
24.96304532318258
  0
LINE
  8
_0-0_
  6
CONTINUOUS
 62
    7
 10
40.397839771762889
 20
24.96304532318258
 11
40.425193585017815
 21
24.947162463873265
  0
LINE
  8
_0-0_
  6
CONTINUOUS
 62
    7
 10
40.425193585017815
 20
24.947162463873265
 11
40.454753350954597
 21
24.925544127591145
  0
LINE
  8
_0-0_
  6
CONTINUOUS
 62
    7
 10
40.454753350954597
 20
24.925544127591145
 11
40.477254068309463
 21
24.90216102916354
  0
LINE
  8
_0-0_
  6
CONTINUOUS
 62
    7
 10
40.477254068309463
 20
24.90216102916354
 11
40.496225261373368
 21
24.871277691617649
  0
LINE
  8
_0-0_
  6
CONTINUOUS
 62
    7
 10
40.496225261373368
 20
24.871277691617649
 11
40.503284309955283
 21
24.8412767351445
  0
LINE
  8
_0-0_
  6
CONTINUOUS
 62
    7
 10
40.503284309955283
 20
24.8412767351445
 11
40.501519547809806
 21
24.750832675188679
  0
LINE
  8
_0-0_
  6
CONTINUOUS
 62
    7
 10
40.501519547809806
 20
24.750832675188679
 11
40.486519069573226
 21
24.719949337642788
  0
LINE
  8
_0-0_
  6
CONTINUOUS
 62
    7
 10
40.486519069573226
 20
24.719949337642788
 11
40.467547876509321
 21
24.700095763506144
  0
LINE
  8
_0-0_
  6
CONTINUOUS
 62
    7
 10
40.467547876509321
 20
24.700095763506144
 11
40.447694302372681
 21
24.6846540947332
  0
LINE
  8
_0-0_
  6
CONTINUOUS
 62
    7
 10
40.447694302372681
 20
24.6846540947332
 11
40.426517156626928
 21
24.671859569178472
  0
LINE
  8
_0-0_
  6
CONTINUOUS
 62
    7
 10
40.426517156626928
 20
24.671859569178472
 11
40.398722152835624
 21
24.658623853087377
  0
LINE
  8
_0-0_
  6
CONTINUOUS
 62
    7
 10
40.398722152835624
 20
24.658623853087377
 11
40.299013091616032
 21
24.658623853087377
  0
LINE
  8
_0-0_
  6
CONTINUOUS
 62
    7
 10
40.299013091616032
 20
24.658623853087377
 11
40.266806182461039
 21
24.678036236687653
  0
LINE
  8
_0-0_
  6
CONTINUOUS
 62
    7
 10
40.266806182461039
 20
24.678036236687653
 11
40.241658321887953
 21
24.701419335115254
  0
LINE
  8
_0-0_
  6
CONTINUOUS
 62
    7
 10
40.241658321887953
 20
24.701419335115254
 11
40.217834032923981
 21
24.727449576761074
  0
LINE
  8
_0-0_
  6
CONTINUOUS
 62
    7
 10
40.217834032923981
 20
24.727449576761074
 11
40.203715935760143
 21
24.761862438597926
  0
LINE
  8
_0-0_
  6
CONTINUOUS
 62
    7
 10
40.203715935760143
 20
24.761862438597926
 11
40.196656887178228
 21
24.783039584343679
  0
LINE
  8
_0-0_
  6
CONTINUOUS
 62
    7
 10
40.196656887178228
 20
24.783039584343679
 11
40.196656887178228
 21
24.835982448708062
  0
LINE
  8
_0-0_
  6
CONTINUOUS
 62
    7
 10
40.196656887178228
 20
24.835982448708062
 11
40.208569031660218
 21
24.869071738935801
  0
LINE
  8
_0-0_
  6
CONTINUOUS
 62
    7
 10
40.208569031660218
 20
24.869071738935801
 11
40.225334272042275
 21
24.902602219699911
  0
LINE
  8
_0-0_
  6
CONTINUOUS
 62
    7
 10
40.225334272042275
 20
24.902602219699911
 11
40.246952608324392
 21
24.922014603300183
  0
LINE
  8
_0-0_
  6
CONTINUOUS
 62
    7
 10
40.246952608324392
 20
24.922014603300183
 11
40.273424040506583
 21
24.943191749045936
  0
LINE
  8
_0-0_
  6
CONTINUOUS
 62
    7
 10
40.273424040506583
 20
24.943191749045936
 11
40.307836902343439
 21
24.962604132646212
  0
LINE
  8
_0-0_
  6
CONTINUOUS
 62
    7
 10
41.022255799183881
 20
24.921792443526552
 11
41.045560672339078
 21
24.926072930432606
  0
LINE
  8
_0-0_
  6
CONTINUOUS
 62
    7
 10
41.045560672339078
 20
24.926072930432606
 11
41.077902128962612
 21
24.920841224214093
  0
LINE
  8
_0-0_
  6
CONTINUOUS
 62
    7
 10
41.077902128962612
 20
24.920841224214093
 11
41.110243585586147
 21
24.907999763495922
  0
LINE
  8
_0-0_
  6
CONTINUOUS
 62
    7
 10
41.110243585586147
 20
24.907999763495922
 11
41.140206993928543
 21
24.884219280684497
  0
LINE
  8
_0-0_
  6
CONTINUOUS
 62
    7
 10
41.140206993928543
 20
24.884219280684497
 11
41.163511867083741
 21
24.863292455810444
  0
LINE
  8
_0-0_
  6
CONTINUOUS
 62
    7
 10
41.163511867083741
 20
24.863292455810444
 11
41.182536253332884
 21
24.834280266780506
  0
LINE
  8
_0-0_
  6
CONTINUOUS
 62
    7
 10
41.182536253332884
 20
24.834280266780506
 11
41.194902104394827
 21
24.806694906719254
  0
LINE
  8
_0-0_
  6
CONTINUOUS
 62
    7
 10
41.194902104394827
 20
24.806694906719254
 11
41.200133810613337
 21
24.784816862532743
  0
LINE
  8
_0-0_
  6
CONTINUOUS
 62
    7
 10
41.200133810613337
 20
24.784816862532743
 11
41.201085029925792
 21
24.722511997566808
  0
LINE
  8
_0-0_
  6
CONTINUOUS
 62
    7
 10
41.201085029925792
 20
24.722511997566808
 11
41.193475275426138
 21
24.695877856818015
  0
LINE
  8
_0-0_
  6
CONTINUOUS
 62
    7
 10
41.193475275426138
 20
24.695877856818015
 11
41.17349966986454
 21
24.67209737400659
  0
LINE
  8
_0-0_
  6
CONTINUOUS
 62
    7
 10
41.17349966986454
 20
24.67209737400659
 11
41.158755770521459
 21
24.652597378101219
  0
LINE
  8
_0-0_
  6
CONTINUOUS
 62
    7
 10
41.158755770521459
 20
24.652597378101219
 11
41.144011871178378
 21
24.637853478758135
  0
LINE
  8
_0-0_
  6
CONTINUOUS
 62
    7
 10
41.144011871178378
 20
24.637853478758135
 11
41.12926797183529
 21
24.625487627696195
  0
LINE
  8
_0-0_
  6
CONTINUOUS
 62
    7
 10
41.12926797183529
 20
24.625487627696195
 11
41.097402124867983
 21
24.609316899384424
  0
LINE
  8
_0-0_
  6
CONTINUOUS
 62
    7
 10
41.097402124867983
 20
24.609316899384424
 11
40.98848751359165
 21
24.609792509040655
  0
LINE
  8
_0-0_
  6
CONTINUOUS
 62
    7
 10
40.98848751359165
 20
24.609792509040655
 11
40.95852410524926
 21
24.62453640838374
  0
LINE
  8
_0-0_
  6
CONTINUOUS
 62
    7
 10
40.95852410524926
 20
24.62453640838374
 11
40.93902410934389
 21
24.64260957532042
  0
LINE
  8
_0-0_
  6
CONTINUOUS
 62
    7
 10
40.93902410934389
 20
24.64260957532042
 11
40.922853381032119
 21
24.660207132600874
  0
LINE
  8
_0-0_
  6
CONTINUOUS
 62
    7
 10
40.922853381032119
 20
24.660207132600874
 11
40.900499727189384
 21
24.684938834724757
  0
LINE
  8
_0-0_
  6
CONTINUOUS
 62
    7
 10
40.900499727189384
 20
24.684938834724757
 11
40.888609485783668
 21
24.709194927192413
  0
LINE
  8
_0-0_
  6
CONTINUOUS
 62
    7
 10
40.888609485783668
 20
24.709194927192413
 11
40.883853389221386
 21
24.768646134220972
  0
LINE
  8
_0-0_
  6
CONTINUOUS
 62
    7
 10
40.883853389221386
 20
24.768646134220972
 11
40.887182656814985
 21
24.802414419813196
  0
LINE
  8
_0-0_
  6
CONTINUOUS
 62
    7
 10
40.887182656814985
 20
24.802414419813196
 11
40.900024117533149
 21
24.838085144030337
  0
LINE
  8
_0-0_
  6
CONTINUOUS
 62
    7
 10
40.900024117533149
 20
24.838085144030337
 11
40.919048503782292
 21
24.866146113747817
  0
LINE
  8
_0-0_
  6
CONTINUOUS
 62
    7
 10
40.919048503782292
 20
24.866146113747817
 11
40.93902410934389
 21
24.887072938621869
  0
LINE
  8
_0-0_
  6
CONTINUOUS
 62
    7
 10
40.93902410934389
 20
24.887072938621869
 11
40.966133859748914
 21
24.902768057277413
  0
LINE
  8
_0-0_
  6
CONTINUOUS
 62
    7
 10
40.966133859748914
 20
24.902768057277413
 11
40.995146048778849
 21
24.917036346964266
  0
LINE
  8
_0-0_
  6
CONTINUOUS
 62
    7
 10
40.995146048778849
 20
24.917036346964266
 11
41.022255799183881
 21
24.921792443526552
  0
LINE
  8
_0-0_
  6
CONTINUOUS
 62
    7
 10
40.647201040397249
 20
25.523465299476455
 11
40.673667409524327
 21
25.529572923121165
  0
LINE
  8
_0-0_
  6
CONTINUOUS
 62
    7
 10
40.673667409524327
 20
25.529572923121165
 11
40.719983555496703
 21
25.530081891758225
  0
LINE
  8
_0-0_
  6
CONTINUOUS
 62
    7
 10
40.719983555496703
 20
25.530081891758225
 11
40.755102391453789
 21
25.518884581742923
  0
LINE
  8
_0-0_
  6
CONTINUOUS
 62
    7
 10
40.755102391453789
 20
25.518884581742923
 11
40.784622572403215
 21
25.498016867623498
  0
LINE
  8
_0-0_
  6
CONTINUOUS
 62
    7
 10
40.784622572403215
 20
25.498016867623498
 11
40.812106878804407
 21
25.469514623948185
  0
LINE
  8
_0-0_
  6
CONTINUOUS
 62
    7
 10
40.812106878804407
 20
25.469514623948185
 11
40.831447687012655
 21
25.439485474361699
  0
LINE
  8
_0-0_
  6
CONTINUOUS
 62
    7
 10
40.831447687012655
 20
25.439485474361699
 11
40.838064279294428
 21
25.411492199323447
  0
LINE
  8
_0-0_
  6
CONTINUOUS
 62
    7
 10
40.838064279294428
 20
25.411492199323447
 11
40.845189840213251
 21
25.387570673381667
  0
LINE
  8
_0-0_
  6
CONTINUOUS
 62
    7
 10
40.845189840213251
 20
25.387570673381667
 11
40.842136028390896
 21
25.358050492432234
  0
LINE
  8
_0-0_
  6
CONTINUOUS
 62
    7
 10
40.842136028390896
 20
25.358050492432234
 11
40.829411812464421
 21
25.336164841038694
  0
LINE
  8
_0-0_
  6
CONTINUOUS
 62
    7
 10
40.829411812464421
 20
25.336164841038694
 11
40.818723471086173
 21
25.313770221008091
  0
LINE
  8
_0-0_
  6
CONTINUOUS
 62
    7
 10
40.818723471086173
 20
25.313770221008091
 11
40.800400600152045
 21
25.291375600977488
  0
LINE
  8
_0-0_
  6
CONTINUOUS
 62
    7
 10
40.800400600152045
 20
25.291375600977488
 11
40.782586697854981
 21
25.27305273004336
  0
LINE
  8
_0-0_
  6
CONTINUOUS
 62
    7
 10
40.782586697854981
 20
25.27305273004336
 11
40.760192077824378
 21
25.257783670931587
  0
LINE
  8
_0-0_
  6
CONTINUOUS
 62
    7
 10
40.760192077824378
 20
25.257783670931587
 11
40.737288489156711
 21
25.24913120410158
  0
LINE
  8
_0-0_
  6
CONTINUOUS
 62
    7
 10
40.737288489156711
 20
25.24913120410158
 11
40.66755978587961
 21
25.248113266827459
  0
LINE
  8
_0-0_
  6
CONTINUOUS
 62
    7
 10
40.66755978587961
 20
25.248113266827459
 11
40.639057542204298
 21
25.257274702294527
  0
LINE
  8
_0-0_
  6
CONTINUOUS
 62
    7
 10
40.639057542204298
 20
25.257274702294527
 11
40.605974580795461
 21
25.273561698680417
  0
LINE
  8
_0-0_
  6
CONTINUOUS
 62
    7
 10
40.605974580795461
 20
25.273561698680417
 11
40.587142741224269
 21
25.290357663703368
  0
LINE
  8
_0-0_
  6
CONTINUOUS
 62
    7
 10
40.587142741224269
 20
25.290357663703368
 11
40.569837807564255
 21
25.312243315096914
  0
LINE
  8
_0-0_
  6
CONTINUOUS
 62
    7
 10
40.569837807564255
 20
25.312243315096914
 11
40.552023905267191
 21
25.340236590135166
  0
LINE
  8
_0-0_
  6
CONTINUOUS
 62
    7
 10
40.552023905267191
 20
25.340236590135166
 11
40.548970093444836
 21
25.391642422478138
  0
LINE
  8
_0-0_
  6
CONTINUOUS
 62
    7
 10
40.548970093444836
 20
25.391642422478138
 11
40.553041842541304
 21
25.430833007531692
  0
LINE
  8
_0-0_
  6
CONTINUOUS
 62
    7
 10
40.553041842541304
 20
25.430833007531692
 11
40.565257089830723
 21
25.453736596199355
  0
LINE
  8
_0-0_
  6
CONTINUOUS
 62
    7
 10
40.565257089830723
 20
25.453736596199355
 11
40.58103511757956
 21
25.47969399668937
  0
LINE
  8
_0-0_
  6
CONTINUOUS
 62
    7
 10
40.58103511757956
 20
25.47969399668937
 11
40.610046329891929
 21
25.505651397179384
  0
LINE
  8
_0-0_
  6
CONTINUOUS
 62
    7
 10
40.610046329891929
 20
25.505651397179384
 11
40.647201040397249
 21
25.523465299476455
  0
LINE
  8
_0-0_
  6
CONTINUOUS
 62
    7
 10
41.311856325090154
 20
25.596463193739111
 11
41.337518932870764
 21
25.604327541284785
  0
LINE
  8
_0-0_
  6
CONTINUOUS
 62
    7
 10
41.337518932870764
 20
25.604327541284785
 11
41.369390236082161
 21
25.601844063112466
  0
LINE
  8
_0-0_
  6
CONTINUOUS
 62
    7
 10
41.369390236082161
 20
25.601844063112466
 11
41.408298060781795
 21
25.586529281049845
  0
LINE
  8
_0-0_
  6
CONTINUOUS
 62
    7
 10
41.408298060781795
 20
25.586529281049845
 11
41.431477190390083
 21
25.569144933843627
  0
LINE
  8
_0-0_
  6
CONTINUOUS
 62
    7
 10
41.431477190390083
 20
25.569144933843627
 11
41.452586754854777
 21
25.550932760579968
  0
LINE
  8
_0-0_
  6
CONTINUOUS
 62
    7
 10
41.452586754854777
 20
25.550932760579968
 11
41.472454580233318
 21
25.524028413713203
  0
LINE
  8
_0-0_
  6
CONTINUOUS
 62
    7
 10
41.472454580233318
 20
25.524028413713203
 11
41.486113710181058
 21
25.496296240788996
  0
LINE
  8
_0-0_
  6
CONTINUOUS
 62
    7
 10
41.486113710181058
 20
25.496296240788996
 11
41.493150231669289
 21
25.477670154496621
  0
LINE
  8
_0-0_
  6
CONTINUOUS
 62
    7
 10
41.493150231669289
 20
25.477670154496621
 11
41.496461535899044
 21
25.450351894601134
  0
LINE
  8
_0-0_
  6
CONTINUOUS
 62
    7
 10
41.496461535899044
 20
25.450351894601134
 11
41.487769362295935
 21
25.429656243165158
  0
LINE
  8
_0-0_
  6
CONTINUOUS
 62
    7
 10
41.487769362295935
 20
25.429656243165158
 11
41.478249362635388
 21
25.398612766011197
  0
LINE
  8
_0-0_
  6
CONTINUOUS
 62
    7
 10
41.478249362635388
 20
25.398612766011197
 11
41.462520667544048
 21
25.365499723713639
  0
LINE
  8
_0-0_
  6
CONTINUOUS
 62
    7
 10
41.462520667544048
 20
25.365499723713639
 11
41.444308494280392
 21
25.347701463478699
  0
LINE
  8
_0-0_
  6
CONTINUOUS
 62
    7
 10
41.444308494280392
 20
25.347701463478699
 11
41.427751973131606
 21
25.32907537718632
  0
LINE
  8
_0-0_
  6
CONTINUOUS
 62
    7
 10
41.427751973131606
 20
25.32907537718632
 11
41.407884147753073
 21
25.317899725410896
  0
LINE
  8
_0-0_
  6
CONTINUOUS
 62
    7
 10
41.407884147753073
 20
25.317899725410896
 11
41.389258061460694
 21
25.312104943008822
  0
LINE
  8
_0-0_
  6
CONTINUOUS
 62
    7
 10
41.389258061460694
 20
25.312104943008822
 11
41.349936323732343
 21
25.307965812721629
  0
LINE
  8
_0-0_
  6
CONTINUOUS
 62
    7
 10
41.349936323732343
 20
25.307965812721629
 11
41.324273715951733
 21
25.307965812721629
  0
LINE
  8
_0-0_
  6
CONTINUOUS
 62
    7
 10
41.324273715951733
 20
25.307965812721629
 11
41.292402412740337
 21
25.315830160267299
  0
LINE
  8
_0-0_
  6
CONTINUOUS
 62
    7
 10
41.292402412740337
 20
25.315830160267299
 11
41.259703283471495
 21
25.328661464157605
  0
LINE
  8
_0-0_
  6
CONTINUOUS
 62
    7
 10
41.259703283471495
 20
25.328661464157605
 11
41.223278936944183
 21
25.367569288857236
  0
LINE
  8
_0-0_
  6
CONTINUOUS
 62
    7
 10
41.223278936944183
 20
25.367569288857236
 11
41.203825024594365
 21
25.403993635384551
  0
LINE
  8
_0-0_
  6
CONTINUOUS
 62
    7
 10
41.203825024594365
 20
25.403993635384551
 11
41.196374590077411
 21
25.429656243165158
  0
LINE
  8
_0-0_
  6
CONTINUOUS
 62
    7
 10
41.196374590077411
 20
25.429656243165158
 11
41.190165894646625
 21
25.467736241807351
  0
LINE
  8
_0-0_
  6
CONTINUOUS
 62
    7
 10
41.190165894646625
 20
25.467736241807351
 11
41.195546764019979
 21
25.502918849248509
  0
LINE
  8
_0-0_
  6
CONTINUOUS
 62
    7
 10
41.195546764019979
 20
25.502918849248509
 11
41.212103285168751
 21
25.533134500345031
  0
LINE
  8
_0-0_
  6
CONTINUOUS
 62
    7
 10
41.212103285168751
 20
25.533134500345031
 11
41.233212849633446
 21
25.551346673608691
  0
LINE
  8
_0-0_
  6
CONTINUOUS
 62
    7
 10
41.233212849633446
 20
25.551346673608691
 11
41.255564153184302
 21
25.57369797715954
  0
LINE
  8
_0-0_
  6
CONTINUOUS
 62
    7
 10
41.255564153184302
 20
25.57369797715954
 11
41.284951978223389
 21
25.587771020136003
  0
LINE
  8
_0-0_
  6
CONTINUOUS
 62
    7
 10
41.284951978223389
 20
25.587771020136003
 11
41.311856325090154
 21
25.596463193739111
  0
ENDSEC
  0
EOF
