  0
SECTION
  2
HEADER
  9
$ACADVER
  1
AC1009
  9
$INSBASE
 10
0
 20
0
 30
0
  9
$EXTMIN
 10
0
 20
0
  9
$EXTMAX
 10
74.25
 20
52.5
  9
$LIMMIN
 10
0
 20
0
  9
$LIMMAX
 10
74.25
 20
52.5
  9
$LTSCALE
 40
0.25
  0
ENDSEC
  0
SECTION
  2
TABLES
  0
TABLE
  2
LTYPE
 70
     9
  0
LTYPE
  2
CONTINUOUS
 70
    64
  3
実線
 72
    65
 73
     0
 40
0.0
  0
LTYPE
  2
DASHED1
 70
    64
  3
--  --  --  --  --  --  --  --  
 72
    65
 73
     2
 40
2.5
 49
1.25
 49
-1.25
  0
LTYPE
  2
DASHED2
 70
    64
  3
----    ----    ----    ----    
 72
    65
 73
     2
 40
5.0
 49
2.5
 49
-2.5
  0
LTYPE
  2
DASHED3
 70
    64
  3
------  ------  ------  ------  
 72
    65
 73
     2
 40
5.0
 49
3.75
 49
-1.25
  0
LTYPE
  2
CENTER1
 70
    64
  3
----- - ----- - ----- - ----- - 
 72
    65
 73
     4
 40
10.0
 49
6.25
 49
-1.25
 49
1.25
 49
-1.25
  0
LTYPE
  2
CENTER2
 70
    64
  3
----------  --  ----------  --  
 72
    65
 73
     4
 40
20.0
 49
12.5
 49
-2.5
 49
2.5
 49
-2.5
  0
LTYPE
  2
PHANTOM1
 70
    64
  3
--- - - --- - - --- - - --- - - 
 72
    65
 73
     6
 40
10.0
 49
3.25
 49
-1.25
 49
1.25
 49
-1.25
 49
1.25
 49
-1.25
  0
LTYPE
  2
PHANTOM2
 70
    64
  3
--------  -  -  --------  -  -  
 72
    65
 73
     6
 40
20.0
 49
10.0
 49
-2.5
 49
1.25
 49
-2.5
 49
1.25
 49
-2.5
  0
LTYPE
  2
DOT
 70
    64
  3
-   -   -   -   -   -   -   -   
 72
    65
 73
     2
 40
2.5
 49
0.625
 49
-1.875
  0
LTYPE
  2
DUMMY
 70
    64
  3
ダミー
 72
    65
 73
     0
 40
0.0
  0
LTYPE
  2
RAND1
 70
    64
  3
ランダム線1
 72
    65
 73
     4
 40
10.0
 49
1.0
 49
-2.0
 49
3.0
 49
-4.0
  0
LTYPE
  2
RAND2
 70
    64
  3
ランダム線2
 72
    65
 73
     4
 40
14.0
 49
2.0
 49
-3.0
 49
4.0
 49
-5.0
  0
LTYPE
  2
RAND3
 70
    64
  3
ランダム線3
 72
    65
 73
     4
 40
18.0
 49
3.0
 49
-4.0
 49
5.0
 49
-6.0
  0
LTYPE
  2
RAND4
 70
    64
  3
ランダム線4
 72
    65
 73
     4
 40
22.0
 49
4.0
 49
-5.0
 49
6.0
 49
-7.0
  0
LTYPE
  2
RAND5
 70
    64
  3
ランダム線5
 72
    65
 73
     4
 40
26.0
 49
5.0
 49
-6.0
 49
7.0
 49
-8.0
  0
LTYPE
  2
LONG1
 70
    64
  3
----------  --  ----------  --  
 72
    65
 73
     4
 40
40.0
 49
32.5
 49
-2.5
 49
2.5
 49
-2.5
  0
LTYPE
  2
LONG2
 70
    64
  3
--------  -  -  --------  -  -  
 72
    65
 73
     6
 40
40.0
 49
30.0
 49
-2.5
 49
1.25
 49
-2.5
 49
1.25
 49
-2.5
  0
LTYPE
  2
LONG3
 70
    64
  3
+++++++++++++++..+++++++++++++++
 72
    65
 73
     2
 40
40.0
 49
37.5
 49
-2.5
  0
LTYPE
  2
LONG4
 70
    64
  3
+++++++++++++++..+++++++++++++++
 72
    65
 73
     2
 40
80.0
 49
75.0
 49
-5.0
  0
LTYPE
  2
LONG5
 70
    64
  3
----------  --  ----------  --  
 72
    65
 73
     4
 40
60.0
 49
37.5
 49
-7.5
 49
7.5
 49
-7.5
  0
LTYPE
  2
dashed
 70
   64
  3
-------   -------------   ------
 72
   65
 73
    2
 40
7.5
 49
6
 49
-1.5
  0
LTYPE
  2
dashed_spaced
 70
   64
  3
----        --------        ----
 72
   65
 73
    2
 40
12
 49
6
 49
-6
  0
LTYPE
  2
long_dashed_dotted
 70
   64
  3
------------- --- --------------
 72
   65
 73
    4
 40
15.25
 49
12
 49
-1.5
 49
0.25
 49
-1.5
  0
LTYPE
  2
long_dashed_double-dotted
 70
   64
  3
----------- --- --- ------------
 72
   65
 73
    6
 40
17
 49
12
 49
-1.5
 49
0.25
 49
-1.5
 49
0.25
 49
-1.5
  0
LTYPE
  2
long_dashed_triplicate-dotted
 70
   64
  3
--------- --- --- --- ----------
 72
   65
 73
    8
 40
18.75
 49
12
 49
-1.5
 49
0.25
 49
-1.5
 49
0.25
 49
-1.5
 49
0.25
 49
-1.5
  0
LTYPE
  2
dotted
 70
   64
  3
   -       -       -       -    
 72
   65
 73
    2
 40
1.75
 49
0.25
 49
-1.5
  0
LTYPE
  2
chain
 70
   64
  3
-------------- -- --------------
 72
   65
 73
    4
 40
18.5
 49
12
 49
-1.5
 49
3.5
 49
-1.5
  0
LTYPE
  2
chain_double_dash
 70
   64
  3
------------ -- -- -------------
 72
   65
 73
    6
 40
23.5
 49
12
 49
-1.5
 49
3.5
 49
-1.5
 49
3.5
 49
-1.5
  0
LTYPE
  2
dashed_dotted
 70
   64
  3
-----------     -     ----------
 72
   65
 73
    4
 40
9.25
 49
6
 49
-1.5
 49
0.25
 49
-1.5
  0
LTYPE
  2
double-dashed_dotted
 70
   64
  3
------   -----------   -   -----
 72
   65
 73
    6
 40
16.75
 49
6
 49
-1.5
 49
6
 49
-1.5
 49
0.25
 49
-1.5
  0
LTYPE
  2
dashed_double-dotted
 70
   64
  3
---------    -    -    ---------
 72
   65
 73
    6
 40
11
 49
6
 49
-1.5
 49
0.25
 49
-1.5
 49
0.25
 49
-1.5
  0
LTYPE
  2
double-dashed_double-dotted
 70
   64
  3
-----   ---------   -   -   ----
 72
   65
 73
    8
 40
18.5
 49
6
 49
-1.5
 49
6
 49
-1.5
 49
0.25
 49
-1.5
 49
0.25
 49
-1.5
  0
LTYPE
  2
dashed_triplicate-dotted
 70
   64
  3
-------    -    -    -    ------
 72
   65
 73
    8
 40
12.75
 49
6
 49
-1.5
 49
0.25
 49
-1.5
 49
0.25
 49
-1.5
 49
0.25
 49
-1.5
  0
LTYPE
  2
double-dashed_triplicate-dotted
 70
   64
  3
-----  ---------  -  -  -  -----
 72
   65
 73
   10
 40
20.25
 49
6
 49
-1.5
 49
6
 49
-1.5
 49
0.25
 49
-1.5
 49
0.25
 49
-1.5
 49
0.25
 49
-1.5
  0
LTYPE
  2
undefined
 70
   64
  3
--------------------------------
 72
   65
 73
    0
 40
0
  0
LTYPE
  2
_
 70
   64
  3
                                
 72
   65
 73
    0
 40
0
  0
LTYPE
  2
__18
 70
   64
  3
                                
 72
   65
 73
    0
 40
0
  0
LTYPE
  2
__19
 70
   64
  3
                                
 72
   65
 73
    0
 40
0
  0
LTYPE
  2
__20
 70
   64
  3
                                
 72
   65
 73
    0
 40
0
  0
LTYPE
  2
__21
 70
   64
  3
                                
 72
   65
 73
    0
 40
0
  0
LTYPE
  2
__22
 70
   64
  3
                                
 72
   65
 73
    0
 40
0
  0
LTYPE
  2
__23
 70
   64
  3
                                
 72
   65
 73
    0
 40
0
  0
LTYPE
  2
__24
 70
   64
  3
                                
 72
   65
 73
    0
 40
0
  0
LTYPE
  2
__25
 70
   64
  3
                                
 72
   65
 73
    0
 40
0
  0
LTYPE
  2
__26
 70
   64
  3
                                
 72
   65
 73
    0
 40
0
  0
LTYPE
  2
__27
 70
   64
  3
                                
 72
   65
 73
    0
 40
0
  0
LTYPE
  2
__28
 70
   64
  3
                                
 72
   65
 73
    0
 40
0
  0
LTYPE
  2
__29
 70
   64
  3
                                
 72
   65
 73
    0
 40
0
  0
LTYPE
  2
__30
 70
   64
  3
                                
 72
   65
 73
    0
 40
0
  0
LTYPE
  2
__31
 70
   64
  3
                                
 72
   65
 73
    0
 40
0
  0
LTYPE
  2
__32
 70
   64
  3
                                
 72
   65
 73
    0
 40
0
  0
ENDTAB
  0
TABLE
  2
STYLE
  5
3
100
AcDbSymbolTable
 70
     1
  0
STYLE
  5
10
100
AcDbSymbolTableRecord
100
AcDbTextStyleTableRecord
  2
STANDARD
 70
     0
 40
0.0
 41
1.0
 50
0.0
 71
     0
 42
0.2
  3
txt
  4
bigfont.shx
  0
STYLE
  5
26
100
AcDbSymbolTableRecord
100
AcDbTextStyleTableRecord
  2
TATEGAKI
 70
    68
 40
0.0
 41
1.0
 50
0.0
 71
     0
 42
1.0
  3
txt
  4
bigfont.shx
  0
ENDTAB
  0
TABLE
  2
LAYER
 70
    2
  0
LAYER
  2
_0-1_
 70
   64
 62
    7
  6
CONTINUOUS
  0
LAYER
  2
ADD_LINE
 70
   64
 62
    7
  6
CONTINUOUS
  0
ENDTAB
  0
ENDSEC
  0
SECTION
  2
BLOCKS
  0
ENDSEC
  0
SECTION
  2
ENTITIES
  0
CIRCLE
  8
_0-1_
  6
CONTINUOUS
 62
    1
 10
47.639215834213572
 20
25.083355339268649
 40
12.41245806790018
  0
LINE
  8
_0-1_
  6
CONTINUOUS
 62
    1
 10
40.488607212916853
 20
34.088367453012089
 11
40.886547876532034
 21
34.370776956222854
  0
LINE
  8
_0-1_
  6
CONTINUOUS
 62
    1
 10
40.886547876532034
 20
34.370776956222854
 11
41.310162131348185
 21
34.704533641835588
  0
LINE
  8
_0-1_
  6
CONTINUOUS
 62
    1
 10
41.310162131348185
 20
34.704533641835588
 11
41.746613181764836
 21
34.948432758244891
  0
LINE
  8
_0-1_
  6
CONTINUOUS
 62
    1
 10
41.746613181764836
 20
34.948432758244891
 11
42.157390640980501
 21
35.218005465855171
  0
LINE
  8
_0-1_
  6
CONTINUOUS
 62
    1
 10
42.157390640980501
 20
35.218005465855171
 11
42.683699260600576
 21
35.449067786663981
  0
LINE
  8
_0-1_
  6
CONTINUOUS
 62
    1
 10
42.683699260600576
 20
35.449067786663981
 11
43.145823902218197
 21
35.667293311872306
  0
LINE
  8
_0-1_
  6
CONTINUOUS
 62
    1
 10
43.145823902218197
 20
35.667293311872306
 11
43.633622135036802
 21
35.885518837080631
  0
LINE
  8
_0-1_
  6
CONTINUOUS
 62
    1
 10
43.633622135036802
 20
35.885518837080631
 11
44.211277937058831
 21
36.065233975487487
  0
LINE
  8
_0-1_
  6
CONTINUOUS
 62
    1
 10
44.211277937058831
 20
36.065233975487487
 11
44.865954512683799
 21
36.232112318293843
  0
LINE
  8
_0-1_
  6
CONTINUOUS
 62
    1
 10
44.865954512683799
 20
36.232112318293843
 11
45.417936723504851
 21
36.321969887497274
  0
LINE
  8
_0-1_
  6
CONTINUOUS
 62
    1
 10
45.417936723504851
 20
36.321969887497274
 11
45.892898160722964
 21
36.398990661100214
  0
LINE
  8
_0-1_
  6
CONTINUOUS
 62
    1
 10
45.892898160722964
 20
36.398990661100214
 11
46.483390758345485
 21
36.450337843502168
  0
LINE
  8
_0-1_
  6
CONTINUOUS
 62
    1
 10
46.483390758345485
 20
36.450337843502168
 11
47.202251311972901
 21
36.373317069899229
  0
LINE
  8
_0-1_
  6
CONTINUOUS
 62
    1
 10
47.202251311972901
 20
36.373317069899229
 11
47.694844376245121
 21
36.262398658741339
  0
LINE
  8
_0-1_
  6
CONTINUOUS
 62
    1
 10
47.694844376245121
 20
36.262398658741339
 11
48.061436553204728
 21
36.170750614501436
  0
LINE
  8
_0-1_
  6
CONTINUOUS
 62
    1
 10
48.061436553204728
 20
36.170750614501436
 11
48.395951914680367
 21
36.065355363625549
  0
LINE
  8
_0-1_
  6
CONTINUOUS
 62
    1
 10
48.395951914680367
 20
36.065355363625549
 11
48.721302471732023
 21
35.941630503901677
  0
LINE
  8
_0-1_
  6
CONTINUOUS
 62
    1
 10
48.721302471732023
 20
35.941630503901677
 11
48.950422582331775
 21
35.831652850813796
  0
LINE
  8
_0-1_
  6
CONTINUOUS
 62
    1
 10
48.950422582331775
 20
35.831652850813796
 11
49.225366715051485
 21
35.657521566757985
  0
LINE
  8
_0-1_
  6
CONTINUOUS
 62
    1
 10
49.225366715051485
 20
35.657521566757985
 11
49.431574814591265
 21
35.515467098186135
  0
LINE
  8
_0-1_
  6
CONTINUOUS
 62
    1
 10
49.431574814591265
 20
35.515467098186135
 11
49.633200511919042
 21
35.350500618554313
  0
LINE
  8
_0-1_
  6
CONTINUOUS
 62
    1
 10
49.633200511919042
 20
35.350500618554313
 11
49.898979840214764
 21
35.153457323438523
  0
LINE
  8
_0-1_
  6
CONTINUOUS
 62
    1
 10
49.898979840214764
 20
35.153457323438523
 11
50.073111124270575
 21
34.938084419474755
  0
LINE
  8
_0-1_
  6
CONTINUOUS
 62
    1
 10
50.073111124270575
 20
34.938084419474755
 11
50.242660006114391
 21
34.745623526570959
  0
LINE
  8
_0-1_
  6
CONTINUOUS
 62
    1
 10
50.242660006114391
 20
34.745623526570959
 11
50.393879279110237
 21
34.534833024819185
  0
LINE
  8
_0-1_
  6
CONTINUOUS
 62
    1
 10
50.393879279110237
 20
34.534833024819185
 11
50.558845758742059
 21
34.296548109795438
  0
LINE
  8
_0-1_
  6
CONTINUOUS
 62
    1
 10
50.558845758742059
 20
34.296548109795438
 11
50.66882341182994
 21
34.003274368227756
  0
LINE
  8
_0-1_
  6
CONTINUOUS
 62
    1
 10
50.66882341182994
 20
34.003274368227756
 11
50.806295478189795
 21
33.710000626660068
  0
LINE
  8
_0-1_
  6
CONTINUOUS
 62
    1
 10
50.806295478189795
 20
33.710000626660068
 11
50.916273131277677
 21
33.343408449700461
  0
LINE
  8
_0-1_
  6
CONTINUOUS
 62
    1
 10
50.916273131277677
 20
33.343408449700461
 11
50.998756371093584
 21
33.022640294860806
  0
LINE
  8
_0-1_
  6
CONTINUOUS
 62
    1
 10
50.998756371093584
 20
33.022640294860806
 11
51.099569219757476
 21
32.610224095781248
  0
LINE
  8
_0-1_
  6
CONTINUOUS
 62
    1
 10
51.099569219757476
 20
32.610224095781248
 11
51.145393241877428
 21
32.261961527669619
  0
LINE
  8
_0-1_
  6
CONTINUOUS
 62
    1
 10
51.145393241877428
 20
32.261961527669619
 11
51.154558046301417
 21
31.932028568405968
  0
LINE
  8
_0-1_
  6
CONTINUOUS
 62
    1
 10
51.154558046301417
 20
31.932028568405968
 11
51.108734024181472
 21
31.51044756490242
  0
LINE
  8
_0-1_
  6
CONTINUOUS
 62
    1
 10
51.108734024181472
 20
31.51044756490242
 11
51.066463259568692
 21
31.105506206310515
  0
LINE
  8
_0-1_
  6
CONTINUOUS
 62
    1
 10
51.066463259568692
 20
31.105506206310515
 11
50.998301380803034
 21
30.759453591038713
  0
LINE
  8
_0-1_
  6
CONTINUOUS
 62
    1
 10
50.998301380803034
 20
30.759453591038713
 11
50.903923394819813
 21
30.408157754323404
  0
LINE
  8
_0-1_
  6
CONTINUOUS
 62
    1
 10
50.903923394819813
 20
30.408157754323404
 11
50.814788630280112
 21
30.119780574930238
  0
LINE
  8
_0-1_
  6
CONTINUOUS
 62
    1
 10
50.814788630280112
 20
30.119780574930238
 11
50.709924201409869
 21
29.87859238852868
  0
LINE
  8
_0-1_
  6
CONTINUOUS
 62
    1
 10
50.709924201409869
 20
29.87859238852868
 11
50.568357222435039
 21
29.595458430579025
  0
LINE
  8
_0-1_
  6
CONTINUOUS
 62
    1
 10
50.568357222435039
 20
29.595458430579025
 11
50.400574136242653
 21
29.29135158685532
  0
LINE
  8
_0-1_
  6
CONTINUOUS
 62
    1
 10
50.400574136242653
 20
29.29135158685532
 11
50.211818164276216
 21
29.002974407462154
  0
LINE
  8
_0-1_
  6
CONTINUOUS
 62
    1
 10
50.211818164276216
 20
29.002974407462154
 11
50.033548635196801
 21
28.782759106834646
  0
LINE
  8
_0-1_
  6
CONTINUOUS
 62
    1
 10
50.033548635196801
 20
28.782759106834646
 11
49.829062998899829
 21
28.567787027650648
  0
LINE
  8
_0-1_
  6
CONTINUOUS
 62
    1
 10
49.829062998899829
 20
28.567787027650648
 11
49.598361255385299
 21
28.347571727023137
  0
LINE
  8
_0-1_
  6
CONTINUOUS
 62
    1
 10
49.598361255385299
 20
28.347571727023137
 11
49.431152131303591
 21
28.213039662026517
  0
LINE
  8
_0-1_
  6
CONTINUOUS
 62
    1
 10
49.431152131303591
 20
28.213039662026517
 11
49.225596133232649
 21
28.071108139548961
  0
LINE
  8
_0-1_
  6
CONTINUOUS
 62
    1
 10
49.225596133232649
 20
28.071108139548961
 11
49.059193658603788
 21
27.953647569222702
  0
LINE
  8
_0-1_
  6
CONTINUOUS
 62
    1
 10
49.059193658603788
 20
27.953647569222702
 11
48.878108612684144
 21
27.80682185631489
  0
LINE
  8
_0-1_
  6
CONTINUOUS
 62
    1
 10
48.878108612684144
 20
27.80682185631489
 11
48.599139758159296
 21
27.640419381686029
  0
LINE
  8
_0-1_
  6
CONTINUOUS
 62
    1
 10
48.599139758159296
 20
27.640419381686029
 11
48.295699951483136
 21
27.50338204963873
  0
LINE
  8
_0-1_
  6
CONTINUOUS
 62
    1
 10
48.295699951483136
 20
27.50338204963873
 11
48.002048525667504
 21
27.400604050603259
  0
LINE
  8
_0-1_
  6
CONTINUOUS
 62
    1
 10
48.002048525667504
 20
27.400604050603259
 11
47.698608718991351
 21
27.307614432428309
  0
LINE
  8
_0-1_
  6
CONTINUOUS
 62
    1
 10
47.698608718991351
 20
27.307614432428309
 11
47.532206244362484
 21
27.253778337695443
  0
LINE
  8
_0-1_
  6
CONTINUOUS
 62
    1
 10
47.532206244362484
 20
27.253778337695443
 11
47.27770834198894
 21
27.195048052532314
  0
LINE
  8
_0-1_
  6
CONTINUOUS
 62
    1
 10
47.27770834198894
 20
27.195048052532314
 11
47.013422058754869
 21
27.151000338659969
  0
LINE
  8
_0-1_
  6
CONTINUOUS
 62
    1
 10
47.013422058754869
 20
27.151000338659969
 11
46.690405490357669
 21
27.121635196078408
  0
LINE
  8
_0-1_
  6
CONTINUOUS
 62
    1
 10
46.690405490357669
 20
27.121635196078408
 11
46.357600541099948
 21
27.082481672636323
  0
LINE
  8
_0-1_
  6
CONTINUOUS
 62
    1
 10
46.357600541099948
 20
27.082481672636323
 11
45.995430449260666
 21
27.028645577903454
  0
LINE
  8
_0-1_
  6
CONTINUOUS
 62
    1
 10
45.995430449260666
 20
27.028645577903454
 11
45.638154547851641
 21
26.965021102310068
  0
LINE
  8
_0-1_
  6
CONTINUOUS
 62
    1
 10
45.638154547851641
 20
26.965021102310068
 11
45.28577283687288
 21
26.852454722414073
  0
LINE
  8
_0-1_
  6
CONTINUOUS
 62
    1
 10
45.28577283687288
 20
26.852454722414073
 11
44.987227220626991
 21
26.749676723378605
  0
LINE
  8
_0-1_
  6
CONTINUOUS
 62
    1
 10
44.987227220626991
 20
26.749676723378605
 11
44.757200270404744
 21
26.61753358176157
  0
LINE
  8
_0-1_
  6
CONTINUOUS
 62
    1
 10
44.757200270404744
 20
26.61753358176157
 11
44.48801979674041
 21
26.495178821005055
  0
LINE
  8
_0-1_
  6
CONTINUOUS
 62
    1
 10
44.48801979674041
 20
26.495178821005055
 11
44.209050942215554
 21
26.323882155945931
  0
LINE
  8
_0-1_
  6
CONTINUOUS
 62
    1
 10
44.209050942215554
 20
26.323882155945931
 11
44.002187512658515
 21
26.225223144601176
  0
LINE
  8
_0-1_
  6
CONTINUOUS
 62
    1
 10
44.002187512658515
 20
26.225223144601176
 11
43.822988407732097
 21
26.068423927790561
  0
LINE
  8
_0-1_
  6
CONTINUOUS
 62
    1
 10
43.822988407732097
 20
26.068423927790561
 11
43.615789442660926
 21
25.917224683008893
  0
LINE
  8
_0-1_
  6
CONTINUOUS
 62
    1
 10
43.615789442660926
 20
25.917224683008893
 11
43.430990365705554
 21
25.754825494169324
  0
LINE
  8
_0-1_
  6
CONTINUOUS
 62
    1
 10
43.430990365705554
 20
25.754825494169324
 11
43.285391092952835
 21
25.620426165474508
  0
LINE
  8
_0-1_
  6
CONTINUOUS
 62
    1
 10
43.285391092952835
 20
25.620426165474508
 11
43.06139221179481
 21
25.390827312287534
  0
LINE
  8
_0-1_
  6
CONTINUOUS
 62
    1
 10
43.06139221179481
 20
25.390827312287534
 11
42.898993022955238
 21
25.194828291274262
  0
LINE
  8
_0-1_
  6
CONTINUOUS
 62
    1
 10
42.898993022955238
 20
25.194828291274262
 11
42.68619408585512
 21
24.965229438087284
  0
LINE
  8
_0-1_
  6
CONTINUOUS
 62
    1
 10
42.68619408585512
 20
24.965229438087284
 11
42.540594813102401
 21
24.752430500987159
  0
LINE
  8
_0-1_
  6
CONTINUOUS
 62
    1
 10
42.540594813102401
 20
24.752430500987159
 11
42.400595512378636
 21
24.528431619829135
  0
LINE
  8
_0-1_
  6
CONTINUOUS
 62
    1
 10
42.400595512378636
 20
24.528431619829135
 11
42.249396267596964
 21
24.282032850555307
  0
LINE
  8
_0-1_
  6
CONTINUOUS
 62
    1
 10
42.249396267596964
 20
24.282032850555307
 11
42.154196743104805
 21
24.102833745628885
  0
LINE
  8
_0-1_
  6
CONTINUOUS
 62
    1
 10
42.154196743104805
 20
24.102833745628885
 11
42.030997358467892
 21
23.85643497635506
  0
LINE
  8
_0-1_
  6
CONTINUOUS
 62
    1
 10
42.030997358467892
 20
23.85643497635506
 11
41.90779797383098
 21
23.582036346936476
  0
LINE
  8
_0-1_
  6
CONTINUOUS
 62
    1
 10
41.90779797383098
 20
23.582036346936476
 11
41.801398505280914
 21
23.318837661575798
  0
LINE
  8
_0-1_
  6
CONTINUOUS
 62
    1
 10
41.801398505280914
 20
23.318837661575798
 11
41.716578125163927
 21
22.993589167941614
  0
LINE
  8
_0-1_
  6
CONTINUOUS
 62
    1
 10
41.716578125163927
 20
22.993589167941614
 11
41.636682543143322
 21
22.706905020691202
  0
LINE
  8
_0-1_
  6
CONTINUOUS
 62
    1
 10
41.636682543143322
 20
22.706905020691202
 11
41.599084622192442
 21
22.424920613559642
  0
LINE
  8
_0-1_
  6
CONTINUOUS
 62
    1
 10
41.599084622192442
 20
22.424920613559642
 11
41.552087221003851
 21
22.077139844764054
  0
LINE
  8
_0-1_
  6
CONTINUOUS
 62
    1
 10
41.552087221003851
 20
22.077139844764054
 11
41.528588520409556
 21
21.677661934661017
  0
LINE
  8
_0-1_
  6
CONTINUOUS
 62
    1
 10
41.528588520409556
 20
21.677661934661017
 11
41.56148670124157
 21
21.235886363488248
  0
LINE
  8
_0-1_
  6
CONTINUOUS
 62
    1
 10
41.56148670124157
 20
21.235886363488248
 11
41.608484102430161
 21
20.878706114454942
  0
LINE
  8
_0-1_
  6
CONTINUOUS
 62
    1
 10
41.608484102430161
 20
20.878706114454942
 11
41.674280464094195
 21
20.55442404625365
  0
LINE
  8
_0-1_
  6
CONTINUOUS
 62
    1
 10
41.674280464094195
 20
20.55442404625365
 11
41.758875786233659
 21
20.183144576863767
  0
LINE
  8
_0-1_
  6
CONTINUOUS
 62
    1
 10
41.758875786233659
 20
20.183144576863767
 11
41.831327335441891
 21
19.960256901865101
  0
LINE
  8
_0-1_
  6
CONTINUOUS
 62
    1
 10
41.831327335441891
 20
19.960256901865101
 11
41.899134697014936
 21
19.748857480490308
  0
LINE
  8
_0-1_
  6
CONTINUOUS
 62
    1
 10
41.899134697014936
 20
19.748857480490308
 11
41.978908063571459
 21
19.537458059115522
  0
LINE
  8
_0-1_
  6
CONTINUOUS
 62
    1
 10
41.978908063571459
 20
19.537458059115522
 11
41.807395325474935
 21
19.445718687575521
  0
LINE
  8
_0-1_
  6
CONTINUOUS
 62
    1
 10
41.807395325474935
 20
19.445718687575521
 11
41.671780602328844
 21
19.389877330985953
  0
LINE
  8
_0-1_
  6
CONTINUOUS
 62
    1
 10
41.671780602328844
 20
19.389877330985953
 11
41.468358517609708
 21
19.250273939512034
  0
LINE
  8
_0-1_
  6
CONTINUOUS
 62
    1
 10
41.468358517609708
 20
19.250273939512034
 11
41.2689251012184
 21
19.150557231316383
  0
LINE
  8
_0-1_
  6
CONTINUOUS
 62
    1
 10
41.2689251012184
 20
19.150557231316383
 11
41.049548343187957
 21
19.002976503186815
  0
LINE
  8
_0-1_
  6
CONTINUOUS
 62
    1
 10
41.049548343187957
 20
19.002976503186815
 11
40.838148921813164
 21
18.88331645335203
  0
LINE
  8
_0-1_
  6
CONTINUOUS
 62
    1
 10
40.838148921813164
 20
18.88331645335203
 11
40.662647515388812
 21
18.755679066861588
  0
LINE
  8
_0-1_
  6
CONTINUOUS
 62
    1
 10
40.662647515388812
 20
18.755679066861588
 11
40.495123445620116
 21
18.624053012043326
  0
LINE
  8
_0-1_
  6
CONTINUOUS
 62
    1
 10
40.495123445620116
 20
18.624053012043326
 11
40.311644702540107
 21
18.480460952241578
  0
LINE
  8
_0-1_
  6
CONTINUOUS
 62
    1
 10
40.311644702540107
 20
18.480460952241578
 11
40.100245281165321
 21
18.308948214145054
  0
LINE
  8
_0-1_
  6
CONTINUOUS
 62
    1
 10
40.100245281165321
 20
18.308948214145054
 11
39.92075520641314
 21
18.149401481032008
  0
LINE
  8
_0-1_
  6
CONTINUOUS
 62
    1
 10
39.92075520641314
 20
18.149401481032008
 11
39.745253799988788
 21
17.989854747918961
  0
LINE
  8
_0-1_
  6
CONTINUOUS
 62
    1
 10
39.745253799988788
 20
17.989854747918961
 11
39.605933292793437
 21
17.850081625877898
  0
LINE
  8
_0-1_
  6
CONTINUOUS
 62
    1
 10
39.605933292793437
 20
17.850081625877898
 11
39.490799391415762
 21
17.738059451564481
  0
LINE
  8
_0-1_
  6
CONTINUOUS
 62
    1
 10
39.490799391415762
 20
17.738059451564481
 11
39.375665490038088
 21
17.610478641929759
  0
LINE
  8
_0-1_
  6
CONTINUOUS
 62
    1
 10
39.375665490038088
 20
17.610478641929759
 11
39.282313678110241
 21
17.501568194680601
  0
LINE
  8
_0-1_
  6
CONTINUOUS
 62
    1
 10
39.282313678110241
 20
17.501568194680601
 11
39.198297047375177
 21
17.423775018074067
  0
LINE
  8
_0-1_
  6
CONTINUOUS
 62
    1
 10
39.198297047375177
 20
17.423775018074067
 11
39.011593423519478
 21
17.610478641929759
  0
LINE
  8
_0-1_
  6
CONTINUOUS
 62
    1
 10
39.011593423519478
 20
17.610478641929759
 11
38.824889799663786
 21
17.831411263492327
  0
LINE
  8
_0-1_
  6
CONTINUOUS
 62
    1
 10
38.824889799663786
 20
17.831411263492327
 11
38.663079992322181
 21
18.030561795605073
  0
LINE
  8
_0-1_
  6
CONTINUOUS
 62
    1
 10
38.663079992322181
 20
18.030561795605073
 11
38.516828820301888
 21
18.217265419460765
  0
LINE
  8
_0-1_
  6
CONTINUOUS
 62
    1
 10
38.516828820301888
 20
18.217265419460765
 11
38.355019012960291
 21
18.431974586894817
  0
LINE
  8
_0-1_
  6
CONTINUOUS
 62
    1
 10
38.355019012960291
 20
18.431974586894817
 11
38.23677338451835
 21
18.590672667172157
  0
LINE
  8
_0-1_
  6
CONTINUOUS
 62
    1
 10
38.23677338451835
 20
18.590672667172157
 11
38.134086391397715
 21
18.761817655706543
  0
LINE
  8
_0-1_
  6
CONTINUOUS
 62
    1
 10
38.134086391397715
 20
18.761817655706543
 11
38.043846306534135
 21
18.904957100662571
  0
LINE
  8
_0-1_
  6
CONTINUOUS
 62
    1
 10
38.043846306534135
 20
18.904957100662571
 11
37.950494494606289
 21
19.0325379102973
  0
LINE
  8
_0-1_
  6
CONTINUOUS
 62
    1
 10
37.950494494606289
 20
19.0325379102973
 11
37.869589590935483
 21
19.166342174060545
  0
LINE
  8
_0-1_
  6
CONTINUOUS
 62
    1
 10
37.869589590935483
 20
19.166342174060545
 11
37.785572960200425
 21
19.325040254337885
  0
LINE
  8
_0-1_
  6
CONTINUOUS
 62
    1
 10
37.785572960200425
 20
19.325040254337885
 11
37.689109421208314
 21
19.489961788743748
  0
LINE
  8
_0-1_
  6
CONTINUOUS
 62
    1
 10
37.689109421208314
 20
19.489961788743748
 11
37.57625598174534
 21
19.652757344138805
  0
LINE
  8
_0-1_
  6
CONTINUOUS
 62
    1
 10
37.57625598174534
 20
19.652757344138805
 11
37.470295422327794
 21
19.834112916988075
  0
LINE
  8
_0-1_
  6
CONTINUOUS
 62
    1
 10
37.470295422327794
 20
19.834112916988075
 11
37.37248567517313
 21
20.037883223560285
  0
LINE
  8
_0-1_
  6
CONTINUOUS
 62
    1
 10
37.37248567517313
 20
20.037883223560285
 11
37.262449709624135
 21
20.264068263855442
  0
LINE
  8
_0-1_
  6
CONTINUOUS
 62
    1
 10
37.262449709624135
 20
20.264068263855442
 11
37.162602259403755
 21
20.496366413347761
  0
LINE
  8
_0-1_
  6
CONTINUOUS
 62
    1
 10
37.162602259403755
 20
20.496366413347761
 11
37.093320355169197
 21
20.663458064736975
  0
LINE
  8
_0-1_
  6
CONTINUOUS
 62
    1
 10
37.093320355169197
 20
20.663458064736975
 11
37.026076154000371
 21
20.863152965177739
  0
LINE
  8
_0-1_
  6
CONTINUOUS
 62
    1
 10
37.026076154000371
 20
20.863152965177739
 11
36.946605734437206
 21
21.062847865618508
  0
LINE
  8
_0-1_
  6
CONTINUOUS
 62
    1
 10
36.946605734437206
 20
21.062847865618508
 11
36.822305847428161
 21
21.366465622411105
  0
LINE
  8
_0-1_
  6
CONTINUOUS
 62
    1
 10
36.822305847428161
 20
21.366465622411105
 11
36.732646912536388
 21
21.712875143583865
  0
LINE
  8
_0-1_
  6
CONTINUOUS
 62
    1
 10
36.732646912536388
 20
21.712875143583865
 11
36.610384728593061
 21
22.014455197310738
  0
LINE
  8
_0-1_
  6
CONTINUOUS
 62
    1
 10
36.610384728593061
 20
22.014455197310738
 11
36.53295201209562
 21
22.311959844906169
  0
LINE
  8
_0-1_
  6
CONTINUOUS
 62
    1
 10
36.53295201209562
 20
22.311959844906169
 11
36.432357885810965
 21
22.74894358130755
  0
LINE
  8
_0-1_
  6
CONTINUOUS
 62
    1
 10
36.432357885810965
 20
22.74894358130755
 11
36.353547431543319
 21
23.170579511639452
  0
LINE
  8
_0-1_
  6
CONTINUOUS
 62
    1
 10
36.353547431543319
 20
23.170579511639452
 11
36.2904990681292
 21
23.537048123984
  0
LINE
  8
_0-1_
  6
CONTINUOUS
 62
    1
 10
36.2904990681292
 20
23.537048123984
 11
36.235331750141853
 21
23.962624577029281
  0
LINE
  8
_0-1_
  6
CONTINUOUS
 62
    1
 10
36.235331750141853
 20
23.962624577029281
 11
36.202326379046077
 21
24.615437839879611
  0
LINE
  8
_0-1_
  6
CONTINUOUS
 62
    1
 10
36.202326379046077
 20
24.615437839879611
 11
36.209424909324084
 21
25.474360003518548
  0
LINE
  8
_0-1_
  6
CONTINUOUS
 62
    1
 10
36.209424909324084
 20
25.474360003518548
 11
36.241368295575114
 21
26.091932137705221
  0
LINE
  8
_0-1_
  6
CONTINUOUS
 62
    1
 10
36.241368295575114
 20
26.091932137705221
 11
36.328363049620492
 21
26.858179044936832
  0
LINE
  8
_0-1_
  6
CONTINUOUS
 62
    1
 10
36.328363049620492
 20
26.858179044936832
 11
36.470383999367015
 21
27.568283793669451
  0
LINE
  8
_0-1_
  6
CONTINUOUS
 62
    1
 10
36.470383999367015
 20
27.568283793669451
 11
36.612404949113539
 21
28.149893397393306
  0
LINE
  8
_0-1_
  6
CONTINUOUS
 62
    1
 10
36.612404949113539
 20
28.149893397393306
 11
36.781477508335584
 21
28.684162684534992
  0
LINE
  8
_0-1_
  6
CONTINUOUS
 62
    1
 10
36.781477508335584
 20
28.684162684534992
 11
37.004653286508698
 21
29.313112604841023
  0
LINE
  8
_0-1_
  6
CONTINUOUS
 62
    1
 10
37.004653286508698
 20
29.313112604841023
 11
37.224247764136578
 21
29.791264191474965
  0
LINE
  8
_0-1_
  6
CONTINUOUS
 62
    1
 10
37.224247764136578
 20
29.791264191474965
 11
37.414408427908412
 21
30.226632026952572
  0
LINE
  8
_0-1_
  6
CONTINUOUS
 62
    1
 10
37.414408427908412
 20
30.226632026952572
 11
37.594560635692246
 21
30.59194067051424
  0
LINE
  8
_0-1_
  6
CONTINUOUS
 62
    1
 10
37.594560635692246
 20
30.59194067051424
 11
37.79973398344606
 21
30.952245086081916
  0
LINE
  8
_0-1_
  6
CONTINUOUS
 62
    1
 10
37.79973398344606
 20
30.952245086081916
 11
38.049945383145839
 21
31.34757909760756
  0
LINE
  8
_0-1_
  6
CONTINUOUS
 62
    1
 10
38.049945383145839
 20
31.34757909760756
 11
38.343952650537744
 21
31.818331438829943
  0
LINE
  8
_0-1_
  6
CONTINUOUS
 62
    1
 10
38.343952650537744
 20
31.818331438829943
 11
38.658615667521885
 21
32.237882128142132
  0
LINE
  8
_0-1_
  6
CONTINUOUS
 62
    1
 10
38.658615667521885
 20
32.237882128142132
 11
39.094302921807617
 21
32.770388772269143
  0
LINE
  8
_0-1_
  6
CONTINUOUS
 62
    1
 10
39.094302921807617
 20
32.770388772269143
 11
39.400897656304984
 21
33.141529766660696
  0
LINE
  8
_0-1_
  6
CONTINUOUS
 62
    1
 10
39.400897656304984
 20
33.141529766660696
 11
39.812380063130405
 21
33.544943890999334
  0
LINE
  8
_0-1_
  6
CONTINUOUS
 62
    1
 10
39.812380063130405
 20
33.544943890999334
 11
40.304545294823547
 21
33.940289732851205
  0
LINE
  8
_0-1_
  6
CONTINUOUS
 62
    1
 10
40.304545294823547
 20
33.940289732851205
 11
40.322845490743702
 21
33.962926149745918
  0
LINE
  8
_0-1_
  6
CONTINUOUS
 62
    1
 10
40.322845490743702
 20
33.962926149745918
 11
40.488607212916853
 21
34.088367453012089
  0
LINE
  8
_0-1_
  6
CONTINUOUS
 62
    7
 10
46.471332200260185
 20
35.276868521549374
 11
47.223357043938058
 21
35.276868521549374
  0
LINE
  8
_0-1_
  6
CONTINUOUS
 62
    7
 10
47.223357043938058
 20
35.276868521549374
 11
47.481865583952327
 21
35.206366192454574
  0
LINE
  8
_0-1_
  6
CONTINUOUS
 62
    7
 10
47.481865583952327
 20
35.206366192454574
 11
47.658121406689332
 21
35.124113475177303
  0
LINE
  8
_0-1_
  6
CONTINUOUS
 62
    7
 10
47.658121406689332
 20
35.124113475177303
 11
47.857878005791263
 21
35.035985563808807
  0
LINE
  8
_0-1_
  6
CONTINUOUS
 62
    7
 10
47.857878005791263
 20
35.035985563808807
 11
48.063509798984426
 21
34.871480129254265
  0
LINE
  8
_0-1_
  6
CONTINUOUS
 62
    7
 10
48.063509798984426
 20
34.871480129254265
 11
48.222140039447729
 21
34.671723530152334
  0
LINE
  8
_0-1_
  6
CONTINUOUS
 62
    7
 10
48.222140039447729
 20
34.671723530152334
 11
48.357269503546099
 21
34.489592513324097
  0
LINE
  8
_0-1_
  6
CONTINUOUS
 62
    7
 10
48.357269503546099
 20
34.489592513324097
 11
48.463022997188303
 21
34.295711108313398
  0
LINE
  8
_0-1_
  6
CONTINUOUS
 62
    7
 10
48.463022997188303
 20
34.295711108313398
 11
48.557026102648038
 21
34.066578538755294
  0
LINE
  8
_0-1_
  6
CONTINUOUS
 62
    7
 10
48.557026102648038
 20
34.066578538755294
 11
48.609902849469136
 21
33.878572327835833
  0
LINE
  8
_0-1_
  6
CONTINUOUS
 62
    7
 10
48.609902849469136
 20
33.878572327835833
 11
48.686280372655168
 21
33.58481262327416
  0
LINE
  8
_0-1_
  6
CONTINUOUS
 62
    7
 10
48.686280372655168
 20
33.58481262327416
 11
48.745032313567506
 21
33.220550589617694
  0
LINE
  8
_0-1_
  6
CONTINUOUS
 62
    7
 10
48.745032313567506
 20
33.220550589617694
 11
48.768408085802832
 21
33.058031331789038
  0
LINE
  8
_0-1_
  6
CONTINUOUS
 62
    7
 10
48.768408085802832
 20
33.058031331789038
 11
48.752754790907275
 21
31.233304383964274
  0
LINE
  8
_0-1_
  6
CONTINUOUS
 62
    7
 10
48.752754790907275
 20
31.233304383964274
 11
48.721448201116167
 21
30.884459526291891
  0
LINE
  8
_0-1_
  6
CONTINUOUS
 62
    7
 10
48.721448201116167
 20
30.884459526291891
 11
48.676724501414582
 21
30.620589698052526
  0
LINE
  8
_0-1_
  6
CONTINUOUS
 62
    7
 10
48.676724501414582
 20
30.620589698052526
 11
48.615369506292047
 21
30.401559872279928
  0
LINE
  8
_0-1_
  6
CONTINUOUS
 62
    7
 10
48.615369506292047
 20
30.401559872279928
 11
48.548738594821742
 21
30.195873145567237
  0
LINE
  8
_0-1_
  6
CONTINUOUS
 62
    7
 10
48.548738594821742
 20
30.195873145567237
 11
48.48500467950231
 21
30.033641361117791
  0
LINE
  8
_0-1_
  6
CONTINUOUS
 62
    7
 10
48.48500467950231
 20
30.033641361117791
 11
48.432858748786422
 21
29.917761515082474
  0
LINE
  8
_0-1_
  6
CONTINUOUS
 62
    7
 10
48.432858748786422
 20
29.917761515082474
 11
48.366227837316117
 21
29.793190680594506
  0
LINE
  8
_0-1_
  6
CONTINUOUS
 62
    7
 10
48.366227837316117
 20
29.793190680594506
 11
48.293802933544036
 21
29.694692811464484
  0
LINE
  8
_0-1_
  6
CONTINUOUS
 62
    7
 10
48.293802933544036
 20
29.694692811464484
 11
48.183717079810485
 21
29.599091938485347
  0
LINE
  8
_0-1_
  6
CONTINUOUS
 62
    7
 10
48.183717079810485
 20
29.599091938485347
 11
48.073631226076933
 21
29.471624107846498
  0
LINE
  8
_0-1_
  6
CONTINUOUS
 62
    7
 10
48.073631226076933
 20
29.471624107846498
 11
47.954854383890733
 21
29.370229242565592
  0
LINE
  8
_0-1_
  6
CONTINUOUS
 62
    7
 10
47.954854383890733
 20
29.370229242565592
 11
47.830283549402764
 21
29.263040384982922
  0
LINE
  8
_0-1_
  6
CONTINUOUS
 62
    7
 10
47.830283549402764
 20
29.263040384982922
 11
47.702815718763915
 21
29.199306469663497
  0
LINE
  8
_0-1_
  6
CONTINUOUS
 62
    7
 10
47.702815718763915
 20
29.199306469663497
 11
47.557965911219767
 21
29.132675558193191
  0
LINE
  8
_0-1_
  6
CONTINUOUS
 62
    7
 10
47.557965911219767
 20
29.132675558193191
 11
47.398631122921202
 21
29.080529627477297
  0
LINE
  8
_0-1_
  6
CONTINUOUS
 62
    7
 10
47.398631122921202
 20
29.080529627477297
 11
47.265369299980591
 21
29.039971681364935
  0
LINE
  8
_0-1_
  6
CONTINUOUS
 62
    7
 10
47.265369299980591
 20
29.039971681364935
 11
46.332536539396272
 21
29.031280692912286
  0
LINE
  8
_0-1_
  6
CONTINUOUS
 62
    7
 10
46.332536539396272
 20
29.031280692912286
 11
46.094982855023872
 21
29.129778562042307
  0
LINE
  8
_0-1_
  6
CONTINUOUS
 62
    7
 10
46.094982855023872
 20
29.129778562042307
 11
45.90088411291471
 21
29.231173427323213
  0
LINE
  8
_0-1_
  6
CONTINUOUS
 62
    7
 10
45.90088411291471
 20
29.231173427323209
 11
45.767622289974092
 21
29.312289319547936
  0
LINE
  8
_0-1_
  6
CONTINUOUS
 62
    7
 10
45.767622289974092
 20
29.312289319547932
 11
45.595343476320522
 21
29.458988273571371
  0
LINE
  8
_0-1_
  6
CONTINUOUS
 62
    7
 10
45.595343476320522
 20
29.458988273571367
 11
45.469108410001197
 21
29.614809683559286
  0
LINE
  8
_0-1_
  6
CONTINUOUS
 62
    7
 10
45.469108410001197
 20
29.614809683559286
 11
45.333011229125673
 21
29.756824133168528
  0
LINE
  8
_0-1_
  6
CONTINUOUS
 62
    7
 10
45.333011229125673
 20
29.756824133168528
 11
45.238334929386176
 21
29.914617966067687
  0
LINE
  8
_0-1_
  6
CONTINUOUS
 62
    7
 10
45.238334929386176
 20
29.914617966067684
 11
45.137741360912968
 21
30.08621875934552
  0
LINE
  8
_0-1_
  6
CONTINUOUS
 62
    7
 10
45.137741360912968
 20
30.08621875934552
 11
45.03912021535099
 21
30.316992239960537
  0
LINE
  8
_0-1_
  6
CONTINUOUS
 62
    7
 10
45.03912021535099
 20
30.316992239960537
 11
44.968112990546373
 21
30.559600258042991
  0
LINE
  8
_0-1_
  6
CONTINUOUS
 62
    7
 10
44.968112990546373
 20
30.559600258042991
 11
44.928855712792881
 21
30.785323776452635
  0
LINE
  8
_0-1_
  6
CONTINUOUS
 62
    7
 10
44.928855712792881
 20
30.785323776452635
 11
44.87828148372597
 21
30.973669181253544
  0
LINE
  8
_0-1_
  6
CONTINUOUS
 62
    7
 10
44.87828148372597
 20
30.973669181253544
 11
44.831195132525749
 21
31.678220510323612
  0
LINE
  8
_0-1_
  6
CONTINUOUS
 62
    7
 10
44.831195132525749
 20
31.678220510323612
 11
44.845657869589963
 21
32.890410612117953
  0
LINE
  8
_0-1_
  6
CONTINUOUS
 62
    7
 10
44.845657869589963
 20
32.890410612117953
 11
44.912414037931966
 21
33.551903552961491
  0
LINE
  8
_0-1_
  6
CONTINUOUS
 62
    7
 10
44.912414037931966
 20
33.551903552961491
 11
45.003445176580164
 21
33.909959364977723
  0
LINE
  8
_0-1_
  6
CONTINUOUS
 62
    7
 10
45.003445176580164
 20
33.909959364977723
 11
45.082338830075265
 21
34.170915295769212
  0
LINE
  8
_0-1_
  6
CONTINUOUS
 62
    7
 10
45.082338830075265
 20
34.170915295769212
 11
45.227988651912376
 21
34.437939969137246
  0
LINE
  8
_0-1_
  6
CONTINUOUS
 62
    7
 10
45.227988651912376
 20
34.437939969137246
 11
45.385775958902577
 21
34.668552187046003
  0
LINE
  8
_0-1_
  6
CONTINUOUS
 62
    7
 10
45.385775958902577
 20
34.668552187046003
 11
45.604250691658236
 21
34.893095662378215
  0
LINE
  8
_0-1_
  6
CONTINUOUS
 62
    7
 10
45.604250691658236
 20
34.893095662378215
 11
45.853069137296635
 21
35.081226682251141
  0
LINE
  8
_0-1_
  6
CONTINUOUS
 62
    7
 10
45.853069137296635
 20
35.081226682251141
 11
46.083224218245504
 21
35.162195842196474
  0
LINE
  8
_0-1_
  6
CONTINUOUS
 62
    7
 10
46.083224218245504
 20
35.162195842196474
 11
46.270025636759626
 21
35.235451300437304
  0
LINE
  8
_0-1_
  6
CONTINUOUS
 62
    7
 10
46.270025636759626
 20
35.235451300437304
 11
46.471332200260185
 21
35.276868521549374
  0
LINE
  8
_0-1_
  6
CONTINUOUS
 62
    7
 10
46.707338867205493
 20
34.274826656252457
 11
46.934831076167974
 21
34.278715411961215
  0
LINE
  8
_0-1_
  6
CONTINUOUS
 62
    7
 10
46.934831076167974
 20
34.278715411961215
 11
47.041771858158881
 21
34.241772232727996
  0
LINE
  8
_0-1_
  6
CONTINUOUS
 62
    7
 10
47.041771858158881
 20
34.241772232727996
 11
47.17010079654797
 21
34.187329652805352
  0
LINE
  8
_0-1_
  6
CONTINUOUS
 62
    7
 10
47.17010079654797
 20
34.187329652805352
 11
47.257597799995075
 21
34.101777027212627
  0
LINE
  8
_0-1_
  6
CONTINUOUS
 62
    7
 10
47.257597799995075
 20
34.101777027212627
 11
47.366482959840361
 21
33.971503710969152
  0
LINE
  8
_0-1_
  6
CONTINUOUS
 62
    7
 10
47.366482959840361
 20
33.971503710969152
 11
47.434536184743663
 21
33.819842238327503
  0
LINE
  8
_0-1_
  6
CONTINUOUS
 62
    7
 10
47.434536184743663
 20
33.819842238327503
 11
47.473423741831268
 21
33.677902654957755
  0
LINE
  8
_0-1_
  6
CONTINUOUS
 62
    7
 10
47.473423741831268
 20
33.677902654957755
 11
47.500645031792593
 21
33.500964270209166
  0
LINE
  8
_0-1_
  6
CONTINUOUS
 62
    7
 10
47.500645031792593
 20
33.500964270209166
 11
47.541476966734578
 21
33.310415240479912
  0
LINE
  8
_0-1_
  6
CONTINUOUS
 62
    7
 10
47.541476966734578
 20
33.310415240479912
 11
47.568698256695896
 21
33.045979852284212
  0
LINE
  8
_0-1_
  6
CONTINUOUS
 62
    7
 10
47.568698256695896
 20
33.045979852284212
 11
47.595919546657221
 21
32.878763356807517
  0
LINE
  8
_0-1_
  6
CONTINUOUS
 62
    7
 10
47.595919546657221
 20
32.878763356807517
 11
47.585494371778416
 21
31.303293278032899
  0
LINE
  8
_0-1_
  6
CONTINUOUS
 62
    7
 10
47.585494371778416
 20
31.303293278032899
 11
47.535894066147477
 21
30.859179047959472
  0
LINE
  8
_0-1_
  6
CONTINUOUS
 62
    7
 10
47.535894066147477
 20
30.859179047959472
 11
47.476512376298551
 21
30.604272281778712
  0
LINE
  8
_0-1_
  6
CONTINUOUS
 62
    7
 10
47.476512376298551
 20
30.604272281778712
 11
47.409889016955851
 21
30.418885542738156
  0
LINE
  8
_0-1_
  6
CONTINUOUS
 62
    7
 10
47.409889016955851
 20
30.418885542738156
 11
47.343265657613152
 21
30.279845488457741
  0
LINE
  8
_0-1_
  6
CONTINUOUS
 62
    7
 10
47.343265657613152
 20
30.279845488457741
 11
47.27953896606796
 21
30.198738790127499
  0
LINE
  8
_0-1_
  6
CONTINUOUS
 62
    7
 10
47.27953896606796
 20
30.198738790127499
 11
47.160775586370107
 21
30.082872078227154
  0
LINE
  8
_0-1_
  6
CONTINUOUS
 62
    7
 10
47.160775586370107
 20
30.082872078227154
 11
47.027528867684708
 21
30.00466204769442
  0
LINE
  8
_0-1_
  6
CONTINUOUS
 62
    7
 10
47.027528867684708
 20
30.00466204769442
 11
46.723378748946302
 21
30.001765379896909
  0
LINE
  8
_0-1_
  6
CONTINUOUS
 62
    7
 10
46.723378748946302
 20
30.001765379896909
 11
46.523508670918204
 21
30.082872078227154
  0
LINE
  8
_0-1_
  6
CONTINUOUS
 62
    7
 10
46.523508670918204
 20
30.082872078227154
 11
46.404745291220351
 21
30.178462115544938
  0
LINE
  8
_0-1_
  6
CONTINUOUS
 62
    7
 10
46.404745291220351
 20
30.178462115544938
 11
46.285981911522497
 21
30.35226218339546
  0
LINE
  8
_0-1_
  6
CONTINUOUS
 62
    7
 10
46.285981911522497
 20
30.35226218339546
 11
46.20777188098976
 21
30.555028929221062
  0
LINE
  8
_0-1_
  6
CONTINUOUS
 62
    7
 10
46.20777188098976
 20
30.555028929221062
 11
46.167218531824637
 21
30.737519000464107
  0
LINE
  8
_0-1_
  6
CONTINUOUS
 62
    7
 10
46.167218531824637
 20
30.737519000464107
 11
46.135355186052045
 21
30.937389078492206
  0
LINE
  8
_0-1_
  6
CONTINUOUS
 62
    7
 10
46.135355186052045
 20
30.937389078492206
 11
46.100595172481938
 21
31.093809139557674
  0
LINE
  8
_0-1_
  6
CONTINUOUS
 62
    7
 10
46.100595172481938
 20
31.093809139557674
 11
46.123768514862007
 21
33.231549974119062
  0
LINE
  8
_0-1_
  6
CONTINUOUS
 62
    7
 10
46.123768514862007
 20
33.231549974119062
 11
46.15709046640498
 21
33.526927914491963
  0
LINE
  8
_0-1_
  6
CONTINUOUS
 62
    7
 10
46.15709046640498
 20
33.526927914491963
 11
46.204450642498528
 21
33.733817104795342
  0
LINE
  8
_0-1_
  6
CONTINUOUS
 62
    7
 10
46.204450642498528
 20
33.733817104795342
 11
46.286707790450478
 21
33.918272527475465
  0
LINE
  8
_0-1_
  6
CONTINUOUS
 62
    7
 10
46.286707790450478
 20
33.918272527475465
 11
46.376442860943512
 21
34.052875133215017
  0
LINE
  8
_0-1_
  6
CONTINUOUS
 62
    7
 10
46.376442860943512
 20
34.052875133215017
 11
46.481133776518717
 21
34.167536612178338
  0
LINE
  8
_0-1_
  6
CONTINUOUS
 62
    7
 10
46.481133776518717
 20
34.167536612178338
 11
46.63318486818747
 21
34.254779041824349
  0
LINE
  8
_0-1_
  6
CONTINUOUS
 62
    7
 10
46.63318486818747
 20
34.254779041824349
 11
46.707338867205493
 21
34.274826656252457
  0
LINE
  8
_0-1_
  6
CONTINUOUS
 62
    7
 10
46.672098850255153
 20
25.527596646857311
 11
47.427773998395259
 21
25.530637593127494
  0
LINE
  8
_0-1_
  6
CONTINUOUS
 62
    7
 10
47.427773998395259
 20
25.530637593127494
 11
47.487072450663795
 21
25.451572990102775
  0
LINE
  8
_0-1_
  6
CONTINUOUS
 62
    7
 10
47.487072450663795
 20
25.451572990102775
 11
47.473865027218153
 21
21.611037788512668
  0
LINE
  8
_0-1_
  6
CONTINUOUS
 62
    7
 10
47.473865027218153
 20
21.611037788512668
 11
47.151038890926287
 21
21.525090570408988
  0
LINE
  8
_0-1_
  6
CONTINUOUS
 62
    7
 10
47.151038890926287
 20
21.525090570408988
 11
46.933026435248656
 21
21.464298635652724
  0
LINE
  8
_0-1_
  6
CONTINUOUS
 62
    7
 10
46.933026435248656
 20
21.464298635652728
 11
46.691954969835897
 21
21.403506700896464
  0
LINE
  8
_0-1_
  6
CONTINUOUS
 62
    7
 10
46.691954969835897
 20
21.403506700896464
 11
46.408958032177437
 21
21.300789293894503
  0
LINE
  8
_0-1_
  6
CONTINUOUS
 62
    7
 10
46.408958032177437
 20
21.300789293894503
 11
46.401767268557051
 21
24.30762865918464
  0
LINE
  8
_0-1_
  6
CONTINUOUS
 62
    7
 10
46.401767268557051
 20
24.30762865918464
 11
46.172138582744203
 21
24.173080601091179
  0
LINE
  8
_0-1_
  6
CONTINUOUS
 62
    7
 10
46.172138582744203
 20
24.173080601091179
 11
45.924570155852237
 21
24.038532542997714
  0
LINE
  8
_0-1_
  6
CONTINUOUS
 62
    7
 10
45.924570155852237
 20
24.038532542997714
 11
45.716469159334351
 21
23.912954355443815
  0
LINE
  8
_0-1_
  6
CONTINUOUS
 62
    7
 10
45.716469159334351
 20
23.912954355443819
 11
45.522719955679761
 21
23.792758090213659
  0
LINE
  8
_0-1_
  6
CONTINUOUS
 62
    7
 10
45.522719955679761
 20
23.792758090213659
 11
45.380996001154649
 21
23.715617203573408
  0
LINE
  8
_0-1_
  6
CONTINUOUS
 62
    7
 10
45.380996001154649
 20
23.715617203573408
 11
45.382789975262561
 21
24.69512706649381
  0
LINE
  8
_0-1_
  6
CONTINUOUS
 62
    7
 10
45.382789975262561
 20
24.69512706649381
 11
45.651886091449483
 21
24.852996787990139
  0
LINE
  8
_0-1_
  6
CONTINUOUS
 62
    7
 10
45.651886091449483
 20
24.852996787990139
 11
45.897660544233545
 21
25.019836380026031
  0
LINE
  8
_0-1_
  6
CONTINUOUS
 62
    7
 10
45.897660544233545
 20
25.019836380026031
 11
46.312068563161403
 21
25.290726470320869
  0
LINE
  8
_0-1_
  6
CONTINUOUS
 62
    7
 10
46.312068563161403
 20
25.290726470320869
 11
46.672098850255153
 21
25.527596646857311
  0
LINE
  8
_0-1_
  6
CONTINUOUS
 62
    7
 10
59.050030949683161
 20
24.888423769356666
 11
59
 21
24.408126652398337
  0
LINE
  8
_0-1_
  6
CONTINUOUS
 62
    7
 10
59
 20
24.408126652398337
 11
58.969981430190102
 21
23.977860485123169
  0
LINE
  8
_0-1_
  6
CONTINUOUS
 62
    7
 10
58.969981430190102
 20
23.977860485123169
 11
58.899938100633683
 21
23.587619077594528
  0
LINE
  8
_0-1_
  6
CONTINUOUS
 62
    7
 10
58.899938100633683
 20
23.587619077594528
 11
58.819888581140631
 21
23.137340530446095
  0
LINE
  8
_0-1_
  6
CONTINUOUS
 62
    7
 10
58.819888581140631
 20
23.137340530446095
 11
58.809882391203998
 21
22.907198161903565
  0
LINE
  8
_0-1_
  6
CONTINUOUS
 62
    7
 10
58.809882391203998
 20
22.907198161903565
 11
58.009387196273451
 21
22.907198161903565
  0
LINE
  8
_0-1_
  6
CONTINUOUS
 62
    7
 10
58.009387196273451
 20
22.907198161903565
 11
57.208892001342903
 21
22.977241491459984
  0
LINE
  8
_0-1_
  6
CONTINUOUS
 62
    7
 10
57.208892001342903
 20
22.977241491459984
 11
56.108211108313398
 21
23.047284821016411
  0
LINE
  8
_0-1_
  6
CONTINUOUS
 62
    7
 10
56.108211108313398
 20
23.047284821016411
 11
55.297709723446217
 21
23.107321960636198
  0
LINE
  8
_0-1_
  6
CONTINUOUS
 62
    7
 10
55.297709723446217
 20
23.107321960636198
 11
54.487208338579037
 21
23.15735291031936
  0
LINE
  8
_0-1_
  6
CONTINUOUS
 62
    7
 10
54.487208338579037
 20
23.15735291031936
 11
53.446564585169326
 21
23.237402429812412
  0
LINE
  8
_0-1_
  6
CONTINUOUS
 62
    7
 10
53.446564585169326
 20
23.237402429812412
 11
52.856199378908051
 21
23.287433379495574
  0
LINE
  8
_0-1_
  6
CONTINUOUS
 62
    7
 10
52.856199378908051
 20
23.287433379495574
 11
51.865586575181502
 21
23.337464329178729
  0
LINE
  8
_0-1_
  6
CONTINUOUS
 62
    7
 10
51.865586575181502
 20
23.337464329178729
 11
51.455332787779596
 21
23.377489088925258
  0
LINE
  8
_0-1_
  6
CONTINUOUS
 62
    7
 10
51.455332787779596
 20
23.377489088925258
 11
51.647789121442443
 21
23.512054581105616
  0
LINE
  8
_0-1_
  6
CONTINUOUS
 62
    7
 10
51.647789121442443
 20
23.512054581105616
 11
51.830165254888072
 21
23.625423528923164
  0
LINE
  8
_0-1_
  6
CONTINUOUS
 62
    7
 10
51.830165254888072
 20
23.625423528923164
 11
52.020756529479889
 21
23.719076137989837
  0
LINE
  8
_0-1_
  6
CONTINUOUS
 62
    7
 10
52.020756529479889
 20
23.719076137989837
 11
52.231064142822589
 21
23.817657831744227
  0
LINE
  8
_0-1_
  6
CONTINUOUS
 62
    7
 10
52.231064142822589
 20
23.817657831744227
 11
52.464374151374649
 21
23.922811638415574
  0
LINE
  8
_0-1_
  6
CONTINUOUS
 62
    7
 10
52.464374151374649
 20
23.922811638415574
 11
52.748618035033139
 21
24.039466642691603
  0
LINE
  8
_0-1_
  6
CONTINUOUS
 62
    7
 10
52.748618035033139
 20
24.039466642691603
 11
53.09036790671503
 21
24.170908901030792
  0
LINE
  8
_0-1_
  6
CONTINUOUS
 62
    7
 10
53.09036790671503
 20
24.170908901030792
 11
53.392685100895164
 21
24.276062707702141
  0
LINE
  8
_0-1_
  6
CONTINUOUS
 62
    7
 10
53.392685100895164
 20
24.276062707702141
 11
53.773867650078798
 21
24.368072288539572
  0
LINE
  8
_0-1_
  6
CONTINUOUS
 62
    7
 10
53.773867650078798
 20
24.368072288539572
 11
54.122189634677653
 21
24.466653982293962
  0
LINE
  8
_0-1_
  6
CONTINUOUS
 62
    7
 10
54.122189634677653
 20
24.466653982293962
 11
54.861552337835576
 21
24.634242861676426
  0
LINE
  8
_0-1_
  6
CONTINUOUS
 62
    7
 10
54.861552337835576
 20
24.634242861676426
 11
55.545052081199351
 21
24.739396668347779
  0
LINE
  8
_0-1_
  6
CONTINUOUS
 62
    7
 10
55.545052081199351
 20
24.739396668347779
 11
56.438859437905826
 21
24.82483413626825
  0
LINE
  8
_0-1_
  6
CONTINUOUS
 62
    7
 10
56.438859437905826
 20
24.82483413626825
 11
57.299806230027506
 21
24.890555265437843
  0
LINE
  8
_0-1_
  6
CONTINUOUS
 62
    7
 10
57.299806230027506
 20
24.890555265437843
 11
58.033180143900153
 21
24.916902049468848
  0
LINE
  8
_0-1_
  6
CONTINUOUS
 62
    7
 10
58.033180143900153
 20
24.916902049468848
 11
59.050030949683161
 21
24.888423769356666
  0
LINE
  8
_0-1_
  6
CONTINUOUS
 62
    7
 10
50.585655770118499
 20
22.677874930998751
 11
51.414608936428457
 21
22.623218678275016
  0
LINE
  8
_0-1_
  6
CONTINUOUS
 62
    7
 10
51.414608936428457
 20
22.623218678275016
 11
52.248116790465395
 21
22.559453050097328
  0
LINE
  8
_0-1_
  6
CONTINUOUS
 62
    7
 10
52.248116790465395
 20
22.559453050097328
 11
53.004194953143709
 21
22.500242109646617
  0
LINE
  8
_0-1_
  6
CONTINUOUS
 62
    7
 10
53.004194953143709
 20
22.500242109646617
 11
53.824038743999707
 21
22.441031169195905
  0
LINE
  8
_0-1_
  6
CONTINUOUS
 62
    7
 10
53.824038743999707
 20
22.441031169195905
 11
55.044695054829759
 21
22.363601477837281
  0
LINE
  8
_0-1_
  6
CONTINUOUS
 62
    7
 10
55.044695054829759
 20
22.363601477837281
 11
56.25624199020585
 21
22.281617098751681
  0
LINE
  8
_0-1_
  6
CONTINUOUS
 62
    7
 10
56.25624199020585
 20
22.281617098751681
 11
57.431351423766123
 21
22.181413968758171
  0
LINE
  8
_0-1_
  6
CONTINUOUS
 62
    7
 10
57.431351423766123
 20
22.181413968758171
 11
58.642898359142215
 21
22.062992087856748
  0
LINE
  8
_0-1_
  6
CONTINUOUS
 62
    7
 10
58.642898359142215
 20
22.062992087856748
 11
58.433382723701242
 21
21.361570177902169
  0
LINE
  8
_0-1_
  6
CONTINUOUS
 62
    7
 10
58.433382723701242
 20
21.361570177902169
 11
58.260304590076081
 21
20.86055452793461
  0
LINE
  8
_0-1_
  6
CONTINUOUS
 62
    7
 10
58.260304590076081
 20
20.86055452793461
 11
58.041679579181149
 21
20.386867004328919
  0
LINE
  8
_0-1_
  6
CONTINUOUS
 62
    7
 10
58.041679579181149
 20
20.386867004328919
 11
57.877710821009948
 21
19.986054484354873
  0
LINE
  8
_0-1_
  6
CONTINUOUS
 62
    7
 10
57.877710821009948
 20
19.986054484354873
 11
57.722851438292707
 21
19.730991971644119
  0
LINE
  8
_0-1_
  6
CONTINUOUS
 62
    7
 10
57.722851438292707
 20
19.730991971644119
 11
56.930335773798567
 21
19.840304477091585
  0
LINE
  8
_0-1_
  6
CONTINUOUS
 62
    7
 10
56.930335773798567
 20
19.840304477091585
 11
56.210695112936079
 21
19.949616982539051
  0
LINE
  8
_0-1_
  6
CONTINUOUS
 62
    7
 10
56.210695112936079
 20
19.949616982539051
 11
55.618585708428966
 21
19.99516385980883
  0
LINE
  8
_0-1_
  6
CONTINUOUS
 62
    7
 10
55.618585708428966
 20
19.99516385980883
 11
54.844288794842739
 21
20.104476365256296
  0
LINE
  8
_0-1_
  6
CONTINUOUS
 62
    7
 10
54.844288794842739
 20
20.104476365256296
 11
54.015335628532781
 21
20.232007621611675
  0
LINE
  8
_0-1_
  6
CONTINUOUS
 62
    7
 10
54.015335628532781
 20
20.232007621611675
 11
53.077069956775353
 21
20.377757628874967
  0
LINE
  8
_0-1_
  6
CONTINUOUS
 62
    7
 10
53.077069956775353
 20
20.377757628874967
 11
52.275444916827261
 21
20.487070134322433
  0
LINE
  8
_0-1_
  6
CONTINUOUS
 62
    7
 10
52.275444916827261
 20
20.487070134322433
 11
51.53758550505686
 21
20.605492015223855
  0
LINE
  8
_0-1_
  6
CONTINUOUS
 62
    7
 10
51.53758550505686
 20
20.605492015223855
 11
50.890819847826008
 21
20.705695145217365
  0
LINE
  8
_0-1_
  6
CONTINUOUS
 62
    7
 10
50.890819847826008
 20
20.705695145217365
 11
50.401527802362807
 21
20.786668868742246
  0
LINE
  8
_0-1_
  6
CONTINUOUS
 62
    7
 10
50.401527802362807
 20
20.786668868742246
 11
50.005532740561527
 21
20.894667521960776
  0
LINE
  8
_0-1_
  6
CONTINUOUS
 62
    7
 10
50.005532740561527
 20
20.894667521960776
 11
49.639998837360344
 21
20.997127782706563
  0
LINE
  8
_0-1_
  6
CONTINUOUS
 62
    7
 10
49.639998837360344
 20
20.997127782706563
 11
49.357540821250339
 21
21.116203220870584
  0
LINE
  8
_0-1_
  6
CONTINUOUS
 62
    7
 10
49.357540821250339
 20
21.116203220870584
 11
49.169235477177004
 21
21.213125089143627
  0
LINE
  8
_0-1_
  6
CONTINUOUS
 62
    7
 10
49.169235477177004
 20
21.213125089143627
 11
49.041852450303863
 21
21.304508564943922
  0
LINE
  8
_0-1_
  6
CONTINUOUS
 62
    7
 10
49.041852450303863
 20
21.304508564943922
 11
48.88954665730337
 21
21.412507218162453
  0
LINE
  8
_0-1_
  6
CONTINUOUS
 62
    7
 10
48.88954665730337
 20
21.412507218162453
 11
48.776009611612096
 21
21.501121497726376
  0
LINE
  8
_0-1_
  6
CONTINUOUS
 62
    7
 10
48.776009611612096
 20
21.501121497726376
 11
48.773240415375724
 21
21.650658094490495
  0
LINE
  8
_0-1_
  6
CONTINUOUS
 62
    7
 10
48.773240415375724
 20
21.650658094490495
 11
48.872931479885139
 21
21.7309647853453
  0
LINE
  8
_0-1_
  6
CONTINUOUS
 62
    7
 10
48.872931479885139
 20
21.7309647853453
 11
49.022468076649253
 21
21.841732634800205
  0
LINE
  8
_0-1_
  6
CONTINUOUS
 62
    7
 10
49.022468076649253
 20
21.841732634800205
 11
49.199696635777101
 21
21.955269680491483
  0
LINE
  8
_0-1_
  6
CONTINUOUS
 62
    7
 10
49.199696635777101
 20
21.955269680491483
 11
49.426770727159656
 21
22.090960296073738
  0
LINE
  8
_0-1_
  6
CONTINUOUS
 62
    7
 10
49.426770727159656
 20
22.090960296073738
 11
49.642768033596716
 21
22.22111251918325
  0
LINE
  8
_0-1_
  6
CONTINUOUS
 62
    7
 10
49.642768033596716
 20
22.22111251918325
 11
49.822765788960936
 21
22.323572779929037
  0
LINE
  8
_0-1_
  6
CONTINUOUS
 62
    7
 10
49.822765788960936
 20
22.323572779929037
 11
49.986656325979865
 21
22.39524416654379
  0
LINE
  8
_0-1_
  6
CONTINUOUS
 62
    7
 10
49.986656325979865
 20
22.39524416654379
 11
50.160099770725445
 21
22.47538699963313
  0
LINE
  8
_0-1_
  6
CONTINUOUS
 62
    7
 10
50.160099770725445
 20
22.47538699963313
 11
50.319189275216224
 21
22.542372054155563
  0
LINE
  8
_0-1_
  6
CONTINUOUS
 62
    7
 10
50.319189275216224
 20
22.542372054155563
 11
50.462728677764296
 21
22.598591653486892
  0
LINE
  8
_0-1_
  6
CONTINUOUS
 62
    7
 10
50.462728677764296
 20
22.598591653486892
 11
50.585655770118499
 21
22.677874930998751
  0
LINE
  8
_0-1_
  6
CONTINUOUS
 62
    7
 10
45.651199637845181
 20
20.109683869020674
 11
45.865757507167643
 21
20.289912479251547
  0
LINE
  8
_0-1_
  6
CONTINUOUS
 62
    7
 10
45.865757507167643
 20
20.289912479251547
 11
46.354949449222871
 21
20.504470348574017
  0
LINE
  8
_0-1_
  6
CONTINUOUS
 62
    7
 10
46.354949449222871
 20
20.504470348574017
 11
46.715406669684625
 21
20.641787384940396
  0
LINE
  8
_0-1_
  6
CONTINUOUS
 62
    7
 10
46.715406669684625
 20
20.641787384940396
 11
47.230345556058551
 21
20.796269050852572
  0
LINE
  8
_0-1_
  6
CONTINUOUS
 62
    7
 10
47.230345556058551
 20
20.796269050852572
 11
47.676625924249279
 21
20.890674513354458
  0
LINE
  8
_0-1_
  6
CONTINUOUS
 62
    7
 10
47.676625924249279
 20
20.890674513354458
 11
47.977006941300743
 21
20.925003772446054
  0
LINE
  8
_0-1_
  6
CONTINUOUS
 62
    7
 10
47.977006941300743
 20
20.925003772446054
 11
48.148653236758718
 21
20.701863588350686
  0
LINE
  8
_0-1_
  6
CONTINUOUS
 62
    7
 10
48.148653236758718
 20
20.701863588350686
 11
48.337464161762483
 21
20.555964237211409
  0
LINE
  8
_0-1_
  6
CONTINUOUS
 62
    7
 10
48.337464161762483
 20
20.555964237211409
 11
48.586351290176551
 21
20.392900256526331
  0
LINE
  8
_0-1_
  6
CONTINUOUS
 62
    7
 10
48.586351290176551
 20
20.392900256526331
 11
48.972555454956996
 21
20.238418590614152
  0
LINE
  8
_0-1_
  6
CONTINUOUS
 62
    7
 10
48.972555454956996
 20
20.238418590614152
 11
49.341594990191637
 21
20.092519239474874
  0
LINE
  8
_0-1_
  6
CONTINUOUS
 62
    7
 10
49.341594990191637
 20
20.092519239474874
 11
49.796457673155273
 21
19.963784517881393
  0
LINE
  8
_0-1_
  6
CONTINUOUS
 62
    7
 10
49.796457673155273
 20
19.963784517881393
 11
50.182661837935718
 21
19.852214425833711
  0
LINE
  8
_0-1_
  6
CONTINUOUS
 62
    7
 10
50.182661837935718
 20
19.852214425833711
 11
50.697600724309644
 21
19.757808963331825
  0
LINE
  8
_0-1_
  6
CONTINUOUS
 62
    7
 10
50.697600724309644
 20
19.757808963331825
 11
51.527495327970655
 21
19.552442803914058
  0
LINE
  8
_0-1_
  6
CONTINUOUS
 62
    7
 10
51.527495327970655
 20
19.552442803914058
 11
52.419878324105347
 21
19.4010081136609
  0
LINE
  8
_0-1_
  6
CONTINUOUS
 62
    7
 10
52.419878324105347
 20
19.4010081136609
 11
53.09051766665506
 21
19.303657241355296
  0
LINE
  8
_0-1_
  6
CONTINUOUS
 62
    7
 10
53.09051766665506
 20
19.303657241355296
 11
53.800818475699642
 21
19.195489605460181
  0
LINE
  8
_0-1_
  6
CONTINUOUS
 62
    7
 10
53.800818475699642
 20
19.195489605460181
 11
54.550780751239102
 21
19.083716381701897
  0
LINE
  8
_0-1_
  6
CONTINUOUS
 62
    7
 10
54.550780751239102
 20
19.083716381701897
 11
55.336798905410262
 21
18.975548745806783
  0
LINE
  8
_0-1_
  6
CONTINUOUS
 62
    7
 10
55.336798905410262
 20
18.975548745806783
 11
56.108394708128749
 21
18.881803461364349
  0
LINE
  8
_0-1_
  6
CONTINUOUS
 62
    7
 10
56.108394708128749
 20
18.881803461364349
 11
57.125170485542824
 21
18.730368771111187
  0
LINE
  8
_0-1_
  6
CONTINUOUS
 62
    7
 10
57.125170485542824
 20
18.730368771111187
 11
57.01700284964771
 21
18.485188796415595
  0
LINE
  8
_0-1_
  6
CONTINUOUS
 62
    7
 10
57.01700284964771
 20
18.485188796415595
 11
56.836723456489181
 21
18.247219997446343
  0
LINE
  8
_0-1_
  6
CONTINUOUS
 62
    7
 10
56.836723456489181
 20
18.247219997446343
 11
56.670866414783347
 21
18.030884725656115
  0
LINE
  8
_0-1_
  6
CONTINUOUS
 62
    7
 10
56.670866414783347
 20
18.030884725656115
 11
56.440108791540431
 21
17.764071223781499
  0
LINE
  8
_0-1_
  6
CONTINUOUS
 62
    7
 10
56.440108791540431
 20
17.764071223781499
 11
56.209351168297523
 21
17.46120184327518
  0
LINE
  8
_0-1_
  6
CONTINUOUS
 62
    7
 10
56.209351168297523
 20
17.46120184327518
 11
55.913692963517547
 21
17.158332462768861
  0
LINE
  8
_0-1_
  6
CONTINUOUS
 62
    7
 10
55.913692963517547
 20
17.158332462768861
 11
55.668512988821952
 21
16.884307785167905
  0
LINE
  8
_0-1_
  6
CONTINUOUS
 62
    7
 10
55.668512988821952
 20
16.884307785167905
 11
55.351221256862949
 21
16.595860756114266
  0
LINE
  8
_0-1_
  6
CONTINUOUS
 62
    7
 10
55.351221256862949
 20
16.595860756114266
 11
54.932973064735172
 21
16.213668442618192
  0
LINE
  8
_0-1_
  6
CONTINUOUS
 62
    7
 10
54.932973064735172
 20
16.213668442618192
 11
54.435401939617648
 21
16.307413727060627
  0
LINE
  8
_0-1_
  6
CONTINUOUS
 62
    7
 10
54.435401939617648
 20
16.307413727060627
 11
53.973886693131824
 21
16.415581362955741
  0
LINE
  8
_0-1_
  6
CONTINUOUS
 62
    7
 10
53.973886693131824
 20
16.415581362955741
 11
53.512371446646
 21
16.516537823124515
  0
LINE
  8
_0-1_
  6
CONTINUOUS
 62
    7
 10
53.512371446646
 20
16.516537823124515
 11
52.978744442896768
 21
16.639127810472309
  0
LINE
  8
_0-1_
  6
CONTINUOUS
 62
    7
 10
52.978744442896768
 20
16.639127810472309
 11
52.567707426495339
 21
16.740084270641084
  0
LINE
  8
_0-1_
  6
CONTINUOUS
 62
    7
 10
52.567707426495339
 20
16.740084270641084
 11
52.106192180009514
 21
16.819407203630834
  0
LINE
  8
_0-1_
  6
CONTINUOUS
 62
    7
 10
52.106192180009514
 20
16.819407203630834
 11
51.579776351986623
 21
16.934786015252289
  0
LINE
  8
_0-1_
  6
CONTINUOUS
 62
    7
 10
51.579776351986623
 20
16.934786015252289
 11
50.995671118153012
 21
17.100643056958134
  0
LINE
  8
_0-1_
  6
CONTINUOUS
 62
    7
 10
50.995671118153012
 20
17.100643056958134
 11
50.476466465856461
 21
17.208810692853248
  0
LINE
  8
_0-1_
  6
CONTINUOUS
 62
    7
 10
50.476466465856461
 20
17.208810692853248
 11
50.022162395096984
 21
17.316978328748362
  0
LINE
  8
_0-1_
  6
CONTINUOUS
 62
    7
 10
50.022162395096984
 20
17.316978328748362
 11
49.402001282631658
 21
17.497257721906883
  0
LINE
  8
_0-1_
  6
CONTINUOUS
 62
    7
 10
49.402001282631658
 20
17.497257721906883
 11
48.828435459475002
 21
17.676982409240306
  0
LINE
  8
_0-1_
  6
CONTINUOUS
 62
    7
 10
48.828435459475002
 20
17.676982409240306
 11
48.287042574174321
 21
17.852269449972901
  0
LINE
  8
_0-1_
  6
CONTINUOUS
 62
    7
 10
48.287042574174321
 20
17.852269449972901
 11
47.838840267490979
 21
18.047525900409212
  0
LINE
  8
_0-1_
  6
CONTINUOUS
 62
    7
 10
47.838840267490979
 20
18.047525900409212
 11
47.459421483120422
 21
18.202843531438091
  0
LINE
  8
_0-1_
  6
CONTINUOUS
 62
    7
 10
47.459421483120422
 20
18.202843531438091
 11
47.139910927861009
 21
18.331535282862024
  0
LINE
  8
_0-1_
  6
CONTINUOUS
 62
    7
 10
47.139910927861009
 20
18.331535282862024
 11
46.816854451677059
 21
18.510048272364723
  0
LINE
  8
_0-1_
  6
CONTINUOUS
 62
    7
 10
46.816854451677059
 20
18.510048272364723
 11
46.57245867103208
 21
18.663131343757729
  0
LINE
  8
_0-1_
  6
CONTINUOUS
 62
    7
 10
46.57245867103208
 20
18.663131343757729
 11
46.314634550791232
 21
18.848442430180842
  0
LINE
  8
_0-1_
  6
CONTINUOUS
 62
    7
 10
46.314634550791232
 20
18.848442430180842
 11
46.089038445580484
 21
19.055238859957356
  0
LINE
  8
_0-1_
  6
CONTINUOUS
 62
    7
 10
46.089038445580484
 20
19.055238859957356
 11
45.890299019561496
 21
19.232492942622943
  0
LINE
  8
_0-1_
  6
CONTINUOUS
 62
    7
 10
45.890299019561496
 20
19.232492942622943
 11
45.750644287764373
 21
19.458089047833688
  0
LINE
  8
_0-1_
  6
CONTINUOUS
 62
    7
 10
45.750644287764373
 20
19.458089047833688
 11
45.662017246431574
 21
19.659514141771854
  0
LINE
  8
_0-1_
  6
CONTINUOUS
 62
    7
 10
45.662017246431574
 20
19.659514141771854
 11
45.651199637845181
 21
20.109683869020674
  0
LINE
  8
_0-1_
  6
CONTINUOUS
 62
    7
 10
44.633205070167498
 20
19.894319115403316
 11
44.626970055161542
 21
19.651153530171185
  0
LINE
  8
_0-1_
  6
CONTINUOUS
 62
    7
 10
44.626970055161542
 20
19.651153530171185
 11
44.58332495011988
 21
19.563863320087854
  0
LINE
  8
_0-1_
  6
CONTINUOUS
 62
    7
 10
44.58332495011988
 20
19.563863320087854
 11
44.577089935113924
 21
19.270817614808109
  0
LINE
  8
_0-1_
  6
CONTINUOUS
 62
    7
 10
44.577089935113924
 20
19.270817614808109
 11
44.645675100179403
 21
19.033887044581931
  0
LINE
  8
_0-1_
  6
CONTINUOUS
 62
    7
 10
44.645675100179403
 20
19.033887044581931
 11
44.801550475328198
 21
18.765781399325987
  0
LINE
  8
_0-1_
  6
CONTINUOUS
 62
    7
 10
44.801550475328198
 20
18.765781399325987
 11
44.969895880488905
 21
18.528850829099809
  0
LINE
  8
_0-1_
  6
CONTINUOUS
 62
    7
 10
44.969895880488905
 20
18.528850829099809
 11
45.231766510738893
 21
18.260745183843873
  0
LINE
  8
_0-1_
  6
CONTINUOUS
 62
    7
 10
45.231766510738893
 20
18.260745183843873
 11
45.562222306054351
 21
17.980169508576025
  0
LINE
  8
_0-1_
  6
CONTINUOUS
 62
    7
 10
45.562222306054351
 20
17.980169508576025
 11
45.892678101369817
 21
17.78064902838556
  0
LINE
  8
_0-1_
  6
CONTINUOUS
 62
    7
 10
45.892678101369817
 20
17.78064902838556
 11
46.204428851667422
 21
17.57489353318914
  0
LINE
  8
_0-1_
  6
CONTINUOUS
 62
    7
 10
46.204428851667422
 20
17.57489353318914
 11
46.678289992119779
 21
17.319257917945108
  0
LINE
  8
_0-1_
  6
CONTINUOUS
 62
    7
 10
46.678289992119779
 20
17.319257917945108
 11
47.002510772429289
 21
17.17585257280821
  0
LINE
  8
_0-1_
  6
CONTINUOUS
 62
    7
 10
47.002510772429289
 20
17.17585257280821
 11
47.389081702798314
 21
16.988802122629646
  0
LINE
  8
_0-1_
  6
CONTINUOUS
 62
    7
 10
47.389081702798314
 20
16.988802122629646
 11
47.671409823112213
 21
16.86674893686964
  0
LINE
  8
_0-1_
  6
CONTINUOUS
 62
    7
 10
47.671409823112213
 20
16.86674893686964
 11
48.138427204489985
 21
16.700340444654571
  0
LINE
  8
_0-1_
  6
CONTINUOUS
 62
    7
 10
48.138427204489985
 20
16.700340444654571
 11
48.613496609684624
 21
16.539299968317408
  0
LINE
  8
_0-1_
  6
CONTINUOUS
 62
    7
 10
48.613496609684624
 20
16.539299968317408
 11
49.096618038696121
 21
16.3863115157971
  0
LINE
  8
_0-1_
  6
CONTINUOUS
 62
    7
 10
49.096618038696121
 20
16.3863115157971
 11
49.585107483585517
 21
16.257479134727368
  0
LINE
  8
_0-1_
  6
CONTINUOUS
 62
    7
 10
49.585107483585517
 20
16.257479134727368
 11
50.095068991986536
 21
16.120594729840778
  0
LINE
  8
_0-1_
  6
CONTINUOUS
 62
    7
 10
50.095068991986536
 20
16.120594729840778
 11
50.795595064053202
 21
15.94613421380885
  0
LINE
  8
_0-1_
  6
CONTINUOUS
 62
    7
 10
50.795595064053202
 20
15.94613421380885
 11
51.48270109642511
 21
15.785093737471685
  0
LINE
  8
_0-1_
  6
CONTINUOUS
 62
    7
 10
51.48270109642511
 20
15.785093737471685
 11
52.067814827116805
 21
15.656261356401952
  0
LINE
  8
_0-1_
  6
CONTINUOUS
 62
    7
 10
52.067814827116805
 20
15.656261356401952
 11
52.620720462541072
 21
15.532796991210126
  0
LINE
  8
_0-1_
  6
CONTINUOUS
 62
    7
 10
52.620720462541072
 20
15.532796991210126
 11
53.098473875674663
 21
15.420068657774111
  0
LINE
  8
_0-1_
  6
CONTINUOUS
 62
    7
 10
53.098473875674663
 20
15.420068657774111
 11
53.640643479343111
 21
15.334180403727623
  0
LINE
  8
_0-1_
  6
CONTINUOUS
 62
    7
 10
53.640643479343111
 20
15.334180403727623
 11
53.603067368197777
 21
15.259028181436946
  0
LINE
  8
_0-1_
  6
CONTINUOUS
 62
    7
 10
53.603067368197777
 20
15.259028181436946
 11
53.361506653692032
 21
15.097987705099782
  0
LINE
  8
_0-1_
  6
CONTINUOUS
 62
    7
 10
53.361506653692032
 20
15.097987705099782
 11
53.130681970942092
 21
14.963787308152145
  0
LINE
  8
_0-1_
  6
CONTINUOUS
 62
    7
 10
53.130681970942092
 20
14.963787308152145
 11
52.921329351703782
 21
14.877899054105656
  0
LINE
  8
_0-1_
  6
CONTINUOUS
 62
    7
 10
52.921329351703782
 20
14.877899054105656
 11
52.669032605442225
 21
14.74369865715802
  0
LINE
  8
_0-1_
  6
CONTINUOUS
 62
    7
 10
52.669032605442225
 20
14.74369865715802
 11
52.405999827424849
 21
14.609498260210383
  0
LINE
  8
_0-1_
  6
CONTINUOUS
 62
    7
 10
52.405999827424849
 20
14.609498260210383
 11
52.29516141673875
 21
14.569508130090364
  0
LINE
  8
_0-1_
  6
CONTINUOUS
 62
    7
 10
52.29516141673875
 20
14.569508130090364
 11
52.141299470510503
 21
14.489829622222163
  0
LINE
  8
_0-1_
  6
CONTINUOUS
 62
    7
 10
52.141299470510503
 20
14.489829622222163
 11
51.929739294446662
 21
14.41289864910804
  0
LINE
  8
_0-1_
  6
CONTINUOUS
 62
    7
 10
51.929739294446662
 20
14.41289864910804
 11
51.726421722645042
 21
14.311239863207232
  0
LINE
  8
_0-1_
  6
CONTINUOUS
 62
    7
 10
51.726421722645042
 20
14.311239863207232
 11
51.575307311170874
 21
14.256289168125713
  0
LINE
  8
_0-1_
  6
CONTINUOUS
 62
    7
 10
51.575307311170874
 20
14.256289168125713
 11
51.476396060024136
 21
14.270026841896093
  0
LINE
  8
_0-1_
  6
CONTINUOUS
 62
    7
 10
51.476396060024136
 20
14.270026841896093
 11
51.498376338056743
 21
14.346957815010219
  0
LINE
  8
_0-1_
  6
CONTINUOUS
 62
    7
 10
51.498376338056743
 20
14.346957815010219
 11
51.561569637400488
 21
14.410151114353963
  0
LINE
  8
_0-1_
  6
CONTINUOUS
 62
    7
 10
51.561569637400488
 20
14.410151114353963
 11
51.602782658711632
 21
14.522800039271075
  0
LINE
  8
_0-1_
  6
CONTINUOUS
 62
    7
 10
51.602782658711632
 20
14.522800039271075
 11
51.633005541006461
 21
14.728865145826766
  0
LINE
  8
_0-1_
  6
CONTINUOUS
 62
    7
 10
51.633005541006461
 20
14.728865145826766
 11
51.63025800625239
 21
14.896464765825394
  0
LINE
  8
_0-1_
  6
CONTINUOUS
 62
    7
 10
51.63025800625239
 20
14.896464765825394
 11
51.520356616089351
 21
15.119015080905542
  0
LINE
  8
_0-1_
  6
CONTINUOUS
 62
    7
 10
51.520356616089351
 20
15.119015080905542
 11
51.404960156418162
 21
15.270129492379716
  0
LINE
  8
_0-1_
  6
CONTINUOUS
 62
    7
 10
51.404960156418162
 20
15.270129492379716
 11
51.273078488222523
 21
15.369040743526447
  0
LINE
  8
_0-1_
  6
CONTINUOUS
 62
    7
 10
51.273078488222523
 20
15.369040743526447
 11
51.116469007240198
 21
15.432234042870193
  0
LINE
  8
_0-1_
  6
CONTINUOUS
 62
    7
 10
51.116469007240198
 20
15.432234042870193
 11
50.924141574454885
 21
15.454214320902801
  0
LINE
  8
_0-1_
  6
CONTINUOUS
 62
    7
 10
50.924141574454885
 20
15.454214320902801
 11
50.674115911833979
 21
15.407506230083511
  0
LINE
  8
_0-1_
  6
CONTINUOUS
 62
    7
 10
50.674115911833979
 20
15.407506230083511
 11
50.498273687573124
 21
15.316837583199005
  0
LINE
  8
_0-1_
  6
CONTINUOUS
 62
    7
 10
50.498273687573124
 20
15.316837583199005
 11
50.358149415115249
 21
15.187703449757439
  0
LINE
  8
_0-1_
  6
CONTINUOUS
 62
    7
 10
50.358149415115249
 20
15.187703449757439
 11
50.261985698722597
 21
15.042084107791417
  0
LINE
  8
_0-1_
  6
CONTINUOUS
 62
    7
 10
50.261985698722597
 20
15.042084107791417
 11
50.207035003641081
 21
14.890969696317242
  0
LINE
  8
_0-1_
  6
CONTINUOUS
 62
    7
 10
50.207035003641081
 20
14.890969696317242
 11
50.182307190854395
 21
14.624458825171883
  0
LINE
  8
_0-1_
  6
CONTINUOUS
 62
    7
 10
50.182307190854395
 20
14.624458825171883
 11
50.215277607903303
 21
14.462354274681404
  0
LINE
  8
_0-1_
  6
CONTINUOUS
 62
    7
 10
50.215277607903303
 20
14.462354274681404
 11
50.278470907247054
 21
14.30574479369908
  0
LINE
  8
_0-1_
  6
CONTINUOUS
 62
    7
 10
50.278470907247054
 20
14.30574479369908
 11
50.402109971180465
 21
14.184853264519741
  0
LINE
  8
_0-1_
  6
CONTINUOUS
 62
    7
 10
50.402109971180465
 20
14.184853264519741
 11
50.498273687573124
 21
14.127155034684147
  0
LINE
  8
_0-1_
  6
CONTINUOUS
 62
    7
 10
50.498273687573124
 20
14.127155034684147
 11
50.572457125933169
 21
14.069456804848554
  0
LINE
  8
_0-1_
  6
CONTINUOUS
 62
    7
 10
50.572457125933169
 20
14.069456804848554
 11
50.693348655112508
 21
14.050224061570022
  0
LINE
  8
_0-1_
  6
CONTINUOUS
 62
    7
 10
50.693348655112508
 20
14.050224061570022
 11
50.685106050850279
 21
13.989778296980352
  0
LINE
  8
_0-1_
  6
CONTINUOUS
 62
    7
 10
50.685106050850279
 20
13.989778296980352
 11
50.459808201016059
 21
13.932080067144758
  0
LINE
  8
_0-1_
  6
CONTINUOUS
 62
    7
 10
50.459808201016059
 20
13.932080067144758
 11
50.171317051838087
 21
13.87163430255509
  0
LINE
  8
_0-1_
  6
CONTINUOUS
 62
    7
 10
50.171317051838087
 20
13.87163430255509
 11
49.78666218626747
 21
13.805693468457269
  0
LINE
  8
_0-1_
  6
CONTINUOUS
 62
    7
 10
49.78666218626747
 20
13.805693468457269
 11
49.429482668237604
 21
13.750742773375751
  0
LINE
  8
_0-1_
  6
CONTINUOUS
 62
    7
 10
49.429482668237604
 20
13.750742773375751
 11
48.967896829552856
 21
13.682054404523853
  0
LINE
  8
_0-1_
  6
CONTINUOUS
 62
    7
 10
48.967896829552856
 20
13.682054404523853
 11
48.4843307128355
 21
13.632598778950487
  0
LINE
  8
_0-1_
  6
CONTINUOUS
 62
    7
 10
48.4843307128355
 20
13.632598778950487
 11
46.918235903012245
 21
13.643588917966791
  0
LINE
  8
_0-1_
  6
CONTINUOUS
 62
    7
 10
46.918235903012245
 20
13.643588917966791
 11
46.302788118099243
 21
13.698539613048309
  0
LINE
  8
_0-1_
  6
CONTINUOUS
 62
    7
 10
46.302788118099243
 20
13.698539613048309
 11
45.866521169417772
 21
13.75602349620096
  0
LINE
  8
_0-1_
  6
CONTINUOUS
 62
    7
 10
45.866521169417772
 20
13.75602349620096
 11
45.442946142508091
 21
13.820951055070327
  0
LINE
  8
_0-1_
  6
CONTINUOUS
 62
    7
 10
45.442946142508091
 20
13.820951055070327
 11
45.075023308915007
 21
13.910612922080407
  0
LINE
  8
_0-1_
  6
CONTINUOUS
 62
    7
 10
45.075023308915007
 20
13.910612922080407
 11
44.741110149015398
 21
13.98790763502013
  0
LINE
  8
_0-1_
  6
CONTINUOUS
 62
    7
 10
44.741110149015398
 20
13.98790763502013
 11
44.339177641728838
 21
14.068294136477444
  0
LINE
  8
_0-1_
  6
CONTINUOUS
 62
    7
 10
44.339177641728838
 20
14.068294136477444
 11
44.329902276176071
 21
14.157956003487523
  0
LINE
  8
_0-1_
  6
CONTINUOUS
 62
    7
 10
44.329902276176071
 20
14.157956003487523
 11
44.484491702055521
 21
14.207424619768945
  0
LINE
  8
_0-1_
  6
CONTINUOUS
 62
    7
 10
44.484491702055521
 20
14.207424619768945
 11
44.605071454241489
 21
14.259985024567958
  0
LINE
  8
_0-1_
  6
CONTINUOUS
 62
    7
 10
44.605071454241489
 20
14.259985024567958
 11
44.722559417909863
 21
14.380564776753926
  0
LINE
  8
_0-1_
  6
CONTINUOUS
 62
    7
 10
44.722559417909863
 20
14.380564776753926
 11
44.840047381578244
 21
14.507328105975073
  0
LINE
  8
_0-1_
  6
CONTINUOUS
 62
    7
 10
44.840047381578244
 20
14.507328105975073
 11
44.889515997859668
 21
14.637183223713808
  0
LINE
  8
_0-1_
  6
CONTINUOUS
 62
    7
 10
44.889515997859668
 20
14.637183223713808
 11
44.917342094517969
 21
14.807231592181199
  0
LINE
  8
_0-1_
  6
CONTINUOUS
 62
    7
 10
44.917342094517969
 20
14.807231592181199
 11
44.92352567155315
 21
15.002014268789304
  0
LINE
  8
_0-1_
  6
CONTINUOUS
 62
    7
 10
44.92352567155315
 20
15.002014268789304
 11
44.840047381578244
 21
15.190613368362228
  0
LINE
  8
_0-1_
  6
CONTINUOUS
 62
    7
 10
44.840047381578244
 20
15.190613368362228
 11
44.762752668638526
 21
15.314284909065786
  0
LINE
  8
_0-1_
  6
CONTINUOUS
 62
    7
 10
44.762752668638526
 20
15.314284909065786
 11
44.635989339417378
 21
15.437956449769345
  0
LINE
  8
_0-1_
  6
CONTINUOUS
 62
    7
 10
44.635989339417378
 20
15.437956449769345
 11
44.465940970949986
 21
15.53998547084978
  0
LINE
  8
_0-1_
  6
CONTINUOUS
 62
    7
 10
44.465940970949986
 20
15.53998547084978
 11
44.249515774718759
 21
15.570903356025668
  0
LINE
  8
_0-1_
  6
CONTINUOUS
 62
    7
 10
44.249515774718759
 20
15.570903356025668
 11
44.076375617733773
 21
15.561627990472901
  0
LINE
  8
_0-1_
  6
CONTINUOUS
 62
    7
 10
44.076375617733773
 20
15.561627990472901
 11
43.884684729643261
 21
15.505975797156301
  0
LINE
  8
_0-1_
  6
CONTINUOUS
 62
    7
 10
43.884684729643261
 20
15.505975797156301
 11
43.723911726728637
 21
15.4224975071814
  0
LINE
  8
_0-1_
  6
CONTINUOUS
 62
    7
 10
43.723911726728637
 20
15.4224975071814
 11
43.631158071200971
 21
15.332835640171321
  0
LINE
  8
_0-1_
  6
CONTINUOUS
 62
    7
 10
43.631158071200971
 20
15.332835640171321
 11
43.575505877884367
 21
15.267908081301952
  0
LINE
  8
_0-1_
  6
CONTINUOUS
 62
    7
 10
43.575505877884367
 20
15.267908081301952
 11
43.498211164944649
 21
15.128777598010451
  0
LINE
  8
_0-1_
  6
CONTINUOUS
 62
    7
 10
43.498211164944649
 20
15.128777598010451
 11
43.451834337180812
 21
14.986555326201358
  0
LINE
  8
_0-1_
  6
CONTINUOUS
 62
    7
 10
43.451834337180812
 20
14.986555326201358
 11
43.439467183110458
 21
14.856700208462623
  0
LINE
  8
_0-1_
  6
CONTINUOUS
 62
    7
 10
43.439467183110458
 20
14.856700208462623
 11
43.46110970273358
 21
14.720661513688709
  0
LINE
  8
_0-1_
  6
CONTINUOUS
 62
    7
 10
43.46110970273358
 20
14.720661513688709
 11
43.516761896050176
 21
14.584622818914796
  0
LINE
  8
_0-1_
  6
CONTINUOUS
 62
    7
 10
43.516761896050176
 20
14.584622818914796
 11
43.603331974542669
 21
14.467134855246417
  0
LINE
  8
_0-1_
  6
CONTINUOUS
 62
    7
 10
43.603331974542669
 20
14.467134855246417
 11
43.594056608989902
 21
14.355830468613213
  0
LINE
  8
_0-1_
  6
CONTINUOUS
 62
    7
 10
43.594056608989902
 20
14.355830468613213
 11
43.492027587909468
 21
14.358922257130803
  0
LINE
  8
_0-1_
  6
CONTINUOUS
 62
    7
 10
43.492027587909468
 20
14.358922257130803
 11
43.247776295019939
 21
14.494960951904717
  0
LINE
  8
_0-1_
  6
CONTINUOUS
 62
    7
 10
43.247776295019939
 20
14.494960951904717
 11
42.947872808813812
 21
14.630999646678631
  0
LINE
  8
_0-1_
  6
CONTINUOUS
 62
    7
 10
42.947872808813812
 20
14.630999646678631
 11
42.610626657037087
 21
14.773923600988167
  0
LINE
  8
_0-1_
  6
CONTINUOUS
 62
    7
 10
42.610626657037087
 20
14.773923600988167
 11
42.284848628627024
 21
14.94500256562809
  0
LINE
  8
_0-1_
  6
CONTINUOUS
 62
    7
 10
42.284848628627024
 20
14.94500256562809
 11
41.953610633260367
 21
15.128821453166729
  0
LINE
  8
_0-1_
  6
CONTINUOUS
 62
    7
 10
41.953610633260367
 20
15.128821453166729
 11
41.62055264890818
 21
15.345400142444926
  0
LINE
  8
_0-1_
  6
CONTINUOUS
 62
    7
 10
41.62055264890818
 20
15.345400142444926
 11
41.37485413586149
 21
15.509199151142723
  0
LINE
  8
_0-1_
  6
CONTINUOUS
 62
    7
 10
41.37485413586149
 20
15.509199151142723
 11
40.998116415856557
 21
15.782197498972385
  0
LINE
  8
_0-1_
  6
CONTINUOUS
 62
    7
 10
40.998116415856557
 20
15.782197498972385
 11
40.630478640779273
 21
16.051555868830988
  0
LINE
  8
_0-1_
  6
CONTINUOUS
 62
    7
 10
40.630478640779273
 20
16.051555868830988
 11
40.324720491210058
 21
16.295434392892151
  0
LINE
  8
_0-1_
  6
CONTINUOUS
 62
    7
 10
40.324720491210058
 20
16.295434392892151
 11
40.096761492554243
 21
16.478904771901646
  0
LINE
  8
_0-1_
  6
CONTINUOUS
 62
    7
 10
40.096761492554243
 20
16.478904771901646
 11
39.953537394799262
 21
16.591976428024004
  0
LINE
  8
_0-1_
  6
CONTINUOUS
 62
    7
 10
39.953537394799262
 20
16.591976428024004
 11
39.965238207317824
 21
16.72114746533397
  0
LINE
  8
_0-1_
  6
CONTINUOUS
 62
    7
 10
39.965238207317824
 20
16.72114746533397
 11
40.051106441898575
 21
16.829812576352093
  0
LINE
  8
_0-1_
  6
CONTINUOUS
 62
    7
 10
40.051106441898575
 20
16.829812576352093
 11
40.16585071996667
 21
16.984071440244957
  0
LINE
  8
_0-1_
  6
CONTINUOUS
 62
    7
 10
40.16585071996667
 20
16.984071440244957
 11
40.263117392766105
 21
17.096536030669309
  0
LINE
  8
_0-1_
  6
CONTINUOUS
 62
    7
 10
40.263117392766105
 20
17.096536030669309
 11
40.349745523228108
 21
17.231797497531033
  0
LINE
  8
_0-1_
  6
CONTINUOUS
 62
    7
 10
40.349745523228108
 20
17.231797497531033
 11
40.562516369976883
 21
17.484082930104577
  0
LINE
  8
_0-1_
  6
CONTINUOUS
 62
    7
 10
40.562516369976883
 20
17.484082930104577
 11
40.784405967300607
 21
17.709012110953285
  0
LINE
  8
_0-1_
  6
CONTINUOUS
 62
    7
 10
40.784405967300607
 20
17.709012110953285
 11
41.030612232824189
 21
17.924822541227044
  0
LINE
  8
_0-1_
  6
CONTINUOUS
 62
    7
 10
41.030612232824189
 20
17.924822541227044
 11
42.048872713693327
 21
18.721193424772462
  0
LINE
  8
_0-1_
  6
CONTINUOUS
 62
    7
 10
42.048872713693327
 20
18.721193424772462
 11
42.492651908340775
 21
18.976518440870989
  0
LINE
  8
_0-1_
  6
CONTINUOUS
 62
    7
 10
42.492651908340775
 20
18.976518440870989
 11
42.960747771188081
 21
19.213605955819627
  0
LINE
  8
_0-1_
  6
CONTINUOUS
 62
    7
 10
42.960747771188081
 20
19.213605955819627
 11
43.453160302235254
 21
19.462851804868193
  0
LINE
  8
_0-1_
  6
CONTINUOUS
 62
    7
 10
43.453160302235254
 20
19.462851804868193
 11
43.939493666232451
 21
19.63914764931718
  0
LINE
  8
_0-1_
  6
CONTINUOUS
 62
    7
 10
43.939493666232451
 20
19.63914764931718
 11
44.264333885689566
 21
19.755298543165448
  0
LINE
  8
_0-1_
  6
CONTINUOUS
 62
    7
 10
44.264333885689566
 20
19.755298543165448
 11
44.633205070167498
 21
19.894319115403316
  0
LINE
  8
_0-1_
  6
CONTINUOUS
 62
    7
 10
42.078242626963771
 20
17.539610683567225
 11
42.359038361584765
 21
17.454521067015406
  0
LINE
  8
_0-1_
  6
CONTINUOUS
 62
    7
 10
42.359038361584765
 20
17.454521067015406
 11
42.55474447965394
 21
17.267323910601412
  0
LINE
  8
_0-1_
  6
CONTINUOUS
 62
    7
 10
42.55474447965394
 20
17.267323910601412
 11
42.673869942826485
 21
17.105653639152961
  0
LINE
  8
_0-1_
  6
CONTINUOUS
 62
    7
 10
42.673869942826485
 20
17.105653639152961
 11
42.767468521033478
 21
16.926965444394145
  0
LINE
  8
_0-1_
  6
CONTINUOUS
 62
    7
 10
42.767468521033478
 20
16.926965444394145
 11
42.767468521033478
 21
16.629151786462784
  0
LINE
  8
_0-1_
  6
CONTINUOUS
 62
    7
 10
42.767468521033478
 20
16.629151786462784
 11
42.673869942826485
 21
16.390900860117699
  0
LINE
  8
_0-1_
  6
CONTINUOUS
 62
    7
 10
42.673869942826485
 20
16.390900860117699
 11
42.571762402964303
 21
16.212212665358883
  0
LINE
  8
_0-1_
  6
CONTINUOUS
 62
    7
 10
42.571762402964303
 20
16.212212665358883
 11
42.410092131515852
 21
16.101596163841524
  0
LINE
  8
_0-1_
  6
CONTINUOUS
 62
    7
 10
42.410092131515852
 20
16.101596163841524
 11
42.222894975101851
 21
16.042033432255252
  0
LINE
  8
_0-1_
  6
CONTINUOUS
 62
    7
 10
42.222894975101851
 20
16.042033432255252
 11
41.933590278825676
 21
16.050542393910433
  0
LINE
  8
_0-1_
  6
CONTINUOUS
 62
    7
 10
41.933590278825676
 20
16.050542393910433
 11
41.746393122411681
 21
16.067560317220795
  0
LINE
  8
_0-1_
  6
CONTINUOUS
 62
    7
 10
41.746393122411681
 20
16.067560317220795
 11
41.542178042687325
 21
16.186685780393339
  0
LINE
  8
_0-1_
  6
CONTINUOUS
 62
    7
 10
41.542178042687325
 20
16.186685780393339
 11
41.380507771238868
 21
16.399409821772881
  0
LINE
  8
_0-1_
  6
CONTINUOUS
 62
    7
 10
41.380507771238868
 20
16.399409821772881
 11
41.269891269721512
 21
16.68871451804906
  0
LINE
  8
_0-1_
  6
CONTINUOUS
 62
    7
 10
41.269891269721512
 20
16.68871451804906
 11
41.269891269721512
 21
16.935474406049326
  0
LINE
  8
_0-1_
  6
CONTINUOUS
 62
    7
 10
41.269891269721512
 20
16.935474406049326
 11
41.380507771238868
 21
17.173725332394411
  0
LINE
  8
_0-1_
  6
CONTINUOUS
 62
    7
 10
41.380507771238868
 20
17.173725332394411
 11
41.567704927652869
 21
17.377940412118775
  0
LINE
  8
_0-1_
  6
CONTINUOUS
 62
    7
 10
41.567704927652869
 20
17.377940412118775
 11
41.848500662273863
 21
17.514083798601681
  0
LINE
  8
_0-1_
  6
CONTINUOUS
 62
    7
 10
41.848500662273863
 20
17.514083798601681
 11
42.078242626963771
 21
17.539610683567225
  0
LINE
  8
_0-1_
  6
CONTINUOUS
 62
    7
 10
43.417277605733623
 20
18.987391399235221
 11
43.773990175547659
 21
18.992561146623831
  0
LINE
  8
_0-1_
  6
CONTINUOUS
 62
    7
 10
43.773990175547659
 20
18.992561146623831
 11
43.91615822873441
 21
18.940863672737737
  0
LINE
  8
_0-1_
  6
CONTINUOUS
 62
    7
 10
43.91615822873441
 20
18.940863672737737
 11
44.053156534532554
 21
18.850393093437077
  0
LINE
  8
_0-1_
  6
CONTINUOUS
 62
    7
 10
44.053156534532554
 20
18.850393093437077
 11
44.166890977081962
 21
18.731488903499066
  0
LINE
  8
_0-1_
  6
CONTINUOUS
 62
    7
 10
44.166890977081962
 20
18.731488903499066
 11
44.241852314216792
 21
18.625509082032579
  0
LINE
  8
_0-1_
  6
CONTINUOUS
 62
    7
 10
44.241852314216792
 20
18.625509082032579
 11
44.278040545937059
 21
18.511774639483174
  0
LINE
  8
_0-1_
  6
CONTINUOUS
 62
    7
 10
44.278040545937059
 20
18.511774639483174
 11
44.316813651351623
 21
18.377361207379337
  0
LINE
  8
_0-1_
  6
CONTINUOUS
 62
    7
 10
44.316813651351623
 20
18.377361207379337
 11
44.329738019823146
 21
18.242947775275496
  0
LINE
  8
_0-1_
  6
CONTINUOUS
 62
    7
 10
44.329738019823146
 20
18.242947775275496
 11
44.309059030268713
 21
18.082685606228611
  0
LINE
  8
_0-1_
  6
CONTINUOUS
 62
    7
 10
44.309059030268713
 20
18.082685606228611
 11
44.221173324662352
 21
17.945687300430471
  0
LINE
  8
_0-1_
  6
CONTINUOUS
 62
    7
 10
44.221173324662352
 20
17.945687300430471
 11
44.146211987527522
 21
17.834537731575373
  0
LINE
  8
_0-1_
  6
CONTINUOUS
 62
    7
 10
44.146211987527522
 20
17.834537731575373
 11
44.084175018864215
 21
17.756991520746232
  0
LINE
  8
_0-1_
  6
CONTINUOUS
 62
    7
 10
44.084175018864215
 20
17.756991520746232
 11
43.988534692174944
 21
17.687199931000009
  0
LINE
  8
_0-1_
  6
CONTINUOUS
 62
    7
 10
43.988534692174944
 20
17.687199931000009
 11
43.864460754848323
 21
17.638087330808222
  0
LINE
  8
_0-1_
  6
CONTINUOUS
 62
    7
 10
43.864460754848323
 20
17.638087330808222
 11
43.750726312298915
 21
17.612238593865178
  0
LINE
  8
_0-1_
  6
CONTINUOUS
 62
    7
 10
43.750726312298915
 20
17.612238593865178
 11
43.657670859303955
 21
17.581220109533521
  0
LINE
  8
_0-1_
  6
CONTINUOUS
 62
    7
 10
43.657670859303955
 20
17.581220109533521
 11
43.543936416754547
 21
17.591559604310738
  0
LINE
  8
_0-1_
  6
CONTINUOUS
 62
    7
 10
43.543936416754547
 20
17.591559604310738
 11
43.300958289489919
 21
17.653596572974048
  0
LINE
  8
_0-1_
  6
CONTINUOUS
 62
    7
 10
43.300958289489919
 20
17.653596572974048
 11
43.148450741525948
 21
17.741482278580406
  0
LINE
  8
_0-1_
  6
CONTINUOUS
 62
    7
 10
43.148450741525948
 20
17.741482278580406
 11
43.042470920059457
 21
17.855216721129806
  0
LINE
  8
_0-1_
  6
CONTINUOUS
 62
    7
 10
43.042470920059457
 20
17.855216721129806
 11
42.97009445661893
 21
17.943102426736164
  0
LINE
  8
_0-1_
  6
CONTINUOUS
 62
    7
 10
42.97009445661893
 20
17.943102426736164
 11
42.915812109038533
 21
18.074930985145698
  0
LINE
  8
_0-1_
  6
CONTINUOUS
 62
    7
 10
42.915812109038533
 20
18.074930985145698
 11
42.905472614261313
 21
18.493680523623041
  0
LINE
  8
_0-1_
  6
CONTINUOUS
 62
    7
 10
42.905472614261313
 20
18.493680523623041
 11
42.985603698784757
 21
18.674621682224366
  0
LINE
  8
_0-1_
  6
CONTINUOUS
 62
    7
 10
42.985603698784757
 20
18.674621682224366
 11
43.081244025474028
 21
18.759922514136416
  0
LINE
  8
_0-1_
  6
CONTINUOUS
 62
    7
 10
43.081244025474028
 20
18.759922514136416
 11
43.174299478468995
 21
18.84522334604847
  0
LINE
  8
_0-1_
  6
CONTINUOUS
 62
    7
 10
43.174299478468995
 20
18.84522334604847
 11
43.303543163184222
 21
18.927939304266214
  0
LINE
  8
_0-1_
  6
CONTINUOUS
 62
    7
 10
43.303543163184222
 20
18.927939304266214
 11
43.417277605733623
 21
18.987391399235221
  0
LINE
  8
_0-1_
  6
CONTINUOUS
 62
    7
 10
45.184781239511522
 20
17.302634277737652
 11
45.324346086566421
 21
17.328929103994372
  0
LINE
  8
_0-1_
  6
CONTINUOUS
 62
    7
 10
45.324346086566421
 20
17.328929103994372
 11
45.469978970449794
 21
17.322861067165895
  0
LINE
  8
_0-1_
  6
CONTINUOUS
 62
    7
 10
45.469978970449794
 20
17.322861067165895
 11
45.613589175390345
 21
17.268248735709633
  0
LINE
  8
_0-1_
  6
CONTINUOUS
 62
    7
 10
45.613589175390345
 20
17.268248735709633
 11
45.728881875131349
 21
17.197454972710772
  0
LINE
  8
_0-1_
  6
CONTINUOUS
 62
    7
 10
45.728881875131349
 20
17.197454972710772
 11
45.840129216986703
 21
17.130706567597556
  0
LINE
  8
_0-1_
  6
CONTINUOUS
 62
    7
 10
45.840129216986703
 20
17.130706567597556
 11
45.935195127299465
 21
17.035640657284801
  0
LINE
  8
_0-1_
  6
CONTINUOUS
 62
    7
 10
45.935195127299465
 20
17.035640657284801
 11
46.01003424818397
 21
16.910234562829671
  0
LINE
  8
_0-1_
  6
CONTINUOUS
 62
    7
 10
46.01003424818397
 20
16.910234562829671
 11
46.076782653297186
 21
16.705943989604385
  0
LINE
  8
_0-1_
  6
CONTINUOUS
 62
    7
 10
46.076782653297186
 20
16.705943989604385
 11
46.074759974354364
 21
16.489517342722148
  0
LINE
  8
_0-1_
  6
CONTINUOUS
 62
    7
 10
46.074759974354364
 20
16.489517342722148
 11
46.040374432326345
 21
16.313544274696404
  0
LINE
  8
_0-1_
  6
CONTINUOUS
 62
    7
 10
46.040374432326345
 20
16.313544274696404
 11
45.989807458755727
 21
16.182070143412801
  0
LINE
  8
_0-1_
  6
CONTINUOUS
 62
    7
 10
45.989807458755727
 20
16.182070143412801
 11
45.902832264214268
 21
16.082958875214394
  0
LINE
  8
_0-1_
  6
CONTINUOUS
 62
    7
 10
45.902832264214268
 20
16.082958875214394
 11
45.817879748615631
 21
16.00609707538706
  0
LINE
  8
_0-1_
  6
CONTINUOUS
 62
    7
 10
45.817879748615631
 20
16.00609707538706
 11
45.722813838302876
 21
15.909008486131476
  0
LINE
  8
_0-1_
  6
CONTINUOUS
 62
    7
 10
45.722813838302876
 20
15.909008486131476
 11
45.619657212218818
 21
15.868554907274983
  0
LINE
  8
_0-1_
  6
CONTINUOUS
 62
    7
 10
45.619657212218818
 20
15.868554907274983
 11
45.51852326507759
 21
15.846305438903913
  0
LINE
  8
_0-1_
  6
CONTINUOUS
 62
    7
 10
45.51852326507759
 20
15.846305438903913
 11
45.107919439684181
 21
15.848328117846737
  0
LINE
  8
_0-1_
  6
CONTINUOUS
 62
    7
 10
45.107919439684181
 20
15.848328117846737
 11
44.972399950514933
 21
15.933280633445372
  0
LINE
  8
_0-1_
  6
CONTINUOUS
 62
    7
 10
44.972399950514933
 20
15.933280633445372
 11
44.86115260865958
 21
16.012165112215534
  0
LINE
  8
_0-1_
  6
CONTINUOUS
 62
    7
 10
44.86115260865958
 20
16.012165112215534
 11
44.747882587861397
 21
16.103185664642644
  0
LINE
  8
_0-1_
  6
CONTINUOUS
 62
    7
 10
44.747882587861397
 20
16.103185664642644
 11
44.681134182748188
 21
16.222523722269293
  0
LINE
  8
_0-1_
  6
CONTINUOUS
 62
    7
 10
44.681134182748188
 20
16.222523722269293
 11
44.600227025035202
 21
16.33377106412465
  0
LINE
  8
_0-1_
  6
CONTINUOUS
 62
    7
 10
44.600227025035202
 20
16.33377106412465
 11
44.582022914549781
 21
16.418723579723284
  0
LINE
  8
_0-1_
  6
CONTINUOUS
 62
    7
 10
44.582022914549781
 20
16.418723579723284
 11
44.586068272435426
 21
16.647286300262472
  0
LINE
  8
_0-1_
  6
CONTINUOUS
 62
    7
 10
44.586068272435426
 20
16.647286300262472
 11
44.614385777634971
 21
16.790896505203019
  0
LINE
  8
_0-1_
  6
CONTINUOUS
 62
    7
 10
44.614385777634971
 20
16.790896505203019
 11
44.699338293233608
 21
16.960801536400289
  0
LINE
  8
_0-1_
  6
CONTINUOUS
 62
    7
 10
44.699338293233608
 20
16.960801536400289
 11
44.794404203546363
 21
17.074071557198465
  0
LINE
  8
_0-1_
  6
CONTINUOUS
 62
    7
 10
44.794404203546363
 20
17.074071557198465
 11
44.873288682316527
 21
17.150933357025806
  0
LINE
  8
_0-1_
  6
CONTINUOUS
 62
    7
 10
44.873288682316527
 20
17.150933357025806
 11
44.996672097828827
 21
17.225772477910314
  0
LINE
  8
_0-1_
  6
CONTINUOUS
 62
    7
 10
44.996672097828827
 20
17.225772477910314
 11
45.184781239511522
 21
17.302634277737652
  0
LINE
  8
_0-1_
  6
CONTINUOUS
 62
    7
 10
47.577181232772865
 20
16.017385916618078
 11
47.775302361179193
 21
16.052220400733475
  0
LINE
  8
_0-1_
  6
CONTINUOUS
 62
    7
 10
47.775302361179193
 20
16.052220400733475
 11
48.010435128958128
 21
16.058751866505112
  0
LINE
  8
_0-1_
  6
CONTINUOUS
 62
    7
 10
48.010435128958128
 20
16.058751866505112
 11
48.154127375934145
 21
16.023917382389715
  0
LINE
  8
_0-1_
  6
CONTINUOUS
 62
    7
 10
48.154127375934145
 20
16.023917382389715
 11
48.280402380852464
 21
15.947716948387283
  0
LINE
  8
_0-1_
  6
CONTINUOUS
 62
    7
 10
48.280402380852464
 20
15.947716948387283
 11
48.417563162056836
 21
15.851922117069939
  0
LINE
  8
_0-1_
  6
CONTINUOUS
 62
    7
 10
48.417563162056836
 20
15.851922117069939
 11
48.51118083811697
 21
15.736532888437684
  0
LINE
  8
_0-1_
  6
CONTINUOUS
 62
    7
 10
48.51118083811697
 20
15.736532888437684
 11
48.598267048405467
 21
15.584132020432818
  0
LINE
  8
_0-1_
  6
CONTINUOUS
 62
    7
 10
48.598267048405467
 20
15.584132020432818
 11
48.630924377263653
 21
15.462211326028926
  0
LINE
  8
_0-1_
  6
CONTINUOUS
 62
    7
 10
48.630924377263653
 20
15.462211326028926
 11
48.665758861379046
 21
15.331582010596184
  0
LINE
  8
_0-1_
  6
CONTINUOUS
 62
    7
 10
48.665758861379046
 20
15.331582010596184
 11
48.633101532520868
 21
15.142169503218708
  0
LINE
  8
_0-1_
  6
CONTINUOUS
 62
    7
 10
48.633101532520868
 20
15.142169503218708
 11
48.59173558263383
 21
15.009363032528753
  0
LINE
  8
_0-1_
  6
CONTINUOUS
 62
    7
 10
48.59173558263383
 20
15.009363032528753
 11
48.541661011717948
 21
14.924453977497471
  0
LINE
  8
_0-1_
  6
CONTINUOUS
 62
    7
 10
48.541661011717948
 20
14.924453977497471
 11
48.493763596059274
 21
14.85043069875225
  0
LINE
  8
_0-1_
  6
CONTINUOUS
 62
    7
 10
48.493763596059274
 20
14.85043069875225
 11
48.419740317314051
 21
14.761167333206543
  0
LINE
  8
_0-1_
  6
CONTINUOUS
 62
    7
 10
48.419740317314051
 20
14.761167333206543
 11
48.330476951768346
 21
14.676258278175261
  0
LINE
  8
_0-1_
  6
CONTINUOUS
 62
    7
 10
48.330476951768346
 20
14.676258278175261
 11
48.243390741479849
 21
14.61965224148774
  0
LINE
  8
_0-1_
  6
CONTINUOUS
 62
    7
 10
48.243390741479849
 20
14.61965224148774
 11
48.15195022067693
 21
14.584817757372341
  0
LINE
  8
_0-1_
  6
CONTINUOUS
 62
    7
 10
48.15195022067693
 20
14.584817757372341
 11
47.956006247527817
 21
14.554337583771369
  0
LINE
  8
_0-1_
  6
CONTINUOUS
 62
    7
 10
47.956006247527817
 20
14.554337583771369
 11
47.742645032321007
 21
14.560869049543006
  0
LINE
  8
_0-1_
  6
CONTINUOUS
 62
    7
 10
47.742645032321007
 20
14.560869049543006
 11
47.559763990715168
 21
14.61094362045889
  0
LINE
  8
_0-1_
  6
CONTINUOUS
 62
    7
 10
47.559763990715168
 20
14.61094362045889
 11
47.394300191167026
 21
14.706738451776235
  0
LINE
  8
_0-1_
  6
CONTINUOUS
 62
    7
 10
47.394300191167026
 20
14.706738451776235
 11
47.291973894078047
 21
14.817773369894064
  0
LINE
  8
_0-1_
  6
CONTINUOUS
 62
    7
 10
47.291973894078047
 20
14.817773369894064
 11
47.196179062760705
 21
14.978882858927779
  0
LINE
  8
_0-1_
  6
CONTINUOUS
 62
    7
 10
47.196179062760705
 20
14.978882858927779
 11
47.150458802359239
 21
15.083386311273974
  0
LINE
  8
_0-1_
  6
CONTINUOUS
 62
    7
 10
47.150458802359239
 20
15.083386311273974
 11
47.154813112873668
 21
15.542766070545782
  0
LINE
  8
_0-1_
  6
CONTINUOUS
 62
    7
 10
47.154813112873668
 20
15.542766070545782
 11
47.222304925847254
 21
15.686458317521799
  0
LINE
  8
_0-1_
  6
CONTINUOUS
 62
    7
 10
47.222304925847254
 20
15.686458317521799
 11
47.305036825621321
 21
15.801847546154055
  0
LINE
  8
_0-1_
  6
CONTINUOUS
 62
    7
 10
47.305036825621321
 20
15.801847546154055
 11
47.392123035909818
 21
15.891110911699762
  0
LINE
  8
_0-1_
  6
CONTINUOUS
 62
    7
 10
47.392123035909818
 20
15.891110911699762
 11
47.503157954027642
 21
15.980374277245468
  0
LINE
  8
_0-1_
  6
CONTINUOUS
 62
    7
 10
47.503157954027642
 20
15.980374277245468
 11
47.577181232772865
 21
16.017385916618078
  0
LINE
  8
_0-1_
  6
CONTINUOUS
 62
    7
 10
47.147967318783202
 20
20.253476057354234
 11
47.31163209883708
 21
20.278480398751355
  0
LINE
  8
_0-1_
  6
CONTINUOUS
 62
    7
 10
47.31163209883708
 20
20.278480398751355
 11
47.486662488616914
 21
20.278480398751355
  0
LINE
  8
_0-1_
  6
CONTINUOUS
 62
    7
 10
47.486662488616914
 20
20.278480398751355
 11
47.62986917116406
 21
20.233017959847501
  0
LINE
  8
_0-1_
  6
CONTINUOUS
 62
    7
 10
47.62986917116406
 20
20.233017959847501
 11
47.775348975656385
 21
20.153458691765756
  0
LINE
  8
_0-1_
  6
CONTINUOUS
 62
    7
 10
47.775348975656385
 20
20.153458691765756
 11
47.884458829025639
 21
20.060260692012853
  0
LINE
  8
_0-1_
  6
CONTINUOUS
 62
    7
 10
47.884458829025639
 20
20.060260692012853
 11
47.970837462942959
 21
19.935238985027254
  0
LINE
  8
_0-1_
  6
CONTINUOUS
 62
    7
 10
47.970837462942959
 20
19.935238985027254
 11
48.029938633517971
 21
19.832948497493582
  0
LINE
  8
_0-1_
  6
CONTINUOUS
 62
    7
 10
48.029938633517971
 20
19.832948497493582
 11
48.054942974915093
 21
19.689741814946444
  0
LINE
  8
_0-1_
  6
CONTINUOUS
 62
    7
 10
48.054942974915093
 20
19.689741814946444
 11
48.070854828531437
 21
19.551081376289687
  0
LINE
  8
_0-1_
  6
CONTINUOUS
 62
    7
 10
48.070854828531437
 20
19.551081376289687
 11
48.04812360907951
 21
19.410147815687739
  0
LINE
  8
_0-1_
  6
CONTINUOUS
 62
    7
 10
48.04812360907951
 20
19.410147815687739
 11
48.018573023792008
 21
19.28285298675695
  0
LINE
  8
_0-1_
  6
CONTINUOUS
 62
    7
 10
48.018573023792008
 20
19.28285298675695
 11
47.959471853216996
 21
19.178289377278083
  0
LINE
  8
_0-1_
  6
CONTINUOUS
 62
    7
 10
47.959471853216996
 20
19.178289377278083
 11
47.866273853464093
 21
19.089637621415569
  0
LINE
  8
_0-1_
  6
CONTINUOUS
 62
    7
 10
47.866273853464093
 20
19.089637621415569
 11
47.784441463437161
 21
19.012351475279018
  0
LINE
  8
_0-1_
  6
CONTINUOUS
 62
    7
 10
47.784441463437161
 20
19.012351475279018
 11
47.695789707574647
 21
18.950977182758812
  0
LINE
  8
_0-1_
  6
CONTINUOUS
 62
    7
 10
47.695789707574647
 20
18.950977182758812
 11
47.595772341986162
 21
18.885056646348225
  0
LINE
  8
_0-1_
  6
CONTINUOUS
 62
    7
 10
47.595772341986162
 20
18.885056646348225
 11
47.482116244726526
 21
18.864598548841492
  0
LINE
  8
_0-1_
  6
CONTINUOUS
 62
    7
 10
47.482116244726526
 20
18.864598548841492
 11
47.36846014746689
 21
18.850959817170334
  0
LINE
  8
_0-1_
  6
CONTINUOUS
 62
    7
 10
47.36846014746689
 20
18.850959817170334
 11
47.234345952700522
 21
18.88051040245784
  0
LINE
  8
_0-1_
  6
CONTINUOUS
 62
    7
 10
47.234345952700522
 20
18.88051040245784
 11
47.086593026263003
 21
18.912334109690537
  0
LINE
  8
_0-1_
  6
CONTINUOUS
 62
    7
 10
47.086593026263003
 20
18.912334109690537
 11
46.909289514537967
 21
19.019170841114593
  0
LINE
  8
_0-1_
  6
CONTINUOUS
 62
    7
 10
46.909289514537967
 20
19.019170841114593
 11
46.820637758675452
 21
19.112368840867496
  0
LINE
  8
_0-1_
  6
CONTINUOUS
 62
    7
 10
46.820637758675452
 20
19.112368840867496
 11
46.725166636977363
 21
19.216932450346359
  0
LINE
  8
_0-1_
  6
CONTINUOUS
 62
    7
 10
46.725166636977363
 20
19.216932450346359
 11
46.670611710292732
 21
19.314676693989646
  0
LINE
  8
_0-1_
  6
CONTINUOUS
 62
    7
 10
46.670611710292732
 20
19.314676693989646
 11
46.647880490840805
 21
19.787486058589728
  0
LINE
  8
_0-1_
  6
CONTINUOUS
 62
    7
 10
46.647880490840805
 20
19.787486058589728
 11
46.734259124758132
 21
19.921600253356096
  0
LINE
  8
_0-1_
  6
CONTINUOUS
 62
    7
 10
46.734259124758132
 20
19.921600253356096
 11
46.781994685607173
 21
20.019344496999384
  0
LINE
  8
_0-1_
  6
CONTINUOUS
 62
    7
 10
46.781994685607173
 20
20.019344496999384
 11
46.879738929250464
 21
20.107996252861902
  0
LINE
  8
_0-1_
  6
CONTINUOUS
 62
    7
 10
46.879738929250464
 20
20.107996252861902
 11
46.982029416784136
 21
20.178463033162874
  0
LINE
  8
_0-1_
  6
CONTINUOUS
 62
    7
 10
46.982029416784136
 20
20.178463033162874
 11
47.147967318783202
 21
20.253476057354234
  0
LINE
  8
_0-1_
  6
CONTINUOUS
 62
    7
 10
49.899885569136358
 20
19.478626997300604
 11
50.186696259410155
 21
19.461755780225676
  0
LINE
  8
_0-1_
  6
CONTINUOUS
 62
    7
 10
50.186696259410155
 20
19.461755780225676
 11
50.372279647234378
 21
19.363902721191088
  0
LINE
  8
_0-1_
  6
CONTINUOUS
 62
    7
 10
50.372279647234378
 20
19.363902721191088
 11
50.466758462853981
 21
19.252552688496553
  0
LINE
  8
_0-1_
  6
CONTINUOUS
 62
    7
 10
50.466758462853981
 20
19.252552688496553
 11
50.567985765303554
 21
19.110834465067149
  0
LINE
  8
_0-1_
  6
CONTINUOUS
 62
    7
 10
50.567985765303554
 20
19.110834465067149
 11
50.642219120433246
 21
18.948870781147828
  0
LINE
  8
_0-1_
  6
CONTINUOUS
 62
    7
 10
50.642219120433246
 20
18.948870781147828
 11
50.659090337508175
 21
18.584452492329361
  0
LINE
  8
_0-1_
  6
CONTINUOUS
 62
    7
 10
50.659090337508175
 20
18.584452492329361
 11
50.588231225793471
 21
18.42923729524001
  0
LINE
  8
_0-1_
  6
CONTINUOUS
 62
    7
 10
50.588231225793471
 20
18.42923729524001
 11
50.500500897003838
 21
18.30776453230052
  0
LINE
  8
_0-1_
  6
CONTINUOUS
 62
    7
 10
50.500500897003838
 20
18.30776453230052
 11
50.399273594554266
 21
18.196414499605989
  0
LINE
  8
_0-1_
  6
CONTINUOUS
 62
    7
 10
50.399273594554266
 20
18.196414499605989
 11
50.271052344784806
 21
18.145800848381199
  0
LINE
  8
_0-1_
  6
CONTINUOUS
 62
    7
 10
50.271052344784806
 20
18.145800848381199
 11
50.12595987794041
 21
18.11543265764633
  0
LINE
  8
_0-1_
  6
CONTINUOUS
 62
    7
 10
50.12595987794041
 20
18.11543265764633
 11
49.808780996931744
 21
18.1221811444763
  0
LINE
  8
_0-1_
  6
CONTINUOUS
 62
    7
 10
49.808780996931744
 20
18.1221811444763
 11
49.626571852522509
 21
18.182917525946045
  0
LINE
  8
_0-1_
  6
CONTINUOUS
 62
    7
 10
49.626571852522509
 20
18.182917525946045
 11
49.498350602753049
 21
18.274022098150663
  0
LINE
  8
_0-1_
  6
CONTINUOUS
 62
    7
 10
49.498350602753049
 20
18.274022098150663
 11
49.400497543718458
 21
18.395494861090153
  0
LINE
  8
_0-1_
  6
CONTINUOUS
 62
    7
 10
49.400497543718458
 20
18.395494861090153
 11
49.336386918833724
 21
18.540587327934545
  0
LINE
  8
_0-1_
  6
CONTINUOUS
 62
    7
 10
49.336386918833724
 20
18.540587327934545
 11
49.312767214928825
 21
18.908379860168
  0
LINE
  8
_0-1_
  6
CONTINUOUS
 62
    7
 10
49.312767214928825
 20
18.908379860168
 11
49.35325813590866
 21
19.097337491407206
  0
LINE
  8
_0-1_
  6
CONTINUOUS
 62
    7
 10
49.35325813590866
 20
19.097337491407206
 11
49.451111194943244
 21
19.239055714836609
  0
LINE
  8
_0-1_
  6
CONTINUOUS
 62
    7
 10
49.451111194943244
 20
19.239055714836609
 11
49.60970063544758
 21
19.401019398755931
  0
LINE
  8
_0-1_
  6
CONTINUOUS
 62
    7
 10
49.60970063544758
 20
19.401019398755931
 11
49.754793102291969
 21
19.458381536810691
  0
LINE
  8
_0-1_
  6
CONTINUOUS
 62
    7
 10
49.754793102291969
 20
19.458381536810691
 11
49.899885569136358
 21
19.478626997300604
  0
LINE
  8
_0-1_
  6
CONTINUOUS
 62
    7
 10
52.621296641137703
 20
18.935884331314269
 11
52.880451298504276
 21
18.937974288228513
  0
LINE
  8
_0-1_
  6
CONTINUOUS
 62
    7
 10
52.880451298504276
 20
18.937974288228513
 11
53.070637377700705
 21
18.869005710058377
  0
LINE
  8
_0-1_
  6
CONTINUOUS
 62
    7
 10
53.070637377700705
 20
18.869005710058377
 11
53.181405094155778
 21
18.785407433488515
  0
LINE
  8
_0-1_
  6
CONTINUOUS
 62
    7
 10
53.181405094155778
 20
18.785407433488515
 11
53.342331776552761
 21
18.641200406405506
  0
LINE
  8
_0-1_
  6
CONTINUOUS
 62
    7
 10
53.342331776552761
 20
18.641200406405506
 11
53.417570225465638
 21
18.494903422408246
  0
LINE
  8
_0-1_
  6
CONTINUOUS
 62
    7
 10
53.417570225465638
 20
18.494903422408246
 11
53.459369363750568
 21
18.390405576695918
  0
LINE
  8
_0-1_
  6
CONTINUOUS
 62
    7
 10
53.459369363750568
 20
18.390405576695918
 11
53.488628760550014
 21
18.262918204926879
  0
LINE
  8
_0-1_
  6
CONTINUOUS
 62
    7
 10
53.488628760550014
 20
18.262918204926879
 11
53.484448846721527
 21
18.129160962415099
  0
LINE
  8
_0-1_
  6
CONTINUOUS
 62
    7
 10
53.484448846721527
 20
18.129160962415099
 11
53.434289880779608
 21
17.978684064589351
  0
LINE
  8
_0-1_
  6
CONTINUOUS
 62
    7
 10
53.434289880779608
 20
17.978684064589351
 11
53.382040957923443
 21
17.853286649734556
  0
LINE
  8
_0-1_
  6
CONTINUOUS
 62
    7
 10
53.382040957923443
 20
17.853286649734556
 11
53.338151862724267
 21
17.773868286993188
  0
LINE
  8
_0-1_
  6
CONTINUOUS
 62
    7
 10
53.338151862724267
 20
17.773868286993188
 11
53.262913413811389
 21
17.686090096594835
  0
LINE
  8
_0-1_
  6
CONTINUOUS
 62
    7
 10
53.262913413811389
 20
17.686090096594835
 11
53.173045266498789
 21
17.635931130652917
  0
LINE
  8
_0-1_
  6
CONTINUOUS
 62
    7
 10
53.173045266498789
 20
17.635931130652917
 11
53.068547420786465
 21
17.600401863110725
  0
LINE
  8
_0-1_
  6
CONTINUOUS
 62
    7
 10
53.068547420786465
 20
17.600401863110725
 11
52.972409402731123
 21
17.569052509397028
  0
LINE
  8
_0-1_
  6
CONTINUOUS
 62
    7
 10
52.972409402731123
 20
17.569052509397028
 11
52.531428493825103
 21
17.569052509397028
  0
LINE
  8
_0-1_
  6
CONTINUOUS
 62
    7
 10
52.531428493825103
 20
17.569052509397028
 11
52.426930648112772
 21
17.623391389167437
  0
LINE
  8
_0-1_
  6
CONTINUOUS
 62
    7
 10
52.426930648112772
 20
17.623391389167437
 11
52.29735331942949
 21
17.69444992425182
  0
LINE
  8
_0-1_
  6
CONTINUOUS
 62
    7
 10
52.29735331942949
 20
17.69444992425182
 11
52.213755042859631
 21
17.794767856135656
  0
LINE
  8
_0-1_
  6
CONTINUOUS
 62
    7
 10
52.213755042859631
 20
17.794767856135656
 11
52.148966378517982
 21
17.905535572590721
  0
LINE
  8
_0-1_
  6
CONTINUOUS
 62
    7
 10
52.148966378517982
 20
17.905535572590721
 11
52.082087757262094
 21
18.030932987445513
  0
LINE
  8
_0-1_
  6
CONTINUOUS
 62
    7
 10
52.082087757262094
 20
18.030932987445513
 11
52.073727929605112
 21
18.375775878296195
  0
LINE
  8
_0-1_
  6
CONTINUOUS
 62
    7
 10
52.073727929605112
 20
18.375775878296195
 11
52.117617024804289
 21
18.545062388350164
  0
LINE
  8
_0-1_
  6
CONTINUOUS
 62
    7
 10
52.117617024804289
 20
18.545062388350164
 11
52.199125344459901
 21
18.670459803204956
  0
LINE
  8
_0-1_
  6
CONTINUOUS
 62
    7
 10
52.199125344459901
 20
18.670459803204956
 11
52.286903534858254
 21
18.768687778174545
  0
LINE
  8
_0-1_
  6
CONTINUOUS
 62
    7
 10
52.286903534858254
 20
18.768687778174545
 11
52.395581294399079
 21
18.85019609783016
  0
LINE
  8
_0-1_
  6
CONTINUOUS
 62
    7
 10
52.395581294399079
 20
18.85019609783016
 11
52.51888875233962
 21
18.904534977600569
  0
LINE
  8
_0-1_
  6
CONTINUOUS
 62
    7
 10
52.51888875233962
 20
18.904534977600569
 11
52.621296641137703
 21
18.935884331314269
  0
LINE
  8
_0-1_
  6
CONTINUOUS
 62
    7
 10
55.291041200812358
 20
18.598012904307562
 11
55.620019194141413
 21
18.598012904307562
  0
LINE
  8
_0-1_
  6
CONTINUOUS
 62
    7
 10
55.620019194141413
 20
18.598012904307562
 11
55.732353143083045
 21
18.555887673454453
  0
LINE
  8
_0-1_
  6
CONTINUOUS
 62
    7
 10
55.732353143083045
 20
18.555887673454453
 11
55.920913700235061
 21
18.459601431504484
  0
LINE
  8
_0-1_
  6
CONTINUOUS
 62
    7
 10
55.920913700235061
 20
18.459601431504484
 11
56.027229759054819
 21
18.333225738945152
  0
LINE
  8
_0-1_
  6
CONTINUOUS
 62
    7
 10
56.027229759054819
 20
18.333225738945152
 11
56.095432513769381
 21
18.212867936507691
  0
LINE
  8
_0-1_
  6
CONTINUOUS
 62
    7
 10
56.095432513769381
 20
18.212867936507691
 11
56.137557744622498
 21
18.110563804435848
  0
LINE
  8
_0-1_
  6
CONTINUOUS
 62
    7
 10
56.137557744622498
 20
18.110563804435848
 11
56.163635268483943
 21
18.01628352585984
  0
LINE
  8
_0-1_
  6
CONTINUOUS
 62
    7
 10
56.163635268483943
 20
18.01628352585984
 11
56.195730682467271
 21
17.901943613544251
  0
LINE
  8
_0-1_
  6
CONTINUOUS
 62
    7
 10
56.195730682467271
 20
17.901943613544251
 11
56.177677012101646
 21
17.791615627976575
  0
LINE
  8
_0-1_
  6
CONTINUOUS
 62
    7
 10
56.177677012101646
 20
17.791615627976575
 11
56.14959352486624
 21
17.659222045295372
  0
LINE
  8
_0-1_
  6
CONTINUOUS
 62
    7
 10
56.14959352486624
 20
17.659222045295372
 11
56.095432513769381
 21
17.532846352736036
  0
LINE
  8
_0-1_
  6
CONTINUOUS
 62
    7
 10
56.095432513769381
 20
17.532846352736036
 11
56.021211868932951
 21
17.412488550298576
  0
LINE
  8
_0-1_
  6
CONTINUOUS
 62
    7
 10
56.021211868932951
 20
17.412488550298576
 11
55.890824249625694
 21
17.306172491478818
  0
LINE
  8
_0-1_
  6
CONTINUOUS
 62
    7
 10
55.890824249625694
 20
17.306172491478818
 11
55.81259167804135
 21
17.252011480381963
  0
LINE
  8
_0-1_
  6
CONTINUOUS
 62
    7
 10
55.81259167804135
 20
17.252011480381963
 11
55.690227912229929
 21
17.20988624952885
  0
LINE
  8
_0-1_
  6
CONTINUOUS
 62
    7
 10
55.690227912229929
 20
17.20988624952885
 11
55.509691208573741
 21
17.177790835545529
  0
LINE
  8
_0-1_
  6
CONTINUOUS
 62
    7
 10
55.509691208573741
 20
17.177790835545529
 11
55.285023310690476
 21
17.187820652415318
  0
LINE
  8
_0-1_
  6
CONTINUOUS
 62
    7
 10
55.285023310690476
 20
17.187820652415318
 11
55.110504497156163
 21
17.25401744375592
  0
LINE
  8
_0-1_
  6
CONTINUOUS
 62
    7
 10
55.110504497156163
 20
17.25401744375592
 11
54.972093024353085
 21
17.338267905462146
  0
LINE
  8
_0-1_
  6
CONTINUOUS
 62
    7
 10
54.972093024353085
 20
17.338267905462146
 11
54.857753112037499
 21
17.456619744525646
  0
LINE
  8
_0-1_
  6
CONTINUOUS
 62
    7
 10
54.857753112037499
 20
17.456619744525646
 11
54.785538430575016
 21
17.603055070824556
  0
LINE
  8
_0-1_
  6
CONTINUOUS
 62
    7
 10
54.785538430575016
 20
17.603055070824556
 11
54.741407236347953
 21
17.735448653505763
  0
LINE
  8
_0-1_
  6
CONTINUOUS
 62
    7
 10
54.741407236347953
 20
17.735448653505763
 11
54.727365492730243
 21
17.893919760048419
  0
LINE
  8
_0-1_
  6
CONTINUOUS
 62
    7
 10
54.727365492730243
 20
17.893919760048419
 11
54.767484760209399
 21
18.066432610208778
  0
LINE
  8
_0-1_
  6
CONTINUOUS
 62
    7
 10
54.767484760209399
 20
18.066432610208778
 11
54.817633844558343
 21
18.224903716751434
  0
LINE
  8
_0-1_
  6
CONTINUOUS
 62
    7
 10
54.817633844558343
 20
18.224903716751434
 11
54.893860452768734
 21
18.339243629067023
  0
LINE
  8
_0-1_
  6
CONTINUOUS
 62
    7
 10
54.893860452768734
 20
18.339243629067023
 11
54.988140731344742
 21
18.419482164025332
  0
LINE
  8
_0-1_
  6
CONTINUOUS
 62
    7
 10
54.988140731344742
 20
18.419482164025332
 11
55.09646275353846
 21
18.505738589105511
  0
LINE
  8
_0-1_
  6
CONTINUOUS
 62
    7
 10
55.09646275353846
 20
18.505738589105511
 11
55.291041200812358
 21
18.598012904307562
  0
LINE
  8
_0-1_
  6
CONTINUOUS
 62
    7
 10
50.953869932533486
 20
22.416283506687275
 11
51.111228646616005
 21
22.445068637312125
  0
LINE
  8
_0-1_
  6
CONTINUOUS
 62
    7
 10
51.111228646616005
 20
22.445068637312125
 11
51.245559256198646
 21
22.43547359377051
  0
LINE
  8
_0-1_
  6
CONTINUOUS
 62
    7
 10
51.245559256198646
 20
22.43547359377051
 11
51.387565900614575
 21
22.362551262854218
  0
LINE
  8
_0-1_
  6
CONTINUOUS
 62
    7
 10
51.387565900614575
 20
22.362551262854218
 11
51.506544440530625
 21
22.276195870979666
  0
LINE
  8
_0-1_
  6
CONTINUOUS
 62
    7
 10
51.506544440530625
 20
22.276195870979666
 11
51.602494875946796
 21
22.17065039202188
  0
LINE
  8
_0-1_
  6
CONTINUOUS
 62
    7
 10
51.602494875946796
 20
22.17065039202188
 11
51.660065137196497
 21
22.074699956605709
  0
LINE
  8
_0-1_
  6
CONTINUOUS
 62
    7
 10
51.660065137196497
 20
22.074699956605709
 11
51.683093241696376
 21
21.694736232357676
  0
LINE
  8
_0-1_
  6
CONTINUOUS
 62
    7
 10
51.683093241696376
 20
21.694736232357676
 11
51.573709745321949
 21
21.51051139635863
  0
LINE
  8
_0-1_
  6
CONTINUOUS
 62
    7
 10
51.573709745321949
 20
21.51051139635863
 11
51.502706423113977
 21
21.404965917400843
  0
LINE
  8
_0-1_
  6
CONTINUOUS
 62
    7
 10
51.502706423113977
 20
21.404965917400843
 11
51.383727883197927
 21
21.341638630026171
  0
LINE
  8
_0-1_
  6
CONTINUOUS
 62
    7
 10
51.383727883197927
 20
21.341638630026171
 11
51.255154299740262
 21
21.28406836877647
  0
LINE
  8
_0-1_
  6
CONTINUOUS
 62
    7
 10
51.255154299740262
 20
21.28406836877647
 11
51.168798907865706
 21
21.261040264276587
  0
LINE
  8
_0-1_
  6
CONTINUOUS
 62
    7
 10
51.168798907865706
 20
21.261040264276587
 11
51.017197219908155
 21
21.261040264276587
  0
LINE
  8
_0-1_
  6
CONTINUOUS
 62
    7
 10
51.017197219908155
 20
21.261040264276587
 11
50.882866610325521
 21
21.305177464568025
  0
LINE
  8
_0-1_
  6
CONTINUOUS
 62
    7
 10
50.882866610325521
 20
21.305177464568025
 11
50.733183931076297
 21
21.385775830317609
  0
LINE
  8
_0-1_
  6
CONTINUOUS
 62
    7
 10
50.733183931076297
 20
21.385775830317609
 11
50.61228638245192
 21
21.514349413775278
  0
LINE
  8
_0-1_
  6
CONTINUOUS
 62
    7
 10
50.61228638245192
 20
21.514349413775278
 11
50.550878103785571
 21
21.644842005941267
  0
LINE
  8
_0-1_
  6
CONTINUOUS
 62
    7
 10
50.550878103785571
 20
21.644842005941267
 11
50.495226851244197
 21
21.784929641648876
  0
LINE
  8
_0-1_
  6
CONTINUOUS
 62
    7
 10
50.495226851244197
 20
21.784929641648876
 11
50.502902886077485
 21
21.928855294773132
  0
LINE
  8
_0-1_
  6
CONTINUOUS
 62
    7
 10
50.502902886077485
 20
21.928855294773132
 11
50.539364051535628
 21
22.04015779985589
  0
LINE
  8
_0-1_
  6
CONTINUOUS
 62
    7
 10
50.539364051535628
 20
22.04015779985589
 11
50.598853321493656
 21
22.166812374605232
  0
LINE
  8
_0-1_
  6
CONTINUOUS
 62
    7
 10
50.598853321493656
 20
22.166812374605232
 11
50.690965739493179
 21
22.257005783896431
  0
LINE
  8
_0-1_
  6
CONTINUOUS
 62
    7
 10
50.690965739493179
 20
22.257005783896431
 11
50.777321131367735
 21
22.337604149646015
  0
LINE
  8
_0-1_
  6
CONTINUOUS
 62
    7
 10
50.777321131367735
 20
22.337604149646015
 11
50.898218679992105
 21
22.399012428312364
  0
LINE
  8
_0-1_
  6
CONTINUOUS
 62
    7
 10
50.898218679992105
 20
22.399012428312364
 11
50.953869932533486
 21
22.416283506687275
  0
LINE
  8
_0-1_
  6
CONTINUOUS
 62
    7
 10
53.310467066317983
 20
22.137482844346813
 11
53.670478543995784
 21
22.139247606492293
  0
LINE
  8
_0-1_
  6
CONTINUOUS
 62
    7
 10
53.670478543995784
 20
22.139247606492293
 11
53.779893797015503
 21
22.075716169255034
  0
LINE
  8
_0-1_
  6
CONTINUOUS
 62
    7
 10
53.779893797015503
 20
22.075716169255034
 11
53.898132860762629
 21
21.989242824126542
  0
LINE
  8
_0-1_
  6
CONTINUOUS
 62
    7
 10
53.898132860762629
 20
21.989242824126542
 11
53.988135730182079
 21
21.89571043041613
  0
LINE
  8
_0-1_
  6
CONTINUOUS
 62
    7
 10
53.988135730182079
 20
21.89571043041613
 11
54.064020502437699
 21
21.772177080232573
  0
LINE
  8
_0-1_
  6
CONTINUOUS
 62
    7
 10
54.064020502437699
 20
21.772177080232573
 11
54.092256696765367
 21
21.65217325433997
  0
LINE
  8
_0-1_
  6
CONTINUOUS
 62
    7
 10
54.092256696765367
 20
21.65217325433997
 11
54.085197648183452
 21
21.290397014516685
  0
LINE
  8
_0-1_
  6
CONTINUOUS
 62
    7
 10
54.085197648183452
 20
21.290397014516685
 11
54.025195735237147
 21
21.166863664333124
  0
LINE
  8
_0-1_
  6
CONTINUOUS
 62
    7
 10
54.025195735237147
 20
21.166863664333124
 11
53.949310962981535
 21
21.087449367786547
  0
LINE
  8
_0-1_
  6
CONTINUOUS
 62
    7
 10
53.949310962981535
 20
21.087449367786547
 11
53.869896666434961
 21
21.025682692694768
  0
LINE
  8
_0-1_
  6
CONTINUOUS
 62
    7
 10
53.869896666434961
 20
21.025682692694768
 11
53.785188083451942
 21
20.974504590475866
  0
LINE
  8
_0-1_
  6
CONTINUOUS
 62
    7
 10
53.785188083451942
 20
20.974504590475866
 11
53.674008068286738
 21
20.92156172611148
  0
LINE
  8
_0-1_
  6
CONTINUOUS
 62
    7
 10
53.674008068286738
 20
20.92156172611148
 11
53.275171823408385
 21
20.92156172611148
  0
LINE
  8
_0-1_
  6
CONTINUOUS
 62
    7
 10
53.275171823408385
 20
20.92156172611148
 11
53.14634418678839
 21
20.999211260512577
  0
LINE
  8
_0-1_
  6
CONTINUOUS
 62
    7
 10
53.14634418678839
 20
20.999211260512577
 11
53.045752744496063
 21
21.092743654222985
  0
LINE
  8
_0-1_
  6
CONTINUOUS
 62
    7
 10
53.045752744496063
 20
21.092743654222985
 11
52.950455588640174
 21
21.196864620806273
  0
LINE
  8
_0-1_
  6
CONTINUOUS
 62
    7
 10
52.950455588640174
 20
21.196864620806273
 11
52.89398319998483
 21
21.334516068153671
  0
LINE
  8
_0-1_
  6
CONTINUOUS
 62
    7
 10
52.89398319998483
 20
21.334516068153671
 11
52.865747005657155
 21
21.419224651136683
  0
LINE
  8
_0-1_
  6
CONTINUOUS
 62
    7
 10
52.865747005657155
 20
21.419224651136683
 11
52.865747005657155
 21
21.630996108594217
  0
LINE
  8
_0-1_
  6
CONTINUOUS
 62
    7
 10
52.865747005657155
 20
21.630996108594217
 11
52.913395583585106
 21
21.763353269505174
  0
LINE
  8
_0-1_
  6
CONTINUOUS
 62
    7
 10
52.913395583585106
 20
21.763353269505174
 11
52.980456545113327
 21
21.897475192561611
  0
LINE
  8
_0-1_
  6
CONTINUOUS
 62
    7
 10
52.980456545113327
 20
21.897475192561611
 11
53.066929890241816
 21
21.975124726962707
  0
LINE
  8
_0-1_
  6
CONTINUOUS
 62
    7
 10
53.066929890241816
 20
21.975124726962707
 11
53.172815618970581
 21
22.05983330994572
  0
LINE
  8
_0-1_
  6
CONTINUOUS
 62
    7
 10
53.172815618970581
 20
22.05983330994572
 11
53.310467066317983
 21
22.137482844346813
  0
LINE
  8
_0-1_
  6
CONTINUOUS
 62
    7
 10
56.168142653679751
 20
21.974236087868174
 11
56.261362146300541
 21
21.9913580354924
  0
LINE
  8
_0-1_
  6
CONTINUOUS
 62
    7
 10
56.261362146300541
 20
21.9913580354924
 11
56.390727972794692
 21
21.970431210618347
  0
LINE
  8
_0-1_
  6
CONTINUOUS
 62
    7
 10
56.390727972794692
 20
21.970431210618347
 11
56.520093799288844
 21
21.919065367745666
  0
LINE
  8
_0-1_
  6
CONTINUOUS
 62
    7
 10
56.520093799288844
 20
21.919065367745666
 11
56.639947432658431
 21
21.823943436499966
  0
LINE
  8
_0-1_
  6
CONTINUOUS
 62
    7
 10
56.639947432658431
 20
21.823943436499966
 11
56.733166925279213
 21
21.740236137003751
  0
LINE
  8
_0-1_
  6
CONTINUOUS
 62
    7
 10
56.733166925279213
 20
21.740236137003751
 11
56.809264470275778
 21
21.624187380883995
  0
LINE
  8
_0-1_
  6
CONTINUOUS
 62
    7
 10
56.809264470275778
 20
21.624187380883995
 11
56.858727874523538
 21
21.513845940638987
  0
LINE
  8
_0-1_
  6
CONTINUOUS
 62
    7
 10
56.858727874523538
 20
21.513845940638987
 11
56.87965469939759
 21
21.426333763892941
  0
LINE
  8
_0-1_
  6
CONTINUOUS
 62
    7
 10
56.87965469939759
 20
21.426333763892941
 11
56.883459576647425
 21
21.177114304029206
  0
LINE
  8
_0-1_
  6
CONTINUOUS
 62
    7
 10
56.883459576647425
 20
21.177114304029206
 11
56.853020558648793
 21
21.070577741034021
  0
LINE
  8
_0-1_
  6
CONTINUOUS
 62
    7
 10
56.853020558648793
 20
21.070577741034021
 11
56.773118136402409
 21
20.975455809788321
  0
LINE
  8
_0-1_
  6
CONTINUOUS
 62
    7
 10
56.773118136402409
 20
20.975455809788321
 11
56.714142539030078
 21
20.897455826166847
  0
LINE
  8
_0-1_
  6
CONTINUOUS
 62
    7
 10
56.714142539030078
 20
20.897455826166847
 11
56.655166941657739
 21
20.838480228794512
  0
LINE
  8
_0-1_
  6
CONTINUOUS
 62
    7
 10
56.655166941657739
 20
20.838480228794512
 11
56.596191344285401
 21
20.789016824546749
  0
LINE
  8
_0-1_
  6
CONTINUOUS
 62
    7
 10
56.596191344285401
 20
20.789016824546749
 11
56.468727956416167
 21
20.724333911299673
  0
LINE
  8
_0-1_
  6
CONTINUOUS
 62
    7
 10
56.468727956416167
 20
20.724333911299673
 11
56.033069511310856
 21
20.726236349924587
  0
LINE
  8
_0-1_
  6
CONTINUOUS
 62
    7
 10
56.033069511310856
 20
20.726236349924587
 11
55.913215877941283
 21
20.785211947296922
  0
LINE
  8
_0-1_
  6
CONTINUOUS
 62
    7
 10
55.913215877941283
 20
20.785211947296922
 11
55.835215894319802
 21
20.857504615043652
  0
LINE
  8
_0-1_
  6
CONTINUOUS
 62
    7
 10
55.835215894319802
 20
20.857504615043652
 11
55.770532981072726
 21
20.927894844165471
  0
LINE
  8
_0-1_
  6
CONTINUOUS
 62
    7
 10
55.770532981072726
 20
20.927894844165471
 11
55.68111836570177
 21
21.026821652660999
  0
LINE
  8
_0-1_
  6
CONTINUOUS
 62
    7
 10
55.68111836570177
 20
21.026821652660999
 11
55.63355740007892
 21
21.123846022531616
  0
LINE
  8
_0-1_
  6
CONTINUOUS
 62
    7
 10
55.63355740007892
 20
21.123846022531616
 11
55.614533013829777
 21
21.361650850645865
  0
LINE
  8
_0-1_
  6
CONTINUOUS
 62
    7
 10
55.614533013829777
 20
21.361650850645865
 11
55.627850084204176
 21
21.496723993014761
  0
LINE
  8
_0-1_
  6
CONTINUOUS
 62
    7
 10
55.627850084204176
 20
21.496723993014761
 11
55.679215927076853
 21
21.639406889883311
  0
LINE
  8
_0-1_
  6
CONTINUOUS
 62
    7
 10
55.679215927076853
 20
21.639406889883311
 11
55.75531347207341
 21
21.751650768753236
  0
LINE
  8
_0-1_
  6
CONTINUOUS
 62
    7
 10
55.75531347207341
 20
21.751650768753236
 11
55.835215894319802
 21
21.835358068249451
  0
LINE
  8
_0-1_
  6
CONTINUOUS
 62
    7
 10
55.835215894319802
 20
21.835358068249451
 11
55.9436548959399
 21
21.898138542871613
  0
LINE
  8
_0-1_
  6
CONTINUOUS
 62
    7
 10
55.9436548959399
 20
21.898138542871613
 11
56.059703652059653
 21
21.955211701619035
  0
LINE
  8
_0-1_
  6
CONTINUOUS
 62
    7
 10
56.059703652059653
 20
21.955211701619035
 11
56.168142653679751
 21
21.974236087868174
  0
LINE
  8
_0-1_
  6
CONTINUOUS
 62
    7
 10
54.66792361853323
 20
24.380927511667795
 11
54.773789095041536
 21
24.405358006246636
  0
LINE
  8
_0-1_
  6
CONTINUOUS
 62
    7
 10
54.773789095041536
 20
24.405358006246636
 11
54.959053678931056
 21
24.40739388079487
  0
LINE
  8
_0-1_
  6
CONTINUOUS
 62
    7
 10
54.959053678931056
 20
24.40739388079487
 11
55.099529022759384
 21
24.362604640733668
  0
LINE
  8
_0-1_
  6
CONTINUOUS
 62
    7
 10
55.099529022759384
 20
24.362604640733668
 11
55.217609746557101
 21
24.279133784255968
  0
LINE
  8
_0-1_
  6
CONTINUOUS
 62
    7
 10
55.217609746557101
 20
24.279133784255968
 11
55.327546972161876
 21
24.165124809554718
  0
LINE
  8
_0-1_
  6
CONTINUOUS
 62
    7
 10
55.327546972161876
 20
24.165124809554718
 11
55.404910204994862
 21
24.045008211208763
  0
LINE
  8
_0-1_
  6
CONTINUOUS
 62
    7
 10
55.404910204994862
 20
24.045008211208763
 11
55.431376574121941
 21
23.933035111055751
  0
LINE
  8
_0-1_
  6
CONTINUOUS
 62
    7
 10
55.431376574121941
 20
23.933035111055751
 11
55.459878817797253
 21
23.837349007288633
  0
LINE
  8
_0-1_
  6
CONTINUOUS
 62
    7
 10
55.459878817797253
 20
23.837349007288633
 11
55.447663570507835
 21
23.719268283490912
  0
LINE
  8
_0-1_
  6
CONTINUOUS
 62
    7
 10
55.447663570507835
 20
23.719268283490912
 11
55.396766706801919
 21
23.63172567791674
  0
LINE
  8
_0-1_
  6
CONTINUOUS
 62
    7
 10
55.396766706801919
 20
23.63172567791674
 11
55.354013341288947
 21
23.542147197794331
  0
LINE
  8
_0-1_
  6
CONTINUOUS
 62
    7
 10
55.354013341288947
 20
23.542147197794331
 11
55.280721857552435
 21
23.452568717671923
  0
LINE
  8
_0-1_
  6
CONTINUOUS
 62
    7
 10
55.280721857552435
 20
23.452568717671923
 11
55.209466248364151
 21
23.379277233935408
  0
LINE
  8
_0-1_
  6
CONTINUOUS
 62
    7
 10
55.209466248364151
 20
23.379277233935408
 11
55.119887768241746
 21
23.318200997488311
  0
LINE
  8
_0-1_
  6
CONTINUOUS
 62
    7
 10
55.119887768241746
 20
23.318200997488311
 11
55.028273413571099
 21
23.283591130168289
  0
LINE
  8
_0-1_
  6
CONTINUOUS
 62
    7
 10
55.028273413571099
 20
23.283591130168289
 11
54.749358600462691
 21
23.279519381071814
  0
LINE
  8
_0-1_
  6
CONTINUOUS
 62
    7
 10
54.749358600462691
 20
23.279519381071814
 11
54.635349625761449
 21
23.316165122940073
  0
LINE
  8
_0-1_
  6
CONTINUOUS
 62
    7
 10
54.635349625761449
 20
23.316165122940073
 11
54.503017780126072
 21
23.381313108483642
  0
LINE
  8
_0-1_
  6
CONTINUOUS
 62
    7
 10
54.503017780126072
 20
23.381313108483642
 11
54.427690421841319
 21
23.448496968575447
  0
LINE
  8
_0-1_
  6
CONTINUOUS
 62
    7
 10
54.427690421841319
 20
23.448496968575447
 11
54.358470687201275
 21
23.536039574149622
  0
LINE
  8
_0-1_
  6
CONTINUOUS
 62
    7
 10
54.358470687201275
 20
23.536039574149622
 11
54.287215078012991
 21
23.648012674302634
  0
LINE
  8
_0-1_
  6
CONTINUOUS
 62
    7
 10
54.287215078012991
 20
23.648012674302634
 11
54.274999830723572
 21
23.853636003674527
  0
LINE
  8
_0-1_
  6
CONTINUOUS
 62
    7
 10
54.274999830723572
 20
23.853636003674527
 11
54.291286827109466
 21
24.010398343888741
  0
LINE
  8
_0-1_
  6
CONTINUOUS
 62
    7
 10
54.291286827109466
 20
24.010398343888741
 11
54.340147816267148
 21
24.102012698559388
  0
LINE
  8
_0-1_
  6
CONTINUOUS
 62
    7
 10
54.340147816267148
 20
24.102012698559388
 11
54.403259927262475
 21
24.205842300519449
  0
LINE
  8
_0-1_
  6
CONTINUOUS
 62
    7
 10
54.403259927262475
 20
24.205842300519449
 11
54.519304776511958
 21
24.309671902479514
  0
LINE
  8
_0-1_
  6
CONTINUOUS
 62
    7
 10
54.519304776511958
 20
24.309671902479514
 11
54.66792361853323
 21
24.380927511667795
  0
LINE
  8
_0-1_
  6
CONTINUOUS
 62
    7
 10
57.326544757304851
 20
24.672919088718423
 11
57.429195188427286
 21
24.704376478901107
  0
LINE
  8
_0-1_
  6
CONTINUOUS
 62
    7
 10
57.429195188427286
 20
24.704376478901107
 11
57.556680401272885
 21
24.694442566211836
  0
LINE
  8
_0-1_
  6
CONTINUOUS
 62
    7
 10
57.556680401272885
 20
24.694442566211836
 11
57.712311700071417
 21
24.633183437961353
  0
LINE
  8
_0-1_
  6
CONTINUOUS
 62
    7
 10
57.712311700071417
 20
24.633183437961353
 11
57.805028218504581
 21
24.56364604913648
  0
LINE
  8
_0-1_
  6
CONTINUOUS
 62
    7
 10
57.805028218504581
 20
24.56364604913648
 11
57.889466476363352
 21
24.490797356081849
  0
LINE
  8
_0-1_
  6
CONTINUOUS
 62
    7
 10
57.889466476363352
 20
24.490797356081849
 11
57.968937777877499
 21
24.383179968614779
  0
LINE
  8
_0-1_
  6
CONTINUOUS
 62
    7
 10
57.968937777877499
 20
24.383179968614779
 11
58.023574297668474
 21
24.272251276917955
  0
LINE
  8
_0-1_
  6
CONTINUOUS
 62
    7
 10
58.023574297668474
 20
24.272251276917955
 11
58.0517203836214
 21
24.197746931748447
  0
LINE
  8
_0-1_
  6
CONTINUOUS
 62
    7
 10
58.0517203836214
 20
24.197746931748447
 11
58.064965600540418
 21
24.088473892166504
  0
LINE
  8
_0-1_
  6
CONTINUOUS
 62
    7
 10
58.064965600540418
 20
24.088473892166504
 11
58.030196906127983
 21
24.005691286422607
  0
LINE
  8
_0-1_
  6
CONTINUOUS
 62
    7
 10
58.030196906127983
 20
24.005691286422607
 11
57.992116907485794
 21
23.881517377806758
  0
LINE
  8
_0-1_
  6
CONTINUOUS
 62
    7
 10
57.992116907485794
 20
23.881517377806758
 11
57.929202127120433
 21
23.749065208616521
  0
LINE
  8
_0-1_
  6
CONTINUOUS
 62
    7
 10
57.929202127120433
 20
23.749065208616521
 11
57.856353434065795
 21
23.677872167676767
  0
LINE
  8
_0-1_
  6
CONTINUOUS
 62
    7
 10
57.856353434065795
 20
23.677872167676767
 11
57.790127349470679
 21
23.603367822507259
  0
LINE
  8
_0-1_
  6
CONTINUOUS
 62
    7
 10
57.790127349470679
 20
23.603367822507259
 11
57.710656047956533
 21
23.558665215405554
  0
LINE
  8
_0-1_
  6
CONTINUOUS
 62
    7
 10
57.710656047956533
 20
23.558665215405554
 11
57.636151702787032
 21
23.535486085797263
  0
LINE
  8
_0-1_
  6
CONTINUOUS
 62
    7
 10
57.636151702787032
 20
23.535486085797263
 11
57.478864751873622
 21
23.518929564648484
  0
LINE
  8
_0-1_
  6
CONTINUOUS
 62
    7
 10
57.478864751873622
 20
23.518929564648484
 11
57.376214320751188
 21
23.518929564648484
  0
LINE
  8
_0-1_
  6
CONTINUOUS
 62
    7
 10
57.376214320751188
 20
23.518929564648484
 11
57.248729107905589
 21
23.550386954831164
  0
LINE
  8
_0-1_
  6
CONTINUOUS
 62
    7
 10
57.248729107905589
 20
23.550386954831164
 11
57.117932590830228
 21
23.601712170392382
  0
LINE
  8
_0-1_
  6
CONTINUOUS
 62
    7
 10
57.117932590830228
 20
23.601712170392382
 11
56.972235204720966
 21
23.75734346919091
  0
LINE
  8
_0-1_
  6
CONTINUOUS
 62
    7
 10
56.972235204720966
 20
23.75734346919091
 11
56.894419555321704
 21
23.903040855300172
  0
LINE
  8
_0-1_
  6
CONTINUOUS
 62
    7
 10
56.894419555321704
 20
23.903040855300172
 11
56.8646178172539
 21
24.005691286422607
  0
LINE
  8
_0-1_
  6
CONTINUOUS
 62
    7
 10
56.8646178172539
 20
24.005691286422607
 11
56.839783035530729
 21
24.158011280991377
  0
LINE
  8
_0-1_
  6
CONTINUOUS
 62
    7
 10
56.839783035530729
 20
24.158011280991377
 11
56.861306513024146
 21
24.298741710756004
  0
LINE
  8
_0-1_
  6
CONTINUOUS
 62
    7
 10
56.861306513024146
 20
24.298741710756004
 11
56.927532597619261
 21
24.419604315142095
  0
LINE
  8
_0-1_
  6
CONTINUOUS
 62
    7
 10
56.927532597619261
 20
24.419604315142095
 11
57.01197085547804
 21
24.492453008196726
  0
LINE
  8
_0-1_
  6
CONTINUOUS
 62
    7
 10
57.01197085547804
 20
24.492453008196726
 11
57.10137606968145
 21
24.581858222400136
  0
LINE
  8
_0-1_
  6
CONTINUOUS
 62
    7
 10
57.10137606968145
 20
24.581858222400136
 11
57.218927369837786
 21
24.638150394305988
  0
LINE
  8
_0-1_
  6
CONTINUOUS
 62
    7
 10
57.218927369837786
 20
24.638150394305988
 11
57.326544757304851
 21
24.672919088718423
  0
ENDSEC
  0
EOF
