G04 DesignSpark PCB Gerber Version 12.0 Build 5942*
%FSLAX35Y35*%
%MOMM*%
%ADD74O,1.45240X2.15240*%
%ADD75R,1.55240X1.57240*%
%ADD78C,1.50240*%
%ADD76C,1.55240*%
%ADD77C,1.67640*%
%ADD85C,2.15240*%
%ADD84C,3.75240*%
%ADD83C,5.40240*%
X0Y0D02*
D02*
D74*
X3485240Y7930240D03*
X5245240D03*
D02*
D75*
X3845240Y1650240D03*
X5485240D03*
D02*
D76*
X3245240D03*
X3445240D03*
X3645240D03*
X4885240D03*
X5085240D03*
X5285240D03*
D02*
D77*
X772240Y4350240D03*
Y4615240D03*
Y4880240D03*
Y5145240D03*
Y5505240D03*
Y5770240D03*
Y6035240D03*
X915240Y1835240D03*
Y7285240D03*
X926240Y3730240D03*
X1026240Y4350240D03*
Y4615240D03*
Y4880240D03*
Y5145240D03*
Y5505240D03*
Y5770240D03*
Y6035240D03*
X1169240Y1835240D03*
Y7285240D03*
X1180240Y3730240D03*
X1280240Y4350240D03*
Y4615240D03*
Y4880240D03*
Y5145240D03*
Y5505240D03*
Y5770240D03*
Y6035240D03*
X1825240Y1835240D03*
Y7285240D03*
X2079240Y1835240D03*
Y7285240D03*
X6645240Y1835240D03*
Y7285240D03*
X6899240Y1835240D03*
Y7285240D03*
X7450240Y4350240D03*
Y4615240D03*
Y4880240D03*
Y5145240D03*
Y5505240D03*
Y5770240D03*
X7560240Y1835240D03*
Y7285240D03*
X7630240Y2940240D03*
Y3140240D03*
Y3340240D03*
X7704240Y4350240D03*
Y4615240D03*
Y4880240D03*
Y5145240D03*
Y5505240D03*
Y5770240D03*
X7715240Y6360240D03*
Y6614240D03*
X7814240Y1835240D03*
Y7285240D03*
X7958240Y4350240D03*
Y4615240D03*
Y4880240D03*
Y5145240D03*
Y5505240D03*
Y5770240D03*
D02*
D78*
X1892390Y2371740D03*
Y2751740D03*
X2019390Y2181740D03*
Y2561740D03*
X2146390Y2371740D03*
Y2751740D03*
X2273390Y2181740D03*
Y2561740D03*
X2400390Y2371740D03*
Y2751740D03*
X2527390Y2181740D03*
Y2561740D03*
X2654390Y2371740D03*
Y2751740D03*
X2781390Y2181740D03*
Y2561740D03*
X2908390Y2371740D03*
Y2751740D03*
X3035390Y2181740D03*
Y2561740D03*
X3162390Y2371740D03*
Y2751740D03*
X3289390Y2181740D03*
Y2561740D03*
X3416390Y2371740D03*
Y2751740D03*
X3543390Y2181740D03*
Y2561740D03*
X3670390Y2371740D03*
Y2751740D03*
X3797390Y2181740D03*
Y2561740D03*
X3924390Y2371740D03*
Y2751740D03*
X4051390Y2181740D03*
Y2561740D03*
X4178390Y2371740D03*
Y2751740D03*
X4305390Y2181740D03*
Y2561740D03*
X4432390Y2371740D03*
Y2751740D03*
X4559390Y2181740D03*
Y2561740D03*
X4686390Y2371740D03*
Y2751740D03*
X4813390Y2181740D03*
Y2561740D03*
X4940390Y2371740D03*
Y2751740D03*
X5067390Y2181740D03*
Y2561740D03*
X5194390Y2371740D03*
Y2751740D03*
X5321390Y2181740D03*
Y2561740D03*
X5448390Y2371740D03*
Y2751740D03*
X5575390Y2181740D03*
Y2561740D03*
X5702390Y2371740D03*
Y2751740D03*
X5829390Y2181740D03*
Y2561740D03*
X5956390Y2371740D03*
Y2751740D03*
X6083390Y2181740D03*
Y2561740D03*
X6210390Y2371740D03*
Y2751740D03*
X6337390Y2181740D03*
Y2561740D03*
X6464390Y2371740D03*
Y2751740D03*
X6591390Y2181740D03*
Y2561740D03*
X6718390Y2371740D03*
Y2751740D03*
X6845390Y2181740D03*
Y2561740D03*
D02*
D83*
X1165240Y8245240D03*
X2565240Y1620240D03*
X6165240D03*
X7565240Y8245240D03*
D02*
D84*
X3485240Y3160240D03*
Y3920240D03*
Y7170240D03*
Y7930240D03*
X5245240Y3160240D03*
Y3920240D03*
Y7170240D03*
Y7930240D03*
D02*
D85*
X7630240Y2720240D03*
Y3560240D03*
X0Y0D02*
M02*
