  0
SECTION
  2
HEADER
  9
$EXTMIN
 10
368.748
 20
477.498
  9
$EXTMAX
 10
457.602
 20
569.752
  9
$LIMMIN
 10
368.748
 20
477.498
  9
$LIMMAX
 10
457.602
 20
569.752
  0
ENDSEC
  0
SECTION
  2
TABLES
  0
TABLE
  2
LAYER
 70
    18
  0
LAYER
  2
0
 70
    64
 62
     7
  6
CONTINUOUS
  0
LAYER
  2
_BOARD
 70
    64
 62
    254
  6
CONTINUOUS
  0
LAYER
  2
_DRILL
 70
    64
 62
    251
  6
CONTINUOUS
  0
ENDTAB
  0
ENDSEC
  0
SECTION
  2
BLOCKS
  0
BLOCK
  8
0
  2
_HOLE
 70
    64
 10
0.000
 20
0.000
  0
CIRCLE
  8
0
 10
0.000
 20
0.000
 40
0.500
  0
ENDBLK
  8
0
  0
ENDSEC
  0
SECTION
  2
ENTITIES
  0
POLYLINE
  8
_BOARD
 66
     1
 62
     3
 10
0.000
 20
0.000
 70
     1
 40
0.000
 41
0.000
  0
VERTEX
  8
_BOARD
 10
374.500
 20
490.000
 40
0.000
 41
0.000
  0
VERTEX
  8
_BOARD
 10
450.500
 20
490.000
  0
VERTEX
  8
_BOARD
 10
450.500
 20
490.000
 40
0.000
 41
0.000
  0
VERTEX
  8
_BOARD
 10
450.500
 20
565.000
  0
VERTEX
  8
_BOARD
 10
450.500
 20
565.000
 40
0.000
 41
0.000
  0
VERTEX
  8
_BOARD
 10
374.500
 20
565.000
  0
VERTEX
  8
_BOARD
 10
374.500
 20
565.000
 40
0.000
 41
0.000
  0
VERTEX
  8
_BOARD
 10
374.500
 20
490.000
 40
0.000
 41
0.000
  0
VERTEX
  8
_BOARD
 10
374.500
 20
490.000
  0
SEQEND
  8
_BOARD
  0
INSERT
  8
_DRILL
  2
_HOLE
 10
445.050
 20
510.900
 41
0.813
 42
0.813
  0
INSERT
  8
_DRILL
  2
_HOLE
 10
445.050
 20
513.100
 41
1.200
 42
1.200
  0
INSERT
  8
_DRILL
  2
_HOLE
 10
445.050
 20
506.900
 41
0.813
 42
0.813
  0
INSERT
  8
_DRILL
  2
_HOLE
 10
445.050
 20
508.900
 41
0.813
 42
0.813
  0
INSERT
  8
_DRILL
  2
_HOLE
 10
445.050
 20
504.700
 41
1.200
 42
1.200
  0
INSERT
  8
_DRILL
  2
_HOLE
 10
389.540
 20
550.350
 41
0.900
 42
0.900
  0
INSERT
  8
_DRILL
  2
_HOLE
 10
387.000
 20
550.350
 41
0.900
 42
0.900
  0
INSERT
  8
_DRILL
  2
_HOLE
 10
446.890
 20
495.850
 41
0.900
 42
0.900
  0
INSERT
  8
_DRILL
  2
_HOLE
 10
444.350
 20
495.850
 41
0.900
 42
0.900
  0
INSERT
  8
_DRILL
  2
_HOLE
 10
437.740
 20
550.350
 41
0.900
 42
0.900
  0
INSERT
  8
_DRILL
  2
_HOLE
 10
435.200
 20
550.350
 41
0.900
 42
0.900
  0
INSERT
  8
_DRILL
  2
_HOLE
 10
389.540
 20
495.850
 41
0.900
 42
0.900
  0
INSERT
  8
_DRILL
  2
_HOLE
 10
387.000
 20
495.850
 41
0.900
 42
0.900
  0
INSERT
  8
_DRILL
  2
_HOLE
 10
448.330
 20
535.200
 41
0.900
 42
0.900
  0
INSERT
  8
_DRILL
  2
_HOLE
 10
445.790
 20
535.200
 41
0.900
 42
0.900
  0
INSERT
  8
_DRILL
  2
_HOLE
 10
443.250
 20
535.200
 41
0.900
 42
0.900
  0
INSERT
  8
_DRILL
  2
_HOLE
 10
448.330
 20
528.950
 41
0.900
 42
0.900
  0
INSERT
  8
_DRILL
  2
_HOLE
 10
445.790
 20
528.950
 41
0.900
 42
0.900
  0
INSERT
  8
_DRILL
  2
_HOLE
 10
443.250
 20
528.950
 41
0.900
 42
0.900
  0
INSERT
  8
_DRILL
  2
_HOLE
 10
376.470
 20
532.550
 41
0.900
 42
0.900
  0
INSERT
  8
_DRILL
  2
_HOLE
 10
379.010
 20
532.550
 41
0.900
 42
0.900
  0
INSERT
  8
_DRILL
  2
_HOLE
 10
381.550
 20
532.550
 41
0.900
 42
0.900
  0
INSERT
  8
_DRILL
  2
_HOLE
 10
376.470
 20
535.200
 41
0.900
 42
0.900
  0
INSERT
  8
_DRILL
  2
_HOLE
 10
379.010
 20
535.200
 41
0.900
 42
0.900
  0
INSERT
  8
_DRILL
  2
_HOLE
 10
381.550
 20
535.200
 41
0.900
 42
0.900
  0
INSERT
  8
_DRILL
  2
_HOLE
 10
448.330
 20
532.550
 41
0.900
 42
0.900
  0
INSERT
  8
_DRILL
  2
_HOLE
 10
445.790
 20
532.550
 41
0.900
 42
0.900
  0
INSERT
  8
_DRILL
  2
_HOLE
 10
443.250
 20
532.550
 41
0.900
 42
0.900
  0
INSERT
  8
_DRILL
  2
_HOLE
 10
376.470
 20
526.300
 41
0.900
 42
0.900
  0
INSERT
  8
_DRILL
  2
_HOLE
 10
379.010
 20
526.300
 41
0.900
 42
0.900
  0
INSERT
  8
_DRILL
  2
_HOLE
 10
381.550
 20
526.300
 41
0.900
 42
0.900
  0
INSERT
  8
_DRILL
  2
_HOLE
 10
376.470
 20
528.950
 41
0.900
 42
0.900
  0
INSERT
  8
_DRILL
  2
_HOLE
 10
379.010
 20
528.950
 41
0.900
 42
0.900
  0
INSERT
  8
_DRILL
  2
_HOLE
 10
381.550
 20
528.950
 41
0.900
 42
0.900
  0
INSERT
  8
_DRILL
  2
_HOLE
 10
376.470
 20
521.000
 41
0.900
 42
0.900
  0
INSERT
  8
_DRILL
  2
_HOLE
 10
379.010
 20
521.000
 41
0.900
 42
0.900
  0
INSERT
  8
_DRILL
  2
_HOLE
 10
381.550
 20
521.000
 41
0.900
 42
0.900
  0
INSERT
  8
_DRILL
  2
_HOLE
 10
376.470
 20
537.850
 41
0.900
 42
0.900
  0
INSERT
  8
_DRILL
  2
_HOLE
 10
379.010
 20
537.850
 41
0.900
 42
0.900
  0
INSERT
  8
_DRILL
  2
_HOLE
 10
381.550
 20
537.850
 41
0.900
 42
0.900
  0
INSERT
  8
_DRILL
  2
_HOLE
 10
376.470
 20
523.650
 41
0.900
 42
0.900
  0
INSERT
  8
_DRILL
  2
_HOLE
 10
379.010
 20
523.650
 41
0.900
 42
0.900
  0
INSERT
  8
_DRILL
  2
_HOLE
 10
381.550
 20
523.650
 41
0.900
 42
0.900
  0
INSERT
  8
_DRILL
  2
_HOLE
 10
403.600
 20
556.800
 41
2.000
 42
2.000
  0
INSERT
  8
_DRILL
  2
_HOLE
 10
403.600
 20
549.200
 41
2.000
 42
2.000
  0
INSERT
  8
_DRILL
  2
_HOLE
 10
403.600
 20
509.100
 41
2.000
 42
2.000
  0
INSERT
  8
_DRILL
  2
_HOLE
 10
403.600
 20
516.700
 41
2.000
 42
2.000
  0
INSERT
  8
_DRILL
  2
_HOLE
 10
421.200
 20
509.100
 41
2.000
 42
2.000
  0
INSERT
  8
_DRILL
  2
_HOLE
 10
421.200
 20
516.700
 41
2.000
 42
2.000
  0
INSERT
  8
_DRILL
  2
_HOLE
 10
421.200
 20
556.800
 41
2.000
 42
2.000
  0
INSERT
  8
_DRILL
  2
_HOLE
 10
421.200
 20
549.200
 41
2.000
 42
2.000
  0
INSERT
  8
_DRILL
  2
_HOLE
 10
448.330
 20
523.650
 41
0.900
 42
0.900
  0
INSERT
  8
_DRILL
  2
_HOLE
 10
445.790
 20
523.650
 41
0.900
 42
0.900
  0
INSERT
  8
_DRILL
  2
_HOLE
 10
443.250
 20
523.650
 41
0.900
 42
0.900
  0
INSERT
  8
_DRILL
  2
_HOLE
 10
448.330
 20
521.000
 41
0.900
 42
0.900
  0
INSERT
  8
_DRILL
  2
_HOLE
 10
445.790
 20
521.000
 41
0.900
 42
0.900
  0
INSERT
  8
_DRILL
  2
_HOLE
 10
443.250
 20
521.000
 41
0.900
 42
0.900
  0
INSERT
  8
_DRILL
  2
_HOLE
 10
448.330
 20
526.300
 41
0.900
 42
0.900
  0
INSERT
  8
_DRILL
  2
_HOLE
 10
445.790
 20
526.300
 41
0.900
 42
0.900
  0
INSERT
  8
_DRILL
  2
_HOLE
 10
443.250
 20
526.300
 41
0.900
 42
0.900
  0
INSERT
  8
_DRILL
  2
_HOLE
 10
437.740
 20
495.850
 41
0.900
 42
0.900
  0
INSERT
  8
_DRILL
  2
_HOLE
 10
435.200
 20
495.850
 41
0.900
 42
0.900
  0
INSERT
  8
_DRILL
  2
_HOLE
 10
380.440
 20
550.350
 41
0.900
 42
0.900
  0
INSERT
  8
_DRILL
  2
_HOLE
 10
377.900
 20
550.350
 41
0.900
 42
0.900
  0
INSERT
  8
_DRILL
  2
_HOLE
 10
380.440
 20
495.850
 41
0.900
 42
0.900
  0
INSERT
  8
_DRILL
  2
_HOLE
 10
377.900
 20
495.850
 41
0.900
 42
0.900
  0
INSERT
  8
_DRILL
  2
_HOLE
 10
394.400
 20
493.700
 41
3.150
 42
3.150
  0
INSERT
  8
_DRILL
  2
_HOLE
 10
430.400
 20
493.700
 41
3.150
 42
3.150
  0
INSERT
  8
_DRILL
  2
_HOLE
 10
380.400
 20
559.950
 41
3.150
 42
3.150
  0
INSERT
  8
_DRILL
  2
_HOLE
 10
444.400
 20
559.950
 41
3.150
 42
3.150
  0
INSERT
  8
_DRILL
  2
_HOLE
 10
378.010
 20
514.800
 41
0.813
 42
0.813
  0
INSERT
  8
_DRILL
  2
_HOLE
 10
380.550
 20
514.800
 41
0.813
 42
0.813
  0
INSERT
  8
_DRILL
  2
_HOLE
 10
445.900
 20
544.090
 41
0.813
 42
0.813
  0
INSERT
  8
_DRILL
  2
_HOLE
 10
445.900
 20
541.550
 41
0.813
 42
0.813
  0
INSERT
  8
_DRILL
  2
_HOLE
 10
437.202
 20
499.315
 41
0.813
 42
0.813
  0
INSERT
  8
_DRILL
  2
_HOLE
 10
434.661
 20
499.315
 41
0.813
 42
0.813
  0
INSERT
  8
_DRILL
  2
_HOLE
 10
432.122
 20
499.315
 41
0.813
 42
0.813
  0
INSERT
  8
_DRILL
  2
_HOLE
 10
435.932
 20
501.215
 41
0.813
 42
0.813
  0
INSERT
  8
_DRILL
  2
_HOLE
 10
433.392
 20
501.215
 41
0.813
 42
0.813
  0
INSERT
  8
_DRILL
  2
_HOLE
 10
429.582
 20
499.315
 41
0.813
 42
0.813
  0
INSERT
  8
_DRILL
  2
_HOLE
 10
427.041
 20
499.315
 41
0.813
 42
0.813
  0
INSERT
  8
_DRILL
  2
_HOLE
 10
430.851
 20
501.215
 41
0.813
 42
0.813
  0
INSERT
  8
_DRILL
  2
_HOLE
 10
428.312
 20
501.215
 41
0.813
 42
0.813
  0
INSERT
  8
_DRILL
  2
_HOLE
 10
424.502
 20
499.315
 41
0.813
 42
0.813
  0
INSERT
  8
_DRILL
  2
_HOLE
 10
421.962
 20
499.315
 41
0.813
 42
0.813
  0
INSERT
  8
_DRILL
  2
_HOLE
 10
423.231
 20
501.215
 41
0.813
 42
0.813
  0
INSERT
  8
_DRILL
  2
_HOLE
 10
425.772
 20
501.215
 41
0.813
 42
0.813
  0
INSERT
  8
_DRILL
  2
_HOLE
 10
419.421
 20
499.315
 41
0.813
 42
0.813
  0
INSERT
  8
_DRILL
  2
_HOLE
 10
416.882
 20
499.315
 41
0.813
 42
0.813
  0
INSERT
  8
_DRILL
  2
_HOLE
 10
420.692
 20
501.215
 41
0.813
 42
0.813
  0
INSERT
  8
_DRILL
  2
_HOLE
 10
418.151
 20
501.215
 41
0.813
 42
0.813
  0
INSERT
  8
_DRILL
  2
_HOLE
 10
414.341
 20
499.315
 41
0.813
 42
0.813
  0
INSERT
  8
_DRILL
  2
_HOLE
 10
411.801
 20
499.315
 41
0.813
 42
0.813
  0
INSERT
  8
_DRILL
  2
_HOLE
 10
415.611
 20
501.215
 41
0.813
 42
0.813
  0
INSERT
  8
_DRILL
  2
_HOLE
 10
413.072
 20
501.215
 41
0.813
 42
0.813
  0
INSERT
  8
_DRILL
  2
_HOLE
 10
409.262
 20
499.315
 41
0.813
 42
0.813
  0
INSERT
  8
_DRILL
  2
_HOLE
 10
406.721
 20
499.315
 41
0.813
 42
0.813
  0
INSERT
  8
_DRILL
  2
_HOLE
 10
410.531
 20
501.215
 41
0.813
 42
0.813
  0
INSERT
  8
_DRILL
  2
_HOLE
 10
407.991
 20
501.215
 41
0.813
 42
0.813
  0
INSERT
  8
_DRILL
  2
_HOLE
 10
404.182
 20
499.315
 41
0.813
 42
0.813
  0
INSERT
  8
_DRILL
  2
_HOLE
 10
401.642
 20
499.315
 41
0.813
 42
0.813
  0
INSERT
  8
_DRILL
  2
_HOLE
 10
405.452
 20
501.215
 41
0.813
 42
0.813
  0
INSERT
  8
_DRILL
  2
_HOLE
 10
402.911
 20
501.215
 41
0.813
 42
0.813
  0
INSERT
  8
_DRILL
  2
_HOLE
 10
399.101
 20
499.315
 41
0.813
 42
0.813
  0
INSERT
  8
_DRILL
  2
_HOLE
 10
396.562
 20
499.315
 41
0.813
 42
0.813
  0
INSERT
  8
_DRILL
  2
_HOLE
 10
400.372
 20
501.215
 41
0.813
 42
0.813
  0
INSERT
  8
_DRILL
  2
_HOLE
 10
397.832
 20
501.215
 41
0.813
 42
0.813
  0
INSERT
  8
_DRILL
  2
_HOLE
 10
394.022
 20
499.315
 41
0.813
 42
0.813
  0
INSERT
  8
_DRILL
  2
_HOLE
 10
391.481
 20
499.315
 41
0.813
 42
0.813
  0
INSERT
  8
_DRILL
  2
_HOLE
 10
395.291
 20
501.215
 41
0.813
 42
0.813
  0
INSERT
  8
_DRILL
  2
_HOLE
 10
392.752
 20
501.215
 41
0.813
 42
0.813
  0
INSERT
  8
_DRILL
  2
_HOLE
 10
388.942
 20
499.315
 41
0.813
 42
0.813
  0
INSERT
  8
_DRILL
  2
_HOLE
 10
390.212
 20
501.215
 41
0.813
 42
0.813
  0
INSERT
  8
_DRILL
  2
_HOLE
 10
387.671
 20
501.215
 41
0.813
 42
0.813
  0
INSERT
  8
_DRILL
  2
_HOLE
 10
437.202
 20
503.115
 41
0.813
 42
0.813
  0
INSERT
  8
_DRILL
  2
_HOLE
 10
434.661
 20
503.115
 41
0.813
 42
0.813
  0
INSERT
  8
_DRILL
  2
_HOLE
 10
432.122
 20
503.115
 41
0.813
 42
0.813
  0
INSERT
  8
_DRILL
  2
_HOLE
 10
429.582
 20
503.115
 41
0.813
 42
0.813
  0
INSERT
  8
_DRILL
  2
_HOLE
 10
424.502
 20
503.115
 41
0.813
 42
0.813
  0
INSERT
  8
_DRILL
  2
_HOLE
 10
427.041
 20
503.115
 41
0.813
 42
0.813
  0
INSERT
  8
_DRILL
  2
_HOLE
 10
435.932
 20
505.015
 41
0.813
 42
0.813
  0
INSERT
  8
_DRILL
  2
_HOLE
 10
433.392
 20
505.015
 41
0.813
 42
0.813
  0
INSERT
  8
_DRILL
  2
_HOLE
 10
430.851
 20
505.015
 41
0.813
 42
0.813
  0
INSERT
  8
_DRILL
  2
_HOLE
 10
428.312
 20
505.015
 41
0.813
 42
0.813
  0
INSERT
  8
_DRILL
  2
_HOLE
 10
425.772
 20
505.015
 41
0.813
 42
0.813
  0
INSERT
  8
_DRILL
  2
_HOLE
 10
423.231
 20
505.015
 41
0.813
 42
0.813
  0
INSERT
  8
_DRILL
  2
_HOLE
 10
421.962
 20
503.115
 41
0.813
 42
0.813
  0
INSERT
  8
_DRILL
  2
_HOLE
 10
420.692
 20
505.015
 41
0.813
 42
0.813
  0
INSERT
  8
_DRILL
  2
_HOLE
 10
419.421
 20
503.115
 41
0.813
 42
0.813
  0
INSERT
  8
_DRILL
  2
_HOLE
 10
418.151
 20
505.015
 41
0.813
 42
0.813
  0
INSERT
  8
_DRILL
  2
_HOLE
 10
416.882
 20
503.115
 41
0.813
 42
0.813
  0
INSERT
  8
_DRILL
  2
_HOLE
 10
415.611
 20
505.015
 41
0.813
 42
0.813
  0
INSERT
  8
_DRILL
  2
_HOLE
 10
414.341
 20
503.115
 41
0.813
 42
0.813
  0
INSERT
  8
_DRILL
  2
_HOLE
 10
413.072
 20
505.015
 41
0.813
 42
0.813
  0
INSERT
  8
_DRILL
  2
_HOLE
 10
411.801
 20
503.115
 41
0.813
 42
0.813
  0
INSERT
  8
_DRILL
  2
_HOLE
 10
410.531
 20
505.015
 41
0.813
 42
0.813
  0
INSERT
  8
_DRILL
  2
_HOLE
 10
409.262
 20
503.115
 41
0.813
 42
0.813
  0
INSERT
  8
_DRILL
  2
_HOLE
 10
407.991
 20
505.015
 41
0.813
 42
0.813
  0
INSERT
  8
_DRILL
  2
_HOLE
 10
406.721
 20
503.115
 41
0.813
 42
0.813
  0
INSERT
  8
_DRILL
  2
_HOLE
 10
405.452
 20
505.015
 41
0.813
 42
0.813
  0
INSERT
  8
_DRILL
  2
_HOLE
 10
404.182
 20
503.115
 41
0.813
 42
0.813
  0
INSERT
  8
_DRILL
  2
_HOLE
 10
402.911
 20
505.015
 41
0.813
 42
0.813
  0
INSERT
  8
_DRILL
  2
_HOLE
 10
401.642
 20
503.115
 41
0.813
 42
0.813
  0
INSERT
  8
_DRILL
  2
_HOLE
 10
400.372
 20
505.015
 41
0.813
 42
0.813
  0
INSERT
  8
_DRILL
  2
_HOLE
 10
399.101
 20
503.115
 41
0.813
 42
0.813
  0
INSERT
  8
_DRILL
  2
_HOLE
 10
397.832
 20
505.015
 41
0.813
 42
0.813
  0
INSERT
  8
_DRILL
  2
_HOLE
 10
396.562
 20
503.115
 41
0.813
 42
0.813
  0
INSERT
  8
_DRILL
  2
_HOLE
 10
395.291
 20
505.015
 41
0.813
 42
0.813
  0
INSERT
  8
_DRILL
  2
_HOLE
 10
394.022
 20
503.115
 41
0.813
 42
0.813
  0
INSERT
  8
_DRILL
  2
_HOLE
 10
392.752
 20
505.015
 41
0.813
 42
0.813
  0
INSERT
  8
_DRILL
  2
_HOLE
 10
391.481
 20
503.115
 41
0.813
 42
0.813
  0
INSERT
  8
_DRILL
  2
_HOLE
 10
390.212
 20
505.015
 41
0.813
 42
0.813
  0
INSERT
  8
_DRILL
  2
_HOLE
 10
388.942
 20
503.115
 41
0.813
 42
0.813
  0
INSERT
  8
_DRILL
  2
_HOLE
 10
387.671
 20
505.015
 41
0.813
 42
0.813
  0
INSERT
  8
_DRILL
  2
_HOLE
 10
417.600
 20
494.000
 41
0.900
 42
0.900
  0
INSERT
  8
_DRILL
  2
_HOLE
 10
419.600
 20
494.000
 41
0.900
 42
0.900
  0
INSERT
  8
_DRILL
  2
_HOLE
 10
421.600
 20
494.000
 41
0.900
 42
0.900
  0
INSERT
  8
_DRILL
  2
_HOLE
 10
423.600
 20
494.000
 41
0.900
 42
0.900
  0
INSERT
  8
_DRILL
  2
_HOLE
 10
446.890
 20
550.350
 41
0.900
 42
0.900
  0
INSERT
  8
_DRILL
  2
_HOLE
 10
444.350
 20
550.350
 41
0.900
 42
0.900
  0
INSERT
  8
_DRILL
  2
_HOLE
 10
401.200
 20
494.000
 41
0.900
 42
0.900
  0
INSERT
  8
_DRILL
  2
_HOLE
 10
403.200
 20
494.000
 41
0.900
 42
0.900
  0
INSERT
  8
_DRILL
  2
_HOLE
 10
405.200
 20
494.000
 41
0.900
 42
0.900
  0
INSERT
  8
_DRILL
  2
_HOLE
 10
407.200
 20
494.000
 41
0.900
 42
0.900
  0
INSERT
  8
_DRILL
  2
_HOLE
 10
403.600
 20
556.800
 41
0.600
 42
0.600
  0
INSERT
  8
_DRILL
  2
_HOLE
 10
421.200
 20
556.800
 41
0.600
 42
0.600
  0
ENDSEC
  0
EOF
