G04 DesignSpark PCB Gerber Version 12.0 Build 5942*
%FSLAX35Y35*%
%MOMM*%
%ADD22O,1.30000X2.00000*%
%ADD23R,1.40000X1.42000*%
%ADD15C,0.25400*%
%ADD11C,0.30480*%
%ADD16C,0.80000*%
%ADD21C,1.01600*%
%ADD26C,1.35000*%
%ADD24C,1.40000*%
%ADD25C,1.52400*%
%ADD75C,2.00000*%
%ADD19C,2.20000*%
%ADD74C,3.60000*%
%ADD73C,5.25000*%
X0Y0D02*
D02*
D11*
X631120Y2925240D02*
Y1306120D01*
X6365240D01*
Y1392440D01*
G75*
G02*
X5862100Y1620240I-200000J227800D01*
G01*
G75*
G02*
X6365240Y1848040I303140J0D01*
G01*
Y2077250D01*
G75*
G02*
X6229250Y2181740I-27850J104490D01*
G01*
G75*
G02*
X6365240Y2286230I108130J0D01*
G01*
Y2328570D01*
G75*
G02*
Y2414910I99150J43170D01*
G01*
Y2457250D01*
G75*
G02*
X6248600Y2500010I-27850J104490D01*
G01*
X6227160Y2478570D01*
G75*
G02*
X6210390Y2263600I-16770J-106830D01*
G01*
G75*
G02*
X6136740Y2292560I0J108140D01*
G01*
Y2275800D01*
G75*
G02*
X6083390Y2073600I-53350J-94060D01*
G01*
G75*
G02*
X6030040Y2275800I0J108140D01*
G01*
Y2292560D01*
G75*
G02*
X5873150Y2302710I-73650J79180D01*
G01*
X5856790Y2286350D01*
G75*
G02*
X5829390Y2073600I-27400J-104610D01*
G01*
G75*
G02*
X5748870Y2109550I0J108140D01*
G01*
G75*
G02*
X5742960Y2102520I-43620J30670D01*
G01*
X5622960Y1982520D01*
G75*
G02*
X5607320Y1971680I-37720J37710D01*
G01*
G75*
G02*
X5641680Y1900240I-57080J-71440D01*
G01*
G75*
G02*
X5475940Y1846940I-91440J0D01*
G01*
X5227380D01*
X5138540Y1758100D01*
Y1747200D01*
G75*
G02*
X5185240Y1697580I-53310J-96960D01*
G01*
G75*
G02*
X5374640Y1715420I100000J-47340D01*
G01*
Y1761840D01*
X5595840D01*
Y1538640D01*
X5374640D01*
Y1585060D01*
G75*
G02*
X5185240Y1602900I-89400J65180D01*
G01*
G75*
G02*
X4985240I-100000J47340D01*
G01*
G75*
G02*
X4774600Y1650240I-100000J47340D01*
G01*
G75*
G02*
X4831940Y1747200I110640J0D01*
G01*
Y1918070D01*
G75*
G02*
X4831900Y1920240I53310J2070D01*
G01*
G75*
G02*
X4847520Y1957960I53340J0D01*
G01*
X4947520Y2057960D01*
G75*
G02*
X4987410Y2073540I37720J-37720D01*
G01*
X5563100D01*
X5563780Y2074220D01*
G75*
G02*
X5575390Y2289880I11610J107520D01*
G01*
G75*
G02*
X5663870Y2243920I10J-108140D01*
G01*
G75*
G02*
X5667520Y2247960I41330J-33670D01*
G01*
X5684630Y2265070D01*
G75*
G02*
X5702390Y2479880I17760J106670D01*
G01*
G75*
G02*
X5809060Y2389500I0J-108140D01*
G01*
X5829020Y2409460D01*
G75*
G02*
X5862210Y2424890I37720J-37720D01*
G01*
G75*
G02*
X5903040Y2465800I94170J-53160D01*
G01*
Y2482560D01*
G75*
G02*
X5721250Y2561740I-73650J79180D01*
G01*
G75*
G02*
X5916100Y2626360I108140J0D01*
G01*
G75*
G02*
X5919230Y2629670I40300J-34970D01*
G01*
X5935250Y2645690D01*
G75*
G02*
X5956390Y2859880I21140J106050D01*
G01*
G75*
G02*
X6046940Y2810860I0J-108140D01*
G01*
Y2890940D01*
G75*
G02*
X6018010Y2925240I53300J74300D01*
G01*
X5780840D01*
Y2826170D01*
G75*
G02*
X5702390Y2643600I-78450J-74430D01*
G01*
G75*
G02*
X5619640Y2821360I0J108140D01*
G01*
Y2925240D01*
X5025680D01*
X5102960Y2847960D01*
G75*
G02*
X5116100Y2826340I-37710J-37720D01*
G01*
G75*
G02*
X5302530Y2751740I78290J-74600D01*
G01*
G75*
G02*
X5105470Y2690200I-108140J-10D01*
G01*
G75*
G02*
X5102960Y2687520I-40160J35100D01*
G01*
X5084030Y2668590D01*
G75*
G02*
X5067390Y2453600I-16640J-106850D01*
G01*
G75*
G02*
X4993740Y2482560I0J108140D01*
G01*
Y2465800D01*
G75*
G02*
X5002960Y2283540I-53350J-94060D01*
G01*
X5016720D01*
G75*
G02*
X5028620Y2282690I2170J-53320D01*
G01*
G75*
G02*
X5175530Y2181740I38770J-100950D01*
G01*
G75*
G02*
X4959360Y2176940I-108140J0D01*
G01*
X4922410D01*
G75*
G02*
X4921420Y2176910I-2120J53450D01*
G01*
G75*
G02*
X4705250Y2181740I-108030J4830D01*
G01*
G75*
G02*
X4788150Y2286890I108140J0D01*
G01*
X4772520Y2302520D01*
G75*
G02*
X4770880Y2304240I37740J37630D01*
G01*
G75*
G02*
X4578250Y2371740I-84490J67500D01*
G01*
G75*
G02*
X4578680Y2381360I108110J-10D01*
G01*
X4568100Y2391940D01*
X4538630D01*
G75*
G02*
X4432390Y2263600I-106240J-20200D01*
G01*
G75*
G02*
X4405340Y2476440I0J108140D01*
G01*
G75*
G02*
X4396910Y2504130I44900J28800D01*
G01*
G75*
G02*
X4218200Y2497770I-91520J57620D01*
G01*
G75*
G02*
X4217960Y2497520I-38630J36840D01*
G01*
X4198440Y2478000D01*
G75*
G02*
X4178390Y2263600I-20050J-106260D01*
G01*
G75*
G02*
X4094230Y2303830I0J108140D01*
G01*
G75*
G02*
X4092960Y2302520I-38870J36410D01*
G01*
X4077200Y2286760D01*
G75*
G02*
X4051390Y2073600I-25810J-105020D01*
G01*
G75*
G02*
X3946370Y2155930I0J108140D01*
G01*
X3932960Y2142520D01*
G75*
G02*
X3893070Y2126940I-37720J37720D01*
G01*
X3890620D01*
G75*
G02*
X3689250Y2181740I-93230J54800D01*
G01*
G75*
G02*
X3884870Y2245310I108140J0D01*
G01*
X3904930Y2265370D01*
G75*
G02*
X3866040Y2462790I19460J106370D01*
G01*
Y2478190D01*
G75*
G02*
X3689250Y2561740I-68650J83550D01*
G01*
G75*
G02*
X3772960Y2667080I108140J0D01*
G01*
X3757520Y2682520D01*
G75*
G02*
X3755340Y2684830I37730J37790D01*
G01*
G75*
G02*
X3562250Y2751740I-84950J66910D01*
G01*
G75*
G02*
X3741940Y2832830I108140J0D01*
G01*
Y2858070D01*
G75*
G02*
X3741900Y2860240I53310J2070D01*
G01*
G75*
G02*
X3757520Y2897960I53340J0D01*
G01*
X3784800Y2925240D01*
X2591700D01*
G75*
G02*
X2463080I-64310J64990D01*
G01*
X2415680D01*
X2313540Y2823100D01*
Y2816170D01*
G75*
G02*
X2508530Y2751740I86850J-64430D01*
G01*
G75*
G02*
X2420440Y2645480I-108140J10D01*
G01*
X2437960Y2627960D01*
G75*
G02*
X2440150Y2625640I-37680J-37760D01*
G01*
G75*
G02*
X2635530Y2561740I87240J-63900D01*
G01*
G75*
G02*
X2549940Y2455980I-108140J0D01*
G01*
X2567960Y2437960D01*
G75*
G02*
X2568490Y2437430I-37460J-37990D01*
G01*
G75*
G02*
X2762530Y2371740I85900J-65690D01*
G01*
G75*
G02*
X2583540Y2290040I-108140J0D01*
G01*
Y2274160D01*
G75*
G02*
X2527390Y2073600I-56150J-92420D01*
G01*
G75*
G02*
X2476940Y2277390I0J108140D01*
G01*
Y2295360D01*
G75*
G02*
X2292250Y2371740I-76550J76380D01*
G01*
G75*
G02*
X2377590Y2477450I108140J0D01*
G01*
X2362520Y2492520D01*
G75*
G02*
X2359290Y2496050I37720J37750D01*
G01*
G75*
G02*
X2165250Y2561740I-85900J65690D01*
G01*
G75*
G02*
X2248150Y2666890I108140J0D01*
G01*
X2230840Y2684200D01*
G75*
G02*
X2038250Y2751740I-84450J67540D01*
G01*
G75*
G02*
X2206940Y2841340I108140J0D01*
G01*
Y2843070D01*
G75*
G02*
X2206900Y2845240I53310J2070D01*
G01*
G75*
G02*
X2222520Y2882960I53340J0D01*
G01*
X2264800Y2925240D01*
X1686910D01*
G75*
G02*
X1667260Y2893220I-76670J25010D01*
G01*
X1245840Y2471800D01*
Y1923470D01*
G75*
G02*
X1169240Y1718400I-76600J-88230D01*
G01*
G75*
G02*
X1084640Y1915830I0J116840D01*
G01*
Y2502750D01*
G75*
G02*
X1084600Y2505240I80580J2540D01*
G01*
G75*
G02*
X1108220Y2562260I80640J0D01*
G01*
X1471200Y2925240D01*
X631120D01*
X5448390Y2859880D02*
G75*
G02*
X5556530Y2751740I0J-108140D01*
G01*
G75*
G02*
X5448390Y2643600I-108140J0D01*
G01*
G75*
G02*
X5340250Y2751740I0J108140D01*
G01*
G75*
G02*
X5448390Y2859880I108140J0D01*
G01*
X5575390Y2669880D02*
G75*
G02*
X5683530Y2561740I0J-108140D01*
G01*
G75*
G02*
X5575390Y2453600I-108140J0D01*
G01*
G75*
G02*
X5467250Y2561740I0J108140D01*
G01*
G75*
G02*
X5575390Y2669880I108140J0D01*
G01*
X5321390D02*
G75*
G02*
X5429530Y2561740I0J-108140D01*
G01*
G75*
G02*
X5321390Y2453600I-108140J0D01*
G01*
G75*
G02*
X5213250Y2561740I0J108140D01*
G01*
G75*
G02*
X5321390Y2669880I108140J0D01*
G01*
X5448390Y2479880D02*
G75*
G02*
X5556530Y2371740I0J-108140D01*
G01*
G75*
G02*
X5448390Y2263600I-108140J0D01*
G01*
G75*
G02*
X5340250Y2371740I0J108140D01*
G01*
G75*
G02*
X5448390Y2479880I108140J0D01*
G01*
X5194390D02*
G75*
G02*
X5302530Y2371740I0J-108140D01*
G01*
G75*
G02*
X5194390Y2263600I-108140J0D01*
G01*
G75*
G02*
X5086250Y2371740I0J108140D01*
G01*
G75*
G02*
X5194390Y2479880I108140J0D01*
G01*
X5321390Y2289880D02*
G75*
G02*
X5429530Y2181740I0J-108140D01*
G01*
G75*
G02*
X5321390Y2073600I-108140J0D01*
G01*
G75*
G02*
X5213250Y2181740I0J108140D01*
G01*
G75*
G02*
X5321390Y2289880I108140J0D01*
G01*
X4559390D02*
G75*
G02*
X4667530Y2181740I0J-108140D01*
G01*
G75*
G02*
X4559390Y2073600I-108140J0D01*
G01*
G75*
G02*
X4451250Y2181740I0J108140D01*
G01*
G75*
G02*
X4559390Y2289880I108140J0D01*
G01*
X4305390D02*
G75*
G02*
X4413530Y2181740I0J-108140D01*
G01*
G75*
G02*
X4305390Y2073600I-108140J0D01*
G01*
G75*
G02*
X4197250Y2181740I0J108140D01*
G01*
G75*
G02*
X4305390Y2289880I108140J0D01*
G01*
X2908390Y2859880D02*
G75*
G02*
X3016530Y2751740I0J-108140D01*
G01*
G75*
G02*
X2908390Y2643600I-108140J0D01*
G01*
G75*
G02*
X2800250Y2751740I0J108140D01*
G01*
G75*
G02*
X2908390Y2859880I108140J0D01*
G01*
X3035390Y2669880D02*
G75*
G02*
X3143530Y2561740I0J-108140D01*
G01*
G75*
G02*
X3035390Y2453600I-108140J0D01*
G01*
G75*
G02*
X2927250Y2561740I0J108140D01*
G01*
G75*
G02*
X3035390Y2669880I108140J0D01*
G01*
X3162390Y2479880D02*
G75*
G02*
X3270530Y2371740I0J-108140D01*
G01*
G75*
G02*
X3162390Y2263600I-108140J0D01*
G01*
G75*
G02*
X3054250Y2371740I0J108140D01*
G01*
G75*
G02*
X3162390Y2479880I108140J0D01*
G01*
X3289390Y2289880D02*
G75*
G02*
X3397530Y2181740I0J-108140D01*
G01*
G75*
G02*
X3289390Y2073600I-108140J0D01*
G01*
G75*
G02*
X3181250Y2181740I0J108140D01*
G01*
G75*
G02*
X3289390Y2289880I108140J0D01*
G01*
X3162390Y2859880D02*
G75*
G02*
X3270530Y2751740I0J-108140D01*
G01*
G75*
G02*
X3162390Y2643600I-108140J0D01*
G01*
G75*
G02*
X3054250Y2751740I0J108140D01*
G01*
G75*
G02*
X3162390Y2859880I108140J0D01*
G01*
X3289390Y2669880D02*
G75*
G02*
X3397530Y2561740I0J-108140D01*
G01*
G75*
G02*
X3289390Y2453600I-108140J0D01*
G01*
G75*
G02*
X3181250Y2561740I0J108140D01*
G01*
G75*
G02*
X3289390Y2669880I108140J0D01*
G01*
X3416390Y2479880D02*
G75*
G02*
X3524530Y2371740I0J-108140D01*
G01*
G75*
G02*
X3416390Y2263600I-108140J0D01*
G01*
G75*
G02*
X3308250Y2371740I0J108140D01*
G01*
G75*
G02*
X3416390Y2479880I108140J0D01*
G01*
X3543390Y2289880D02*
G75*
G02*
X3651530Y2181740I0J-108140D01*
G01*
G75*
G02*
X3543390Y2073600I-108140J0D01*
G01*
G75*
G02*
X3435250Y2181740I0J108140D01*
G01*
G75*
G02*
X3543390Y2289880I108140J0D01*
G01*
X3416390Y2859880D02*
G75*
G02*
X3524530Y2751740I0J-108140D01*
G01*
G75*
G02*
X3416390Y2643600I-108140J0D01*
G01*
G75*
G02*
X3308250Y2751740I0J108140D01*
G01*
G75*
G02*
X3416390Y2859880I108140J0D01*
G01*
X3543390Y2669880D02*
G75*
G02*
X3651530Y2561740I0J-108140D01*
G01*
G75*
G02*
X3543390Y2453600I-108140J0D01*
G01*
G75*
G02*
X3435250Y2561740I0J108140D01*
G01*
G75*
G02*
X3543390Y2669880I108140J0D01*
G01*
X3670390Y2479880D02*
G75*
G02*
X3778530Y2371740I0J-108140D01*
G01*
G75*
G02*
X3670390Y2263600I-108140J0D01*
G01*
G75*
G02*
X3562250Y2371740I0J108140D01*
G01*
G75*
G02*
X3670390Y2479880I108140J0D01*
G01*
X2654390Y2859880D02*
G75*
G02*
X2762530Y2751740I0J-108140D01*
G01*
G75*
G02*
X2654390Y2643600I-108140J0D01*
G01*
G75*
G02*
X2546250Y2751740I0J108140D01*
G01*
G75*
G02*
X2654390Y2859880I108140J0D01*
G01*
X2781390Y2669880D02*
G75*
G02*
X2889530Y2561740I0J-108140D01*
G01*
G75*
G02*
X2781390Y2453600I-108140J0D01*
G01*
G75*
G02*
X2673250Y2561740I0J108140D01*
G01*
G75*
G02*
X2781390Y2669880I108140J0D01*
G01*
X2908390Y2479880D02*
G75*
G02*
X3016530Y2371740I0J-108140D01*
G01*
G75*
G02*
X2908390Y2263600I-108140J0D01*
G01*
G75*
G02*
X2800250Y2371740I0J108140D01*
G01*
G75*
G02*
X2908390Y2479880I108140J0D01*
G01*
X3035390Y2289880D02*
G75*
G02*
X3143530Y2181740I0J-108140D01*
G01*
G75*
G02*
X3035390Y2073600I-108140J0D01*
G01*
G75*
G02*
X2927250Y2181740I0J108140D01*
G01*
G75*
G02*
X3035390Y2289880I108140J0D01*
G01*
X3134600Y1650240D02*
G75*
G02*
X3345240Y1697580I110640J0D01*
G01*
G75*
G02*
X3545240I100000J-47340D01*
G01*
G75*
G02*
X3734640Y1715420I100000J-47340D01*
G01*
Y1761840D01*
X3955840D01*
Y1538640D01*
X3734640D01*
Y1585060D01*
G75*
G02*
X3545240Y1602900I-89400J65180D01*
G01*
G75*
G02*
X3345240I-100000J47340D01*
G01*
G75*
G02*
X3134600Y1650240I-100000J47340D01*
G01*
X2781390Y2289880D02*
G75*
G02*
X2889530Y2181740I0J-108140D01*
G01*
G75*
G02*
X2781390Y2073600I-108140J0D01*
G01*
G75*
G02*
X2673250Y2181740I0J108140D01*
G01*
G75*
G02*
X2781390Y2289880I108140J0D01*
G01*
X1825240Y1952080D02*
G75*
G02*
X1942080Y1835240I0J-116840D01*
G01*
G75*
G02*
X1825240Y1718400I-116840J0D01*
G01*
G75*
G02*
X1708400Y1835240I0J116840D01*
G01*
G75*
G02*
X1825240Y1952080I116840J0D01*
G01*
X1892390Y2479880D02*
G75*
G02*
X2000530Y2371740I0J-108140D01*
G01*
G75*
G02*
X1892390Y2263600I-108140J0D01*
G01*
G75*
G02*
X1784250Y2371740I0J108140D01*
G01*
G75*
G02*
X1892390Y2479880I108140J0D01*
G01*
X2019390Y2289880D02*
G75*
G02*
X2127530Y2181740I0J-108140D01*
G01*
G75*
G02*
X2019390Y2073600I-108140J0D01*
G01*
G75*
G02*
X1911250Y2181740I0J108140D01*
G01*
G75*
G02*
X2019390Y2289880I108140J0D01*
G01*
X2079240Y1952080D02*
G75*
G02*
X2196080Y1835240I0J-116840D01*
G01*
G75*
G02*
X2079240Y1718400I-116840J0D01*
G01*
G75*
G02*
X1962400Y1835240I0J116840D01*
G01*
G75*
G02*
X2079240Y1952080I116840J0D01*
G01*
X1892390Y2859880D02*
G75*
G02*
X2000530Y2751740I0J-108140D01*
G01*
G75*
G02*
X1892390Y2643600I-108140J0D01*
G01*
G75*
G02*
X1784250Y2751740I0J108140D01*
G01*
G75*
G02*
X1892390Y2859880I108140J0D01*
G01*
X2019390Y2669880D02*
G75*
G02*
X2127530Y2561740I0J-108140D01*
G01*
G75*
G02*
X2019390Y2453600I-108140J0D01*
G01*
G75*
G02*
X1911250Y2561740I0J108140D01*
G01*
G75*
G02*
X2019390Y2669880I108140J0D01*
G01*
X2146390Y2479880D02*
G75*
G02*
X2254530Y2371740I0J-108140D01*
G01*
G75*
G02*
X2146390Y2263600I-108140J0D01*
G01*
G75*
G02*
X2038250Y2371740I0J108140D01*
G01*
G75*
G02*
X2146390Y2479880I108140J0D01*
G01*
X2273390Y2289880D02*
G75*
G02*
X2381530Y2181740I0J-108140D01*
G01*
G75*
G02*
X2273390Y2073600I-108140J0D01*
G01*
G75*
G02*
X2165250Y2181740I0J108140D01*
G01*
G75*
G02*
X2273390Y2289880I108140J0D01*
G01*
X2565240Y1923380D02*
G75*
G02*
X2868380Y1620240I0J-303140D01*
G01*
G75*
G02*
X2565240Y1317100I-303140J0D01*
G01*
G75*
G02*
X2262100Y1620240I0J303140D01*
G01*
G75*
G02*
X2565240Y1923380I303140J0D01*
G01*
X1369600Y2150240D02*
G75*
G02*
X1670880I150640J0D01*
G01*
G75*
G02*
X1369600I-150640J0D01*
G01*
X915240Y1952080D02*
G75*
G02*
X1032080Y1835240I0J-116840D01*
G01*
G75*
G02*
X915240Y1718400I-116840J0D01*
G01*
G75*
G02*
X798400Y1835240I0J116840D01*
G01*
G75*
G02*
X915240Y1952080I116840J0D01*
G01*
X646360Y1650240D02*
G36*
X646360Y1650240D02*
Y1321360D01*
X2514610D01*
G75*
G02*
X2262100Y1620240I50640J298890D01*
G01*
G75*
G02*
X2263590Y1650240I303170J-20D01*
G01*
X646360D01*
G37*
X2868380Y1620240D02*
G36*
X2868380Y1620240D02*
G75*
G02*
X2615870Y1321360I-303150J10D01*
G01*
X6114620D01*
G75*
G02*
X5862100Y1620240I50620J298890D01*
G01*
G75*
G02*
X5863590Y1650240I303170J-20D01*
G01*
X5595840D01*
Y1538640D01*
X5374640D01*
Y1585060D01*
G75*
G02*
X5185240Y1602900I-89400J65180D01*
G01*
G75*
G02*
X4985240I-100000J47340D01*
G01*
G75*
G02*
X4774600Y1650240I-100000J47340D01*
G01*
X3955840D01*
Y1538640D01*
X3734640D01*
Y1585060D01*
G75*
G02*
X3545240Y1602900I-89400J65180D01*
G01*
G75*
G02*
X3345240I-100000J47340D01*
G01*
G75*
G02*
X3134600Y1650240I-100000J47340D01*
G01*
X2866890D01*
G75*
G02*
X2868380Y1620240I-301680J-30020D01*
G01*
G37*
X6215860Y1321360D02*
G36*
X6215860Y1321360D02*
X6350000D01*
Y1379910D01*
G75*
G02*
X6215860Y1321360I-184750J240340D01*
G01*
G37*
X646360Y1835240D02*
G36*
X646360Y1835240D02*
Y1650240D01*
X2263590D01*
G75*
G02*
X2351540Y1835240I301660J-30000D01*
G01*
X2196080D01*
G75*
G02*
Y1835230I-286480J0D01*
G01*
G75*
G02*
X2079240Y1718400I-116840J0D01*
G01*
G75*
G02*
X1962400Y1835230I0J116830D01*
G01*
G75*
G02*
Y1835240I286480J10D01*
G01*
X1942080D01*
G75*
G02*
Y1835230I-286480J0D01*
G01*
G75*
G02*
X1825240Y1718400I-116840J0D01*
G01*
G75*
G02*
X1708400Y1835230I0J116830D01*
G01*
G75*
G02*
Y1835240I286480J10D01*
G01*
X1286080D01*
G75*
G02*
X1169240Y1718400I-116840J0D01*
G01*
G75*
G02*
X1052400Y1835240I0J116840D01*
G01*
X1032080D01*
G75*
G02*
Y1835230I-286480J0D01*
G01*
G75*
G02*
X915240Y1718400I-116840J0D01*
G01*
G75*
G02*
X798400Y1835230I0J116830D01*
G01*
G75*
G02*
Y1835240I286480J10D01*
G01*
X646360D01*
G37*
X2778940D02*
G36*
X2778940Y1835240D02*
G75*
G02*
X2866890Y1650240I-213710J-215000D01*
G01*
X3134600D01*
G75*
G02*
X3345240Y1697580I110640J0D01*
G01*
G75*
G02*
X3545240I100000J-47340D01*
G01*
G75*
G02*
X3734640Y1715420I100000J-47340D01*
G01*
Y1761840D01*
X3955840D01*
Y1650240D01*
X4774600D01*
G75*
G02*
X4831940Y1747200I110670J-10D01*
G01*
Y1835240D01*
X2778940D01*
G37*
X5138540Y1758100D02*
G36*
X5138540Y1758100D02*
Y1747200D01*
G75*
G02*
X5185240Y1697580I-53310J-96950D01*
G01*
G75*
G02*
X5374640Y1715420I100000J-47340D01*
G01*
Y1761840D01*
X5595840D01*
Y1650240D01*
X5863590D01*
G75*
G02*
X5951540Y1835240I301650J-30000D01*
G01*
X5614550D01*
G75*
G02*
X5485930I-64310J65000D01*
G01*
X5215680D01*
X5138540Y1758100D01*
G37*
X646360Y2181740D02*
G36*
X646360Y2181740D02*
Y1835240D01*
X798400D01*
G75*
G02*
Y1835250I286480J10D01*
G01*
G75*
G02*
X915240Y1952080I116840J0D01*
G01*
G75*
G02*
X1032080Y1835250I0J-116830D01*
G01*
G75*
G02*
Y1835240I-286480J0D01*
G01*
X1052400D01*
G75*
G02*
X1084640Y1915830I116840J0D01*
G01*
Y2181740D01*
X646360D01*
G37*
X1245840D02*
G36*
X1245840Y2181740D02*
Y1923470D01*
G75*
G02*
X1286080Y1835240I-76610J-88230D01*
G01*
X1708400D01*
G75*
G02*
Y1835250I286480J10D01*
G01*
G75*
G02*
X1825240Y1952080I116840J0D01*
G01*
G75*
G02*
X1942080Y1835250I0J-116830D01*
G01*
G75*
G02*
Y1835240I-286480J0D01*
G01*
X1962400D01*
G75*
G02*
Y1835250I286480J10D01*
G01*
G75*
G02*
X2079240Y1952080I116840J0D01*
G01*
G75*
G02*
X2196080Y1835250I0J-116830D01*
G01*
G75*
G02*
Y1835240I-286480J0D01*
G01*
X2351540D01*
G75*
G02*
X2565240Y1923380I213710J-215010D01*
G01*
G75*
G02*
X2778940Y1835240I-10J-303150D01*
G01*
X4831940D01*
Y1918070D01*
G75*
G02*
X4831900Y1920230I58320J2160D01*
G01*
G75*
G02*
Y1920240I63660J10D01*
G01*
G75*
G02*
X4847520Y1957960I53380J-10D01*
G01*
X4947520Y2057960D01*
G75*
G02*
X4987410Y2073540I37710J-37690D01*
G01*
X5563100D01*
X5563780Y2074220D01*
G75*
G02*
X5467240Y2181740I11610J107520D01*
G01*
X5429530D01*
G75*
G02*
Y2181730I-95490J0D01*
G01*
G75*
G02*
X5321390Y2073600I-108140J0D01*
G01*
G75*
G02*
X5213250Y2181730I0J108130D01*
G01*
G75*
G02*
Y2181740I95490J10D01*
G01*
X5175530D01*
G75*
G02*
X4959360Y2176940I-108140J0D01*
G01*
X4922410D01*
G75*
G02*
X4921420Y2176910I-1220J23780D01*
G01*
G75*
G02*
X4705250Y2181740I-108030J4830D01*
G01*
X4667530D01*
G75*
G02*
Y2181730I-95490J0D01*
G01*
G75*
G02*
X4559390Y2073600I-108140J0D01*
G01*
G75*
G02*
X4451250Y2181730I0J108130D01*
G01*
G75*
G02*
Y2181740I95490J10D01*
G01*
X4413530D01*
G75*
G02*
Y2181730I-95490J0D01*
G01*
G75*
G02*
X4305390Y2073600I-108140J0D01*
G01*
G75*
G02*
X4197250Y2181730I0J108130D01*
G01*
G75*
G02*
Y2181740I95490J10D01*
G01*
X4159530D01*
G75*
G02*
X4051390Y2073600I-108140J0D01*
G01*
G75*
G02*
X3946370Y2155930I-10J108130D01*
G01*
X3932960Y2142520D01*
G75*
G02*
X3893070Y2126940I-37710J37690D01*
G01*
X3890620D01*
G75*
G02*
X3689250Y2181730I-93230J54790D01*
G01*
G75*
G02*
Y2181740I190990J10D01*
G01*
X3651530D01*
G75*
G02*
Y2181730I-95490J0D01*
G01*
G75*
G02*
X3543390Y2073600I-108140J0D01*
G01*
G75*
G02*
X3435250Y2181730I0J108130D01*
G01*
G75*
G02*
Y2181740I95490J10D01*
G01*
X3397530D01*
G75*
G02*
Y2181730I-95490J0D01*
G01*
G75*
G02*
X3289390Y2073600I-108140J0D01*
G01*
G75*
G02*
X3181250Y2181730I0J108130D01*
G01*
G75*
G02*
Y2181740I95490J10D01*
G01*
X3143530D01*
G75*
G02*
Y2181730I-95490J0D01*
G01*
G75*
G02*
X3035390Y2073600I-108140J0D01*
G01*
G75*
G02*
X2927250Y2181730I0J108130D01*
G01*
G75*
G02*
Y2181740I95490J10D01*
G01*
X2889530D01*
G75*
G02*
Y2181730I-95490J0D01*
G01*
G75*
G02*
X2781390Y2073600I-108140J0D01*
G01*
G75*
G02*
X2673250Y2181730I0J108130D01*
G01*
G75*
G02*
Y2181740I95490J10D01*
G01*
X2635530D01*
G75*
G02*
X2527390Y2073600I-108140J0D01*
G01*
G75*
G02*
X2419250Y2181740I0J108140D01*
G01*
X2381530D01*
G75*
G02*
Y2181730I-95490J0D01*
G01*
G75*
G02*
X2273390Y2073600I-108140J0D01*
G01*
G75*
G02*
X2165250Y2181730I0J108130D01*
G01*
G75*
G02*
Y2181740I95490J10D01*
G01*
X2127530D01*
G75*
G02*
Y2181730I-95490J0D01*
G01*
G75*
G02*
X2019390Y2073600I-108140J0D01*
G01*
G75*
G02*
X1911250Y2181730I0J108130D01*
G01*
G75*
G02*
Y2181740I95490J10D01*
G01*
X1667550D01*
G75*
G02*
X1670880Y2150240I-147310J-31500D01*
G01*
G75*
G02*
X1369600I-150640J0D01*
G01*
G75*
G02*
X1372930Y2181740I150640J0D01*
G01*
X1245840D01*
G37*
X5227380Y1846940D02*
G36*
X5227380Y1846940D02*
X5215680Y1835240D01*
X5485930D01*
G75*
G02*
X5475940Y1846940I64320J65030D01*
G01*
X5227380D01*
G37*
X5622960Y1982520D02*
G36*
X5622960Y1982520D02*
G75*
G02*
X5607320Y1971680I-37750J37770D01*
G01*
G75*
G02*
X5641680Y1900240I-57110J-71450D01*
G01*
G75*
G02*
X5614550Y1835240I-91440J10D01*
G01*
X5951540D01*
G75*
G02*
X6350000Y1860570I213700J-215010D01*
G01*
Y2074340D01*
G75*
G02*
X6229250Y2181740I-12610J107400D01*
G01*
X6191530D01*
G75*
G02*
X6083390Y2073600I-108140J0D01*
G01*
G75*
G02*
X5975250Y2181740I0J108140D01*
G01*
X5937530D01*
G75*
G02*
X5829390Y2073600I-108140J0D01*
G01*
G75*
G02*
X5748870Y2109550I-20J108100D01*
G01*
G75*
G02*
X5742960Y2102520I-43420J30500D01*
G01*
X5622960Y1982520D01*
G37*
X646360Y2371740D02*
G36*
X646360Y2371740D02*
Y2181740D01*
X1084640D01*
Y2371740D01*
X646360D01*
G37*
X1245840D02*
G36*
X1245840Y2371740D02*
Y2181740D01*
X1372930D01*
G75*
G02*
X1667550I147310J-31500D01*
G01*
X1911250D01*
G75*
G02*
Y2181750I95490J10D01*
G01*
G75*
G02*
X2019390Y2289880I108140J0D01*
G01*
G75*
G02*
X2127530Y2181750I0J-108130D01*
G01*
G75*
G02*
Y2181740I-95490J0D01*
G01*
X2165250D01*
G75*
G02*
Y2181750I95490J10D01*
G01*
G75*
G02*
X2273390Y2289880I108140J0D01*
G01*
G75*
G02*
X2381530Y2181750I0J-108130D01*
G01*
G75*
G02*
Y2181740I-95490J0D01*
G01*
X2419250D01*
G75*
G02*
X2476940Y2277390I108140J0D01*
G01*
Y2295360D01*
G75*
G02*
X2292250Y2371740I-76550J76380D01*
G01*
X2254530D01*
G75*
G02*
Y2371730I-95490J0D01*
G01*
G75*
G02*
X2146390Y2263600I-108140J0D01*
G01*
G75*
G02*
X2038250Y2371730I0J108130D01*
G01*
G75*
G02*
Y2371740I95490J10D01*
G01*
X2000530D01*
G75*
G02*
Y2371730I-95490J0D01*
G01*
G75*
G02*
X1892390Y2263600I-108140J0D01*
G01*
G75*
G02*
X1784250Y2371730I0J108130D01*
G01*
G75*
G02*
Y2371740I95490J10D01*
G01*
X1245840D01*
G37*
X2583540Y2290040D02*
G36*
X2583540Y2290040D02*
Y2274160D01*
G75*
G02*
X2635530Y2181740I-56150J-92420D01*
G01*
X2673250D01*
G75*
G02*
Y2181750I95490J10D01*
G01*
G75*
G02*
X2781390Y2289880I108140J0D01*
G01*
G75*
G02*
X2889530Y2181750I0J-108130D01*
G01*
G75*
G02*
Y2181740I-95490J0D01*
G01*
X2927250D01*
G75*
G02*
Y2181750I95490J10D01*
G01*
G75*
G02*
X3035390Y2289880I108140J0D01*
G01*
G75*
G02*
X3143530Y2181750I0J-108130D01*
G01*
G75*
G02*
Y2181740I-95490J0D01*
G01*
X3181250D01*
G75*
G02*
Y2181750I95490J10D01*
G01*
G75*
G02*
X3289390Y2289880I108140J0D01*
G01*
G75*
G02*
X3397530Y2181750I0J-108130D01*
G01*
G75*
G02*
Y2181740I-95490J0D01*
G01*
X3435250D01*
G75*
G02*
Y2181750I95490J10D01*
G01*
G75*
G02*
X3543390Y2289880I108140J0D01*
G01*
G75*
G02*
X3651530Y2181750I0J-108130D01*
G01*
G75*
G02*
Y2181740I-95490J0D01*
G01*
X3689250D01*
G75*
G02*
X3884870Y2245310I108140J-10D01*
G01*
X3904930Y2265370D01*
G75*
G02*
X3816250Y2371740I19460J106370D01*
G01*
X3778530D01*
G75*
G02*
Y2371730I-95490J0D01*
G01*
G75*
G02*
X3670390Y2263600I-108140J0D01*
G01*
G75*
G02*
X3562250Y2371730I0J108130D01*
G01*
G75*
G02*
Y2371740I95490J10D01*
G01*
X3524530D01*
G75*
G02*
Y2371730I-95490J0D01*
G01*
G75*
G02*
X3416390Y2263600I-108140J0D01*
G01*
G75*
G02*
X3308250Y2371730I0J108130D01*
G01*
G75*
G02*
Y2371740I95490J10D01*
G01*
X3270530D01*
G75*
G02*
Y2371730I-95490J0D01*
G01*
G75*
G02*
X3162390Y2263600I-108140J0D01*
G01*
G75*
G02*
X3054250Y2371730I0J108130D01*
G01*
G75*
G02*
Y2371740I95490J10D01*
G01*
X3016530D01*
G75*
G02*
Y2371730I-95490J0D01*
G01*
G75*
G02*
X2908390Y2263600I-108140J0D01*
G01*
G75*
G02*
X2800250Y2371730I0J108130D01*
G01*
G75*
G02*
Y2371740I95490J10D01*
G01*
X2762530D01*
G75*
G02*
X2583540Y2290040I-108140J0D01*
G01*
G37*
X4092960Y2302520D02*
G36*
X4092960Y2302520D02*
X4077200Y2286760D01*
G75*
G02*
X4159530Y2181740I-25810J-105020D01*
G01*
X4197250D01*
G75*
G02*
Y2181750I95490J10D01*
G01*
G75*
G02*
X4305390Y2289880I108140J0D01*
G01*
G75*
G02*
X4413530Y2181750I0J-108130D01*
G01*
G75*
G02*
Y2181740I-95490J0D01*
G01*
X4451250D01*
G75*
G02*
Y2181750I95490J10D01*
G01*
G75*
G02*
X4559390Y2289880I108140J0D01*
G01*
G75*
G02*
X4667530Y2181750I0J-108130D01*
G01*
G75*
G02*
Y2181740I-95490J0D01*
G01*
X4705250D01*
G75*
G02*
X4788150Y2286890I108140J-10D01*
G01*
X4772520Y2302520D01*
G75*
G02*
X4770880Y2304240I35320J35320D01*
G01*
G75*
G02*
X4578250Y2371740I-84490J67500D01*
G01*
X4540530D01*
G75*
G02*
X4432390Y2263600I-108140J0D01*
G01*
G75*
G02*
X4324250Y2371740I0J108140D01*
G01*
X4286530D01*
G75*
G02*
X4178390Y2263600I-108140J0D01*
G01*
G75*
G02*
X4094230Y2303830I-20J108110D01*
G01*
G75*
G02*
X4092960Y2302520I-42890J40310D01*
G01*
G37*
X5002960Y2283540D02*
G36*
X5002960Y2283540D02*
X5016720D01*
G75*
G02*
X5028620Y2282690I2180J-53140D01*
G01*
G75*
G02*
X5175530Y2181740I38770J-100950D01*
G01*
X5213250D01*
G75*
G02*
Y2181750I95490J10D01*
G01*
G75*
G02*
X5321390Y2289880I108140J0D01*
G01*
G75*
G02*
X5429530Y2181750I0J-108130D01*
G01*
G75*
G02*
Y2181740I-95490J0D01*
G01*
X5467240D01*
G75*
G02*
X5575390Y2289880I108150J0D01*
G01*
G75*
G02*
X5663870Y2243920I10J-108120D01*
G01*
G75*
G02*
X5667520Y2247960I38790J-31380D01*
G01*
X5684630Y2265070D01*
G75*
G02*
X5594250Y2371740I17760J106670D01*
G01*
X5556530D01*
G75*
G02*
Y2371730I-95490J0D01*
G01*
G75*
G02*
X5448390Y2263600I-108140J0D01*
G01*
G75*
G02*
X5340250Y2371730I0J108130D01*
G01*
G75*
G02*
Y2371740I95490J10D01*
G01*
X5302530D01*
G75*
G02*
Y2371730I-95490J0D01*
G01*
G75*
G02*
X5194390Y2263600I-108140J0D01*
G01*
G75*
G02*
X5086250Y2371730I0J108130D01*
G01*
G75*
G02*
Y2371740I95490J10D01*
G01*
X5048530D01*
G75*
G02*
X5002960Y2283540I-108140J0D01*
G01*
G37*
X5873150Y2302710D02*
G36*
X5873150Y2302710D02*
X5856790Y2286350D01*
G75*
G02*
X5937530Y2181740I-27400J-104610D01*
G01*
X5975250D01*
G75*
G02*
X6030040Y2275800I108140J0D01*
G01*
Y2292560D01*
G75*
G02*
X5873150Y2302710I-73650J79190D01*
G01*
G37*
X6136740Y2292560D02*
G36*
X6136740Y2292560D02*
Y2275800D01*
G75*
G02*
X6191530Y2181740I-53350J-94060D01*
G01*
X6229250D01*
G75*
G02*
X6350000Y2289140I108140J0D01*
G01*
Y2371740D01*
X6318530D01*
G75*
G02*
X6210390Y2263600I-108140J0D01*
G01*
G75*
G02*
X6136740Y2292560I0J108130D01*
G01*
G37*
X646360Y2561740D02*
G36*
X646360Y2561740D02*
Y2371740D01*
X1084640D01*
Y2502750D01*
G75*
G02*
X1084600Y2505230I76910J2480D01*
G01*
G75*
G02*
Y2505240I81850J10D01*
G01*
G75*
G02*
X1107700Y2561740I80650J0D01*
G01*
X646360D01*
G37*
X1245840Y2471800D02*
G36*
X1245840Y2471800D02*
Y2371740D01*
X1784250D01*
G75*
G02*
Y2371750I95490J10D01*
G01*
G75*
G02*
X1892390Y2479880I108140J0D01*
G01*
G75*
G02*
X2000530Y2371750I0J-108130D01*
G01*
G75*
G02*
Y2371740I-95490J0D01*
G01*
X2038250D01*
G75*
G02*
Y2371750I95490J10D01*
G01*
G75*
G02*
X2146390Y2479880I108140J0D01*
G01*
G75*
G02*
X2254530Y2371750I0J-108130D01*
G01*
G75*
G02*
Y2371740I-95490J0D01*
G01*
X2292250D01*
G75*
G02*
X2377590Y2477450I108150J0D01*
G01*
X2362520Y2492520D01*
G75*
G02*
X2359290Y2496050I41070J40820D01*
G01*
G75*
G02*
X2165250Y2561740I-85900J65690D01*
G01*
X2127530D01*
G75*
G02*
Y2561730I-95490J0D01*
G01*
G75*
G02*
X2019390Y2453600I-108140J0D01*
G01*
G75*
G02*
X1911250Y2561730I0J108130D01*
G01*
G75*
G02*
Y2561740I95490J10D01*
G01*
X1335780D01*
X1245840Y2471800D01*
G37*
X2549940Y2455980D02*
G36*
X2549940Y2455980D02*
X2567960Y2437960D01*
G75*
G02*
X2568490Y2437430I-6760J-7290D01*
G01*
G75*
G02*
X2762530Y2371740I85900J-65690D01*
G01*
X2800250D01*
G75*
G02*
Y2371750I95490J10D01*
G01*
G75*
G02*
X2908390Y2479880I108140J0D01*
G01*
G75*
G02*
X3016530Y2371750I0J-108130D01*
G01*
G75*
G02*
Y2371740I-95490J0D01*
G01*
X3054250D01*
G75*
G02*
Y2371750I95490J10D01*
G01*
G75*
G02*
X3162390Y2479880I108140J0D01*
G01*
G75*
G02*
X3270530Y2371750I0J-108130D01*
G01*
G75*
G02*
Y2371740I-95490J0D01*
G01*
X3308250D01*
G75*
G02*
Y2371750I95490J10D01*
G01*
G75*
G02*
X3416390Y2479880I108140J0D01*
G01*
G75*
G02*
X3524530Y2371750I0J-108130D01*
G01*
G75*
G02*
Y2371740I-95490J0D01*
G01*
X3562250D01*
G75*
G02*
Y2371750I95490J10D01*
G01*
G75*
G02*
X3670390Y2479880I108140J0D01*
G01*
G75*
G02*
X3778530Y2371750I0J-108130D01*
G01*
G75*
G02*
Y2371740I-95490J0D01*
G01*
X3816250D01*
G75*
G02*
X3866040Y2462790I108140J0D01*
G01*
Y2478190D01*
G75*
G02*
X3689250Y2561740I-68650J83550D01*
G01*
X3651530D01*
G75*
G02*
Y2561730I-95490J0D01*
G01*
G75*
G02*
X3543390Y2453600I-108140J0D01*
G01*
G75*
G02*
X3435250Y2561730I0J108130D01*
G01*
G75*
G02*
Y2561740I95490J10D01*
G01*
X3397530D01*
G75*
G02*
Y2561730I-95490J0D01*
G01*
G75*
G02*
X3289390Y2453600I-108140J0D01*
G01*
G75*
G02*
X3181250Y2561730I0J108130D01*
G01*
G75*
G02*
Y2561740I95490J10D01*
G01*
X3143530D01*
G75*
G02*
Y2561730I-95490J0D01*
G01*
G75*
G02*
X3035390Y2453600I-108140J0D01*
G01*
G75*
G02*
X2927250Y2561730I0J108130D01*
G01*
G75*
G02*
Y2561740I95490J10D01*
G01*
X2889530D01*
G75*
G02*
Y2561730I-95490J0D01*
G01*
G75*
G02*
X2781390Y2453600I-108140J0D01*
G01*
G75*
G02*
X2673250Y2561730I0J108130D01*
G01*
G75*
G02*
Y2561740I95490J10D01*
G01*
X2635530D01*
G75*
G02*
X2549940Y2455980I-108140J0D01*
G01*
G37*
X4217960Y2497520D02*
G36*
X4217960Y2497520D02*
X4198440Y2478000D01*
G75*
G02*
X4286530Y2371740I-20050J-106260D01*
G01*
X4324250D01*
G75*
G02*
X4405340Y2476440I108140J0D01*
G01*
G75*
G02*
X4396910Y2504130I44860J28790D01*
G01*
G75*
G02*
X4218200Y2497770I-91520J57620D01*
G01*
G75*
G02*
X4217960Y2497520I-3250J2880D01*
G01*
G37*
X4540530Y2371740D02*
G36*
X4540530Y2371740D02*
X4578250D01*
G75*
G02*
X4578680Y2381360I110560J-120D01*
G01*
X4568100Y2391940D01*
X4538630D01*
G75*
G02*
X4540530Y2371740I-106270J-20180D01*
G01*
G37*
X4993740Y2482560D02*
G36*
X4993740Y2482560D02*
Y2465800D01*
G75*
G02*
X5048530Y2371740I-53350J-94060D01*
G01*
X5086250D01*
G75*
G02*
Y2371750I95490J10D01*
G01*
G75*
G02*
X5194390Y2479880I108140J0D01*
G01*
G75*
G02*
X5302530Y2371750I0J-108130D01*
G01*
G75*
G02*
Y2371740I-95490J0D01*
G01*
X5340250D01*
G75*
G02*
Y2371750I95490J10D01*
G01*
G75*
G02*
X5448390Y2479880I108140J0D01*
G01*
G75*
G02*
X5556530Y2371750I0J-108130D01*
G01*
G75*
G02*
Y2371740I-95490J0D01*
G01*
X5594250D01*
G75*
G02*
X5702390Y2479880I108140J0D01*
G01*
G75*
G02*
X5809060Y2389500I0J-108140D01*
G01*
X5829020Y2409460D01*
G75*
G02*
X5862210Y2424890I37720J-37730D01*
G01*
G75*
G02*
X5903040Y2465800I94200J-53190D01*
G01*
Y2482560D01*
G75*
G02*
X5721250Y2561740I-73650J79190D01*
G01*
X5683530D01*
G75*
G02*
Y2561730I-95490J0D01*
G01*
G75*
G02*
X5575390Y2453600I-108140J0D01*
G01*
G75*
G02*
X5467250Y2561730I0J108130D01*
G01*
G75*
G02*
Y2561740I95490J10D01*
G01*
X5429530D01*
G75*
G02*
Y2561730I-95490J0D01*
G01*
G75*
G02*
X5321390Y2453600I-108140J0D01*
G01*
G75*
G02*
X5213250Y2561730I0J108130D01*
G01*
G75*
G02*
Y2561740I95490J10D01*
G01*
X5175530D01*
G75*
G02*
X5067390Y2453600I-108140J0D01*
G01*
G75*
G02*
X4993740Y2482560I0J108130D01*
G01*
G37*
X6248600Y2500010D02*
G36*
X6248600Y2500010D02*
X6227160Y2478570D01*
G75*
G02*
X6318530Y2371740I-16770J-106830D01*
G01*
X6350000D01*
Y2454340D01*
G75*
G02*
X6248600Y2500010I-12610J107410D01*
G01*
G37*
X646360Y2751740D02*
G36*
X646360Y2751740D02*
Y2561740D01*
X1107700D01*
G75*
G02*
X1108220Y2562260I57560J-57040D01*
G01*
X1297700Y2751740D01*
X646360D01*
G37*
X1525780D02*
G36*
X1525780Y2751740D02*
X1335780Y2561740D01*
X1911250D01*
G75*
G02*
Y2561750I95490J10D01*
G01*
G75*
G02*
X2019390Y2669880I108140J0D01*
G01*
G75*
G02*
X2127530Y2561750I0J-108130D01*
G01*
G75*
G02*
Y2561740I-95490J0D01*
G01*
X2165250D01*
G75*
G02*
X2248150Y2666890I108140J-10D01*
G01*
X2230840Y2684200D01*
G75*
G02*
X2038250Y2751730I-84460J67530D01*
G01*
G75*
G02*
Y2751740I143240J10D01*
G01*
X2000530D01*
G75*
G02*
Y2751730I-95490J0D01*
G01*
G75*
G02*
X1892390Y2643600I-108140J0D01*
G01*
G75*
G02*
X1784250Y2751730I0J108130D01*
G01*
G75*
G02*
Y2751740I95490J10D01*
G01*
X1525780D01*
G37*
X2420440Y2645480D02*
G36*
X2420440Y2645480D02*
X2437960Y2627960D01*
G75*
G02*
X2440150Y2625640I-36450J-36600D01*
G01*
G75*
G02*
X2635530Y2561740I87240J-63900D01*
G01*
X2673250D01*
G75*
G02*
Y2561750I95490J10D01*
G01*
G75*
G02*
X2781390Y2669880I108140J0D01*
G01*
G75*
G02*
X2889530Y2561750I0J-108130D01*
G01*
G75*
G02*
Y2561740I-95490J0D01*
G01*
X2927250D01*
G75*
G02*
Y2561750I95490J10D01*
G01*
G75*
G02*
X3035390Y2669880I108140J0D01*
G01*
G75*
G02*
X3143530Y2561750I0J-108130D01*
G01*
G75*
G02*
Y2561740I-95490J0D01*
G01*
X3181250D01*
G75*
G02*
Y2561750I95490J10D01*
G01*
G75*
G02*
X3289390Y2669880I108140J0D01*
G01*
G75*
G02*
X3397530Y2561750I0J-108130D01*
G01*
G75*
G02*
Y2561740I-95490J0D01*
G01*
X3435250D01*
G75*
G02*
Y2561750I95490J10D01*
G01*
G75*
G02*
X3543390Y2669880I108140J0D01*
G01*
G75*
G02*
X3651530Y2561750I0J-108130D01*
G01*
G75*
G02*
Y2561740I-95490J0D01*
G01*
X3689250D01*
G75*
G02*
X3772960Y2667080I108160J-20D01*
G01*
X3757520Y2682520D01*
G75*
G02*
X3755340Y2684830I35830J35990D01*
G01*
G75*
G02*
X3562250Y2751740I-84950J66910D01*
G01*
X3524530D01*
G75*
G02*
Y2751730I-95490J0D01*
G01*
G75*
G02*
X3416390Y2643600I-108140J0D01*
G01*
G75*
G02*
X3308250Y2751730I0J108130D01*
G01*
G75*
G02*
Y2751740I95490J10D01*
G01*
X3270530D01*
G75*
G02*
Y2751730I-95490J0D01*
G01*
G75*
G02*
X3162390Y2643600I-108140J0D01*
G01*
G75*
G02*
X3054250Y2751730I0J108130D01*
G01*
G75*
G02*
Y2751740I95490J10D01*
G01*
X3016530D01*
G75*
G02*
Y2751730I-95490J0D01*
G01*
G75*
G02*
X2908390Y2643600I-108140J0D01*
G01*
G75*
G02*
X2800250Y2751730I0J108130D01*
G01*
G75*
G02*
Y2751740I95490J10D01*
G01*
X2762530D01*
G75*
G02*
Y2751730I-95490J0D01*
G01*
G75*
G02*
X2654390Y2643600I-108140J0D01*
G01*
G75*
G02*
X2546250Y2751730I0J108130D01*
G01*
G75*
G02*
Y2751740I95490J10D01*
G01*
X2508530D01*
G75*
G02*
X2420440Y2645480I-108150J10D01*
G01*
G37*
X5102960Y2687520D02*
G36*
X5102960Y2687520D02*
X5084030Y2668590D01*
G75*
G02*
X5175530Y2561740I-16640J-106850D01*
G01*
X5213250D01*
G75*
G02*
Y2561750I95490J10D01*
G01*
G75*
G02*
X5321390Y2669880I108140J0D01*
G01*
G75*
G02*
X5429530Y2561750I0J-108130D01*
G01*
G75*
G02*
Y2561740I-95490J0D01*
G01*
X5467250D01*
G75*
G02*
Y2561750I95490J10D01*
G01*
G75*
G02*
X5575390Y2669880I108140J0D01*
G01*
G75*
G02*
X5683530Y2561750I0J-108130D01*
G01*
G75*
G02*
Y2561740I-95490J0D01*
G01*
X5721250D01*
G75*
G02*
X5916100Y2626360I108140J0D01*
G01*
G75*
G02*
X5919230Y2629670I39650J-34360D01*
G01*
X5935250Y2645690D01*
G75*
G02*
X5848250Y2751740I21140J106050D01*
G01*
X5810530D01*
G75*
G02*
X5702390Y2643600I-108140J0D01*
G01*
G75*
G02*
X5594250Y2751740I0J108140D01*
G01*
X5556530D01*
G75*
G02*
Y2751730I-95490J0D01*
G01*
G75*
G02*
X5448390Y2643600I-108140J0D01*
G01*
G75*
G02*
X5340250Y2751730I0J108130D01*
G01*
G75*
G02*
Y2751740I95490J10D01*
G01*
X5302530D01*
G75*
G02*
Y2751730I-114590J0D01*
G01*
G75*
G02*
X5105470Y2690200I-108140J0D01*
G01*
G75*
G02*
X5102960Y2687520I-39780J34740D01*
G01*
G37*
X646360Y2910000D02*
G36*
X646360Y2910000D02*
Y2751740D01*
X1297700D01*
X1455960Y2910000D01*
X646360D01*
G37*
X1667260Y2893220D02*
G36*
X1667260Y2893220D02*
X1525780Y2751740D01*
X1784250D01*
G75*
G02*
Y2751750I95490J10D01*
G01*
G75*
G02*
X1892390Y2859880I108140J0D01*
G01*
G75*
G02*
X2000530Y2751750I0J-108130D01*
G01*
G75*
G02*
Y2751740I-95490J0D01*
G01*
X2038250D01*
G75*
G02*
X2206940Y2841340I108140J0D01*
G01*
Y2843070D01*
G75*
G02*
X2206900Y2845230I58320J2160D01*
G01*
G75*
G02*
Y2845240I63660J10D01*
G01*
G75*
G02*
X2222520Y2882960I53380J-10D01*
G01*
X2249560Y2910000D01*
X1680130D01*
G75*
G02*
X1667260Y2893220I-69770J40190D01*
G01*
G37*
X2313540Y2823100D02*
G36*
X2313540Y2823100D02*
Y2816170D01*
G75*
G02*
X2508530Y2751740I86850J-64430D01*
G01*
X2546250D01*
G75*
G02*
Y2751750I95490J10D01*
G01*
G75*
G02*
X2654390Y2859880I108140J0D01*
G01*
G75*
G02*
X2762530Y2751750I0J-108130D01*
G01*
G75*
G02*
Y2751740I-95490J0D01*
G01*
X2800250D01*
G75*
G02*
Y2751750I95490J10D01*
G01*
G75*
G02*
X2908390Y2859880I108140J0D01*
G01*
G75*
G02*
X3016530Y2751750I0J-108130D01*
G01*
G75*
G02*
Y2751740I-95490J0D01*
G01*
X3054250D01*
G75*
G02*
Y2751750I95490J10D01*
G01*
G75*
G02*
X3162390Y2859880I108140J0D01*
G01*
G75*
G02*
X3270530Y2751750I0J-108130D01*
G01*
G75*
G02*
Y2751740I-95490J0D01*
G01*
X3308250D01*
G75*
G02*
Y2751750I95490J10D01*
G01*
G75*
G02*
X3416390Y2859880I108140J0D01*
G01*
G75*
G02*
X3524530Y2751750I0J-108130D01*
G01*
G75*
G02*
Y2751740I-95490J0D01*
G01*
X3562250D01*
G75*
G02*
X3741940Y2832830I108140J0D01*
G01*
Y2858070D01*
G75*
G02*
X3741900Y2860230I58320J2160D01*
G01*
G75*
G02*
Y2860240I63660J10D01*
G01*
G75*
G02*
X3757520Y2897960I53380J-10D01*
G01*
X3769560Y2910000D01*
X2571240D01*
G75*
G02*
X2483540I-43850J80240D01*
G01*
X2400440D01*
X2313540Y2823100D01*
G37*
X5040920Y2910000D02*
G36*
X5040920Y2910000D02*
X5102960Y2847960D01*
G75*
G02*
X5116100Y2826340I-37730J-37730D01*
G01*
G75*
G02*
X5302530Y2751740I78290J-74600D01*
G01*
X5340250D01*
G75*
G02*
Y2751750I95490J10D01*
G01*
G75*
G02*
X5448390Y2859880I108140J0D01*
G01*
G75*
G02*
X5556530Y2751750I0J-108130D01*
G01*
G75*
G02*
Y2751740I-95490J0D01*
G01*
X5594250D01*
G75*
G02*
X5619640Y2821360I108140J0D01*
G01*
Y2910000D01*
X5040920D01*
G37*
X5780840D02*
G36*
X5780840Y2910000D02*
Y2826170D01*
G75*
G02*
X5810530Y2751740I-78450J-74430D01*
G01*
X5848250D01*
G75*
G02*
X5956390Y2859880I108140J0D01*
G01*
G75*
G02*
X6046940Y2810860I0J-108150D01*
G01*
Y2890940D01*
G75*
G02*
X6027370Y2910000I53360J74360D01*
G01*
X5780840D01*
G37*
X631120Y8595240D02*
Y1306120D01*
X2730240D01*
Y1365940D01*
G75*
G02*
X2262100Y1620240I-165000J254300D01*
G01*
G75*
G02*
X2730240Y1874540I303130J10D01*
G01*
Y2086460D01*
G75*
G02*
Y2277020I51150J95280D01*
G01*
Y2294660D01*
G75*
G02*
X2583540Y2290040I-75850J77080D01*
G01*
Y2274160D01*
G75*
G02*
X2527390Y2073600I-56150J-92420D01*
G01*
G75*
G02*
X2476940Y2277390I0J108140D01*
G01*
Y2295360D01*
G75*
G02*
X2292250Y2371740I-76550J76380D01*
G01*
G75*
G02*
X2377590Y2477450I108140J0D01*
G01*
X2362520Y2492520D01*
G75*
G02*
X2359290Y2496050I37720J37750D01*
G01*
G75*
G02*
X2165250Y2561740I-85900J65690D01*
G01*
G75*
G02*
X2248150Y2666890I108140J0D01*
G01*
X2230840Y2684200D01*
G75*
G02*
X2038250Y2751740I-84450J67540D01*
G01*
G75*
G02*
X2206940Y2841340I108140J0D01*
G01*
Y2843070D01*
G75*
G02*
X2206900Y2845240I53310J2070D01*
G01*
G75*
G02*
X2222520Y2882960I53340J0D01*
G01*
X2367520Y3027960D01*
G75*
G02*
X2407410Y3043540I37720J-37720D01*
G01*
X2453090D01*
G75*
G02*
X2618830Y2990240I74300J-53300D01*
G01*
G75*
G02*
X2453090Y2936940I-91440J0D01*
G01*
X2427380D01*
X2313540Y2823100D01*
Y2816170D01*
G75*
G02*
X2508530Y2751740I86850J-64430D01*
G01*
G75*
G02*
X2420440Y2645480I-108140J10D01*
G01*
X2437960Y2627960D01*
G75*
G02*
X2440150Y2625640I-37680J-37760D01*
G01*
G75*
G02*
X2635530Y2561740I87240J-63900D01*
G01*
G75*
G02*
X2549940Y2455980I-108140J0D01*
G01*
X2567960Y2437960D01*
G75*
G02*
X2568490Y2437430I-37460J-37990D01*
G01*
G75*
G02*
X2730240Y2448820I85900J-65690D01*
G01*
Y2466460D01*
G75*
G02*
Y2657020I51150J95280D01*
G01*
Y2674660D01*
G75*
G02*
X2546250Y2751740I-75850J77080D01*
G01*
G75*
G02*
X2730240Y2828820I108140J0D01*
G01*
Y4531940D01*
X2682410D01*
G75*
G02*
X2642520Y4547520I-2170J53300D01*
G01*
X2512520Y4677520D01*
G75*
G02*
X2496900Y4715240I37720J37720D01*
G01*
G75*
G02*
X2496940Y4717410I53350J100D01*
G01*
Y4789120D01*
G75*
G02*
X2435840Y4712980I-141700J51120D01*
G01*
Y4377730D01*
G75*
G02*
X2435880Y4375240I-80620J-2540D01*
G01*
G75*
G02*
X2412260Y4318220I-80640J0D01*
G01*
X1757230Y3663190D01*
G75*
G02*
X1760880Y3630240I-146990J-32960D01*
G01*
G75*
G02*
X1459600I-150640J0D01*
G01*
G75*
G02*
X1643190Y3777230I150640J0D01*
G01*
X2274640Y4408680D01*
Y4712980D01*
G75*
G02*
Y4967500I80600J127260D01*
G01*
Y5317750D01*
G75*
G02*
X2274600Y5320240I80580J2540D01*
G01*
G75*
G02*
X2298220Y5377260I80640J0D01*
G01*
X2433220Y5512260D01*
G75*
G02*
X2492730Y5535840I57020J-57020D01*
G01*
X2525600D01*
X2463190Y5598250D01*
G75*
G02*
X2279600Y5745240I-32950J146990D01*
G01*
G75*
G02*
X2580880I150640J0D01*
G01*
G75*
G02*
X2577230Y5712290I-150640J10D01*
G01*
X2618680Y5670840D01*
X2730240D01*
Y8595240D01*
X631120D01*
X772240Y4467080D02*
G75*
G02*
X889080Y4350240I0J-116840D01*
G01*
G75*
G02*
X772240Y4233400I-116840J0D01*
G01*
G75*
G02*
X655400Y4350240I0J116840D01*
G01*
G75*
G02*
X772240Y4467080I116840J0D01*
G01*
X915240Y1952080D02*
G75*
G02*
X1032080Y1835240I0J-116840D01*
G01*
G75*
G02*
X915240Y1718400I-116840J0D01*
G01*
G75*
G02*
X798400Y1835240I0J116840D01*
G01*
G75*
G02*
X915240Y1952080I116840J0D01*
G01*
X926240Y3847080D02*
G75*
G02*
X1043080Y3730240I0J-116840D01*
G01*
G75*
G02*
X926240Y3613400I-116840J0D01*
G01*
G75*
G02*
X809400Y3730240I0J116840D01*
G01*
G75*
G02*
X926240Y3847080I116840J0D01*
G01*
X772240Y4732080D02*
G75*
G02*
X889080Y4615240I0J-116840D01*
G01*
G75*
G02*
X772240Y4498400I-116840J0D01*
G01*
G75*
G02*
X655400Y4615240I0J116840D01*
G01*
G75*
G02*
X772240Y4732080I116840J0D01*
G01*
Y4997080D02*
G75*
G02*
X889080Y4880240I0J-116840D01*
G01*
G75*
G02*
X772240Y4763400I-116840J0D01*
G01*
G75*
G02*
X655400Y4880240I0J116840D01*
G01*
G75*
G02*
X772240Y4997080I116840J0D01*
G01*
Y5262080D02*
G75*
G02*
X889080Y5145240I0J-116840D01*
G01*
G75*
G02*
X772240Y5028400I-116840J0D01*
G01*
G75*
G02*
X655400Y5145240I0J116840D01*
G01*
G75*
G02*
X772240Y5262080I116840J0D01*
G01*
Y5622080D02*
G75*
G02*
X889080Y5505240I0J-116840D01*
G01*
G75*
G02*
X772240Y5388400I-116840J0D01*
G01*
G75*
G02*
X655400Y5505240I0J116840D01*
G01*
G75*
G02*
X772240Y5622080I116840J0D01*
G01*
Y5887080D02*
G75*
G02*
X889080Y5770240I0J-116840D01*
G01*
G75*
G02*
X772240Y5653400I-116840J0D01*
G01*
G75*
G02*
X655400Y5770240I0J116840D01*
G01*
G75*
G02*
X772240Y5887080I116840J0D01*
G01*
Y6152080D02*
G75*
G02*
X889080Y6035240I0J-116840D01*
G01*
G75*
G02*
X772240Y5918400I-116840J0D01*
G01*
G75*
G02*
X655400Y6035240I0J116840D01*
G01*
G75*
G02*
X772240Y6152080I116840J0D01*
G01*
X915240Y7402080D02*
G75*
G02*
X1032080Y7285240I0J-116840D01*
G01*
G75*
G02*
X915240Y7168400I-116840J0D01*
G01*
G75*
G02*
X798400Y7285240I0J116840D01*
G01*
G75*
G02*
X915240Y7402080I116840J0D01*
G01*
X1026240Y4467080D02*
G75*
G02*
X1143080Y4350240I0J-116840D01*
G01*
G75*
G02*
X1026240Y4233400I-116840J0D01*
G01*
G75*
G02*
X909400Y4350240I0J116840D01*
G01*
G75*
G02*
X1026240Y4467080I116840J0D01*
G01*
X1084640Y1915830D02*
Y2502750D01*
G75*
G02*
X1084600Y2505240I80580J2540D01*
G01*
G75*
G02*
X1108220Y2562260I80640J0D01*
G01*
X1529640Y2983680D01*
Y3057980D01*
G75*
G02*
X1459600Y3185240I80600J127260D01*
G01*
G75*
G02*
X1760880I150640J0D01*
G01*
G75*
G02*
X1690840Y3057980I-150640J0D01*
G01*
Y2952730D01*
G75*
G02*
X1690880Y2950240I-80620J-2540D01*
G01*
G75*
G02*
X1667260Y2893220I-80640J0D01*
G01*
X1245840Y2471800D01*
Y1923470D01*
G75*
G02*
X1169240Y1718400I-76600J-88230D01*
G01*
G75*
G02*
X1084640Y1915830I0J116840D01*
G01*
X1825240Y1952080D02*
G75*
G02*
X1942080Y1835240I0J-116840D01*
G01*
G75*
G02*
X1825240Y1718400I-116840J0D01*
G01*
G75*
G02*
X1708400Y1835240I0J116840D01*
G01*
G75*
G02*
X1825240Y1952080I116840J0D01*
G01*
X1369600Y2150240D02*
G75*
G02*
X1670880I150640J0D01*
G01*
G75*
G02*
X1369600I-150640J0D01*
G01*
X1180240Y3847080D02*
G75*
G02*
X1297080Y3730240I0J-116840D01*
G01*
G75*
G02*
X1180240Y3613400I-116840J0D01*
G01*
G75*
G02*
X1063400Y3730240I0J116840D01*
G01*
G75*
G02*
X1180240Y3847080I116840J0D01*
G01*
X1026240Y4732080D02*
G75*
G02*
X1143080Y4615240I0J-116840D01*
G01*
G75*
G02*
X1026240Y4498400I-116840J0D01*
G01*
G75*
G02*
X909400Y4615240I0J116840D01*
G01*
G75*
G02*
X1026240Y4732080I116840J0D01*
G01*
Y4997080D02*
G75*
G02*
X1143080Y4880240I0J-116840D01*
G01*
G75*
G02*
X1026240Y4763400I-116840J0D01*
G01*
G75*
G02*
X909400Y4880240I0J116840D01*
G01*
G75*
G02*
X1026240Y4997080I116840J0D01*
G01*
Y5262080D02*
G75*
G02*
X1029010Y5262050I120J-116880D01*
G01*
X1154220Y5387260D01*
G75*
G02*
X1211340Y5410880I57020J-57020D01*
G01*
G75*
G02*
X1280240Y5622080I68900J94360D01*
G01*
G75*
G02*
X1349090Y5410840I0J-116840D01*
G01*
X1802980D01*
G75*
G02*
X2080880Y5330240I127260J-80600D01*
G01*
G75*
G02*
X1802980Y5249640I-150640J0D01*
G01*
X1332700D01*
G75*
G02*
X1280240Y5028400I-52460J-104400D01*
G01*
G75*
G02*
X1166340Y5171300I0J116840D01*
G01*
X1143050Y5148010D01*
G75*
G02*
X1143080Y5145240I-116940J-2650D01*
G01*
G75*
G02*
X1026240Y5028400I-116840J0D01*
G01*
G75*
G02*
X909400Y5145240I0J116840D01*
G01*
G75*
G02*
X1026240Y5262080I116840J0D01*
G01*
X1280240Y4467080D02*
G75*
G02*
X1397080Y4350240I0J-116840D01*
G01*
G75*
G02*
X1280240Y4233400I-116840J0D01*
G01*
G75*
G02*
X1163400Y4350240I0J116840D01*
G01*
G75*
G02*
X1280240Y4467080I116840J0D01*
G01*
Y4732080D02*
G75*
G02*
X1397080Y4615240I0J-116840D01*
G01*
G75*
G02*
X1280240Y4498400I-116840J0D01*
G01*
G75*
G02*
X1163400Y4615240I0J116840D01*
G01*
G75*
G02*
X1280240Y4732080I116840J0D01*
G01*
Y4997080D02*
G75*
G02*
X1397080Y4880240I0J-116840D01*
G01*
G75*
G02*
X1280240Y4763400I-116840J0D01*
G01*
G75*
G02*
X1163400Y4880240I0J116840D01*
G01*
G75*
G02*
X1280240Y4997080I116840J0D01*
G01*
X1026240Y5622080D02*
G75*
G02*
X1143080Y5505240I0J-116840D01*
G01*
G75*
G02*
X1026240Y5388400I-116840J0D01*
G01*
G75*
G02*
X909400Y5505240I0J116840D01*
G01*
G75*
G02*
X1026240Y5622080I116840J0D01*
G01*
Y5887080D02*
G75*
G02*
X1143080Y5770240I0J-116840D01*
G01*
G75*
G02*
X1026240Y5653400I-116840J0D01*
G01*
G75*
G02*
X909400Y5770240I0J116840D01*
G01*
G75*
G02*
X1026240Y5887080I116840J0D01*
G01*
Y6152080D02*
G75*
G02*
X1143080Y6035240I0J-116840D01*
G01*
G75*
G02*
X1026240Y5918400I-116840J0D01*
G01*
G75*
G02*
X909400Y6035240I0J116840D01*
G01*
G75*
G02*
X1026240Y6152080I116840J0D01*
G01*
X1165240Y8548380D02*
G75*
G02*
X1468380Y8245240I0J-303140D01*
G01*
G75*
G02*
X1165240Y7942100I-303140J0D01*
G01*
G75*
G02*
X862100Y8245240I0J303140D01*
G01*
G75*
G02*
X1165240Y8548380I303140J0D01*
G01*
X1169240Y7402080D02*
G75*
G02*
X1286080Y7285240I0J-116840D01*
G01*
G75*
G02*
X1169240Y7168400I-116840J0D01*
G01*
G75*
G02*
X1052400Y7285240I0J116840D01*
G01*
G75*
G02*
X1169240Y7402080I116840J0D01*
G01*
X1280240Y5887080D02*
G75*
G02*
X1397080Y5770240I0J-116840D01*
G01*
G75*
G02*
X1280240Y5653400I-116840J0D01*
G01*
G75*
G02*
X1163400Y5770240I0J116840D01*
G01*
G75*
G02*
X1280240Y5887080I116840J0D01*
G01*
Y6152080D02*
G75*
G02*
X1397080Y6035240I0J-116840D01*
G01*
G75*
G02*
X1280240Y5918400I-116840J0D01*
G01*
G75*
G02*
X1163400Y6035240I0J116840D01*
G01*
G75*
G02*
X1280240Y6152080I116840J0D01*
G01*
X1514600Y5890240D02*
G75*
G02*
X1584640Y6017500I150640J0D01*
G01*
Y6922750D01*
G75*
G02*
X1584600Y6925240I80580J2540D01*
G01*
G75*
G02*
X1608220Y6982260I80640J0D01*
G01*
X1744640Y7118680D01*
Y7200650D01*
G75*
G02*
X1825240Y7402080I80600J84590D01*
G01*
G75*
G02*
X1905840Y7200650I0J-116840D01*
G01*
Y7087730D01*
G75*
G02*
X1905880Y7085240I-80620J-2540D01*
G01*
G75*
G02*
X1882260Y7028220I-80640J0D01*
G01*
X1745840Y6891800D01*
Y6017500D01*
G75*
G02*
X1815880Y5890240I-80600J-127260D01*
G01*
G75*
G02*
X1514600I-150640J0D01*
G01*
X2079240Y7402080D02*
G75*
G02*
X2196080Y7285240I0J-116840D01*
G01*
G75*
G02*
X2079240Y7168400I-116840J0D01*
G01*
G75*
G02*
X1962400Y7285240I0J116840D01*
G01*
G75*
G02*
X2079240Y7402080I116840J0D01*
G01*
X2259600Y6485240D02*
G75*
G02*
X2560880I150640J0D01*
G01*
G75*
G02*
X2259600I-150640J0D01*
G01*
X1892390Y2479880D02*
G75*
G02*
X2000530Y2371740I0J-108140D01*
G01*
G75*
G02*
X1892390Y2263600I-108140J0D01*
G01*
G75*
G02*
X1784250Y2371740I0J108140D01*
G01*
G75*
G02*
X1892390Y2479880I108140J0D01*
G01*
X2019390Y2289880D02*
G75*
G02*
X2127530Y2181740I0J-108140D01*
G01*
G75*
G02*
X2019390Y2073600I-108140J0D01*
G01*
G75*
G02*
X1911250Y2181740I0J108140D01*
G01*
G75*
G02*
X2019390Y2289880I108140J0D01*
G01*
X2079240Y1952080D02*
G75*
G02*
X2196080Y1835240I0J-116840D01*
G01*
G75*
G02*
X2079240Y1718400I-116840J0D01*
G01*
G75*
G02*
X1962400Y1835240I0J116840D01*
G01*
G75*
G02*
X2079240Y1952080I116840J0D01*
G01*
X1892390Y2859880D02*
G75*
G02*
X2000530Y2751740I0J-108140D01*
G01*
G75*
G02*
X1892390Y2643600I-108140J0D01*
G01*
G75*
G02*
X1784250Y2751740I0J108140D01*
G01*
G75*
G02*
X1892390Y2859880I108140J0D01*
G01*
X2019390Y2669880D02*
G75*
G02*
X2127530Y2561740I0J-108140D01*
G01*
G75*
G02*
X2019390Y2453600I-108140J0D01*
G01*
G75*
G02*
X1911250Y2561740I0J108140D01*
G01*
G75*
G02*
X2019390Y2669880I108140J0D01*
G01*
X2146390Y2479880D02*
G75*
G02*
X2254530Y2371740I0J-108140D01*
G01*
G75*
G02*
X2146390Y2263600I-108140J0D01*
G01*
G75*
G02*
X2038250Y2371740I0J108140D01*
G01*
G75*
G02*
X2146390Y2479880I108140J0D01*
G01*
X2273390Y2289880D02*
G75*
G02*
X2381530Y2181740I0J-108140D01*
G01*
G75*
G02*
X2273390Y2073600I-108140J0D01*
G01*
G75*
G02*
X2165250Y2181740I0J108140D01*
G01*
G75*
G02*
X2273390Y2289880I108140J0D01*
G01*
X646360Y1835240D02*
G36*
X646360Y1835240D02*
Y1321360D01*
X2514580D01*
G75*
G02*
X2262100Y1620230I50660J298880D01*
G01*
G75*
G02*
Y1620240I572960J10D01*
G01*
G75*
G02*
Y1620250I572960J10D01*
G01*
G75*
G02*
X2351530Y1835240I303130J0D01*
G01*
X2196080D01*
G75*
G02*
Y1835230I-286480J0D01*
G01*
G75*
G02*
X2079240Y1718400I-116840J0D01*
G01*
G75*
G02*
X1962400Y1835230I0J116830D01*
G01*
G75*
G02*
Y1835240I286480J10D01*
G01*
X1942080D01*
G75*
G02*
Y1835230I-286480J0D01*
G01*
G75*
G02*
X1825240Y1718400I-116840J0D01*
G01*
G75*
G02*
X1708400Y1835230I0J116830D01*
G01*
G75*
G02*
Y1835240I286480J10D01*
G01*
X1286080D01*
G75*
G02*
X1169240Y1718400I-116840J0D01*
G01*
G75*
G02*
X1052400Y1835240I0J116840D01*
G01*
X1032080D01*
G75*
G02*
Y1835230I-286480J0D01*
G01*
G75*
G02*
X915240Y1718400I-116840J0D01*
G01*
G75*
G02*
X798400Y1835230I0J116830D01*
G01*
G75*
G02*
Y1835240I286480J10D01*
G01*
X646360D01*
G37*
X2615890Y1321360D02*
G36*
X2615890Y1321360D02*
X2715000D01*
Y1356680D01*
G75*
G02*
X2615890Y1321360I-149780J263580D01*
G01*
G37*
X646360Y2150240D02*
G36*
X646360Y2150240D02*
Y1835240D01*
X798400D01*
G75*
G02*
Y1835250I286480J10D01*
G01*
G75*
G02*
X915240Y1952080I116840J0D01*
G01*
G75*
G02*
X1032080Y1835250I0J-116830D01*
G01*
G75*
G02*
Y1835240I-286480J0D01*
G01*
X1052400D01*
G75*
G02*
X1084640Y1915830I116840J0D01*
G01*
Y2150240D01*
X646360D01*
G37*
X1245840D02*
G36*
X1245840Y2150240D02*
Y1923470D01*
G75*
G02*
X1286080Y1835240I-76610J-88230D01*
G01*
X1708400D01*
G75*
G02*
Y1835250I286480J10D01*
G01*
G75*
G02*
X1825240Y1952080I116840J0D01*
G01*
G75*
G02*
X1942080Y1835250I0J-116830D01*
G01*
G75*
G02*
Y1835240I-286480J0D01*
G01*
X1962400D01*
G75*
G02*
Y1835250I286480J10D01*
G01*
G75*
G02*
X2079240Y1952080I116840J0D01*
G01*
G75*
G02*
X2196080Y1835250I0J-116830D01*
G01*
G75*
G02*
Y1835240I-286480J0D01*
G01*
X2351530D01*
G75*
G02*
X2715000Y1883800I213700J-215000D01*
G01*
Y2096380D01*
G75*
G02*
X2677940Y2150240I66390J85360D01*
G01*
X2630840D01*
G75*
G02*
X2527390Y2073600I-103450J31500D01*
G01*
G75*
G02*
X2423940Y2150240I0J108140D01*
G01*
X2376840D01*
G75*
G02*
X2273390Y2073600I-103440J31490D01*
G01*
G75*
G02*
X2169940Y2150240I-10J108130D01*
G01*
X2122840D01*
G75*
G02*
X2019390Y2073600I-103440J31490D01*
G01*
G75*
G02*
X1915940Y2150240I-10J108130D01*
G01*
X1670880D01*
G75*
G02*
X1369600I-150640J0D01*
G01*
X1245840D01*
G37*
X646360Y2371740D02*
G36*
X646360Y2371740D02*
Y2150240D01*
X1084640D01*
Y2371740D01*
X646360D01*
G37*
X1245840D02*
G36*
X1245840Y2371740D02*
Y2150240D01*
X1369600D01*
G75*
G02*
X1670880I150640J0D01*
G01*
X1915940D01*
G75*
G02*
X1911250Y2181730I103450J31500D01*
G01*
G75*
G02*
Y2181740I95490J10D01*
G01*
G75*
G02*
Y2181750I95490J10D01*
G01*
G75*
G02*
X2019390Y2289880I108140J0D01*
G01*
G75*
G02*
X2127530Y2181750I0J-108130D01*
G01*
G75*
G02*
Y2181740I-95490J0D01*
G01*
G75*
G02*
Y2181730I-95490J0D01*
G01*
G75*
G02*
X2122840Y2150240I-108140J10D01*
G01*
X2169940D01*
G75*
G02*
X2165250Y2181730I103450J31500D01*
G01*
G75*
G02*
Y2181740I95490J10D01*
G01*
G75*
G02*
Y2181750I95490J10D01*
G01*
G75*
G02*
X2273390Y2289880I108140J0D01*
G01*
G75*
G02*
X2381530Y2181750I0J-108130D01*
G01*
G75*
G02*
Y2181740I-95490J0D01*
G01*
G75*
G02*
Y2181730I-95490J0D01*
G01*
G75*
G02*
X2376840Y2150240I-108140J10D01*
G01*
X2423940D01*
G75*
G02*
X2419250Y2181740I103450J31500D01*
G01*
G75*
G02*
X2476940Y2277390I108140J0D01*
G01*
Y2295360D01*
G75*
G02*
X2292250Y2371740I-76550J76380D01*
G01*
X2254530D01*
G75*
G02*
Y2371730I-95490J0D01*
G01*
G75*
G02*
X2146390Y2263600I-108140J0D01*
G01*
G75*
G02*
X2038250Y2371730I0J108130D01*
G01*
G75*
G02*
Y2371740I95490J10D01*
G01*
X2000530D01*
G75*
G02*
Y2371730I-95490J0D01*
G01*
G75*
G02*
X1892390Y2263600I-108140J0D01*
G01*
G75*
G02*
X1784250Y2371730I0J108130D01*
G01*
G75*
G02*
Y2371740I95490J10D01*
G01*
X1245840D01*
G37*
X2583540Y2290040D02*
G36*
X2583540Y2290040D02*
Y2274160D01*
G75*
G02*
X2635530Y2181740I-56150J-92420D01*
G01*
G75*
G02*
X2630840Y2150240I-108150J0D01*
G01*
X2677940D01*
G75*
G02*
X2673250Y2181740I103460J31500D01*
G01*
G75*
G02*
X2715000Y2267100I108140J0D01*
G01*
Y2282180D01*
G75*
G02*
X2583540Y2290040I-60610J89550D01*
G01*
G37*
X646360Y2561740D02*
G36*
X646360Y2561740D02*
Y2371740D01*
X1084640D01*
Y2502750D01*
G75*
G02*
X1084600Y2505230I76910J2480D01*
G01*
G75*
G02*
Y2505240I81850J10D01*
G01*
G75*
G02*
X1107700Y2561740I80650J0D01*
G01*
X646360D01*
G37*
X1245840Y2471800D02*
G36*
X1245840Y2471800D02*
Y2371740D01*
X1784250D01*
G75*
G02*
Y2371750I95490J10D01*
G01*
G75*
G02*
X1892390Y2479880I108140J0D01*
G01*
G75*
G02*
X2000530Y2371750I0J-108130D01*
G01*
G75*
G02*
Y2371740I-95490J0D01*
G01*
X2038250D01*
G75*
G02*
Y2371750I95490J10D01*
G01*
G75*
G02*
X2146390Y2479880I108140J0D01*
G01*
G75*
G02*
X2254530Y2371750I0J-108130D01*
G01*
G75*
G02*
Y2371740I-95490J0D01*
G01*
X2292250D01*
G75*
G02*
X2377590Y2477450I108150J0D01*
G01*
X2362520Y2492520D01*
G75*
G02*
X2359290Y2496050I41070J40820D01*
G01*
G75*
G02*
X2165250Y2561740I-85900J65690D01*
G01*
X2127530D01*
G75*
G02*
Y2561730I-95490J0D01*
G01*
G75*
G02*
X2019390Y2453600I-108140J0D01*
G01*
G75*
G02*
X1911250Y2561730I0J108130D01*
G01*
G75*
G02*
Y2561740I95490J10D01*
G01*
X1335780D01*
X1245840Y2471800D01*
G37*
X2549940Y2455980D02*
G36*
X2549940Y2455980D02*
X2567960Y2437960D01*
G75*
G02*
X2568490Y2437430I-6760J-7290D01*
G01*
G75*
G02*
X2715000Y2461300I85900J-65700D01*
G01*
Y2476380D01*
G75*
G02*
X2673250Y2561740I66390J85360D01*
G01*
X2635530D01*
G75*
G02*
X2549940Y2455980I-108140J0D01*
G01*
G37*
X646360Y2751740D02*
G36*
X646360Y2751740D02*
Y2561740D01*
X1107700D01*
G75*
G02*
X1108220Y2562260I57560J-57040D01*
G01*
X1297700Y2751740D01*
X646360D01*
G37*
X1525780D02*
G36*
X1525780Y2751740D02*
X1335780Y2561740D01*
X1911250D01*
G75*
G02*
Y2561750I95490J10D01*
G01*
G75*
G02*
X2019390Y2669880I108140J0D01*
G01*
G75*
G02*
X2127530Y2561750I0J-108130D01*
G01*
G75*
G02*
Y2561740I-95490J0D01*
G01*
X2165250D01*
G75*
G02*
X2248150Y2666890I108140J-10D01*
G01*
X2230840Y2684200D01*
G75*
G02*
X2038250Y2751730I-84460J67530D01*
G01*
G75*
G02*
Y2751740I143240J10D01*
G01*
X2000530D01*
G75*
G02*
Y2751730I-95490J0D01*
G01*
G75*
G02*
X1892390Y2643600I-108140J0D01*
G01*
G75*
G02*
X1784250Y2751730I0J108130D01*
G01*
G75*
G02*
Y2751740I95490J10D01*
G01*
X1525780D01*
G37*
X2420440Y2645480D02*
G36*
X2420440Y2645480D02*
X2437960Y2627960D01*
G75*
G02*
X2440150Y2625640I-36450J-36600D01*
G01*
G75*
G02*
X2635530Y2561740I87240J-63900D01*
G01*
X2673250D01*
G75*
G02*
X2715000Y2647100I108140J0D01*
G01*
Y2662180D01*
G75*
G02*
X2546250Y2751740I-60610J89560D01*
G01*
X2508530D01*
G75*
G02*
X2420440Y2645480I-108150J10D01*
G01*
G37*
X646360Y3730240D02*
G36*
X646360Y3730240D02*
Y2751740D01*
X1297700D01*
X1529640Y2983680D01*
Y3057980D01*
G75*
G02*
X1459600Y3185240I80620J127270D01*
G01*
G75*
G02*
X1760880I150640J0D01*
G01*
G75*
G02*
X1690840Y3057980I-150660J10D01*
G01*
Y2952730D01*
G75*
G02*
X1690880Y2950250I-76910J-2480D01*
G01*
G75*
G02*
Y2950240I-81850J0D01*
G01*
G75*
G02*
X1667260Y2893220I-80650J10D01*
G01*
X1525780Y2751740D01*
X1784250D01*
G75*
G02*
Y2751750I95490J10D01*
G01*
G75*
G02*
X1892390Y2859880I108140J0D01*
G01*
G75*
G02*
X2000530Y2751750I0J-108130D01*
G01*
G75*
G02*
Y2751740I-95490J0D01*
G01*
X2038250D01*
G75*
G02*
X2206940Y2841340I108140J0D01*
G01*
Y2843070D01*
G75*
G02*
X2206900Y2845230I58320J2160D01*
G01*
G75*
G02*
Y2845240I63660J10D01*
G01*
G75*
G02*
X2222520Y2882960I53380J-10D01*
G01*
X2367520Y3027960D01*
G75*
G02*
X2407410Y3043540I37710J-37690D01*
G01*
X2453090D01*
G75*
G02*
X2618830Y2990240I74300J-53300D01*
G01*
G75*
G02*
X2453090Y2936940I-91440J0D01*
G01*
X2427380D01*
X2313540Y2823100D01*
Y2816170D01*
G75*
G02*
X2508530Y2751740I86850J-64430D01*
G01*
X2546250D01*
G75*
G02*
X2715000Y2841300I108140J0D01*
G01*
Y3730240D01*
X1824280D01*
X1757230Y3663190D01*
G75*
G02*
X1760880Y3630240I-147610J-33030D01*
G01*
G75*
G02*
X1459600I-150640J0D01*
G01*
G75*
G02*
X1497580Y3730240I150640J0D01*
G01*
X1297080D01*
G75*
G02*
Y3730230I-286480J0D01*
G01*
G75*
G02*
X1180240Y3613400I-116840J0D01*
G01*
G75*
G02*
X1063400Y3730230I0J116830D01*
G01*
G75*
G02*
Y3730240I286480J10D01*
G01*
X1043080D01*
G75*
G02*
Y3730230I-286480J0D01*
G01*
G75*
G02*
X926240Y3613400I-116840J0D01*
G01*
G75*
G02*
X809400Y3730230I0J116830D01*
G01*
G75*
G02*
Y3730240I286480J10D01*
G01*
X646360D01*
G37*
Y4350240D02*
G36*
X646360Y4350240D02*
Y3730240D01*
X809400D01*
G75*
G02*
Y3730250I286480J10D01*
G01*
G75*
G02*
X926240Y3847080I116840J0D01*
G01*
G75*
G02*
X1043080Y3730250I0J-116830D01*
G01*
G75*
G02*
Y3730240I-286480J0D01*
G01*
X1063400D01*
G75*
G02*
Y3730250I286480J10D01*
G01*
G75*
G02*
X1180240Y3847080I116840J0D01*
G01*
G75*
G02*
X1297080Y3730250I0J-116830D01*
G01*
G75*
G02*
Y3730240I-286480J0D01*
G01*
X1497580D01*
G75*
G02*
X1643190Y3777230I112660J-100010D01*
G01*
X2216200Y4350240D01*
X1397080D01*
G75*
G02*
Y4350230I-286480J0D01*
G01*
G75*
G02*
X1280240Y4233400I-116840J0D01*
G01*
G75*
G02*
X1163400Y4350230I0J116830D01*
G01*
G75*
G02*
Y4350240I286480J10D01*
G01*
X1143080D01*
G75*
G02*
Y4350230I-286480J0D01*
G01*
G75*
G02*
X1026240Y4233400I-116840J0D01*
G01*
G75*
G02*
X909400Y4350230I0J116830D01*
G01*
G75*
G02*
Y4350240I286480J10D01*
G01*
X889080D01*
G75*
G02*
Y4350230I-286480J0D01*
G01*
G75*
G02*
X772240Y4233400I-116840J0D01*
G01*
G75*
G02*
X655400Y4350230I0J116830D01*
G01*
G75*
G02*
Y4350240I286480J10D01*
G01*
X646360D01*
G37*
X2412260Y4318220D02*
G36*
X2412260Y4318220D02*
X1824280Y3730240D01*
X2715000D01*
Y4350240D01*
X2431910D01*
G75*
G02*
X2412260Y4318220I-76680J25010D01*
G01*
G37*
X646360Y4615240D02*
G36*
X646360Y4615240D02*
Y4350240D01*
X655400D01*
G75*
G02*
Y4350250I286480J10D01*
G01*
G75*
G02*
X772240Y4467080I116840J0D01*
G01*
G75*
G02*
X889080Y4350250I0J-116830D01*
G01*
G75*
G02*
Y4350240I-286480J0D01*
G01*
X909400D01*
G75*
G02*
Y4350250I286480J10D01*
G01*
G75*
G02*
X1026240Y4467080I116840J0D01*
G01*
G75*
G02*
X1143080Y4350250I0J-116830D01*
G01*
G75*
G02*
Y4350240I-286480J0D01*
G01*
X1163400D01*
G75*
G02*
Y4350250I286480J10D01*
G01*
G75*
G02*
X1280240Y4467080I116840J0D01*
G01*
G75*
G02*
X1397080Y4350250I0J-116830D01*
G01*
G75*
G02*
Y4350240I-286480J0D01*
G01*
X2216200D01*
X2274640Y4408680D01*
Y4615240D01*
X1397080D01*
G75*
G02*
Y4615230I-286480J0D01*
G01*
G75*
G02*
X1280240Y4498400I-116840J0D01*
G01*
G75*
G02*
X1163400Y4615230I0J116830D01*
G01*
G75*
G02*
Y4615240I286480J10D01*
G01*
X1143080D01*
G75*
G02*
Y4615230I-286480J0D01*
G01*
G75*
G02*
X1026240Y4498400I-116840J0D01*
G01*
G75*
G02*
X909400Y4615230I0J116830D01*
G01*
G75*
G02*
Y4615240I286480J10D01*
G01*
X889080D01*
G75*
G02*
Y4615230I-286480J0D01*
G01*
G75*
G02*
X772240Y4498400I-116840J0D01*
G01*
G75*
G02*
X655400Y4615230I0J116830D01*
G01*
G75*
G02*
Y4615240I286480J10D01*
G01*
X646360D01*
G37*
X2435840D02*
G36*
X2435840Y4615240D02*
Y4377730D01*
G75*
G02*
X2435880Y4375250I-76910J-2480D01*
G01*
G75*
G02*
Y4375240I-81850J0D01*
G01*
G75*
G02*
X2431910Y4350240I-80640J-10D01*
G01*
X2715000D01*
Y4531940D01*
X2682410D01*
G75*
G02*
X2642520Y4547520I-2180J53270D01*
G01*
X2574800Y4615240D01*
X2435840D01*
G37*
X646360Y4880240D02*
G36*
X646360Y4880240D02*
Y4615240D01*
X655400D01*
G75*
G02*
Y4615250I286480J10D01*
G01*
G75*
G02*
X772240Y4732080I116840J0D01*
G01*
G75*
G02*
X889080Y4615250I0J-116830D01*
G01*
G75*
G02*
Y4615240I-286480J0D01*
G01*
X909400D01*
G75*
G02*
Y4615250I286480J10D01*
G01*
G75*
G02*
X1026240Y4732080I116840J0D01*
G01*
G75*
G02*
X1143080Y4615250I0J-116830D01*
G01*
G75*
G02*
Y4615240I-286480J0D01*
G01*
X1163400D01*
G75*
G02*
Y4615250I286480J10D01*
G01*
G75*
G02*
X1280240Y4732080I116840J0D01*
G01*
G75*
G02*
X1397080Y4615250I0J-116830D01*
G01*
G75*
G02*
Y4615240I-286480J0D01*
G01*
X2274640D01*
Y4712980D01*
G75*
G02*
X2204600Y4840240I80590J127260D01*
G01*
G75*
G02*
X2210010Y4880240I150640J-10D01*
G01*
X1397080D01*
G75*
G02*
Y4880230I-286480J0D01*
G01*
G75*
G02*
X1280240Y4763400I-116840J0D01*
G01*
G75*
G02*
X1163400Y4880230I0J116830D01*
G01*
G75*
G02*
Y4880240I286480J10D01*
G01*
X1143080D01*
G75*
G02*
Y4880230I-286480J0D01*
G01*
G75*
G02*
X1026240Y4763400I-116840J0D01*
G01*
G75*
G02*
X909400Y4880230I0J116830D01*
G01*
G75*
G02*
Y4880240I286480J10D01*
G01*
X889080D01*
G75*
G02*
Y4880230I-286480J0D01*
G01*
G75*
G02*
X772240Y4763400I-116840J0D01*
G01*
G75*
G02*
X655400Y4880230I0J116830D01*
G01*
G75*
G02*
Y4880240I286480J10D01*
G01*
X646360D01*
G37*
X2435840Y4712980D02*
G36*
X2435840Y4712980D02*
Y4615240D01*
X2574800D01*
X2512520Y4677520D01*
G75*
G02*
X2496900Y4715240I37760J37730D01*
G01*
G75*
G02*
X2496940Y4717410I59450J-10D01*
G01*
Y4789120D01*
G75*
G02*
X2435840Y4712980I-141660J51090D01*
G01*
G37*
X646360Y5145240D02*
G36*
X646360Y5145240D02*
Y4880240D01*
X655400D01*
G75*
G02*
Y4880250I286480J10D01*
G01*
G75*
G02*
X772240Y4997080I116840J0D01*
G01*
G75*
G02*
X889080Y4880250I0J-116830D01*
G01*
G75*
G02*
Y4880240I-286480J0D01*
G01*
X909400D01*
G75*
G02*
Y4880250I286480J10D01*
G01*
G75*
G02*
X1026240Y4997080I116840J0D01*
G01*
G75*
G02*
X1143080Y4880250I0J-116830D01*
G01*
G75*
G02*
Y4880240I-286480J0D01*
G01*
X1163400D01*
G75*
G02*
Y4880250I286480J10D01*
G01*
G75*
G02*
X1280240Y4997080I116840J0D01*
G01*
G75*
G02*
X1397080Y4880250I0J-116830D01*
G01*
G75*
G02*
Y4880240I-286480J0D01*
G01*
X2210010D01*
G75*
G02*
X2274640Y4967500I145230J-40000D01*
G01*
Y5145240D01*
X1397080D01*
G75*
G02*
X1280240Y5028400I-116840J0D01*
G01*
G75*
G02*
X1163400Y5145240I0J116840D01*
G01*
X1143080D01*
G75*
G02*
Y5145230I-286480J0D01*
G01*
G75*
G02*
X1026240Y5028400I-116840J0D01*
G01*
G75*
G02*
X909400Y5145230I0J116830D01*
G01*
G75*
G02*
Y5145240I286480J10D01*
G01*
X889080D01*
G75*
G02*
Y5145230I-286480J0D01*
G01*
G75*
G02*
X772240Y5028400I-116840J0D01*
G01*
G75*
G02*
X655400Y5145230I0J116830D01*
G01*
G75*
G02*
Y5145240I286480J10D01*
G01*
X646360D01*
G37*
Y5505240D02*
G36*
X646360Y5505240D02*
Y5145240D01*
X655400D01*
G75*
G02*
Y5145250I286480J10D01*
G01*
G75*
G02*
X772240Y5262080I116840J0D01*
G01*
G75*
G02*
X889080Y5145250I0J-116830D01*
G01*
G75*
G02*
Y5145240I-286480J0D01*
G01*
X909400D01*
G75*
G02*
Y5145250I286480J10D01*
G01*
G75*
G02*
X1026240Y5262080I116840J0D01*
G01*
G75*
G02*
X1029010Y5262050I-670J-189860D01*
G01*
X1154220Y5387260D01*
G75*
G02*
X1211340Y5410880I57030J-57030D01*
G01*
G75*
G02*
X1163400Y5505240I68900J94360D01*
G01*
X1143080D01*
G75*
G02*
Y5505230I-286480J0D01*
G01*
G75*
G02*
X1026240Y5388400I-116840J0D01*
G01*
G75*
G02*
X909400Y5505230I0J116830D01*
G01*
G75*
G02*
Y5505240I286480J10D01*
G01*
X889080D01*
G75*
G02*
Y5505230I-286480J0D01*
G01*
G75*
G02*
X772240Y5388400I-116840J0D01*
G01*
G75*
G02*
X655400Y5505230I0J116830D01*
G01*
G75*
G02*
Y5505240I286480J10D01*
G01*
X646360D01*
G37*
X1143050Y5148010D02*
G36*
X1143050Y5148010D02*
G75*
G02*
X1143080Y5145240I-189830J-3440D01*
G01*
X1163400D01*
G75*
G02*
X1166340Y5171300I116840J10D01*
G01*
X1143050Y5148010D01*
G37*
X1397080Y5505240D02*
G36*
X1397080Y5505240D02*
G75*
G02*
X1349090Y5410840I-116840J0D01*
G01*
X1802980D01*
G75*
G02*
X2080880Y5330240I127260J-80600D01*
G01*
G75*
G02*
X1802980Y5249640I-150640J0D01*
G01*
X1332700D01*
G75*
G02*
X1397080Y5145240I-52460J-104400D01*
G01*
X2274640D01*
Y5317750D01*
G75*
G02*
X2274600Y5320230I76910J2480D01*
G01*
G75*
G02*
Y5320240I81850J10D01*
G01*
G75*
G02*
X2298220Y5377260I80650J-10D01*
G01*
X2426200Y5505240D01*
X1397080D01*
G37*
X646360Y5770240D02*
G36*
X646360Y5770240D02*
Y5505240D01*
X655400D01*
G75*
G02*
Y5505250I286480J10D01*
G01*
G75*
G02*
X772240Y5622080I116840J0D01*
G01*
G75*
G02*
X889080Y5505250I0J-116830D01*
G01*
G75*
G02*
Y5505240I-286480J0D01*
G01*
X909400D01*
G75*
G02*
Y5505250I286480J10D01*
G01*
G75*
G02*
X1026240Y5622080I116840J0D01*
G01*
G75*
G02*
X1143080Y5505250I0J-116830D01*
G01*
G75*
G02*
Y5505240I-286480J0D01*
G01*
X1163400D01*
G75*
G02*
X1280240Y5622080I116840J0D01*
G01*
G75*
G02*
X1397080Y5505240I0J-116840D01*
G01*
X2426200D01*
X2433220Y5512260D01*
G75*
G02*
X2492730Y5535840I57020J-57020D01*
G01*
X2525600D01*
X2463190Y5598250D01*
G75*
G02*
X2279600Y5745240I-32950J146990D01*
G01*
G75*
G02*
X2281690Y5770240I150660J-10D01*
G01*
X1756300D01*
G75*
G02*
X1574180I-91060J120000D01*
G01*
X1397080D01*
G75*
G02*
Y5770230I-286480J0D01*
G01*
G75*
G02*
X1280240Y5653400I-116840J0D01*
G01*
G75*
G02*
X1163400Y5770230I0J116830D01*
G01*
G75*
G02*
Y5770240I286480J10D01*
G01*
X1143080D01*
G75*
G02*
Y5770230I-286480J0D01*
G01*
G75*
G02*
X1026240Y5653400I-116840J0D01*
G01*
G75*
G02*
X909400Y5770230I0J116830D01*
G01*
G75*
G02*
Y5770240I286480J10D01*
G01*
X889080D01*
G75*
G02*
Y5770230I-286480J0D01*
G01*
G75*
G02*
X772240Y5653400I-116840J0D01*
G01*
G75*
G02*
X655400Y5770230I0J116830D01*
G01*
G75*
G02*
Y5770240I286480J10D01*
G01*
X646360D01*
G37*
X2580880Y5745240D02*
G36*
X2580880Y5745240D02*
G75*
G02*
X2577230Y5712290I-151440J100D01*
G01*
X2618680Y5670840D01*
X2715000D01*
Y5770240D01*
X2578790D01*
G75*
G02*
X2580880Y5745240I-148570J-25010D01*
G01*
G37*
X646360Y6035240D02*
G36*
X646360Y6035240D02*
Y5770240D01*
X655400D01*
G75*
G02*
Y5770250I286480J10D01*
G01*
G75*
G02*
X772240Y5887080I116840J0D01*
G01*
G75*
G02*
X889080Y5770250I0J-116830D01*
G01*
G75*
G02*
Y5770240I-286480J0D01*
G01*
X909400D01*
G75*
G02*
Y5770250I286480J10D01*
G01*
G75*
G02*
X1026240Y5887080I116840J0D01*
G01*
G75*
G02*
X1143080Y5770250I0J-116830D01*
G01*
G75*
G02*
Y5770240I-286480J0D01*
G01*
X1163400D01*
G75*
G02*
Y5770250I286480J10D01*
G01*
G75*
G02*
X1280240Y5887080I116840J0D01*
G01*
G75*
G02*
X1397080Y5770250I0J-116830D01*
G01*
G75*
G02*
Y5770240I-286480J0D01*
G01*
X1574180D01*
G75*
G02*
X1514600Y5890240I91060J120000D01*
G01*
G75*
G02*
X1584640Y6017500I150660J-10D01*
G01*
Y6035240D01*
X1397080D01*
G75*
G02*
Y6035230I-286480J0D01*
G01*
G75*
G02*
X1280240Y5918400I-116840J0D01*
G01*
G75*
G02*
X1163400Y6035230I0J116830D01*
G01*
G75*
G02*
Y6035240I286480J10D01*
G01*
X1143080D01*
G75*
G02*
Y6035230I-286480J0D01*
G01*
G75*
G02*
X1026240Y5918400I-116840J0D01*
G01*
G75*
G02*
X909400Y6035230I0J116830D01*
G01*
G75*
G02*
Y6035240I286480J10D01*
G01*
X889080D01*
G75*
G02*
Y6035230I-286480J0D01*
G01*
G75*
G02*
X772240Y5918400I-116840J0D01*
G01*
G75*
G02*
X655400Y6035230I0J116830D01*
G01*
G75*
G02*
Y6035240I286480J10D01*
G01*
X646360D01*
G37*
X1745840D02*
G36*
X1745840Y6035240D02*
Y6017500D01*
G75*
G02*
X1815880Y5890240I-80620J-127270D01*
G01*
G75*
G02*
X1756300Y5770240I-150640J0D01*
G01*
X2281690D01*
G75*
G02*
X2578790I148550J-25000D01*
G01*
X2715000D01*
Y6035240D01*
X1745840D01*
G37*
X646360Y6485240D02*
G36*
X646360Y6485240D02*
Y6035240D01*
X655400D01*
G75*
G02*
Y6035250I286480J10D01*
G01*
G75*
G02*
X772240Y6152080I116840J0D01*
G01*
G75*
G02*
X889080Y6035250I0J-116830D01*
G01*
G75*
G02*
Y6035240I-286480J0D01*
G01*
X909400D01*
G75*
G02*
Y6035250I286480J10D01*
G01*
G75*
G02*
X1026240Y6152080I116840J0D01*
G01*
G75*
G02*
X1143080Y6035250I0J-116830D01*
G01*
G75*
G02*
Y6035240I-286480J0D01*
G01*
X1163400D01*
G75*
G02*
Y6035250I286480J10D01*
G01*
G75*
G02*
X1280240Y6152080I116840J0D01*
G01*
G75*
G02*
X1397080Y6035250I0J-116830D01*
G01*
G75*
G02*
Y6035240I-286480J0D01*
G01*
X1584640D01*
Y6485240D01*
X646360D01*
G37*
X1745840D02*
G36*
X1745840Y6485240D02*
Y6035240D01*
X2715000D01*
Y6485240D01*
X2560880D01*
G75*
G02*
X2259600I-150640J0D01*
G01*
X1745840D01*
G37*
X646360Y7285240D02*
G36*
X646360Y7285240D02*
Y6485240D01*
X1584640D01*
Y6922750D01*
G75*
G02*
X1584600Y6925230I76910J2480D01*
G01*
G75*
G02*
Y6925240I81850J10D01*
G01*
G75*
G02*
X1608220Y6982260I80650J-10D01*
G01*
X1744640Y7118680D01*
Y7200650D01*
G75*
G02*
X1708400Y7285240I80600J84590D01*
G01*
X1286080D01*
G75*
G02*
Y7285230I-286480J0D01*
G01*
G75*
G02*
X1169240Y7168400I-116840J0D01*
G01*
G75*
G02*
X1052400Y7285230I0J116830D01*
G01*
G75*
G02*
Y7285240I286480J10D01*
G01*
X1032080D01*
G75*
G02*
Y7285230I-286480J0D01*
G01*
G75*
G02*
X915240Y7168400I-116840J0D01*
G01*
G75*
G02*
X798400Y7285230I0J116830D01*
G01*
G75*
G02*
Y7285240I286480J10D01*
G01*
X646360D01*
G37*
X1745840Y6891800D02*
G36*
X1745840Y6891800D02*
Y6485240D01*
X2259600D01*
G75*
G02*
X2560880I150640J0D01*
G01*
X2715000D01*
Y7285240D01*
X2196080D01*
G75*
G02*
Y7285230I-286480J0D01*
G01*
G75*
G02*
X2079240Y7168400I-116840J0D01*
G01*
G75*
G02*
X1962400Y7285230I0J116830D01*
G01*
G75*
G02*
Y7285240I286480J10D01*
G01*
X1942080D01*
G75*
G02*
X1905840Y7200650I-116840J0D01*
G01*
Y7087730D01*
G75*
G02*
X1905880Y7085250I-76910J-2480D01*
G01*
G75*
G02*
Y7085240I-81850J0D01*
G01*
G75*
G02*
X1882260Y7028220I-80650J10D01*
G01*
X1745840Y6891800D01*
G37*
X646360Y8245240D02*
G36*
X646360Y8245240D02*
Y7285240D01*
X798400D01*
G75*
G02*
Y7285250I286480J10D01*
G01*
G75*
G02*
X915240Y7402080I116840J0D01*
G01*
G75*
G02*
X1032080Y7285250I0J-116830D01*
G01*
G75*
G02*
Y7285240I-286480J0D01*
G01*
X1052400D01*
G75*
G02*
Y7285250I286480J10D01*
G01*
G75*
G02*
X1169240Y7402080I116840J0D01*
G01*
G75*
G02*
X1286080Y7285250I0J-116830D01*
G01*
G75*
G02*
Y7285240I-286480J0D01*
G01*
X1708400D01*
G75*
G02*
X1825240Y7402080I116840J0D01*
G01*
G75*
G02*
X1942080Y7285240I0J-116840D01*
G01*
X1962400D01*
G75*
G02*
Y7285250I286480J10D01*
G01*
G75*
G02*
X2079240Y7402080I116840J0D01*
G01*
G75*
G02*
X2196080Y7285250I0J-116830D01*
G01*
G75*
G02*
Y7285240I-286480J0D01*
G01*
X2715000D01*
Y8245240D01*
X1468380D01*
G75*
G02*
X1165240Y7942100I-303140J0D01*
G01*
G75*
G02*
X862100Y8245240I0J303140D01*
G01*
X646360D01*
G37*
Y8580000D02*
G36*
X646360Y8580000D02*
Y8245240D01*
X862100D01*
G75*
G02*
X1165240Y8548380I303140J0D01*
G01*
G75*
G02*
X1468380Y8245240I0J-303140D01*
G01*
X2715000D01*
Y8580000D01*
X646360D01*
G37*
X631120Y8694360D02*
Y8155240D01*
X875770D01*
G75*
G02*
X1165240Y8548380I289470J90000D01*
G01*
G75*
G02*
X1454710Y8155240I0J-303140D01*
G01*
X7275770D01*
G75*
G02*
X7565240Y8548380I289470J90000D01*
G01*
G75*
G02*
X7854710Y8155240I0J-303140D01*
G01*
X8119360D01*
Y8694360D01*
X631120D01*
G36*
X631120Y8694360D02*
Y8155240D01*
X875770D01*
G75*
G02*
X1165240Y8548380I289470J90000D01*
G01*
G75*
G02*
X1454710Y8155240I0J-303140D01*
G01*
X7275770D01*
G75*
G02*
X7565240Y8548380I289470J90000D01*
G01*
G75*
G02*
X7854710Y8155240I0J-303140D01*
G01*
X8119360D01*
Y8694360D01*
X631120D01*
G37*
X6020240D02*
Y5823540D01*
X7346270D01*
G75*
G02*
X7567080Y5770240I103970J-53300D01*
G01*
G75*
G02*
X7346270Y5716940I-116840J0D01*
G01*
X6020240D01*
Y5558540D01*
X7346270D01*
G75*
G02*
X7567080Y5505240I103970J-53300D01*
G01*
G75*
G02*
X7346270Y5451940I-116840J0D01*
G01*
X6020240D01*
Y5198540D01*
X7346270D01*
G75*
G02*
X7567080Y5145240I103970J-53300D01*
G01*
G75*
G02*
X7346270Y5091940I-116840J0D01*
G01*
X6020240D01*
Y4928540D01*
X7237600D01*
G75*
G02*
X7262410Y4933540I22640J-48290D01*
G01*
X7346270D01*
G75*
G02*
X7567080Y4880240I103970J-53300D01*
G01*
G75*
G02*
X7346270Y4826940I-116840J0D01*
G01*
X7277880D01*
G75*
G02*
X7253070Y4821940I-22640J48290D01*
G01*
X6020240D01*
Y3480840D01*
X7192750D01*
G75*
G02*
X7252260Y3457260I2490J-80600D01*
G01*
X7493680Y3215840D01*
X7541150D01*
G75*
G02*
X7569810Y3240240I89080J-75610D01*
G01*
G75*
G02*
X7563740Y3436310I60420J100000D01*
G01*
G75*
G02*
X7489600Y3560240I66500J123920D01*
G01*
G75*
G02*
X7770880I140640J0D01*
G01*
G75*
G02*
X7696740Y3436310I-140640J0D01*
G01*
G75*
G02*
X7690670Y3240240I-66500J-96070D01*
G01*
G75*
G02*
Y3040240I-60430J-100000D01*
G01*
G75*
G02*
X7696740Y2844170I-60430J-100000D01*
G01*
G75*
G02*
X7770880Y2720240I-66500J-123930D01*
G01*
G75*
G02*
X7489600I-140640J0D01*
G01*
G75*
G02*
X7563740Y2844170I140640J10D01*
G01*
G75*
G02*
X7545650Y2859640I66480J96050D01*
G01*
X7487730D01*
G75*
G02*
X7428220Y2883220I-2490J80600D01*
G01*
X7131800Y3179640D01*
X6020240D01*
Y3009530D01*
G75*
G02*
X6191680Y2965240I80000J-44290D01*
G01*
G75*
G02*
X6153540Y2890940I-91440J0D01*
G01*
Y2843730D01*
G75*
G02*
X6269660Y2842190I56850J-91990D01*
G01*
G75*
G02*
X6282520Y2862960I50580J-16950D01*
G01*
X6325000Y2905440D01*
G75*
G02*
X6323800Y2920240I90260J14770D01*
G01*
G75*
G02*
X6506680I91440J0D01*
G01*
G75*
G02*
X6482550Y2858340I-91450J-10D01*
G01*
G75*
G02*
X6464390Y2643600I-18160J-106600D01*
G01*
G75*
G02*
X6373180Y2693650I0J108140D01*
G01*
G75*
G02*
X6362000Y2667040I-52940J6590D01*
G01*
G75*
G02*
X6337390Y2453600I-24610J-105300D01*
G01*
G75*
G02*
X6248600Y2500010I0J108140D01*
G01*
X6227160Y2478570D01*
G75*
G02*
X6210390Y2263600I-16770J-106830D01*
G01*
G75*
G02*
X6136740Y2292560I0J108140D01*
G01*
Y2275800D01*
G75*
G02*
X6083390Y2073600I-53350J-94060D01*
G01*
G75*
G02*
X6020240Y2093950I-10J108140D01*
G01*
Y1886450D01*
G75*
G02*
X6468380Y1620240I145000J-266210D01*
G01*
G75*
G02*
X6020240Y1354030I-303140J0D01*
G01*
Y1306120D01*
X8119360D01*
Y8694360D01*
X6020240D01*
X6645240Y7402080D02*
G75*
G02*
X6762080Y7285240I0J-116840D01*
G01*
G75*
G02*
X6645240Y7168400I-116840J0D01*
G01*
G75*
G02*
X6528400Y7285240I0J116840D01*
G01*
G75*
G02*
X6645240Y7402080I116840J0D01*
G01*
X6899240D02*
G75*
G02*
X7016080Y7285240I0J-116840D01*
G01*
G75*
G02*
X6899240Y7168400I-116840J0D01*
G01*
G75*
G02*
X6782400Y7285240I0J116840D01*
G01*
G75*
G02*
X6899240Y7402080I116840J0D01*
G01*
X7565240Y8548380D02*
G75*
G02*
X7868380Y8245240I0J-303140D01*
G01*
G75*
G02*
X7565240Y7942100I-303140J0D01*
G01*
G75*
G02*
X7262100Y8245240I0J303140D01*
G01*
G75*
G02*
X7565240Y8548380I303140J0D01*
G01*
X7814240Y7402080D02*
G75*
G02*
X7931080Y7285240I0J-116840D01*
G01*
G75*
G02*
X7814240Y7168400I-116840J0D01*
G01*
G75*
G02*
X7697400Y7285240I0J116840D01*
G01*
G75*
G02*
X7814240Y7402080I116840J0D01*
G01*
X7958240Y4467080D02*
G75*
G02*
X8075080Y4350240I0J-116840D01*
G01*
G75*
G02*
X7958240Y4233400I-116840J0D01*
G01*
G75*
G02*
X7841400Y4350240I0J116840D01*
G01*
G75*
G02*
X7958240Y4467080I116840J0D01*
G01*
Y4732080D02*
G75*
G02*
X8075080Y4615240I0J-116840D01*
G01*
G75*
G02*
X7958240Y4498400I-116840J0D01*
G01*
G75*
G02*
X7841400Y4615240I0J116840D01*
G01*
G75*
G02*
X7958240Y4732080I116840J0D01*
G01*
Y4997080D02*
G75*
G02*
X8075080Y4880240I0J-116840D01*
G01*
G75*
G02*
X7958240Y4763400I-116840J0D01*
G01*
G75*
G02*
X7841400Y4880240I0J116840D01*
G01*
G75*
G02*
X7958240Y4997080I116840J0D01*
G01*
Y5262080D02*
G75*
G02*
X8075080Y5145240I0J-116840D01*
G01*
G75*
G02*
X7958240Y5028400I-116840J0D01*
G01*
G75*
G02*
X7841400Y5145240I0J116840D01*
G01*
G75*
G02*
X7958240Y5262080I116840J0D01*
G01*
Y5622080D02*
G75*
G02*
X8075080Y5505240I0J-116840D01*
G01*
G75*
G02*
X7958240Y5388400I-116840J0D01*
G01*
G75*
G02*
X7841400Y5505240I0J116840D01*
G01*
G75*
G02*
X7958240Y5622080I116840J0D01*
G01*
Y5887080D02*
G75*
G02*
X8075080Y5770240I0J-116840D01*
G01*
G75*
G02*
X7958240Y5653400I-116840J0D01*
G01*
G75*
G02*
X7841400Y5770240I0J116840D01*
G01*
G75*
G02*
X7958240Y5887080I116840J0D01*
G01*
X7560240Y7402080D02*
G75*
G02*
X7677080Y7285240I0J-116840D01*
G01*
G75*
G02*
X7560240Y7168400I-116840J0D01*
G01*
G75*
G02*
X7443400Y7285240I0J116840D01*
G01*
G75*
G02*
X7560240Y7402080I116840J0D01*
G01*
X7704240Y4467080D02*
G75*
G02*
X7821080Y4350240I0J-116840D01*
G01*
G75*
G02*
X7704240Y4233400I-116840J0D01*
G01*
G75*
G02*
X7587400Y4350240I0J116840D01*
G01*
G75*
G02*
X7704240Y4467080I116840J0D01*
G01*
Y4732080D02*
G75*
G02*
X7821080Y4615240I0J-116840D01*
G01*
G75*
G02*
X7704240Y4498400I-116840J0D01*
G01*
G75*
G02*
X7587400Y4615240I0J116840D01*
G01*
G75*
G02*
X7704240Y4732080I116840J0D01*
G01*
Y4997080D02*
G75*
G02*
X7821080Y4880240I0J-116840D01*
G01*
G75*
G02*
X7704240Y4763400I-116840J0D01*
G01*
G75*
G02*
X7587400Y4880240I0J116840D01*
G01*
G75*
G02*
X7704240Y4997080I116840J0D01*
G01*
Y5262080D02*
G75*
G02*
X7821080Y5145240I0J-116840D01*
G01*
G75*
G02*
X7704240Y5028400I-116840J0D01*
G01*
G75*
G02*
X7587400Y5145240I0J116840D01*
G01*
G75*
G02*
X7704240Y5262080I116840J0D01*
G01*
Y5622080D02*
G75*
G02*
X7821080Y5505240I0J-116840D01*
G01*
G75*
G02*
X7704240Y5388400I-116840J0D01*
G01*
G75*
G02*
X7587400Y5505240I0J116840D01*
G01*
G75*
G02*
X7704240Y5622080I116840J0D01*
G01*
Y5887080D02*
G75*
G02*
X7821080Y5770240I0J-116840D01*
G01*
G75*
G02*
X7704240Y5653400I-116840J0D01*
G01*
G75*
G02*
X7587400Y5770240I0J116840D01*
G01*
G75*
G02*
X7704240Y5887080I116840J0D01*
G01*
X7598400Y6405240D02*
G75*
G02*
X7832080I116840J0D01*
G01*
G75*
G02*
X7598400I-116840J0D01*
G01*
Y6659240D02*
G75*
G02*
X7832080I116840J0D01*
G01*
G75*
G02*
X7598400I-116840J0D01*
G01*
X7450240Y4467080D02*
G75*
G02*
X7567080Y4350240I0J-116840D01*
G01*
G75*
G02*
X7450240Y4233400I-116840J0D01*
G01*
G75*
G02*
X7333400Y4350240I0J116840D01*
G01*
G75*
G02*
X7450240Y4467080I116840J0D01*
G01*
Y4732080D02*
G75*
G02*
X7567080Y4615240I0J-116840D01*
G01*
G75*
G02*
X7450240Y4498400I-116840J0D01*
G01*
G75*
G02*
X7333400Y4615240I0J116840D01*
G01*
G75*
G02*
X7450240Y4732080I116840J0D01*
G01*
X6494600Y4485240D02*
G75*
G02*
X6795880I150640J0D01*
G01*
G75*
G02*
X6792230Y4452290I-150640J10D01*
G01*
X7293680Y3950840D01*
X7807750D01*
G75*
G02*
X7867260Y3927260I2490J-80600D01*
G01*
X7952260Y3842260D01*
G75*
G02*
X7975880Y3785240I-57020J-57020D01*
G01*
G75*
G02*
X7975840Y3782750I-80660J50D01*
G01*
Y2332730D01*
G75*
G02*
X7975880Y2330240I-80620J-2540D01*
G01*
G75*
G02*
X7952260Y2273220I-80640J0D01*
G01*
X7894840Y2215800D01*
Y1919830D01*
G75*
G02*
X7814240Y1718400I-80600J-84590D01*
G01*
G75*
G02*
X7733640Y1919830I0J116840D01*
G01*
Y2246750D01*
G75*
G02*
X7733600Y2249240I80580J2540D01*
G01*
G75*
G02*
X7757220Y2306260I80640J0D01*
G01*
X7814640Y2363680D01*
Y3751800D01*
X7776800Y3789640D01*
X7262730D01*
G75*
G02*
X7203220Y3813220I-2490J80600D01*
G01*
X6678190Y4338250D01*
G75*
G02*
X6494600Y4485240I-32950J146990D01*
G01*
X7560240Y1952080D02*
G75*
G02*
X7677080Y1835240I0J-116840D01*
G01*
G75*
G02*
X7560240Y1718400I-116840J0D01*
G01*
G75*
G02*
X7443400Y1835240I0J116840D01*
G01*
G75*
G02*
X7560240Y1952080I116840J0D01*
G01*
X6718390Y2859880D02*
G75*
G02*
X6826530Y2751740I0J-108140D01*
G01*
G75*
G02*
X6718390Y2643600I-108140J0D01*
G01*
G75*
G02*
X6610250Y2751740I0J108140D01*
G01*
G75*
G02*
X6718390Y2859880I108140J0D01*
G01*
X6845390Y2669880D02*
G75*
G02*
X6953530Y2561740I0J-108140D01*
G01*
G75*
G02*
X6845390Y2453600I-108140J0D01*
G01*
G75*
G02*
X6737250Y2561740I0J108140D01*
G01*
G75*
G02*
X6845390Y2669880I108140J0D01*
G01*
X6591390D02*
G75*
G02*
X6699530Y2561740I0J-108140D01*
G01*
G75*
G02*
X6591390Y2453600I-108140J0D01*
G01*
G75*
G02*
X6483250Y2561740I0J108140D01*
G01*
G75*
G02*
X6591390Y2669880I108140J0D01*
G01*
X6718390Y2479880D02*
G75*
G02*
X6826530Y2371740I0J-108140D01*
G01*
G75*
G02*
X6718390Y2263600I-108140J0D01*
G01*
G75*
G02*
X6610250Y2371740I0J108140D01*
G01*
G75*
G02*
X6718390Y2479880I108140J0D01*
G01*
X6845390Y2289880D02*
G75*
G02*
X6953530Y2181740I0J-108140D01*
G01*
G75*
G02*
X6845390Y2073600I-108140J0D01*
G01*
G75*
G02*
X6737250Y2181740I0J108140D01*
G01*
G75*
G02*
X6845390Y2289880I108140J0D01*
G01*
X6899240Y1952080D02*
G75*
G02*
X7016080Y1835240I0J-116840D01*
G01*
G75*
G02*
X6899240Y1718400I-116840J0D01*
G01*
G75*
G02*
X6782400Y1835240I0J116840D01*
G01*
G75*
G02*
X6899240Y1952080I116840J0D01*
G01*
X6464390Y2479880D02*
G75*
G02*
X6572530Y2371740I0J-108140D01*
G01*
G75*
G02*
X6464390Y2263600I-108140J0D01*
G01*
G75*
G02*
X6356250Y2371740I0J108140D01*
G01*
G75*
G02*
X6464390Y2479880I108140J0D01*
G01*
X6591390Y2289880D02*
G75*
G02*
X6699530Y2181740I0J-108140D01*
G01*
G75*
G02*
X6591390Y2073600I-108140J0D01*
G01*
G75*
G02*
X6483250Y2181740I0J108140D01*
G01*
G75*
G02*
X6591390Y2289880I108140J0D01*
G01*
X6645240Y1952080D02*
G75*
G02*
X6762080Y1835240I0J-116840D01*
G01*
G75*
G02*
X6645240Y1718400I-116840J0D01*
G01*
G75*
G02*
X6528400Y1835240I0J116840D01*
G01*
G75*
G02*
X6645240Y1952080I116840J0D01*
G01*
X6337390Y2289880D02*
G75*
G02*
X6445530Y2181740I0J-108140D01*
G01*
G75*
G02*
X6337390Y2073600I-108140J0D01*
G01*
G75*
G02*
X6229250Y2181740I0J108140D01*
G01*
G75*
G02*
X6337390Y2289880I108140J0D01*
G01*
X6035480Y1346280D02*
G36*
X6035480Y1346280D02*
Y1321360D01*
X6114610D01*
G75*
G02*
X6035480Y1346280I50630J298870D01*
G01*
G37*
X6468380Y1620240D02*
G36*
X6468380Y1620240D02*
G75*
G02*
X6215860Y1321360I-303150J10D01*
G01*
X8104120D01*
Y1835240D01*
X7931080D01*
G75*
G02*
X7814240Y1718400I-116840J0D01*
G01*
G75*
G02*
X7697400Y1835240I0J116840D01*
G01*
X7677080D01*
G75*
G02*
Y1835230I-286480J0D01*
G01*
G75*
G02*
X7560240Y1718400I-116840J0D01*
G01*
G75*
G02*
X7443400Y1835230I0J116830D01*
G01*
G75*
G02*
Y1835240I286480J10D01*
G01*
X7016080D01*
G75*
G02*
Y1835230I-286480J0D01*
G01*
G75*
G02*
X6899240Y1718400I-116840J0D01*
G01*
G75*
G02*
X6782400Y1835230I0J116830D01*
G01*
G75*
G02*
Y1835240I286480J10D01*
G01*
X6762080D01*
G75*
G02*
Y1835230I-286480J0D01*
G01*
G75*
G02*
X6645240Y1718400I-116840J0D01*
G01*
G75*
G02*
X6528400Y1835230I0J116830D01*
G01*
G75*
G02*
Y1835240I286480J10D01*
G01*
X6378940D01*
G75*
G02*
X6468380Y1620240I-213700J-215000D01*
G01*
G37*
X6035480Y2084790D02*
G36*
X6035480Y2084790D02*
Y1894200D01*
G75*
G02*
X6378940Y1835240I129760J-273970D01*
G01*
X6528400D01*
G75*
G02*
Y1835250I286480J10D01*
G01*
G75*
G02*
X6645240Y1952080I116840J0D01*
G01*
G75*
G02*
X6762080Y1835250I0J-116830D01*
G01*
G75*
G02*
Y1835240I-286480J0D01*
G01*
X6782400D01*
G75*
G02*
Y1835250I286480J10D01*
G01*
G75*
G02*
X6899240Y1952080I116840J0D01*
G01*
G75*
G02*
X7016080Y1835250I0J-116830D01*
G01*
G75*
G02*
Y1835240I-286480J0D01*
G01*
X7443400D01*
G75*
G02*
Y1835250I286480J10D01*
G01*
G75*
G02*
X7560240Y1952080I116840J0D01*
G01*
G75*
G02*
X7677080Y1835250I0J-116830D01*
G01*
G75*
G02*
Y1835240I-286480J0D01*
G01*
X7697400D01*
G75*
G02*
X7733640Y1919830I116840J0D01*
G01*
Y2181740D01*
X6953530D01*
G75*
G02*
Y2181730I-95490J0D01*
G01*
G75*
G02*
X6845390Y2073600I-108140J0D01*
G01*
G75*
G02*
X6737250Y2181730I0J108130D01*
G01*
G75*
G02*
Y2181740I95490J10D01*
G01*
X6699530D01*
G75*
G02*
Y2181730I-95490J0D01*
G01*
G75*
G02*
X6591390Y2073600I-108140J0D01*
G01*
G75*
G02*
X6483250Y2181730I0J108130D01*
G01*
G75*
G02*
Y2181740I95490J10D01*
G01*
X6445530D01*
G75*
G02*
Y2181730I-95490J0D01*
G01*
G75*
G02*
X6337390Y2073600I-108140J0D01*
G01*
G75*
G02*
X6229250Y2181730I0J108130D01*
G01*
G75*
G02*
Y2181740I95490J10D01*
G01*
X6191530D01*
G75*
G02*
X6083390Y2073600I-108140J0D01*
G01*
G75*
G02*
X6035480Y2084790I-10J108130D01*
G01*
G37*
X7894840Y2181740D02*
G36*
X7894840Y2181740D02*
Y1919830D01*
G75*
G02*
X7931080Y1835240I-80600J-84590D01*
G01*
X8104120D01*
Y2181740D01*
X7894840D01*
G37*
X6136740Y2292560D02*
G36*
X6136740Y2292560D02*
Y2275800D01*
G75*
G02*
X6191530Y2181740I-53350J-94060D01*
G01*
X6229250D01*
G75*
G02*
Y2181750I95490J10D01*
G01*
G75*
G02*
X6337390Y2289880I108140J0D01*
G01*
G75*
G02*
X6445530Y2181750I0J-108130D01*
G01*
G75*
G02*
Y2181740I-95490J0D01*
G01*
X6483250D01*
G75*
G02*
Y2181750I95490J10D01*
G01*
G75*
G02*
X6591390Y2289880I108140J0D01*
G01*
G75*
G02*
X6699530Y2181750I0J-108130D01*
G01*
G75*
G02*
Y2181740I-95490J0D01*
G01*
X6737250D01*
G75*
G02*
Y2181750I95490J10D01*
G01*
G75*
G02*
X6845390Y2289880I108140J0D01*
G01*
G75*
G02*
X6953530Y2181750I0J-108130D01*
G01*
G75*
G02*
Y2181740I-95490J0D01*
G01*
X7733640D01*
Y2246750D01*
G75*
G02*
X7733600Y2249230I76910J2480D01*
G01*
G75*
G02*
Y2249240I81850J10D01*
G01*
G75*
G02*
X7757220Y2306260I80650J-10D01*
G01*
X7814640Y2363680D01*
Y2371740D01*
X6826530D01*
G75*
G02*
Y2371730I-95490J0D01*
G01*
G75*
G02*
X6718390Y2263600I-108140J0D01*
G01*
G75*
G02*
X6610250Y2371730I0J108130D01*
G01*
G75*
G02*
Y2371740I95490J10D01*
G01*
X6572530D01*
G75*
G02*
Y2371730I-95490J0D01*
G01*
G75*
G02*
X6464390Y2263600I-108140J0D01*
G01*
G75*
G02*
X6356250Y2371730I0J108130D01*
G01*
G75*
G02*
Y2371740I95490J10D01*
G01*
X6318530D01*
G75*
G02*
X6210390Y2263600I-108140J0D01*
G01*
G75*
G02*
X6136740Y2292560I0J108130D01*
G01*
G37*
X7894840Y2215800D02*
G36*
X7894840Y2215800D02*
Y2181740D01*
X8104120D01*
Y2371740D01*
X7975840D01*
Y2332730D01*
G75*
G02*
X7975880Y2330250I-76910J-2480D01*
G01*
G75*
G02*
Y2330240I-81850J0D01*
G01*
G75*
G02*
X7952260Y2273220I-80650J10D01*
G01*
X7894840Y2215800D01*
G37*
X6248600Y2500010D02*
G36*
X6248600Y2500010D02*
X6227160Y2478570D01*
G75*
G02*
X6318530Y2371740I-16770J-106830D01*
G01*
X6356250D01*
G75*
G02*
Y2371750I95490J10D01*
G01*
G75*
G02*
X6464390Y2479880I108140J0D01*
G01*
G75*
G02*
X6572530Y2371750I0J-108130D01*
G01*
G75*
G02*
Y2371740I-95490J0D01*
G01*
X6610250D01*
G75*
G02*
Y2371750I95490J10D01*
G01*
G75*
G02*
X6718390Y2479880I108140J0D01*
G01*
G75*
G02*
X6826530Y2371750I0J-108130D01*
G01*
G75*
G02*
Y2371740I-95490J0D01*
G01*
X7814640D01*
Y2561740D01*
X6953530D01*
G75*
G02*
Y2561730I-95490J0D01*
G01*
G75*
G02*
X6845390Y2453600I-108140J0D01*
G01*
G75*
G02*
X6737250Y2561730I0J108130D01*
G01*
G75*
G02*
Y2561740I95490J10D01*
G01*
X6699530D01*
G75*
G02*
Y2561730I-95490J0D01*
G01*
G75*
G02*
X6591390Y2453600I-108140J0D01*
G01*
G75*
G02*
X6483250Y2561730I0J108130D01*
G01*
G75*
G02*
Y2561740I95490J10D01*
G01*
X6445530D01*
G75*
G02*
X6337390Y2453600I-108140J0D01*
G01*
G75*
G02*
X6248600Y2500010I0J108140D01*
G01*
G37*
X7975840Y2561740D02*
G36*
X7975840Y2561740D02*
Y2371740D01*
X8104120D01*
Y2561740D01*
X7975840D01*
G37*
X6373180Y2693650D02*
G36*
X6373180Y2693650D02*
G75*
G02*
X6362000Y2667040I-52980J6610D01*
G01*
G75*
G02*
X6445530Y2561740I-24610J-105300D01*
G01*
X6483250D01*
G75*
G02*
Y2561750I95490J10D01*
G01*
G75*
G02*
X6591390Y2669880I108140J0D01*
G01*
G75*
G02*
X6699530Y2561750I0J-108130D01*
G01*
G75*
G02*
Y2561740I-95490J0D01*
G01*
X6737250D01*
G75*
G02*
Y2561750I95490J10D01*
G01*
G75*
G02*
X6845390Y2669880I108140J0D01*
G01*
G75*
G02*
X6953530Y2561750I0J-108130D01*
G01*
G75*
G02*
Y2561740I-95490J0D01*
G01*
X7814640D01*
Y2751740D01*
X7767310D01*
G75*
G02*
X7770880Y2720250I-137050J-31490D01*
G01*
G75*
G02*
Y2720240I-286480J0D01*
G01*
G75*
G02*
X7489600I-140640J0D01*
G01*
G75*
G02*
Y2720250I286480J10D01*
G01*
G75*
G02*
X7493170Y2751740I140620J0D01*
G01*
X6826530D01*
G75*
G02*
Y2751730I-95490J0D01*
G01*
G75*
G02*
X6718390Y2643600I-108140J0D01*
G01*
G75*
G02*
X6610250Y2751730I0J108130D01*
G01*
G75*
G02*
Y2751740I95490J10D01*
G01*
X6572520D01*
G75*
G02*
X6464390Y2643600I-108130J0D01*
G01*
G75*
G02*
X6373180Y2693650I-20J108110D01*
G01*
G37*
X7975840Y2751740D02*
G36*
X7975840Y2751740D02*
Y2561740D01*
X8104120D01*
Y2751740D01*
X7975840D01*
G37*
X6035480Y3179640D02*
G36*
X6035480Y3179640D02*
Y3029800D01*
G75*
G02*
X6191680Y2965250I64760J-64550D01*
G01*
G75*
G02*
Y2965240I-143240J0D01*
G01*
G75*
G02*
Y2965230I-114590J0D01*
G01*
G75*
G02*
X6153540Y2890940I-91420J0D01*
G01*
Y2843730D01*
G75*
G02*
X6269660Y2842190I56850J-91990D01*
G01*
G75*
G02*
X6282520Y2862960I50730J-17050D01*
G01*
X6325000Y2905440D01*
G75*
G02*
X6323800Y2920240I90650J14800D01*
G01*
G75*
G02*
X6506680I91440J0D01*
G01*
G75*
G02*
Y2920210I-90470J-10D01*
G01*
G75*
G02*
X6482550Y2858340I-91380J0D01*
G01*
G75*
G02*
X6572520Y2751740I-18170J-106600D01*
G01*
X6610250D01*
G75*
G02*
Y2751750I95490J10D01*
G01*
G75*
G02*
X6718390Y2859880I108140J0D01*
G01*
G75*
G02*
X6826530Y2751750I0J-108130D01*
G01*
G75*
G02*
Y2751740I-95490J0D01*
G01*
X7493170D01*
G75*
G02*
X7563740Y2844170I137070J-31500D01*
G01*
G75*
G02*
X7545650Y2859640I66200J95730D01*
G01*
X7487730D01*
G75*
G02*
X7428220Y2883220I-2490J80600D01*
G01*
X7131800Y3179640D01*
X6035480D01*
G37*
Y4350240D02*
G36*
X6035480Y4350240D02*
Y3480840D01*
X7192750D01*
G75*
G02*
X7252260Y3457260I2490J-80600D01*
G01*
X7493680Y3215840D01*
X7541150D01*
G75*
G02*
X7569810Y3240240I89120J-75640D01*
G01*
G75*
G02*
X7513390Y3340240I60420J100000D01*
G01*
G75*
G02*
X7563740Y3436310I116840J0D01*
G01*
G75*
G02*
X7489600Y3560230I66500J123920D01*
G01*
G75*
G02*
Y3560240I286480J10D01*
G01*
G75*
G02*
X7770880I140640J0D01*
G01*
G75*
G02*
Y3560230I-286480J0D01*
G01*
G75*
G02*
X7696740Y3436310I-140640J0D01*
G01*
G75*
G02*
X7747080Y3340240I-66510J-96070D01*
G01*
G75*
G02*
X7690670Y3240240I-116850J0D01*
G01*
G75*
G02*
X7747080Y3140240I-60430J-100000D01*
G01*
G75*
G02*
X7690670Y3040240I-116840J0D01*
G01*
G75*
G02*
X7747080Y2940240I-60440J-100000D01*
G01*
G75*
G02*
X7696740Y2844170I-116850J0D01*
G01*
G75*
G02*
X7767310Y2751740I-66500J-123930D01*
G01*
X7814640D01*
Y3751800D01*
X7776800Y3789640D01*
X7262730D01*
G75*
G02*
X7203220Y3813220I-2490J80600D01*
G01*
X6678190Y4338250D01*
G75*
G02*
X6578410Y4350240I-32950J146990D01*
G01*
X6035480D01*
G37*
X6894280D02*
G36*
X6894280Y4350240D02*
X7293680Y3950840D01*
X7807750D01*
G75*
G02*
X7867260Y3927260I2490J-80600D01*
G01*
X7952260Y3842260D01*
G75*
G02*
X7975880Y3785240I-57030J-57030D01*
G01*
G75*
G02*
X7975840Y3782750I-78190J10D01*
G01*
Y2751740D01*
X8104120D01*
Y4350240D01*
X8075080D01*
G75*
G02*
Y4350230I-286480J0D01*
G01*
G75*
G02*
X7958240Y4233400I-116840J0D01*
G01*
G75*
G02*
X7841400Y4350230I0J116830D01*
G01*
G75*
G02*
Y4350240I286480J10D01*
G01*
X7821080D01*
G75*
G02*
Y4350230I-286480J0D01*
G01*
G75*
G02*
X7704240Y4233400I-116840J0D01*
G01*
G75*
G02*
X7587400Y4350230I0J116830D01*
G01*
G75*
G02*
Y4350240I286480J10D01*
G01*
X7567080D01*
G75*
G02*
Y4350230I-286480J0D01*
G01*
G75*
G02*
X7450240Y4233400I-116840J0D01*
G01*
G75*
G02*
X7333400Y4350230I0J116830D01*
G01*
G75*
G02*
Y4350240I286480J10D01*
G01*
X6894280D01*
G37*
X6035480Y4615240D02*
G36*
X6035480Y4615240D02*
Y4350240D01*
X6578410D01*
G75*
G02*
X6494600Y4485240I66830J135010D01*
G01*
G75*
G02*
X6569130Y4615240I150640J0D01*
G01*
X6035480D01*
G37*
X6795880Y4485240D02*
G36*
X6795880Y4485240D02*
G75*
G02*
X6792230Y4452290I-151440J100D01*
G01*
X6894280Y4350240D01*
X7333400D01*
G75*
G02*
Y4350250I286480J10D01*
G01*
G75*
G02*
X7450240Y4467080I116840J0D01*
G01*
G75*
G02*
X7567080Y4350250I0J-116830D01*
G01*
G75*
G02*
Y4350240I-286480J0D01*
G01*
X7587400D01*
G75*
G02*
Y4350250I286480J10D01*
G01*
G75*
G02*
X7704240Y4467080I116840J0D01*
G01*
G75*
G02*
X7821080Y4350250I0J-116830D01*
G01*
G75*
G02*
Y4350240I-286480J0D01*
G01*
X7841400D01*
G75*
G02*
Y4350250I286480J10D01*
G01*
G75*
G02*
X7958240Y4467080I116840J0D01*
G01*
G75*
G02*
X8075080Y4350250I0J-116830D01*
G01*
G75*
G02*
Y4350240I-286480J0D01*
G01*
X8104120D01*
Y4615240D01*
X8075080D01*
G75*
G02*
Y4615230I-286480J0D01*
G01*
G75*
G02*
X7958240Y4498400I-116840J0D01*
G01*
G75*
G02*
X7841400Y4615230I0J116830D01*
G01*
G75*
G02*
Y4615240I286480J10D01*
G01*
X7821080D01*
G75*
G02*
Y4615230I-286480J0D01*
G01*
G75*
G02*
X7704240Y4498400I-116840J0D01*
G01*
G75*
G02*
X7587400Y4615230I0J116830D01*
G01*
G75*
G02*
Y4615240I286480J10D01*
G01*
X7567080D01*
G75*
G02*
Y4615230I-286480J0D01*
G01*
G75*
G02*
X7450240Y4498400I-116840J0D01*
G01*
G75*
G02*
X7333400Y4615230I0J116830D01*
G01*
G75*
G02*
Y4615240I286480J10D01*
G01*
X6721350D01*
G75*
G02*
X6795880Y4485240I-76110J-130000D01*
G01*
G37*
X6035480Y4821940D02*
G36*
X6035480Y4821940D02*
Y4615240D01*
X6569130D01*
G75*
G02*
X6721350I76110J-130000D01*
G01*
X7333400D01*
G75*
G02*
Y4615250I286480J10D01*
G01*
G75*
G02*
X7450240Y4732080I116840J0D01*
G01*
G75*
G02*
X7567080Y4615250I0J-116830D01*
G01*
G75*
G02*
Y4615240I-286480J0D01*
G01*
X7587400D01*
G75*
G02*
Y4615250I286480J10D01*
G01*
G75*
G02*
X7704240Y4732080I116840J0D01*
G01*
G75*
G02*
X7821080Y4615250I0J-116830D01*
G01*
G75*
G02*
Y4615240I-286480J0D01*
G01*
X7841400D01*
G75*
G02*
Y4615250I286480J10D01*
G01*
G75*
G02*
X7958240Y4732080I116840J0D01*
G01*
G75*
G02*
X8075080Y4615250I0J-116830D01*
G01*
G75*
G02*
Y4615240I-286480J0D01*
G01*
X8104120D01*
Y4880240D01*
X8075080D01*
G75*
G02*
Y4880230I-286480J0D01*
G01*
G75*
G02*
X7958240Y4763400I-116840J0D01*
G01*
G75*
G02*
X7841400Y4880230I0J116830D01*
G01*
G75*
G02*
Y4880240I286480J10D01*
G01*
X7821080D01*
G75*
G02*
Y4880230I-286480J0D01*
G01*
G75*
G02*
X7704240Y4763400I-116840J0D01*
G01*
G75*
G02*
X7587400Y4880230I0J116830D01*
G01*
G75*
G02*
Y4880240I286480J10D01*
G01*
X7567080D01*
G75*
G02*
Y4880230I-286480J0D01*
G01*
G75*
G02*
X7346270Y4826940I-116840J0D01*
G01*
X7277880D01*
G75*
G02*
X7253070Y4821940I-22660J48360D01*
G01*
X6035480D01*
G37*
Y5091940D02*
G36*
X6035480Y5091940D02*
Y4928540D01*
X7237600D01*
G75*
G02*
X7262410Y4933540I22660J-48360D01*
G01*
X7346270D01*
G75*
G02*
X7567080Y4880250I103970J-53290D01*
G01*
G75*
G02*
Y4880240I-286480J0D01*
G01*
X7587400D01*
G75*
G02*
Y4880250I286480J10D01*
G01*
G75*
G02*
X7704240Y4997080I116840J0D01*
G01*
G75*
G02*
X7821080Y4880250I0J-116830D01*
G01*
G75*
G02*
Y4880240I-286480J0D01*
G01*
X7841400D01*
G75*
G02*
Y4880250I286480J10D01*
G01*
G75*
G02*
X7958240Y4997080I116840J0D01*
G01*
G75*
G02*
X8075080Y4880250I0J-116830D01*
G01*
G75*
G02*
Y4880240I-286480J0D01*
G01*
X8104120D01*
Y5145240D01*
X8075080D01*
G75*
G02*
Y5145230I-286480J0D01*
G01*
G75*
G02*
X7958240Y5028400I-116840J0D01*
G01*
G75*
G02*
X7841400Y5145230I0J116830D01*
G01*
G75*
G02*
Y5145240I286480J10D01*
G01*
X7821080D01*
G75*
G02*
Y5145230I-286480J0D01*
G01*
G75*
G02*
X7704240Y5028400I-116840J0D01*
G01*
G75*
G02*
X7587400Y5145230I0J116830D01*
G01*
G75*
G02*
Y5145240I286480J10D01*
G01*
X7567080D01*
G75*
G02*
Y5145230I-286480J0D01*
G01*
G75*
G02*
X7346270Y5091940I-116840J0D01*
G01*
X6035480D01*
G37*
Y5451940D02*
G36*
X6035480Y5451940D02*
Y5198540D01*
X7346270D01*
G75*
G02*
X7567080Y5145250I103970J-53290D01*
G01*
G75*
G02*
Y5145240I-286480J0D01*
G01*
X7587400D01*
G75*
G02*
Y5145250I286480J10D01*
G01*
G75*
G02*
X7704240Y5262080I116840J0D01*
G01*
G75*
G02*
X7821080Y5145250I0J-116830D01*
G01*
G75*
G02*
Y5145240I-286480J0D01*
G01*
X7841400D01*
G75*
G02*
Y5145250I286480J10D01*
G01*
G75*
G02*
X7958240Y5262080I116840J0D01*
G01*
G75*
G02*
X8075080Y5145250I0J-116830D01*
G01*
G75*
G02*
Y5145240I-286480J0D01*
G01*
X8104120D01*
Y5505240D01*
X8075080D01*
G75*
G02*
Y5505230I-286480J0D01*
G01*
G75*
G02*
X7958240Y5388400I-116840J0D01*
G01*
G75*
G02*
X7841400Y5505230I0J116830D01*
G01*
G75*
G02*
Y5505240I286480J10D01*
G01*
X7821080D01*
G75*
G02*
Y5505230I-286480J0D01*
G01*
G75*
G02*
X7704240Y5388400I-116840J0D01*
G01*
G75*
G02*
X7587400Y5505230I0J116830D01*
G01*
G75*
G02*
Y5505240I286480J10D01*
G01*
X7567080D01*
G75*
G02*
Y5505230I-286480J0D01*
G01*
G75*
G02*
X7346270Y5451940I-116840J0D01*
G01*
X6035480D01*
G37*
Y5716940D02*
G36*
X6035480Y5716940D02*
Y5558540D01*
X7346270D01*
G75*
G02*
X7567080Y5505250I103970J-53290D01*
G01*
G75*
G02*
Y5505240I-286480J0D01*
G01*
X7587400D01*
G75*
G02*
Y5505250I286480J10D01*
G01*
G75*
G02*
X7704240Y5622080I116840J0D01*
G01*
G75*
G02*
X7821080Y5505250I0J-116830D01*
G01*
G75*
G02*
Y5505240I-286480J0D01*
G01*
X7841400D01*
G75*
G02*
Y5505250I286480J10D01*
G01*
G75*
G02*
X7958240Y5622080I116840J0D01*
G01*
G75*
G02*
X8075080Y5505250I0J-116830D01*
G01*
G75*
G02*
Y5505240I-286480J0D01*
G01*
X8104120D01*
Y5770240D01*
X8075080D01*
G75*
G02*
Y5770230I-286480J0D01*
G01*
G75*
G02*
X7958240Y5653400I-116840J0D01*
G01*
G75*
G02*
X7841400Y5770230I0J116830D01*
G01*
G75*
G02*
Y5770240I286480J10D01*
G01*
X7821080D01*
G75*
G02*
Y5770230I-286480J0D01*
G01*
G75*
G02*
X7704240Y5653400I-116840J0D01*
G01*
G75*
G02*
X7587400Y5770230I0J116830D01*
G01*
G75*
G02*
Y5770240I286480J10D01*
G01*
X7567080D01*
G75*
G02*
Y5770230I-286480J0D01*
G01*
G75*
G02*
X7346270Y5716940I-116840J0D01*
G01*
X6035480D01*
G37*
Y6405240D02*
G36*
X6035480Y6405240D02*
Y5823540D01*
X7346270D01*
G75*
G02*
X7567080Y5770250I103970J-53290D01*
G01*
G75*
G02*
Y5770240I-286480J0D01*
G01*
X7587400D01*
G75*
G02*
Y5770250I286480J10D01*
G01*
G75*
G02*
X7704240Y5887080I116840J0D01*
G01*
G75*
G02*
X7821080Y5770250I0J-116830D01*
G01*
G75*
G02*
Y5770240I-286480J0D01*
G01*
X7841400D01*
G75*
G02*
Y5770250I286480J10D01*
G01*
G75*
G02*
X7958240Y5887080I116840J0D01*
G01*
G75*
G02*
X8075080Y5770250I0J-116830D01*
G01*
G75*
G02*
Y5770240I-286480J0D01*
G01*
X8104120D01*
Y6405240D01*
X7832080D01*
G75*
G02*
X7598400I-116840J0D01*
G01*
X6035480D01*
G37*
Y6659240D02*
G36*
X6035480Y6659240D02*
Y6405240D01*
X7598400D01*
G75*
G02*
X7832080I116840J0D01*
G01*
X8104120D01*
Y6659240D01*
X7832080D01*
G75*
G02*
X7598400I-116840J0D01*
G01*
X6035480D01*
G37*
Y7285240D02*
G36*
X6035480Y7285240D02*
Y6659240D01*
X7598400D01*
G75*
G02*
X7832080I116840J0D01*
G01*
X8104120D01*
Y7285240D01*
X7931080D01*
G75*
G02*
Y7285230I-286480J0D01*
G01*
G75*
G02*
X7814240Y7168400I-116840J0D01*
G01*
G75*
G02*
X7697400Y7285230I0J116830D01*
G01*
G75*
G02*
Y7285240I286480J10D01*
G01*
X7677080D01*
G75*
G02*
Y7285230I-286480J0D01*
G01*
G75*
G02*
X7560240Y7168400I-116840J0D01*
G01*
G75*
G02*
X7443400Y7285230I0J116830D01*
G01*
G75*
G02*
Y7285240I286480J10D01*
G01*
X7016080D01*
G75*
G02*
Y7285230I-286480J0D01*
G01*
G75*
G02*
X6899240Y7168400I-116840J0D01*
G01*
G75*
G02*
X6782400Y7285230I0J116830D01*
G01*
G75*
G02*
Y7285240I286480J10D01*
G01*
X6762080D01*
G75*
G02*
Y7285230I-286480J0D01*
G01*
G75*
G02*
X6645240Y7168400I-116840J0D01*
G01*
G75*
G02*
X6528400Y7285230I0J116830D01*
G01*
G75*
G02*
Y7285240I286480J10D01*
G01*
X6035480D01*
G37*
Y8245240D02*
G36*
X6035480Y8245240D02*
Y7285240D01*
X6528400D01*
G75*
G02*
Y7285250I286480J10D01*
G01*
G75*
G02*
X6645240Y7402080I116840J0D01*
G01*
G75*
G02*
X6762080Y7285250I0J-116830D01*
G01*
G75*
G02*
Y7285240I-286480J0D01*
G01*
X6782400D01*
G75*
G02*
Y7285250I286480J10D01*
G01*
G75*
G02*
X6899240Y7402080I116840J0D01*
G01*
G75*
G02*
X7016080Y7285250I0J-116830D01*
G01*
G75*
G02*
Y7285240I-286480J0D01*
G01*
X7443400D01*
G75*
G02*
Y7285250I286480J10D01*
G01*
G75*
G02*
X7560240Y7402080I116840J0D01*
G01*
G75*
G02*
X7677080Y7285250I0J-116830D01*
G01*
G75*
G02*
Y7285240I-286480J0D01*
G01*
X7697400D01*
G75*
G02*
Y7285250I286480J10D01*
G01*
G75*
G02*
X7814240Y7402080I116840J0D01*
G01*
G75*
G02*
X7931080Y7285250I0J-116830D01*
G01*
G75*
G02*
Y7285240I-286480J0D01*
G01*
X8104120D01*
Y8245240D01*
X7868380D01*
G75*
G02*
X7565240Y7942100I-303140J0D01*
G01*
G75*
G02*
X7262100Y8245240I0J303140D01*
G01*
X6035480D01*
G37*
Y8679120D02*
G36*
X6035480Y8679120D02*
Y8245240D01*
X7262100D01*
G75*
G02*
X7565240Y8548380I303140J0D01*
G01*
G75*
G02*
X7868380Y8245240I0J-303140D01*
G01*
X8104120D01*
Y8679120D01*
X6035480D01*
G37*
X6153540Y2890940D02*
Y2843730D01*
G75*
G02*
X6269660Y2842190I56850J-91990D01*
G01*
G75*
G02*
X6282520Y2862960I50580J-16950D01*
G01*
X6325000Y2905440D01*
G75*
G02*
X6323800Y2920240I90260J14770D01*
G01*
G75*
G02*
X6323940Y2925240I91430J-60D01*
G01*
X6182470D01*
G75*
G02*
X6153540Y2890940I-82230J40000D01*
G01*
G36*
X6153540Y2890940D02*
Y2843730D01*
G75*
G02*
X6269660Y2842190I56850J-91990D01*
G01*
G75*
G02*
X6282520Y2862960I50580J-16950D01*
G01*
X6325000Y2905440D01*
G75*
G02*
X6323800Y2920240I90260J14770D01*
G01*
G75*
G02*
X6323940Y2925240I91430J-60D01*
G01*
X6182470D01*
G75*
G02*
X6153540Y2890940I-82230J40000D01*
G01*
G37*
D02*
D15*
X708740Y4350240D02*
X655400D01*
X708740Y4615240D02*
X655400D01*
X708740Y4880240D02*
X655400D01*
X708740Y5145240D02*
X655400D01*
X708740Y5505240D02*
X655400D01*
X708740Y5770240D02*
X655400D01*
X708740Y6035240D02*
X655400D01*
X772240Y4286740D02*
Y4233400D01*
Y4413740D02*
Y4467080D01*
Y4551740D02*
Y4498400D01*
Y4678740D02*
Y4732080D01*
Y4816740D02*
Y4763400D01*
Y4943740D02*
Y4997080D01*
Y5081740D02*
Y5028400D01*
Y5208740D02*
Y5262080D01*
Y5441740D02*
Y5388400D01*
Y5568740D02*
Y5622080D01*
Y5706740D02*
Y5653400D01*
Y5833740D02*
Y5887080D01*
Y5971740D02*
Y5918400D01*
Y6098740D02*
Y6152080D01*
X835740Y4350240D02*
X889080D01*
X835740Y4615240D02*
X889080D01*
X835740Y4880240D02*
X889080D01*
X835740Y5145240D02*
X889080D01*
X835740Y5505240D02*
X889080D01*
X835740Y5770240D02*
X889080D01*
X835740Y6035240D02*
X889080D01*
X862740Y3730240D02*
X809400D01*
X915440Y8245240D02*
X862100D01*
X915440D02*
X862100D01*
X926240Y3666740D02*
Y3613400D01*
Y3793740D02*
Y3847080D01*
X989740Y3730240D02*
X1043080D01*
X1165240Y7995440D02*
Y7942100D01*
Y8495040D02*
Y8548380D01*
Y8495040D02*
Y8548380D01*
X1415040Y8245240D02*
X1468380D01*
X1415040D02*
X1468380D01*
X1422940Y2150240D02*
X1369600D01*
X1422940D02*
X1369600D01*
X1520240Y2052940D02*
Y1999600D01*
Y2052940D02*
Y1999600D01*
Y2247540D02*
Y2300880D01*
Y2247540D02*
Y2300880D01*
X1617540Y2150240D02*
X1670880D01*
X1617540D02*
X1670880D01*
X2312940Y6485240D02*
X2259600D01*
X2410240Y6387940D02*
Y6334600D01*
Y6582540D02*
Y6635880D01*
X2507540Y6485240D02*
X2560880D01*
X2527390Y2990240D02*
X2405240D01*
X2260240Y2845240D01*
Y2730240D01*
X2400240Y2590240D01*
Y2530240D01*
X2530240Y2400240D01*
Y2181740D01*
X2527390D01*
X2770240Y4715240D02*
X3145240D01*
X3540240Y4320240D01*
X2905240Y4805240D02*
Y4800240D01*
X3220240D01*
X3655240Y4365240D01*
X3795240D01*
X3865240Y4435240D01*
X2975240Y4915240D02*
X3240240D01*
X3690240Y4465240D01*
X3215240Y5300240D02*
X2675240D01*
X2550240Y5175240D01*
Y4715240D01*
X2680240Y4585240D01*
X3045240D01*
X3220240Y4410240D01*
X3395240Y4910240D02*
X3675240Y4630240D01*
X3845240Y1591940D02*
Y1538640D01*
Y1708540D02*
Y1761840D01*
X3902540Y1650240D02*
X3955840D01*
X4610240Y2930240D02*
X4695240D01*
X4810240Y2815240D01*
Y2725240D01*
X4685240Y2600240D01*
Y2530240D01*
X4810240Y2405240D01*
Y2340240D01*
X4920240Y2230240D01*
X5018890D01*
X5067390Y2181740D01*
X4686390Y2371740D02*
X4663740D01*
X4590240Y2445240D01*
X4510240D01*
X4450240Y2505240D01*
Y2620240D01*
X4565240Y2735240D01*
Y2825240D01*
X4460240Y2930240D01*
Y2990240D01*
X5075240Y3605240D01*
X4785240Y3160240D02*
Y3090240D01*
X5065240Y2810240D01*
Y2725240D01*
X4940390Y2600390D01*
Y2371740D01*
X5485240Y1591940D02*
Y1538640D01*
Y1708540D02*
Y1761840D01*
X5542540Y1650240D02*
X5595840D01*
X5550240Y1900240D02*
X5205240D01*
X5085240Y1780240D01*
Y1650240D01*
X5956390Y2371740D02*
X5866740D01*
X5705240Y2210240D01*
Y2140240D01*
X5585240Y2020240D01*
X4985240D01*
X4885240Y1920240D01*
Y1650240D01*
X6083390Y2181740D02*
Y2410240D01*
X6215240Y2542090D01*
Y2595240D01*
X6320240Y2700240D01*
Y2825240D01*
X6415240Y2920240D01*
X6100240Y2965240D02*
Y2735240D01*
X5956390Y2591390D01*
Y2371740D01*
X6210390Y2316940D02*
Y2263600D01*
Y2316940D02*
Y2263600D01*
Y2806540D02*
Y2859880D01*
Y2806540D02*
Y2859880D01*
X6265190Y2371740D02*
X6318530D01*
X6265190D02*
X6318530D01*
X6282590Y2181740D02*
X6229250D01*
X6282590D02*
X6229250D01*
X6337390Y2126940D02*
Y2073600D01*
Y2126940D02*
Y2073600D01*
Y2236540D02*
Y2289880D01*
Y2236540D02*
Y2289880D01*
Y2506940D02*
Y2453600D01*
Y2506940D02*
Y2453600D01*
X6392190Y2181740D02*
X6445530D01*
X6392190Y2561740D02*
X6445530D01*
X6409590Y2371740D02*
X6356250D01*
X6409590D02*
X6356250D01*
X6464390Y2316940D02*
Y2263600D01*
Y2426540D02*
Y2479880D01*
Y2696940D02*
Y2643600D01*
X6519190Y2371740D02*
X6572530D01*
X6519190Y2751740D02*
X6572530D01*
X6536590Y2181740D02*
X6483250D01*
X6536590Y2561740D02*
X6483250D01*
X6591390Y2126940D02*
Y2073600D01*
Y2236540D02*
Y2289880D01*
Y2506940D02*
Y2453600D01*
Y2616540D02*
Y2669880D01*
X6646190Y2181740D02*
X6699530D01*
X6646190Y2561740D02*
X6699530D01*
X6663590Y2371740D02*
X6610250D01*
X6663590Y2751740D02*
X6610250D01*
X6718390Y2316940D02*
Y2263600D01*
Y2426540D02*
Y2479880D01*
Y2696940D02*
Y2643600D01*
Y2806540D02*
Y2859880D01*
X6773190Y2371740D02*
X6826530D01*
X6773190Y2751740D02*
X6826530D01*
X6790590Y2181740D02*
X6737250D01*
X6790590Y2561740D02*
X6737250D01*
X6845390Y2126940D02*
Y2073600D01*
Y2236540D02*
Y2289880D01*
Y2506940D02*
Y2453600D01*
Y2616540D02*
Y2669880D01*
X6900190Y2181740D02*
X6953530D01*
X6900190Y2561740D02*
X6953530D01*
X7450240Y4880240D02*
X7260240D01*
X7255240Y4875240D01*
X4940240D01*
X4685240Y4620240D01*
Y3360240D01*
X4360240Y3035240D01*
Y2930240D01*
X4432390Y2858090D01*
Y2751740D01*
X7450240Y5145240D02*
X4735240D01*
X4595240Y5005240D01*
Y3380240D01*
X4240240Y3025240D01*
Y2955240D01*
X7450240Y5505240D02*
X4630240D01*
X4505240Y5380240D01*
Y3405240D01*
X4050240Y2950240D01*
Y2720240D01*
X4180240Y2590240D01*
Y2535240D01*
X4055240Y2410240D01*
Y2340240D01*
X3895240Y2180240D01*
X3797390D01*
Y2181740D01*
X7450240Y5770240D02*
X4710240D01*
X4425240Y5485240D01*
Y3490240D01*
X3795240Y2860240D01*
Y2720240D01*
X3919390Y2596090D01*
Y2371740D01*
X3924390D01*
X7542940Y2720240D02*
X7489600D01*
X7542940Y3560240D02*
X7489600D01*
X7630240Y2632940D02*
Y2579600D01*
Y3647540D02*
Y3700880D01*
X7651740Y6659240D02*
X7598400D01*
X7715240Y6595740D02*
Y6542400D01*
Y6722740D02*
Y6776080D01*
X7717540Y2720240D02*
X7770880D01*
X7717540Y3560240D02*
X7770880D01*
X7778740Y6659240D02*
X7832080D01*
X7894740Y4350240D02*
X7841400D01*
X7894740Y4615240D02*
X7841400D01*
X7894740Y4880240D02*
X7841400D01*
X7894740Y5145240D02*
X7841400D01*
X7894740Y5505240D02*
X7841400D01*
X7894740Y5770240D02*
X7841400D01*
X7958240Y4286740D02*
Y4233400D01*
Y4413740D02*
Y4467080D01*
Y4551740D02*
Y4498400D01*
Y4678740D02*
Y4732080D01*
Y4816740D02*
Y4763400D01*
Y4943740D02*
Y4997080D01*
Y5081740D02*
Y5028400D01*
Y5208740D02*
Y5262080D01*
Y5441740D02*
Y5388400D01*
Y5568740D02*
Y5622080D01*
Y5706740D02*
Y5653400D01*
Y5833740D02*
Y5887080D01*
X8021740Y4350240D02*
X8075080D01*
X8021740Y4615240D02*
X8075080D01*
X8021740Y4880240D02*
X8075080D01*
X8021740Y5145240D02*
X8075080D01*
X8021740Y5505240D02*
X8075080D01*
X8021740Y5770240D02*
X8075080D01*
D02*
D16*
X926240Y3730240D02*
Y3589240D01*
X1095240Y3420240D01*
X3225240D01*
X3485240Y3160240D01*
X1165240Y8245240D02*
X1505240Y7905240D01*
Y7050240D01*
X770240Y6315240D01*
Y6035240D01*
X772240D01*
X1610240Y3185240D02*
Y2950240D01*
X1165240Y2505240D01*
Y1839240D01*
X1169240Y1835240D01*
X1610240Y3630240D02*
X2355240Y4375240D01*
Y4840240D01*
X1665240Y5890240D02*
Y6925240D01*
X1825240Y7085240D01*
Y7285240D01*
X1930240Y5330240D02*
X1211240D01*
X1026240Y5145240D01*
X2410240Y6485240D02*
X2605240Y6680240D01*
X2970240D01*
X2430240Y5745240D02*
X2585240Y5590240D01*
X3505240D01*
X4025240Y6110240D01*
X4265240D01*
X3845240Y1650240D02*
Y1870240D01*
X3770240Y1945240D01*
X2940240D01*
X2880240Y2005240D01*
X1665240D01*
X1520240Y2150240D01*
X4270240Y5720240D02*
X3845240D01*
X3580240Y5455240D01*
X2490240D01*
X2355240Y5320240D01*
Y4840240D01*
X5245240Y3160240D02*
X5575240D01*
X5815240Y3400240D01*
X7195240D01*
X7460240Y3135240D01*
X7630240D01*
Y3140240D01*
X5702390Y2751740D02*
Y2757440D01*
X5700240Y2759590D01*
Y3030240D01*
X5930240Y3260240D01*
X7165240D01*
X7485240Y2940240D01*
X7630240D01*
X7814240Y1835240D02*
Y2249240D01*
X7895240Y2330240D01*
Y3785240D01*
X7810240Y3870240D01*
X7260240D01*
X6645240Y4485240D01*
D02*
D19*
X1520240Y2150240D03*
X1610240Y3185240D03*
Y3630240D03*
X1665240Y5890240D03*
X1930240Y5330240D03*
X2355240Y4840240D03*
X2410240Y6485240D03*
X2430240Y5745240D03*
X2970240Y6680240D03*
X4265240Y6110240D03*
X4270240Y5720240D03*
X6645240Y4485240D03*
D02*
D21*
X2527390Y2990240D03*
X2770240Y4715240D03*
X2905240Y4805240D03*
X2975240Y4915240D03*
X3215240Y5300240D03*
X3220240Y4410240D03*
X3395240Y4910240D03*
X3540240Y4320240D03*
X3675240Y4630240D03*
X3690240Y4465240D03*
X3865240Y4435240D03*
X4240240Y2955240D03*
X4610240Y2930240D03*
X4785240Y3160240D03*
X5075240Y3605240D03*
X5550240Y1900240D03*
X6100240Y2965240D03*
X6415240Y2920240D03*
D02*
D22*
X3485240Y7930240D03*
X5245240D03*
D02*
D23*
X3845240Y1650240D03*
X5485240D03*
D02*
D24*
X3245240D03*
X3445240D03*
X3645240D03*
X4885240D03*
X5085240D03*
X5285240D03*
D02*
D25*
X772240Y4350240D03*
Y4615240D03*
Y4880240D03*
Y5145240D03*
Y5505240D03*
Y5770240D03*
Y6035240D03*
X915240Y1835240D03*
Y7285240D03*
X926240Y3730240D03*
X1026240Y4350240D03*
Y4615240D03*
Y4880240D03*
Y5145240D03*
Y5505240D03*
Y5770240D03*
Y6035240D03*
X1169240Y1835240D03*
Y7285240D03*
X1180240Y3730240D03*
X1280240Y4350240D03*
Y4615240D03*
Y4880240D03*
Y5145240D03*
Y5505240D03*
Y5770240D03*
Y6035240D03*
X1825240Y1835240D03*
Y7285240D03*
X2079240Y1835240D03*
Y7285240D03*
X6645240Y1835240D03*
Y7285240D03*
X6899240Y1835240D03*
Y7285240D03*
X7450240Y4350240D03*
Y4615240D03*
Y4880240D03*
Y5145240D03*
Y5505240D03*
Y5770240D03*
X7560240Y1835240D03*
Y7285240D03*
X7630240Y2940240D03*
Y3140240D03*
Y3340240D03*
X7704240Y4350240D03*
Y4615240D03*
Y4880240D03*
Y5145240D03*
Y5505240D03*
Y5770240D03*
X7715240Y6405240D03*
Y6659240D03*
X7814240Y1835240D03*
Y7285240D03*
X7958240Y4350240D03*
Y4615240D03*
Y4880240D03*
Y5145240D03*
Y5505240D03*
Y5770240D03*
D02*
D26*
X1892390Y2371740D03*
Y2751740D03*
X2019390Y2181740D03*
Y2561740D03*
X2146390Y2371740D03*
Y2751740D03*
X2273390Y2181740D03*
Y2561740D03*
X2400390Y2371740D03*
Y2751740D03*
X2527390Y2181740D03*
Y2561740D03*
X2654390Y2371740D03*
Y2751740D03*
X2781390Y2181740D03*
Y2561740D03*
X2908390Y2371740D03*
Y2751740D03*
X3035390Y2181740D03*
Y2561740D03*
X3162390Y2371740D03*
Y2751740D03*
X3289390Y2181740D03*
Y2561740D03*
X3416390Y2371740D03*
Y2751740D03*
X3543390Y2181740D03*
Y2561740D03*
X3670390Y2371740D03*
Y2751740D03*
X3797390Y2181740D03*
Y2561740D03*
X3924390Y2371740D03*
Y2751740D03*
X4051390Y2181740D03*
Y2561740D03*
X4178390Y2371740D03*
Y2751740D03*
X4305390Y2181740D03*
Y2561740D03*
X4432390Y2371740D03*
Y2751740D03*
X4559390Y2181740D03*
Y2561740D03*
X4686390Y2371740D03*
Y2751740D03*
X4813390Y2181740D03*
Y2561740D03*
X4940390Y2371740D03*
Y2751740D03*
X5067390Y2181740D03*
Y2561740D03*
X5194390Y2371740D03*
Y2751740D03*
X5321390Y2181740D03*
Y2561740D03*
X5448390Y2371740D03*
Y2751740D03*
X5575390Y2181740D03*
Y2561740D03*
X5702390Y2371740D03*
Y2751740D03*
X5829390Y2181740D03*
Y2561740D03*
X5956390Y2371740D03*
Y2751740D03*
X6083390Y2181740D03*
Y2561740D03*
X6210390Y2371740D03*
Y2751740D03*
X6337390Y2181740D03*
Y2561740D03*
X6464390Y2371740D03*
Y2751740D03*
X6591390Y2181740D03*
Y2561740D03*
X6718390Y2371740D03*
Y2751740D03*
X6845390Y2181740D03*
Y2561740D03*
D02*
D73*
X1165240Y8245240D03*
X2565240Y1620240D03*
X6165240D03*
X7565240Y8245240D03*
D02*
D74*
X3485240Y3160240D03*
Y3920240D03*
Y7170240D03*
Y7930240D03*
X5245240Y3160240D03*
Y3920240D03*
Y7170240D03*
Y7930240D03*
D02*
D75*
X7630240Y2720240D03*
Y3560240D03*
X0Y0D02*
M02*
